<svg width="216" height="188" viewBox="0 0 216 188" fill="none" xmlns="http://www.w3.org/2000/svg">
<path d="M111.104 35.339C116.252 28.9379 121.712 23.1613 127.485 18.0091C132.477 13.7937 138.133 9.96865 144.451 6.53389C150.77 3.09912 157.362 1.61593 164.226 2.08431C173.899 2.86494 181.973 5.16779 188.447 8.99286C194.922 12.8179 200.07 17.6578 203.893 23.5125C207.715 29.3672 210.328 36.0026 211.732 43.4185C213.137 50.8345 213.605 58.4456 213.137 66.2519C212.669 74.0582 211.303 81.5132 209.041 88.6169C206.779 95.7206 203.971 102.356 200.616 108.523C197.262 114.69 193.557 120.388 189.5 125.619C185.444 130.849 181.388 135.572 177.331 139.787C171.091 146.188 164.577 152.16 157.791 157.702C151.004 163.245 144.529 168.007 138.367 171.988C132.204 175.969 126.588 179.131 121.517 181.473C116.447 183.814 112.508 184.985 109.699 184.985C106.579 185.141 102.601 184.049 97.7643 181.707C92.9279 179.365 87.6234 176.203 81.8509 172.222C76.0784 168.241 69.9938 163.518 63.5973 158.054C57.2007 152.589 50.8821 146.813 44.6416 140.724C40.5852 136.821 36.2168 132.293 31.5364 127.141C26.856 121.989 22.4486 116.329 18.3142 110.162C14.1799 103.995 10.6306 97.3209 7.6663 90.1391C4.70203 82.9573 3.06389 75.3072 2.75186 67.1887C2.43983 59.0701 3.29791 51.459 5.32609 44.3553C7.35427 37.2516 10.3965 30.8895 14.4529 25.2689C18.5093 19.6484 23.5017 14.9256 29.4302 11.1006C35.3588 7.27548 42.0674 4.58232 49.556 3.02106C53.3004 2.24043 57.0447 2.12334 60.789 2.66978C64.5334 3.21622 68.1997 4.15297 71.788 5.48004C75.3763 6.80711 78.8086 8.48546 82.0849 10.5151C85.3612 12.5447 88.4815 14.6524 91.4457 16.8382C98.3104 21.9903 104.863 28.1573 111.104 35.339Z" fill="url(#paint0_linear_9084_42069)" fill-opacity="0.3" stroke="url(#paint1_radial_9084_42069)" stroke-width="2"/>
<path d="M105.102 91.7735C48.5248 91.7734 5.09327 87.6592 7.37921 80.6062C9.66515 73.5531 101.102 66.5 143.963 69.4388C186.824 72.3777 205.114 74.7286 208.542 80.6062C211.971 86.4837 161.679 91.7736 105.102 91.7735Z" fill="url(#paint2_linear_9084_42069)" stroke="url(#paint3_radial_9084_42069)" stroke-width="2"/>
<path fill-rule="evenodd" clip-rule="evenodd" d="M210.408 83.8599C209.996 85.4626 209.54 87.0482 209.04 88.6167C206.778 95.7204 203.97 102.356 200.616 108.523C197.261 114.69 193.556 120.388 189.5 125.618C185.443 130.849 181.387 135.571 177.33 139.787C171.09 146.188 164.576 152.16 157.79 157.702C151.003 163.245 144.529 168.007 138.366 171.988C132.203 175.969 126.587 179.13 121.517 181.472C116.446 183.814 112.507 184.985 109.698 184.985C106.578 185.141 102.6 184.048 97.7634 181.707C92.927 179.365 87.6225 176.203 81.85 172.222C76.0775 168.241 69.993 163.518 63.5964 158.054C57.1998 152.589 50.8813 146.813 44.6407 140.724C40.5843 136.82 36.2159 132.293 31.5355 127.141C26.8551 121.989 22.4477 116.329 18.3134 110.162C14.179 103.995 10.6297 97.3207 7.66541 90.1389C6.86004 88.1877 6.15256 86.2019 5.54297 84.1815L7.37858 80.606C5.09264 87.659 48.5242 91.7732 105.101 91.7733C161.617 91.7734 211.86 86.4951 208.553 80.6252L210.408 83.8599Z" fill="url(#paint4_linear_9084_42069)"/>
<path d="M210.408 83.8599L211.376 84.1089C211.441 83.8564 211.405 83.5886 211.275 83.3625L210.408 83.8599ZM209.04 88.6167L209.993 88.9202V88.9202L209.04 88.6167ZM200.616 108.523L199.737 108.045L200.616 108.523ZM189.5 125.618L188.709 125.006H188.709L189.5 125.618ZM177.33 139.787L178.047 140.485L178.051 140.48L177.33 139.787ZM121.517 181.472L121.097 180.565L121.517 181.472ZM109.698 184.985V183.985C109.682 183.985 109.665 183.986 109.649 183.986L109.698 184.985ZM97.7634 181.707L98.1992 180.807L97.7634 181.707ZM44.6407 140.724L45.3391 140.008L45.3341 140.003L44.6407 140.724ZM18.3134 110.162L17.4827 110.719L18.3134 110.162ZM7.66541 90.1389L8.58977 89.7574L7.66541 90.1389ZM5.54297 84.1815L4.65335 83.7248C4.53508 83.9552 4.51079 84.2224 4.5856 84.4704L5.54297 84.1815ZM7.37858 80.606L8.32987 80.9143C8.49054 80.4185 8.24356 79.8825 7.76234 79.6825C7.28111 79.4825 6.72697 79.6856 6.48897 80.1492L7.37858 80.606ZM105.101 91.7733V90.7733V91.7733ZM208.553 80.6252L209.42 80.1278C209.146 79.6499 208.537 79.4836 208.059 79.7558C207.58 80.028 207.411 80.6362 207.682 81.1161L208.553 80.6252ZM209.439 83.6109C209.032 85.1954 208.581 86.7629 208.087 88.3133L209.993 88.9202C210.498 87.3336 210.959 85.7298 211.376 84.1089L209.439 83.6109ZM208.087 88.3133C205.843 95.3604 203.059 101.937 199.737 108.045L201.494 109.001C204.88 102.775 207.713 96.0805 209.993 88.9202L208.087 88.3133ZM199.737 108.045C196.407 114.167 192.731 119.82 188.709 125.006L190.29 126.231C194.381 120.956 198.116 115.212 201.494 109.001L199.737 108.045ZM188.709 125.006C184.672 130.211 180.639 134.907 176.61 139.093L178.051 140.48C182.135 136.236 186.214 131.486 190.29 126.231L188.709 125.006ZM176.614 139.089C170.4 145.463 163.914 151.41 157.157 156.928L158.422 158.477C165.239 152.91 171.78 146.913 178.047 140.485L176.614 139.089ZM157.157 156.928C150.394 162.451 143.949 167.19 137.823 171.148L138.909 172.828C145.108 168.823 151.612 164.038 158.422 158.477L157.157 156.928ZM137.823 171.148C131.689 175.111 126.114 178.247 121.097 180.565L121.936 182.38C127.06 180.014 132.718 176.827 138.909 172.828L137.823 171.148ZM121.097 180.565C116.053 182.894 112.279 183.985 109.698 183.985V185.985C112.734 185.985 116.839 184.734 121.936 182.38L121.097 180.565ZM109.649 183.986C106.776 184.13 102.979 183.121 98.1992 180.807L97.3276 182.607C102.22 184.976 106.38 186.153 109.748 185.984L109.649 183.986ZM98.1992 180.807C93.4201 178.492 88.1602 175.359 82.4178 171.399L81.2823 173.045C87.0848 177.047 92.4339 180.237 97.3276 182.607L98.1992 180.807ZM82.4178 171.399C76.6785 167.44 70.6213 162.74 64.2459 157.293L62.9468 158.814C69.3646 164.296 75.4765 169.041 81.2823 173.045L82.4178 171.399ZM64.2459 157.293C57.8667 151.844 51.5644 146.082 45.3391 140.008L43.9423 141.439C50.1981 147.543 56.5329 153.335 62.9468 158.814L64.2459 157.293ZM45.3341 140.003C41.2971 136.119 36.9444 131.608 32.2757 126.468L30.7954 127.813C35.4875 132.978 39.8716 137.522 43.9473 141.444L45.3341 140.003ZM32.2757 126.468C27.6303 121.355 23.2529 115.734 19.144 109.605L17.4827 110.719C21.6426 116.924 26.0799 122.622 30.7954 127.813L32.2757 126.468ZM19.144 109.605C15.0483 103.496 11.5299 96.8806 8.58977 89.7574L6.74105 90.5205C9.72949 97.7608 13.3097 104.494 17.4827 110.719L19.144 109.605ZM8.58977 89.7574C7.79691 87.8365 7.10045 85.8816 6.50034 83.8926L4.5856 84.4704C5.20467 86.5222 5.92317 88.5389 6.74105 90.5205L8.58977 89.7574ZM6.48897 80.1492L4.65335 83.7248L6.43258 84.6382L8.2682 81.0627L6.48897 80.1492ZM105.101 90.7733C76.8299 90.7733 51.8677 89.745 34.2739 87.8403C25.4667 86.8868 18.557 85.7188 14.0121 84.3678C11.7255 83.6881 10.1285 82.9876 9.19016 82.303C8.72458 81.9633 8.48366 81.672 8.37428 81.4507C8.27982 81.2595 8.26986 81.0994 8.32987 80.9143L6.4273 80.2976C6.20156 80.9941 6.26303 81.6927 6.58125 82.3367C6.88456 82.9505 7.3976 83.4708 8.01133 83.9186C9.23159 84.809 11.0946 85.5871 13.4423 86.2849C18.1659 87.689 25.2216 88.872 34.0587 89.8287C51.7535 91.7443 76.7956 92.7733 105.101 92.7733V90.7733ZM207.682 81.1161C207.716 81.1773 207.716 81.1725 207.682 81.233C207.607 81.3692 207.384 81.6158 206.858 81.9338C205.821 82.5606 204.028 83.2196 201.482 83.875C196.426 85.1768 188.747 86.3809 179.154 87.4061C159.986 89.4548 133.333 90.7733 105.101 90.7733V92.7733C133.385 92.7733 160.111 91.4528 179.367 89.3948C188.986 88.3667 196.781 87.1506 201.981 85.8119C204.563 85.147 206.594 84.4306 207.893 83.6452C208.534 83.2572 209.107 82.7885 209.432 82.2024C209.798 81.5408 209.803 80.8069 209.424 80.1343L207.682 81.1161ZM211.275 83.3625L209.42 80.1278L207.685 81.1226L209.54 84.3573L211.275 83.3625ZM209.42 80.1279L209.409 80.1086L207.674 81.1033L207.685 81.1225L209.42 80.1279Z" fill="url(#paint5_radial_9084_42069)" fill-opacity="0.5"/>
<path d="M126.84 17.245L126.829 17.2539L126.819 17.2631C121.283 22.2044 116.035 27.713 111.074 33.7875C105.027 26.939 98.6851 21.0212 92.046 16.0383L92.0392 16.0333C89.0523 13.8309 85.9097 11.7081 82.6115 9.66499C79.2788 7.60041 75.7863 5.89255 72.1349 4.54212C68.4818 3.1911 64.7476 2.2369 60.9334 1.68026C57.0719 1.11672 53.2096 1.23784 49.3519 2.04211C41.7532 3.62631 34.9282 6.3632 28.8881 10.2603C22.8568 14.1517 17.7726 18.9604 13.642 24.6837C9.51344 30.4043 6.42242 36.8729 4.36451 44.0808C2.30456 51.2957 1.43691 59.0134 1.7526 67.2271C2.06895 75.458 3.73063 83.2249 6.74194 90.5206C9.73038 97.761 13.3106 104.494 17.4836 110.719C21.6435 116.924 26.0808 122.623 30.7962 127.813C35.4875 132.977 39.8708 137.521 43.9459 141.442C50.2008 147.545 56.5347 153.336 62.9477 158.814C69.3655 164.297 75.4774 169.041 81.2831 173.045C87.0857 177.047 92.4348 180.237 97.3285 182.607C102.209 184.97 106.36 186.147 109.724 185.985C112.758 185.978 116.854 184.728 121.937 182.38C127.061 180.014 132.719 176.827 138.91 172.828C145.109 168.823 151.613 164.039 158.423 158.477C165.24 152.91 171.781 146.913 178.047 140.485L178.052 140.48C182.136 136.236 186.215 131.486 190.291 126.231C194.382 120.956 198.116 115.212 201.495 109.001C204.881 102.775 207.714 96.0807 209.994 88.9203C212.283 81.7338 213.662 74.1967 214.135 66.3118C214.608 58.4262 214.135 50.7324 212.715 43.2325C211.288 35.6983 208.629 28.9386 204.73 22.9659C200.818 16.973 195.553 12.0291 188.956 8.13189C182.319 4.21062 174.088 1.87696 164.307 1.08755V1.08747L164.294 1.08663C157.231 0.604719 150.451 2.13414 143.974 5.65531C137.602 9.11926 131.889 12.9818 126.84 17.245Z" stroke="url(#paint6_radial_9084_42069)" stroke-width="2"/>
<path d="M42.332 126.231C42.332 126.231 44.7935 122.128 46.4345 121.308C48.0755 120.487 48.896 122.128 49.7164 121.308C50.5369 120.487 54.6394 113.923 57.9214 113.103C61.2033 112.282 72.6902 103.257 72.6902 103.257" stroke="url(#paint7_linear_9084_42069)" stroke-linecap="round"/>
<path d="M51.3682 119.667C51.3682 119.667 55.759 121.698 57.101 122.949C58.443 124.2 65.0723 125.232 66.1277 125.714" stroke="url(#paint8_linear_9084_42069)" stroke-linecap="round"/>
<path d="M49.7299 122.124C49.7299 122.124 50.6485 125.004 51.3709 126.227C52.0933 127.449 54.1609 129.765 54.6391 130.333" stroke="url(#paint9_linear_9084_42069)" stroke-linecap="round"/>
<path d="M55.2841 136.898C55.7623 136.33 57.7278 136.075 59.383 134.436C61.0383 132.796 61.0243 132.795 62.6644 131.974C64.3044 131.154 65.9463 131.154 65.9463 131.154" stroke="url(#paint10_linear_9084_42069)" stroke-linecap="round"/>
<path d="M54.4654 136.389C54.812 137.046 55.6513 136.584 56.9202 138.538C58.1892 140.492 57.96 139.848 59.3881 140.999C60.8163 142.149 61.8489 143.46 61.8489 143.46" stroke="url(#paint11_linear_9084_42069)" stroke-linecap="round"/>
<path d="M57.7384 131.974C57.7384 133.615 56.5364 136.297 56.0996 136.897" stroke="url(#paint12_linear_9084_42069)" stroke-linecap="round"/>
<path d="M69.408 115.564C69.408 115.564 67.0746 118.228 65.2452 118.366C63.4157 118.505 58.1625 122.678 57.0925 123.127" stroke="url(#paint13_linear_9084_42069)" stroke-linecap="round"/>
<path d="M50.5296 105.719C50.5296 105.719 52.1775 107.36 52.1769 110.641C52.1764 113.923 53.0489 114.405 53.0005 115.564" stroke="url(#paint14_linear_9084_42069)" stroke-linecap="round"/>
<path d="M40.6904 106.16C40.6904 106.16 43.1527 107.36 44.7937 109C46.4347 110.641 50.2635 111.073 51.3569 111.462" stroke="url(#paint15_linear_9084_42069)" stroke-linecap="round"/>
<path d="M41.8769 132.15C42.5456 128.224 43.2143 124.297 46.5575 122.334C49.9008 120.37 52.5755 127.57 53.2442 130.842C53.9128 134.114 55.2521 139.35 55.9188 143.276C56.5855 147.203 57.2541 158.329 55.9188 158.983C54.5835 159.638 54.5795 156.365 53.9128 156.365C53.2461 156.366 54.5795 174.036 53.2442 174.69C51.9088 175.345 50.5675 175.345 49.2322 170.763C47.8968 166.182 49.2302 153.093 48.5635 153.093C47.8968 153.093 47.8909 159.638 45.8869 158.983C43.8829 158.329 45.2182 149.821 44.5515 149.821C43.8849 149.821 43.8809 155.711 43.2122 155.056C42.5436 154.402 42.5436 145.894 42.5436 143.276C42.5436 140.659 41.2082 136.077 41.8769 132.151L41.8769 132.15Z" fill="url(#paint16_linear_9084_42069)"/>
<path d="M43.6895 166.875C43.6895 164.917 46.3561 162.306 46.3561 162.306C46.3561 162.306 46.3561 168.181 45.6895 168.834C45.0228 169.486 43.6895 168.834 43.6895 166.875Z" fill="url(#paint17_linear_9084_42069)"/>
<path d="M55.6895 166.875C54.3561 166.222 55.0228 161 55.0228 161C55.0228 161 57.6895 165.57 57.6895 166.222C57.6895 166.875 57.0228 167.528 55.6895 166.875Z" fill="url(#paint18_linear_9084_42069)"/>
<path d="M48.3561 185.153C48.3561 182.542 51.0228 177.973 51.0228 177.973C51.0228 177.973 52.3561 181.889 53.0228 183.195C53.6895 184.501 53.6895 187.112 52.3561 187.765C51.0228 188.417 48.3561 187.765 48.3561 185.153Z" fill="url(#paint19_linear_9084_42069)"/>
<defs>
<linearGradient id="paint0_linear_9084_42069" x1="108.001" y1="2" x2="108.001" y2="185" gradientUnits="userSpaceOnUse">
<stop stop-color="#EFE1DB"/>
<stop offset="0.411458" stop-color="#F36E8A"/>
</linearGradient>
<radialGradient id="paint1_radial_9084_42069" cx="0" cy="0" r="1" gradientUnits="userSpaceOnUse" gradientTransform="translate(108.001 93.5) rotate(89.6903) scale(106.464 103.084)">
<stop stop-color="white"/>
<stop offset="1" stop-color="white"/>
</radialGradient>
<linearGradient id="paint2_linear_9084_42069" x1="108.001" y1="68.7546" x2="108.001" y2="91.7735" gradientUnits="userSpaceOnUse">
<stop stop-color="#E7494C"/>
<stop offset="1" stop-color="#D65662"/>
</linearGradient>
<radialGradient id="paint3_radial_9084_42069" cx="0" cy="0" r="1" gradientUnits="userSpaceOnUse" gradientTransform="translate(108.001 80.2641) rotate(90) scale(11.5094 100.708)">
<stop stop-color="#FBA8B1"/>
<stop offset="1" stop-color="#CA525C"/>
</radialGradient>
<linearGradient id="paint4_linear_9084_42069" x1="18.2259" y1="118.821" x2="198.349" y2="166.01" gradientUnits="userSpaceOnUse">
<stop stop-color="#F17178"/>
<stop offset="0.385417" stop-color="#DD313D"/>
<stop offset="0.78125" stop-color="#D35668"/>
<stop offset="1" stop-color="#C64B59"/>
</linearGradient>
<radialGradient id="paint5_radial_9084_42069" cx="0" cy="0" r="1" gradientUnits="userSpaceOnUse" gradientTransform="translate(108 80.264) rotate(90) scale(11.5094 100.708)">
<stop stop-color="#FBA8B1"/>
<stop offset="1" stop-color="#DD2934"/>
</radialGradient>
<radialGradient id="paint6_radial_9084_42069" cx="0" cy="0" r="1" gradientUnits="userSpaceOnUse" gradientTransform="translate(108.001 93.5) rotate(89.6903) scale(106.464 103.084)">
<stop stop-color="white"/>
<stop offset="1" stop-color="white"/>
</radialGradient>
<linearGradient id="paint7_linear_9084_42069" x1="73.5107" y1="104.078" x2="42.332" y2="127.051" gradientUnits="userSpaceOnUse">
<stop stop-color="white" stop-opacity="0"/>
<stop offset="0.463542" stop-color="white"/>
<stop offset="1" stop-color="white" stop-opacity="0"/>
</linearGradient>
<linearGradient id="paint8_linear_9084_42069" x1="66.9469" y1="126.231" x2="51.3576" y2="119.667" gradientUnits="userSpaceOnUse">
<stop stop-color="white" stop-opacity="0"/>
<stop offset="0.463542" stop-color="white"/>
<stop offset="1" stop-color="white" stop-opacity="0"/>
</linearGradient>
<linearGradient id="paint9_linear_9084_42069" x1="54.6387" y1="131.154" x2="47.9018" y2="130.338" gradientUnits="userSpaceOnUse">
<stop stop-color="white" stop-opacity="0"/>
<stop offset="0.463542" stop-color="white"/>
<stop offset="1" stop-color="white" stop-opacity="0"/>
</linearGradient>
<linearGradient id="paint10_linear_9084_42069" x1="54.4585" y1="136.897" x2="62.2273" y2="140.621" gradientUnits="userSpaceOnUse">
<stop offset="0.0310229" stop-color="white" stop-opacity="0"/>
<stop offset="0.463542" stop-color="white"/>
<stop offset="1" stop-color="white" stop-opacity="0"/>
</linearGradient>
<linearGradient id="paint11_linear_9084_42069" x1="54.4588" y1="136.077" x2="61.0513" y2="135.427" gradientUnits="userSpaceOnUse">
<stop offset="0.0310229" stop-color="white" stop-opacity="0"/>
<stop offset="0.463542" stop-color="white" stop-opacity="0.6"/>
<stop offset="1" stop-color="white" stop-opacity="0"/>
</linearGradient>
<linearGradient id="paint12_linear_9084_42069" x1="56.0996" y1="136.897" x2="53.9434" y2="133.781" gradientUnits="userSpaceOnUse">
<stop offset="0.0310229" stop-color="white" stop-opacity="0"/>
<stop offset="0.463542" stop-color="white" stop-opacity="0.6"/>
<stop offset="1" stop-color="white" stop-opacity="0"/>
</linearGradient>
<linearGradient id="paint13_linear_9084_42069" x1="56.1641" y1="123.38" x2="71.5582" y2="116.371" gradientUnits="userSpaceOnUse">
<stop stop-color="white" stop-opacity="0"/>
<stop offset="0.463542" stop-color="white" stop-opacity="0.6"/>
<stop offset="1" stop-color="white" stop-opacity="0"/>
</linearGradient>
<linearGradient id="paint14_linear_9084_42069" x1="53.8184" y1="116.385" x2="50.5365" y2="105.719" gradientUnits="userSpaceOnUse">
<stop stop-color="white" stop-opacity="0"/>
<stop offset="0.463542" stop-color="white" stop-opacity="0.6"/>
<stop offset="1" stop-color="white" stop-opacity="0"/>
</linearGradient>
<linearGradient id="paint15_linear_9084_42069" x1="49.3574" y1="113.197" x2="40.6902" y2="106.167" gradientUnits="userSpaceOnUse">
<stop stop-color="white" stop-opacity="0"/>
<stop offset="0.463542" stop-color="white" stop-opacity="0.6"/>
<stop offset="1" stop-color="white" stop-opacity="0"/>
</linearGradient>
<linearGradient id="paint16_linear_9084_42069" x1="49.1895" y1="122" x2="49.1895" y2="175" gradientUnits="userSpaceOnUse">
<stop stop-color="#D84252"/>
<stop offset="0.442708" stop-color="#DC2731"/>
<stop offset="0.84375" stop-color="#EF6B72"/>
</linearGradient>
<linearGradient id="paint17_linear_9084_42069" x1="50.6895" y1="161" x2="50.6895" y2="188" gradientUnits="userSpaceOnUse">
<stop stop-color="#BF232E"/>
<stop offset="0.484375" stop-color="#D84252"/>
<stop offset="1" stop-color="#DC2731"/>
</linearGradient>
<linearGradient id="paint18_linear_9084_42069" x1="50.6895" y1="161" x2="50.6895" y2="188" gradientUnits="userSpaceOnUse">
<stop stop-color="#BF232E"/>
<stop offset="0.484375" stop-color="#D84252"/>
<stop offset="1" stop-color="#DC2731"/>
</linearGradient>
<linearGradient id="paint19_linear_9084_42069" x1="50.6895" y1="161" x2="50.6895" y2="188" gradientUnits="userSpaceOnUse">
<stop stop-color="#BF232E"/>
<stop offset="0.484375" stop-color="#D84252"/>
<stop offset="1" stop-color="#DC2731"/>
</linearGradient>
</defs>
</svg>
