<svg width="175" height="264" viewBox="0 0 175 264" fill="none" xmlns="http://www.w3.org/2000/svg">
<path d="M147.742 116.832L5.85527 64.7019C5.61666 64.5828 5.34016 64.5343 5.04939 64.5605C4.75862 64.5867 4.46221 64.6869 4.18547 64.8524V64.8524L4.04193 64.9715L2.47908 66.2455L3.36247 67.3394L2.55598 165.654C2.59554 166.532 2.83894 167.34 3.26645 168.013C3.69395 168.685 4.29352 169.204 5.0165 169.525L146.708 221.602L146.898 222.864L148.636 221.447C148.895 221.205 149.101 220.908 149.234 220.587C149.366 220.266 149.421 219.932 149.391 219.62L150.202 120.703C150.163 119.825 149.919 119.017 149.492 118.344C149.064 117.672 148.465 117.153 147.742 116.832V116.832Z" fill="#D6D8E5"/>
<path d="M148.458 122.126L147.647 221.038C147.633 222.665 146.517 223.583 145.138 223.078L3.25136 170.943C2.52837 170.621 1.92881 170.103 1.5013 169.43C1.0738 168.757 0.830393 167.949 0.79083 167.071L1.60218 68.1654C1.61552 66.5383 2.73725 65.6132 4.11125 66.1197L145.998 118.255C146.721 118.576 147.322 119.093 147.749 119.766C148.177 120.439 148.42 121.248 148.458 122.126V122.126Z" fill="#FAFBFC"/>
<path d="M94.2169 114.678L7.09623 82.6649L7.13867 77.4907L94.2593 109.504L94.2169 114.678Z" fill="#E9EAF2"/>
<path d="M89.647 119.453L7.04323 89.0972L7.06445 86.5101L89.6682 116.866L89.647 119.453Z" fill="#E9EAF2"/>
<path d="M79.9971 120.554L7.00612 93.7291L7.02734 91.142L80.0183 117.967L79.9971 120.554Z" fill="#E9EAF2"/>
<path d="M75.3221 123.48L6.96901 98.3663L6.99023 95.7792L75.3433 120.893L75.3221 123.48Z" fill="#E9EAF2"/>
<path d="M142.205 170.916L110.192 159.153L110.234 153.979L142.247 165.737L142.205 170.916Z" fill="#E9EAF2"/>
<path d="M140.492 176.739L110.137 165.585L110.158 162.998L140.513 174.152L140.492 176.739Z" fill="#E9EAF2"/>
<path d="M136.922 180.075L110.1 170.217L110.121 167.63L136.943 177.488L136.922 180.075Z" fill="#E9EAF2"/>
<path d="M135.177 184.08L110.061 174.854L110.082 172.267L135.199 181.493L135.177 184.08Z" fill="#E9EAF2"/>
<path d="M93.9883 142.729L6.86771 110.716L6.91016 105.542L94.0308 137.555L93.9883 142.729Z" fill="#E9EAF2"/>
<path d="M89.4185 147.504L6.81467 117.154L6.83594 114.561L89.4397 144.917L89.4185 147.504Z" fill="#E9EAF2"/>
<path d="M79.7666 148.605L6.77565 121.785L6.79688 119.198L79.7879 146.018L79.7666 148.605Z" fill="#E9EAF2"/>
<path d="M75.0916 151.536L6.73854 126.418L6.75977 123.83L75.1128 148.944L75.0916 151.536Z" fill="#E9EAF2"/>
<path d="M93.7578 170.786L6.6372 138.772L6.67969 133.593L93.8003 165.612L93.7578 170.786Z" fill="#E9EAF2"/>
<path d="M89.1861 175.561L6.58229 145.205L6.60352 142.618L89.2073 172.968L89.1861 175.561Z" fill="#E9EAF2"/>
<path d="M79.5381 176.662L6.54714 149.837L6.56836 147.25L79.5593 174.069L79.5381 176.662Z" fill="#E9EAF2"/>
<path d="M74.8611 179.587L6.50803 154.474L6.5293 151.881L74.8823 177L74.8611 179.587Z" fill="#E9EAF2"/>
<path d="M93.5274 198.837L6.40677 166.824L6.44922 161.65L93.5698 193.663L93.5274 198.837Z" fill="#E9EAF2"/>
<path d="M88.9841 201.023L88.9724 202.444L6.36334 172.09L6.375 170.669L88.9841 201.023Z" fill="#E9EAF2"/>
<path d="M141.292 160.111L111.285 149.079C110.983 148.924 110.737 148.686 110.566 148.386C110.396 148.085 110.305 147.73 110.301 147.348L110.551 116.85C110.557 116.097 111.01 115.664 111.557 115.849L141.565 126.88C141.866 127.036 142.112 127.273 142.283 127.574C142.454 127.874 142.545 128.23 142.548 128.612L142.298 159.109C142.292 159.863 141.839 160.312 141.292 160.111Z" fill="#E9EAF2"/>
<path d="M147.957 90.6519L6.07049 38.5168C5.84294 38.4048 5.578 38.3636 5.30061 38.397C5.02322 38.4304 4.74249 38.5373 4.48484 38.7077V38.7077L4.45311 38.7149L2.8586 39.9852L3.54737 40.9878L3.41581 57.0256C3.40037 58.9076 4.5039 60.845 5.87799 61.3407L147.464 113.376L147.527 114.726L149.339 113.298L149.382 113.261L149.435 113.222C149.967 112.783 150.274 111.998 150.282 110.99L150.413 94.9845C150.429 93.0971 149.325 91.1597 147.957 90.6519Z" fill="#D6D8E5"/>
<path d="M146.028 114.865L4.14132 62.73C2.76732 62.2235 1.66908 60.2849 1.68443 58.4137L1.8156 42.4248C1.83103 40.5428 2.95436 39.4224 4.3284 39.9235L146.215 92.037C147.589 92.5436 148.692 94.481 148.677 96.3521L148.546 112.357C148.53 114.25 147.402 115.366 146.028 114.865Z" fill="#FAFBFC"/>
<path d="M141.736 106.091L8.30405 57.0669C8.00429 56.91 7.76064 56.6715 7.59258 56.3701C7.42451 56.0688 7.3367 55.7132 7.33616 55.3316L7.38332 49.5825C7.3895 48.8286 7.83658 48.3972 8.38951 48.5807L141.805 97.6141C142.108 97.7689 142.354 98.0062 142.525 98.3069C142.696 98.6076 142.786 98.9634 142.789 99.3458L142.742 105.089C142.736 105.849 142.283 106.298 141.736 106.091Z" fill="#E9EAF2"/>
<path d="M141.985 106.187L133.356 103.013L133.426 94.5355L142.054 97.7044C142.357 97.8591 142.603 98.0964 142.774 98.3971C142.945 98.6978 143.035 99.0537 143.038 99.4361L142.991 105.185C142.985 105.939 142.532 106.404 141.985 106.187Z" fill="#8C50FF"/>
<path d="M11.8209 53.9814C11.5254 53.7921 11.2661 53.5538 11.0505 53.2733C10.9074 53.0721 10.8292 52.8204 10.8241 52.545C10.8265 52.2557 10.9232 52.0534 11.1142 51.938C11.2445 51.8767 11.3798 51.8442 11.5103 51.8427C11.6409 51.8412 11.7635 51.8709 11.8694 51.9295C12.2866 52.0848 12.6149 52.3895 12.8074 52.8C12.8943 52.9812 12.9394 53.1885 12.9397 53.4088L12.5344 53.2569C12.5356 53.0366 12.4769 52.8343 12.3649 52.6727C12.2412 52.4996 12.0697 52.3727 11.8663 52.3037C11.8013 52.2666 11.7267 52.2458 11.6469 52.2425C11.5671 52.2391 11.4837 52.2534 11.4018 52.2843C11.2904 52.3474 11.2313 52.4745 11.2298 52.6589C11.2341 52.8276 11.2881 52.9794 11.3846 53.0948C11.5328 53.2843 11.709 53.4464 11.9087 53.5772C12.1329 53.7222 12.3416 53.8886 12.533 54.0747C12.6628 54.2098 12.7699 54.3677 12.8512 54.5441C12.9171 54.7012 12.9498 54.8777 12.9473 55.0637C12.9449 55.3566 12.8482 55.5571 12.6519 55.6719C12.3774 55.7758 12.0987 55.7688 11.8758 55.6526C11.6572 55.568 11.459 55.4469 11.2874 55.2931C11.1164 55.1405 10.9755 54.9551 10.8695 54.7434C10.7777 54.5588 10.729 54.3467 10.7267 54.1207L11.1321 54.2726C11.1337 54.5017 11.2039 54.7087 11.3331 54.8659C11.4661 55.0543 11.6453 55.1986 11.8577 55.2886C11.9987 55.3626 12.1737 55.3712 12.3485 55.3128C12.4652 55.2485 12.519 55.1281 12.5205 54.9491C12.5206 54.7686 12.4667 54.6051 12.3659 54.4806C12.208 54.2883 12.0251 54.1208 11.8209 53.9814V53.9814Z" fill="#B0B3C1"/>
<path d="M14.3392 56.584C14.0221 56.4617 13.7629 56.2416 13.5893 55.947C13.4018 55.6422 13.3048 55.2727 13.3077 54.8739L13.3084 54.7925C13.2993 54.5718 13.3467 54.3391 13.446 54.1172C13.4811 54.0375 13.5322 53.9636 13.5951 53.9014C13.658 53.8392 13.7309 53.7905 13.8079 53.7592C13.9929 53.6878 14.1813 53.6877 14.336 53.7588C14.6326 53.8676 14.8714 54.0753 15.0228 54.3559C15.1904 54.673 15.2725 55.0461 15.262 55.444L15.2606 55.623L13.6757 55.0775C13.6795 55.3433 13.7444 55.59 13.8651 55.798C13.97 55.998 14.1355 56.1484 14.3421 56.2314C14.4442 56.2804 14.5658 56.2907 14.6904 56.2609C14.7859 56.2306 14.8759 56.1681 14.9453 56.0841L15.1803 56.3936C15.0092 56.6543 14.7182 56.7256 14.3392 56.584ZM14.3117 54.1432C14.2561 54.1117 14.189 54.1003 14.1187 54.1105C14.0483 54.1206 13.9776 54.1519 13.9152 54.2005C13.8512 54.2712 13.8001 54.3527 13.7656 54.4391C13.7311 54.5256 13.7141 54.6148 13.7157 54.7004L14.8528 55.1198L14.8531 55.0818C14.8496 54.8595 14.7953 54.6531 14.6944 54.4789C14.6092 54.3225 14.4764 54.206 14.3117 54.1432V54.1432Z" fill="#B0B3C1"/>
<path d="M17.0827 57.5385C17.0515 57.4438 17.0328 57.3425 17.0271 57.2371C16.9247 57.3155 16.8094 57.3664 16.6944 57.3838C16.5793 57.4012 16.4693 57.3845 16.3769 57.3355C16.162 57.2494 15.9821 57.1044 15.8523 56.9128C15.7157 56.738 15.6423 56.5116 15.6411 56.2622C15.6435 55.9802 15.7347 55.7972 15.915 55.7076C16.1866 55.6188 16.4576 55.6347 16.675 55.7522L17.054 55.8884L17.0558 55.6769C17.0568 55.5167 17.0161 55.3689 16.9378 55.2488C16.8525 55.1183 16.7293 55.0228 16.5811 54.9723C16.4784 54.9221 16.3514 54.9217 16.2273 54.9711C16.183 54.9948 16.1447 55.0327 16.1192 55.0781C16.0937 55.1235 16.0826 55.1735 16.088 55.2192L15.6931 55.0757C15.6913 55.0172 15.7013 54.9561 15.7227 54.8963C15.7441 54.8365 15.7764 54.7793 15.8174 54.7282C15.8632 54.6778 15.9165 54.6359 15.9741 54.6051C16.0317 54.5744 16.0921 54.5555 16.1515 54.5497C16.3129 54.5321 16.4679 54.5525 16.6051 54.6095C16.8567 54.6936 17.0681 54.8508 17.2192 55.0661C17.3632 55.2666 17.4415 55.5185 17.4455 55.7944L17.4353 57.0418C17.4294 57.2589 17.4543 57.4685 17.5094 57.6639L17.5091 57.7018L17.0827 57.5385ZM16.4378 56.9806C16.5417 57.0238 16.6633 57.0285 16.7862 56.9938C16.8354 56.981 16.8835 56.9553 16.9255 56.9192C16.9675 56.883 17.002 56.8378 17.0255 56.7881L17.03 56.2457L16.7247 56.1307C16.2509 55.9564 16.0126 56.0374 16.0099 56.3683C16.008 56.5152 16.0492 56.6492 16.1282 56.7529C16.2062 56.8589 16.3124 56.937 16.4378 56.9806Z" fill="#B0B3C1"/>
<path d="M19.1319 56.0027C19.0719 55.9669 19.0086 55.936 18.9426 55.9102C18.6899 55.8158 18.5134 55.8828 18.4129 56.1113L18.3972 58.0312L18.0129 57.8854L18.0352 55.1736L18.4089 55.311L18.4064 55.6255C18.5346 55.4341 18.7146 55.3771 18.9357 55.4679C18.9985 55.4892 19.0553 55.522 19.1038 55.5652L19.1319 56.0027Z" fill="#B0B3C1"/>
<path d="M20.3472 58.4126C20.3992 58.4386 20.4589 58.4505 20.5219 58.4474C20.585 58.4444 20.6498 58.4265 20.7117 58.3951C20.7647 58.3619 20.8101 58.3143 20.8417 58.2586C20.8734 58.203 20.8897 58.1422 20.8885 58.0844L21.2517 58.2188C21.2517 58.3522 21.2035 58.4923 21.1164 58.6121C21.0726 58.6672 21.0204 58.7148 20.963 58.752C20.9055 58.7892 20.844 58.8152 20.782 58.8285C20.6265 58.8594 20.4753 58.8469 20.3441 58.7923C20.0278 58.6739 19.7728 58.4514 19.6101 58.1517C19.4263 57.8334 19.3332 57.4526 19.3393 57.0437L19.34 56.9623C19.3306 56.7439 19.3761 56.5138 19.4722 56.2936C19.5043 56.2155 19.5534 56.1429 19.6148 56.0826C19.6763 56.0223 19.7481 55.9763 19.8235 55.9488C20.0109 55.8938 20.1966 55.9032 20.3513 55.9756C20.614 56.0734 20.8325 56.2475 20.9861 56.4816C21.146 56.7051 21.2366 56.9832 21.2488 57.2883L20.8855 57.1539C20.872 56.9656 20.8156 56.7932 20.7207 56.6499C20.6292 56.5117 20.5015 56.4069 20.3483 56.3444C20.1517 56.277 19.9983 56.3117 19.8881 56.4485C19.755 56.6606 19.6945 56.9009 19.7189 57.1202L19.7181 57.207C19.7112 57.49 19.7649 57.757 19.8754 57.9888C19.9747 58.1895 20.1395 58.3376 20.3472 58.4126V58.4126Z" fill="#B0B3C1"/>
<path d="M22.1066 56.9968C22.2023 56.8941 22.3225 56.8226 22.4462 56.7946C22.5699 56.7666 22.6893 56.7839 22.7837 56.8436C23.0174 56.9345 23.2069 57.0994 23.3309 57.3199C23.455 57.5404 23.5088 57.8077 23.4863 58.0921L23.4716 59.8819L23.0821 59.7373L23.0968 57.9475C23.1034 57.773 23.0665 57.6099 22.9898 57.4737C22.9035 57.3455 22.7804 57.252 22.6329 57.2025C22.5348 57.1596 22.4168 57.1594 22.3003 57.202C22.2513 57.2246 22.2054 57.2575 22.1658 57.2983C22.1262 57.3391 22.0939 57.3868 22.0713 57.4379L22.0555 59.3633L21.6659 59.2186L21.6973 55.4004L22.0869 55.5396L22.1066 56.9968Z" fill="#B0B3C1"/>
<path d="M24.0641 59.8672C24.061 59.8368 24.0653 59.8043 24.0766 59.7725C24.0879 59.7407 24.1058 59.7106 24.129 59.6847C24.1662 59.6492 24.2295 59.6619 24.3089 59.644C24.3828 59.6742 24.4441 59.7255 24.4872 59.7931C24.5278 59.8562 24.549 59.9336 24.5487 60.0174C24.5521 60.0454 24.5478 60.0756 24.5365 60.1048C24.5251 60.134 24.5069 60.1612 24.484 60.1836C24.4414 60.2203 24.3835 60.2064 24.3041 60.2243C24.2284 60.1991 24.1665 60.1492 24.1257 60.0806C24.0859 60.0209 24.0647 59.9473 24.0641 59.8672Z" fill="#B0B3C1"/>
<path d="M25.1954 60.2824C25.1917 60.2529 25.1957 60.2211 25.2071 60.1901C25.2184 60.1591 25.2367 60.1299 25.2602 60.1053C25.2975 60.0644 25.3607 60.0826 25.44 60.0647C25.5121 60.0929 25.5719 60.142 25.6138 60.2072C25.6557 60.2725 25.6784 60.3519 25.6799 60.4381C25.6832 60.4661 25.679 60.4962 25.6676 60.5255C25.6563 60.5547 25.6381 60.5819 25.6151 60.6043C25.5781 60.6127 25.5146 60.627 25.4353 60.645C25.3596 60.6197 25.2977 60.5698 25.2569 60.5013C25.2162 60.4402 25.1949 60.3646 25.1954 60.2824V60.2824Z" fill="#B0B3C1"/>
<path d="M26.3262 60.6975C26.3226 60.6679 26.3266 60.6361 26.3379 60.6051C26.3493 60.5741 26.3676 60.5449 26.391 60.5204C26.4283 60.4795 26.4915 60.4976 26.5709 60.4797C26.6475 60.5034 26.7098 60.5535 26.7492 60.6234C26.7892 60.6869 26.8104 60.7641 26.8108 60.8477C26.814 60.8765 26.8098 60.9074 26.7984 60.9375C26.7871 60.9675 26.769 60.9957 26.746 61.0193C26.709 61.0277 26.6455 61.0421 26.5664 61.0275C26.4907 61.0022 26.4288 60.9523 26.388 60.8838C26.3524 60.8311 26.3312 60.7673 26.3262 60.6975V60.6975Z" fill="#B0B3C1"/>
<path d="M140.111 103.033L139.277 101.733C139.413 101.559 139.518 101.365 139.586 101.163C139.653 100.962 139.68 100.756 139.666 100.562C139.638 99.9382 139.465 99.3643 139.162 98.8866C138.859 98.4088 138.433 98.0405 137.92 97.8115C136.941 97.4539 136.143 98.1053 136.134 99.2659C136.16 99.8972 136.334 100.478 136.643 100.96C136.951 101.442 137.384 101.811 137.906 102.037C138.206 102.177 138.574 102.171 138.931 102.022L139.77 103.342C139.869 103.493 140.027 103.555 140.128 103.473C140.229 103.39 140.204 103.19 140.111 103.033ZM138.873 101.342C138.842 101.338 138.809 101.346 138.778 101.364C138.753 101.386 138.735 101.415 138.724 101.446C138.587 101.515 138.443 101.554 138.303 101.563C138.163 101.571 138.029 101.548 137.911 101.495C137.525 101.324 137.205 101.048 136.977 100.689C136.748 100.331 136.618 99.9 136.597 99.4318C136.604 98.5586 137.205 98.0708 137.937 98.3437C138.322 98.5151 138.641 98.7915 138.869 99.1502C139.096 99.5089 139.225 99.9399 139.245 100.408C139.255 100.567 139.227 100.735 139.162 100.898C139.097 101.061 138.998 101.213 138.873 101.342V101.342Z" fill="white"/>
<path d="M120.994 131.112C112.546 118.245 98.1806 114.079 88.9088 121.758L80.8503 128.297L83.8808 132.846C84.3821 131.927 84.9741 131.05 85.6447 130.233C93.4636 125.876 104.131 129.639 110.65 139.538C117.169 149.437 117.203 162.032 111.204 169.155C110.419 169.585 109.611 169.933 108.793 170.193L111.751 174.623L119.495 168.35C128.767 160.649 129.437 143.976 120.994 131.112Z" fill="#D6D8E5"/>
<path d="M113.247 137.392C104.798 124.525 90.4334 120.358 81.1616 128.038C71.8898 135.717 71.2195 152.413 79.668 165.28C88.1165 178.148 102.482 182.314 111.753 174.629C121.025 166.944 121.696 150.248 113.247 137.392ZM111.207 169.16C103.383 173.518 92.7211 169.754 86.202 159.85C79.6829 149.946 79.6488 137.361 85.6476 130.238C93.4664 125.882 104.133 129.645 110.653 139.544C117.172 149.442 117.206 162.032 111.207 169.155L111.207 169.16Z" fill="#B1B4C4"/>
<path d="M86.2121 159.842C79.7088 149.945 79.6589 137.353 85.6577 130.231C89.0685 128.327 93.0263 127.973 96.9412 128.998C92.1359 127.736 87.2769 128.527 83.433 131.719C75.538 138.275 74.9257 152.413 82.0652 163.287C89.2047 174.16 101.4 177.664 109.295 171.109C109.989 170.52 110.634 169.864 111.217 169.152C103.382 173.513 92.7047 169.752 86.2121 159.842Z" fill="#A1A5B5"/>
<path opacity="0.1" d="M110.666 139.534C104.163 129.637 93.4803 125.872 85.6614 130.229C79.6627 137.352 79.6914 149.943 86.2159 159.841C92.7403 169.738 103.397 173.509 111.221 169.151C117.204 162.032 117.154 149.446 110.666 139.534Z" fill="#3E7EFF"/>
<path d="M121.25 155.454L138.459 161.764L138.422 166.331L121.213 160.021L121.25 155.454Z" fill="#B1B4C4"/>
<path d="M125.126 152.298L142.335 158.609L138.46 161.765L121.251 155.454L125.126 152.298Z" fill="#D6D8E5"/>
<path d="M134.815 160.012C136.473 156.811 139.241 154.766 140.993 155.442L172.252 167.056L166.186 178.607L134.985 167.017C133.232 166.342 133.178 163.198 134.815 160.012Z" fill="#8C50FF"/>
<path d="M172.363 174.036C170.7 177.233 167.937 179.282 166.184 178.607C164.432 177.931 164.352 174.799 166.015 171.607C167.678 168.416 170.44 166.362 172.193 167.037C173.946 167.712 174.021 170.841 172.363 174.036Z" fill="#8C50FF"/>
<path opacity="0.1" d="M172.363 174.036C170.7 177.233 167.937 179.282 166.184 178.607C164.432 177.931 164.352 174.799 166.015 171.607C167.678 168.416 170.44 166.362 172.193 167.037C173.946 167.712 174.021 170.841 172.363 174.036Z" fill="black"/>
<path opacity="0.3" d="M127.863 234.291L1.05382 185.181C0.443103 184.962 0.53295 184.308 1.23467 183.733C1.59805 183.445 2.00281 183.237 2.41639 183.127C2.82998 183.016 3.24086 183.006 3.61601 183.096L130.404 232.211C131.015 232.436 130.925 233.084 130.223 233.66C129.863 233.943 129.462 234.148 129.052 234.258C128.643 234.367 128.236 234.379 127.863 234.291Z" fill="#D6D8E5"/>
</svg>
