<svg width="82" height="82" viewBox="0 0 82 82" fill="none" xmlns="http://www.w3.org/2000/svg">
<path d="M55.9744 28.2651H52.2187C51.4019 28.2651 50.6252 28.6575 50.1447 29.3301L37.5564 46.7871L31.8548 38.8754C31.3744 38.2108 30.6056 37.8104 29.7808 37.8104H26.0252C25.5046 37.8104 25.2003 38.403 25.5046 38.8274L35.4824 52.6649C35.7181 52.9939 36.0288 53.2619 36.3888 53.4469C36.7488 53.6318 37.1477 53.7283 37.5524 53.7283C37.9571 53.7283 38.356 53.6318 38.716 53.4469C39.076 53.2619 39.3867 52.9939 39.6224 52.6649L56.4869 29.2821C56.7992 28.8577 56.4949 28.2651 55.9744 28.2651Z" fill="#918AE3"/>
<path d="M41 5.125C21.1887 5.125 5.125 21.1887 5.125 41C5.125 60.8113 21.1887 76.875 41 76.875C60.8113 76.875 76.875 60.8113 76.875 41C76.875 21.1887 60.8113 5.125 41 5.125ZM41 70.7891C24.552 70.7891 11.2109 57.448 11.2109 41C11.2109 24.552 24.552 11.2109 41 11.2109C57.448 11.2109 70.7891 24.552 70.7891 41C70.7891 57.448 57.448 70.7891 41 70.7891Z" fill="#918AE3"/>
</svg>
