<svg width="390" height="545" viewBox="0 0 390 545" fill="none" xmlns="http://www.w3.org/2000/svg">
<path d="M199.7 174.565C208.329 163.896 217.481 154.269 227.155 145.682C235.522 138.656 245.001 132.281 255.591 126.556C266.181 120.832 277.228 118.36 288.733 119.141C304.944 120.442 318.476 124.28 329.327 130.655C340.178 137.03 348.807 145.096 355.213 154.854C361.62 164.612 365.999 175.671 368.353 188.031C370.706 200.391 371.49 213.076 370.706 226.087C369.921 239.097 367.633 251.522 363.842 263.361C360.051 275.201 355.344 286.26 349.722 296.538C344.101 306.816 337.891 316.314 331.092 325.031C324.294 333.748 317.495 341.619 310.697 348.645C300.238 359.314 289.321 369.267 277.947 378.504C266.573 387.741 255.721 395.678 245.393 402.313C235.065 408.949 225.652 414.218 217.154 418.121C208.656 422.024 202.053 423.976 197.347 423.976C192.117 424.236 185.45 422.414 177.344 418.511C169.238 414.608 160.348 409.339 150.673 402.703C140.999 396.068 130.801 388.197 120.08 379.09C109.36 369.982 98.7701 360.354 88.3111 350.206C81.5127 343.701 74.1913 336.155 66.347 327.568C58.5027 318.981 51.116 309.549 44.1869 299.27C37.2578 288.992 31.3092 277.868 26.3411 265.899C21.3731 253.929 18.6275 241.179 18.1046 227.648C17.5816 214.117 19.0198 201.432 22.419 189.592C25.8182 177.753 30.9169 167.149 37.7153 157.782C44.5137 148.414 52.881 140.543 62.8171 134.168C72.7532 127.792 83.9967 123.304 96.5476 120.702C102.823 119.401 109.098 119.206 115.374 120.116C121.649 121.027 127.794 122.588 133.808 124.8C139.822 127.012 145.574 129.809 151.065 133.192C156.556 136.575 161.786 140.087 166.754 143.73C178.259 152.317 189.241 162.595 199.7 174.565Z" stroke="white" stroke-opacity="0.5" stroke-width="2" stroke-dasharray="5 6"/>
<path d="M154.76 361.4V364.136H163.472V361.4H154.76ZM162.536 361.4V362C161.672 370.88 158.168 377 152.528 379.592C153.176 380.168 154.016 381.344 154.424 382.112C160.712 378.704 164.36 372.488 165.392 361.784L163.52 361.28L163.04 361.4H162.536ZM157.568 363.896L154.904 364.304C156.224 372.56 158.552 378.872 164.096 382.184C164.528 381.392 165.44 380.264 166.112 379.712C161 377 158.624 371.024 157.568 363.896ZM144.32 361.4V364.136H152.192V361.4H144.32ZM151.232 361.4V362.048C150.488 369.992 147.776 376.76 143.48 379.832C144.176 380.336 145.112 381.44 145.568 382.16C150.392 378.224 153.176 371.504 154.064 361.808L152.216 361.28L151.712 361.4H151.232ZM144.152 367.64C147.2 371.096 150.752 375.776 152.144 378.872L154.568 376.832C153.032 373.736 149.336 369.272 146.288 365.936L144.152 367.64ZM176.984 367.856V370.328H192.416V367.856H176.984ZM179.864 362.624V365.048H191.408V362.624H179.864ZM183.56 359.744V368.792H186.416V359.744H183.56ZM179.504 360.368C178.952 362.456 177.944 364.544 176.624 365.864C177.296 366.2 178.448 366.968 179 367.4C180.296 365.864 181.544 363.416 182.24 360.944L179.504 360.368ZM185.408 369.32V374.576C185.408 377.096 185.888 377.96 188.192 377.96C188.624 377.96 189.536 377.96 189.992 377.96C191.768 377.96 192.488 377.12 192.752 373.904C191.984 373.712 190.784 373.28 190.256 372.8C190.184 375.008 190.088 375.296 189.68 375.296C189.488 375.296 188.84 375.296 188.696 375.296C188.288 375.296 188.24 375.224 188.24 374.552V369.32H185.408ZM181.088 369.224C180.8 372.104 180.224 374.408 176.504 375.752C177.128 376.304 177.92 377.384 178.232 378.128C182.672 376.28 183.608 373.136 183.968 369.224H181.088ZM170.432 361.928C171.776 363.104 173.36 364.76 174.032 365.936L176.408 364.112C175.64 362.984 173.984 361.4 172.64 360.32L170.432 361.928ZM175.904 368.888H170.48V371.552H173.144V378.008H175.904V368.888ZM175.64 376.928C174.104 376.928 171.992 378.224 170.168 379.904L172.064 382.4C173.36 380.912 174.68 379.496 175.568 379.496C176.096 379.496 176.864 380.192 177.848 380.792C179.456 381.704 181.352 382.016 184.208 382.016C186.56 382.016 190.16 381.872 191.936 381.752C191.96 380.984 192.416 379.568 192.728 378.8C190.4 379.136 186.68 379.328 184.28 379.328C181.784 379.328 179.72 379.208 178.208 378.272C176.984 377.552 176.384 376.928 175.64 376.928ZM200.144 368.648V371.288H205.688V368.648H200.144ZM204.584 368.648V369.08C204.536 373.736 204.44 375.416 204.152 375.8C203.96 376.04 203.744 376.088 203.408 376.088C203.024 376.088 202.208 376.088 201.344 375.992C201.776 376.712 202.088 377.84 202.136 378.68C203.264 378.704 204.296 378.704 204.944 378.608C205.64 378.488 206.12 378.272 206.6 377.672C207.152 376.928 207.272 374.792 207.368 369.704C207.368 369.368 207.392 368.648 207.392 368.648H204.584ZM211.808 361.136C213.152 361.904 214.856 363.08 215.648 363.92L217.496 361.976C216.632 361.184 214.856 360.08 213.536 359.384L211.808 361.136ZM214.64 367.304C212.984 372.872 209.768 377.216 205.16 379.688C205.76 380.264 206.816 381.464 207.248 382.064C212 379.136 215.528 374.264 217.544 368L214.64 367.304ZM200.312 363.224V366.056H218.816V363.224H200.312ZM198.392 363.224V370.256C198.392 373.4 198.224 377.6 196.376 380.48C197.048 380.816 198.344 381.872 198.824 382.448C201.008 379.208 201.416 373.88 201.416 370.28V363.224H198.392ZM208.136 359.648C208.208 370.592 210.152 381.992 215.384 381.992C217.64 381.992 218.6 380.912 219.056 376.448C218.288 376.16 217.256 375.488 216.608 374.816C216.464 377.84 216.176 379.064 215.624 379.064C213.2 379.064 210.992 369.44 211.16 359.648H208.136ZM223.16 362.216V364.928H232.208V362.216H223.16ZM232.568 364.736V367.496H243.32V364.736H232.568ZM226.28 363.32V375.392H229.112V363.32H226.28ZM241.976 364.736V365.312C241.76 374.432 241.496 377.984 240.848 378.728C240.584 379.04 240.344 379.136 239.888 379.136C239.336 379.136 238.184 379.136 236.912 379.016C237.416 379.808 237.752 381.032 237.8 381.848C239.12 381.896 240.44 381.92 241.256 381.776C242.168 381.632 242.768 381.368 243.392 380.504C244.256 379.352 244.52 375.8 244.784 366.032C244.808 365.672 244.808 364.736 244.808 364.736H241.976ZM222.824 375.08L223.496 378.08C226.16 377.36 229.616 376.376 232.832 375.44L232.448 372.704C228.992 373.616 225.248 374.576 222.824 375.08ZM235.952 360.008C235.904 369.296 236.192 376.136 229.568 379.856C230.288 380.384 231.2 381.464 231.608 382.208C238.784 377.912 238.832 370.016 238.88 360.008H235.952ZM251.307 374.422H254.436L254.752 363.078H251.002L251.307 374.422ZM252.877 380.34C254.202 380.34 255.01 379.59 255.01 378.383C255.01 377.164 254.202 376.414 252.877 376.414C251.565 376.414 250.745 377.164 250.745 378.383C250.745 379.59 251.565 380.34 252.877 380.34Z" fill="#918AE3"/>
<path d="M229.093 244.79C225.626 243.924 222.902 241.633 219.992 239.776C212.562 235.07 205.319 230.117 198.013 225.288C197.146 226.217 198.57 226.96 198.199 227.889C197.951 227.827 197.642 227.765 197.456 227.641C196.28 227.022 195.041 226.527 193.989 225.784C191.079 223.802 188.541 225.536 185.94 226.588C183.711 227.455 183.711 227.455 183.34 225.288C174.672 230.922 166.376 237.113 157.337 242.19C153.251 244.481 149.35 247.205 144.893 248.877C143.469 249.434 141.611 250.61 140.745 247.948C138.392 247.143 136.906 245.162 135.111 243.552C129.415 238.042 124.4 231.851 120.314 225.041C118.147 221.512 115.361 219.469 111.275 219.964C107.127 220.521 104.031 222.812 102.236 226.588C100.626 229.932 100.626 233.337 102.483 236.68C108.612 246.338 116.785 253.83 126.319 260.021C127.248 260.64 128.177 261.383 129.105 262.002C133.501 263.488 137.34 266.831 142.478 265.902C143.902 265.469 145.45 265.345 146.317 263.921C154.241 260.454 160.495 254.696 166.624 248.753C169.286 246.214 171.515 243.243 173.929 240.395C175.168 238.971 176.53 237.794 178.325 237.113C181.668 235.751 184.95 234.389 188.169 232.78C190.026 231.851 191.512 231.789 193.37 232.718C196.837 234.513 200.304 236.37 204.018 237.547C206.681 238.414 207.919 241.138 209.652 243.119C216.277 250.61 223.459 257.544 232.188 262.621C235.222 264.355 238.565 265.469 242.156 265.283C243.952 266.15 245.376 264.664 247.047 264.602C248.409 263.983 249.586 262.993 251.01 262.497C260.111 257.297 268.097 250.796 274.784 242.685C276.208 240.952 277.384 238.971 278.56 237.052C280.789 233.461 280.665 229.87 279.117 226.155C277.755 223.555 275.65 221.883 272.988 220.769C268.097 218.788 264.135 220.15 261.411 224.669C257.139 231.789 251.876 238.042 245.809 243.676C245.314 244.048 244.88 244.481 244.447 244.914C239.68 249.558 238.937 249.62 233.055 246.524C231.631 245.905 230.702 244.605 229.093 244.79Z" fill="#FEB7CF"/>
<path d="M246.985 264.107C245.128 263.674 243.704 265.036 241.97 265.283C236.77 279.895 231.693 294.568 226.431 309.179C225.44 311.903 225.007 314.503 226.059 317.289C227.174 319.518 229.155 320.447 231.507 320.88C250.514 324.533 269.459 328.495 288.528 331.9C294.286 332.953 298.434 330.229 300.477 324.657C305.678 310.541 310.631 296.363 315.645 282.185C323.323 260.64 330.814 239.033 338.677 217.549C340.596 212.349 342.144 206.963 344.125 201.762C344.992 199.471 345.796 197.057 344.125 194.704C342.639 192.847 340.782 191.794 338.429 191.299C319.174 187.522 299.92 183.746 280.603 179.969C276.146 179.102 273.174 181.455 270.574 184.612C269.893 187.46 270.574 189.937 272.245 192.228C272.803 192.351 273.298 192.166 273.607 191.794C276.517 188.513 280.046 188.451 284.07 189.194C299.363 192.228 314.593 195.261 329.885 198.171C335.953 199.347 337.315 201.7 335.21 207.582C323.508 240.395 311.931 273.27 300.168 306.021C298.372 311.036 295.338 312.77 290.076 311.841C274.165 308.869 258.315 305.588 242.404 302.554C236.77 301.502 235.346 298.716 237.389 293.144C240.485 284.6 243.518 276.056 246.49 267.512C246.923 266.46 247.79 265.345 246.985 264.107Z" fill="#505BD7"/>
<path d="M146.131 263.983C144.893 264.416 143.593 264.85 142.354 265.283C141.797 266.707 142.478 267.945 142.912 269.184C145.698 277.48 148.793 285.714 151.641 294.01C153.313 299.025 152.26 301.378 146.998 302.554C136.101 304.907 125.143 306.888 114.246 308.993C109.479 309.922 104.774 310.974 100.007 311.841C93.2583 313.017 90.7819 311.531 88.4292 305.154C78.5853 277.975 68.9889 250.734 59.2688 223.555C57.4733 218.478 55.616 213.463 53.8825 208.386C51.6536 201.762 52.9538 199.533 59.7022 198.171C73.9419 195.261 88.2435 192.723 102.483 189.689C106.755 188.76 110.779 188.327 114.742 190.618C117.59 189.132 117.404 186.222 118.209 183.684C117.218 183.745 116.847 182.941 116.228 182.383C113.875 180.216 111.089 179.474 107.931 180.093C88.9245 183.807 69.8557 187.584 50.7869 191.299C48.9295 191.67 47.2579 192.351 45.8339 193.589C43.5432 195.818 43.3575 198.357 44.41 201.266C53.7586 227.022 62.8597 252.901 72.0845 278.718C76.5422 291.348 81.3713 303.854 85.4574 316.608C86.2004 318.961 87.3767 321.19 88.0578 323.542C90.0389 330.414 94.6823 333.262 101.616 331.838C111.027 329.919 120.438 328.062 129.786 326.204C139.073 324.409 148.422 322.614 157.647 320.632C159.628 320.199 161.485 319.704 162.6 317.846C163.962 314.689 163.281 311.717 162.166 308.56C156.966 294.134 151.889 279.709 146.75 265.283C146.626 264.85 146.379 264.416 146.131 263.983Z" fill="#505BD6"/>
<path d="M272.369 192.165C271.75 189.627 271.131 187.151 270.574 184.612C265.993 173.902 257.325 169.258 246.181 168.825C237.699 168.453 231.384 172.416 227.174 179.721C223.15 186.779 221.849 194.58 221.54 202.567C220.983 217.178 223.335 231.232 229.093 244.729C231.632 247.081 234.789 248.196 237.947 249.372C239.618 249.991 240.671 248.939 241.785 248.134C243.333 246.957 244.943 245.843 245.933 244.109C247.109 242.809 247.109 241.138 247.543 239.652C248.162 236.928 248.967 234.265 249.4 231.541C250.638 223.926 245.809 217.24 238.194 216.125C237.761 216.063 237.389 216.001 236.956 215.94C230.022 214.887 228.969 213.835 227.731 206.9C227.236 203.805 227.236 200.647 227.669 197.552C228.226 193.589 228.784 189.627 230.455 185.912C231.446 183.684 232.746 181.455 235.284 181.207C237.823 180.959 239.185 183.25 240.547 185.046C241.909 186.841 242.157 189.008 242.528 191.175C243.395 195.694 245.004 199.904 248.41 203.124C251.196 205.724 252.248 205.538 254.105 202.133C254.848 200.709 255.777 199.162 257.634 199.966C259.554 200.771 259.244 202.629 258.749 204.3C258.254 205.972 257.201 207.272 255.406 207.643C252.867 208.201 252.743 209.934 253.301 211.915C254.539 215.94 257.758 216.992 261.473 217.302C268.84 217.921 275.094 221.016 280.48 225.969C282.956 228.198 284.752 231.046 287.166 233.399C287.909 234.142 288.467 235.628 290.014 234.637C291.562 227.084 289.148 220.707 284.257 215.073C282.152 212.658 279.799 210.553 277.756 208.077C274.784 204.3 272.989 200.214 273.112 195.323C273.174 194.27 273.236 193.094 272.369 192.165Z" fill="#182A83"/>
<path d="M162.661 317.908C156.718 321.004 150.093 321.314 143.716 322.738C130.467 325.585 117.156 328.062 103.907 330.6C100.997 331.158 98.0872 332.272 95.1154 330.91C92.3913 329.672 90.3482 327.938 89.2957 324.966C84.5904 311.531 79.6994 298.097 74.9322 284.662C68.5553 266.645 62.1784 248.629 55.8015 230.613C52.2725 220.645 48.7435 210.677 45.0907 200.709C44.1001 198.109 44.8431 195.88 45.8956 193.59C44.224 194.456 43.1095 196.004 41.8713 197.304C39.7663 199.533 39.3948 201.886 40.4473 204.919C55.3062 246.4 70.0412 287.881 84.9 329.3C87.1288 335.615 91.215 337.782 97.9015 336.42C117.466 332.581 137.03 328.743 156.594 324.904C160.866 324.161 162.166 322.552 162.661 317.908Z" fill="#858EF5"/>
<path d="M344.125 194.766C345.115 200.276 342.082 204.919 340.472 209.81C334.962 226.093 328.956 242.314 323.137 258.535C317.936 273.146 312.612 287.695 307.411 302.307C304.687 309.922 302.087 317.599 299.486 325.276C298.124 329.362 293.419 332.086 289.209 331.281C270.202 327.567 251.195 323.914 232.188 320.323C229.774 319.89 227.978 318.527 225.997 317.289C226.678 322.737 228.04 324.285 233.117 325.276C252.681 329.052 272.245 332.891 291.809 336.73C297.505 337.844 301.839 335.491 303.758 330.105C311.25 309.179 318.741 288.253 326.17 267.326C333.414 246.957 340.658 226.589 347.901 206.22C350.006 200.462 349.263 198.542 344.125 194.766Z" fill="#858EF6"/>
<path d="M154.242 207.148C155.728 202.505 154.366 197.923 153.685 193.404C153.313 190.741 152.322 188.141 151.641 185.479C151.765 183.745 150.837 182.507 149.598 181.517C145.512 178.235 141.178 179.783 137.03 181.207C133.687 182.321 132.387 185.046 132.263 188.451C132.201 190.927 132.511 193.404 131.768 195.818C131.396 196.871 131.087 197.985 130.468 198.976C129.848 199.966 129.167 200.833 128.425 199.1C127.62 197.18 126.196 196.499 124.215 197.118C122.11 197.799 120.995 199.409 120.933 201.514C120.871 204.238 121.924 206.529 124.215 208.139C125.391 209.005 126.691 209.748 126.319 211.544C126.072 213.03 125.081 214.02 123.843 214.763C122.295 215.94 119.881 214.949 118.642 216.93C121.367 223.926 124.834 230.613 129.291 236.68C130.034 237.671 130.963 238.475 132.077 239.095C133.501 239.899 134.182 239.28 134.368 237.794C133.749 234.018 132.882 230.303 133.006 226.465C132.696 225.536 132.635 224.793 133.316 223.926C135.978 220.15 139.259 217.549 144.088 217.054C151.703 216.187 153.499 213.835 154.056 208.386C153.127 206.467 152.199 204.548 153.251 202.257C153.746 203.805 152.694 205.724 154.242 207.148Z" fill="#FCB7CF"/>
<path d="M126.876 212.101C127.743 210.12 127.619 208.82 125.266 207.767C122.542 206.591 121.49 203.991 121.676 201.143C121.799 199.1 123.038 197.738 125.204 197.49C127.495 197.242 127.495 199.038 127.929 200.462C128.052 200.957 128.176 201.39 128.362 202.071C130.715 200.833 131.643 198.79 132.324 196.685C133.129 194.209 133.191 191.608 133.129 189.008C133.067 184.365 134.429 182.507 138.887 181.207C145.326 179.35 147.864 180.217 151.517 185.417C154.179 184.674 156.965 184.179 159.38 182.755C161.175 181.702 162.352 180.279 162.909 178.297C164.333 172.849 161.237 170.001 154.798 170.992C154.489 170.558 154.922 170.311 155.108 170.063C156.656 168.453 157.151 166.596 155.603 164.862C154.179 163.191 152.322 163.439 150.526 164.429C145.697 167.153 140.559 168.825 135.11 169.568C133.253 169.815 131.396 169.877 129.6 170.001C123.161 170.496 119.818 173.902 119.88 180.34C119.88 182.012 118.889 182.693 118.085 183.684C116.165 185.417 116.475 188.203 114.989 190.122C114.184 197.552 117.404 203.495 121.923 209.006C123.533 210.182 124.214 212.782 126.876 212.101Z" fill="#162B84"/>
<path d="M179.13 200.957C179.254 206.839 181.73 210.058 184.145 213.277C184.392 213.587 184.702 213.897 185.011 214.144C190.893 220.273 190.893 220.273 198.013 215.382C202.471 212.349 205.69 208.572 205.628 202.814C205.628 199.843 204.452 197.676 201.789 196.314C199.003 194.89 196.403 195.261 194.051 197.242C192.998 198.047 192.255 199.657 190.831 197.366C189.283 194.766 186.621 194.147 183.773 195.013C181.297 195.695 179.13 199.347 179.13 200.957Z" fill="#FD8487"/>
<path d="M133.006 226.341C131.52 229.003 132.511 231.665 132.944 234.327C133.13 235.566 133.501 236.742 133.811 237.918C133.873 240.023 133.501 242.252 134.987 244.109C136.04 246.029 138.083 246.957 139.569 248.381C140.373 249.124 140.497 248.443 140.621 247.824C138.083 240.704 135.544 233.523 133.006 226.341Z" fill="#595CCB"/>
<path d="M154.241 207.148C154.241 204.857 154.241 202.505 154.241 199.905C151.084 202.381 151.146 205.539 154.055 208.201C154.117 207.891 154.179 207.52 154.241 207.148Z" fill="#ED8D9B"/>
<path d="M272.369 192.166C271.564 198.79 273.36 204.548 277.879 209.501C279.241 210.987 280.665 212.535 282.151 213.959C288.157 219.716 290.509 226.712 289.766 234.885C289.147 235.875 289.828 236.68 290.324 237.423C293.667 242.252 296.886 247.143 300.663 251.663C302.954 254.387 303.201 257.359 301.715 260.269C297.691 268.131 291.376 273.456 282.399 274.57C276.889 275.251 271.564 273.703 266.735 270.917C262.773 268.627 259.12 266.026 255.529 263.24C254.167 262.188 252.743 261.012 250.762 262.064C249.152 262.188 247.914 262.869 246.985 264.169C243.456 274.075 239.927 283.981 236.398 293.887C234.417 299.397 236.027 302.369 241.785 303.545C258.068 306.764 274.288 309.922 290.571 313.017C295.71 314.008 299.115 311.965 300.849 306.95C312.55 274.075 324.251 241.2 335.953 208.263C336.51 206.715 337.129 205.167 337.129 203.496C337.067 200.586 335.21 198.604 331.619 197.862C318.989 195.385 306.359 192.909 293.729 190.432C290.324 189.751 286.795 189.256 283.451 188.389C278.808 187.089 275.155 188.327 272.369 192.166Z" fill="white" fill-opacity="0.3"/>
<path d="M122.604 208.882C121.18 206.715 119.632 204.548 118.456 202.257C116.722 198.976 115.484 195.509 115.732 191.732C115.794 191.113 115.732 190.494 115.113 190.123C112.141 187.894 108.922 187.522 105.207 188.327C89.3575 191.608 73.5081 194.58 57.6586 197.738C52.52 198.728 50.7245 201.824 52.458 206.715C64.2832 240.085 76.1702 273.456 88.0573 306.826C89.8527 311.903 93.0722 313.884 98.3347 312.894C114.927 309.736 131.457 306.517 148.05 303.173C152.879 302.183 154.365 299.149 152.693 294.444C149.226 284.724 145.821 275.066 142.354 265.345C138.268 266.088 134.986 263.612 131.457 262.312C130.591 262.002 129.848 261.507 128.857 261.693C127.371 261.693 126.443 262.745 125.39 263.488C120.932 266.584 116.661 269.989 111.646 272.218C99.2014 277.79 90.4719 274.013 82.4852 265.098C81.3708 263.859 80.3803 262.559 79.6373 261.073C77.9038 257.792 77.718 254.82 80.3183 251.663C85.0855 245.843 89.2955 239.652 93.7532 233.585C95.4867 231.232 97.4679 229.189 99.5729 227.208C104.526 222.193 110.036 218.231 117.342 217.611C117.961 217.549 118.58 217.426 118.889 216.745C120.685 215.816 122.976 216.683 124.523 214.949C125.39 212.535 123.409 210.863 122.604 208.882Z" fill="white" fill-opacity="0.3"/>
<path d="M250.762 262.002C254.786 262.312 257.077 265.593 260.048 267.698C266.301 272.094 272.926 275.685 280.727 275.561C288.652 275.437 294.719 271.289 299.548 265.222C300.724 263.798 301.715 262.188 302.458 260.516C303.944 257.235 303.882 254.201 301.343 251.106C297.133 245.967 293.047 240.643 289.704 234.823C286.361 232.161 284.442 228.075 280.913 225.66C279.922 225.103 278.931 224.607 278.498 226.279C281.47 234.699 275.96 240.085 271.254 245.41C266.178 251.168 259.863 255.687 253.671 260.207C252.743 260.888 251.009 260.269 250.762 262.002Z" fill="#FE8487"/>
<path d="M98.954 226.836C93.9392 231.046 90.6578 236.742 86.6955 241.819C84.4048 244.729 82.2998 247.762 80.071 250.734C76.7896 255.13 76.4181 257.73 79.3899 262.188C83.7237 268.688 89.2958 273.765 97.3443 275.251C103.969 276.489 109.974 274.261 115.546 271.103C120.314 268.441 124.647 265.098 128.857 261.631C128.3 259.711 126.381 259.216 125.019 258.349C116.413 252.591 109.108 245.719 103.474 236.99C103.412 236.866 103.102 236.866 102.916 236.742C100.873 234.761 100.873 232.346 100.997 229.746C101.059 228.446 101.678 226.403 98.954 226.836Z" fill="#858EF6"/>
<path d="M98.9541 226.836C101.616 228.26 99.9447 230.675 100.192 232.594C100.44 234.575 100.502 236.309 102.855 236.742C101.183 232.346 101.121 228.074 104.402 224.422C107.746 220.707 113.256 219.097 117.218 222.564C117.899 223.183 118.394 223.864 118.89 224.607C123.471 231.789 128.3 238.723 134.925 244.171C134.925 242.005 134.491 239.961 133.748 237.98C133.129 239.961 132.263 238.29 131.829 237.98C128.796 235.442 126.876 232.099 125.019 228.694C122.914 224.793 120.871 220.769 118.766 216.868C110.655 217.054 104.278 220.955 98.9541 226.836Z" fill="#908DE9"/>
<path d="M278.499 226.279C279.118 225.35 280.046 225.722 280.913 225.66C275.774 220.15 269.459 217.054 261.906 216.745C259.182 218.292 259.182 221.45 257.82 223.864C254.848 229.065 252.186 234.389 247.79 238.599C247.419 238.971 247.295 239.528 246.985 239.9C246.119 241.2 246.057 242.748 245.933 244.233C249.586 242.438 251.443 238.785 254.043 235.999C257.387 232.408 260.235 228.384 262.587 224.05C264.073 221.264 267.602 220.212 270.945 221.017C274.165 221.759 276.455 223.803 278.499 226.279Z" fill="#F38991"/>
<path d="M263.702 309.798C259.987 309.798 256.953 312.646 256.891 316.237C256.83 319.394 258.439 321.004 261.535 321.004C265.064 321.004 268.036 317.846 267.974 314.194C267.974 311.284 266.488 309.798 263.702 309.798Z" fill="#2B2FBD"/>
<path d="M131.891 316.422C131.891 312.77 128.919 309.798 125.328 309.86C122.79 309.86 120.747 311.779 120.747 314.132C120.685 317.908 123.966 321.066 127.866 321.004C130.652 320.942 131.829 319.518 131.891 316.422Z" fill="#2B2FBE"/>
<path d="M246.986 239.838C253.486 235.132 256.458 227.951 259.863 221.078C260.544 219.655 261.535 218.292 261.906 216.683C260.235 216.187 258.501 215.878 256.891 215.259C254.848 214.454 254.043 212.72 253.734 210.677C253.548 209.315 253.796 208.758 255.344 208.448C258.377 207.829 260.111 205.291 260.049 202.195C260.049 200.586 259.492 199.347 257.882 198.852C256.272 198.295 255.096 199.1 254.229 200.4C253.858 200.895 253.61 201.452 253.362 202.01C251.938 205.105 251.753 205.167 249.276 202.815C245.747 199.471 244.014 195.261 243.271 190.618C242.714 186.965 241.475 183.622 238.318 181.331C235.656 179.412 234.046 179.536 231.941 182.074C228.412 186.408 227.545 191.732 227.05 197.057C226.74 198.171 226.802 199.286 227.298 200.338C228.412 202.629 228.35 204.858 227.174 207.086C227.421 213.216 229.155 215.383 235.098 216.497C238.627 217.116 242.094 217.611 244.942 220.336C248.348 223.555 249.648 227.208 248.657 231.727C248.038 234.451 247.543 237.176 246.986 239.838Z" fill="#FBB7CF"/>
<path d="M227.112 207.148C229.217 205.6 229.774 203.248 228.288 200.833C227.545 199.657 227.112 198.48 227.05 197.118C226.369 200.462 226.121 203.805 227.112 207.148Z" fill="#DC8493"/>
<path d="M209.219 124.001C203.832 124.001 198.508 123.939 193.121 124.001C189.035 124.063 186.868 126.229 186.806 130.378C186.745 135.516 186.745 140.717 186.806 145.856C186.868 149.632 189.159 152.109 192.936 152.109C197.951 152.109 203.027 153.037 208.042 152.232C209.219 152.047 210.209 152.542 211.2 153.161C214.852 155.39 218.567 157.681 222.282 159.848C222.777 160.157 223.458 160.9 224.139 160.157C224.635 159.6 223.954 159.043 223.83 158.486C223.706 157.99 223.396 157.557 223.211 157.123C221.044 152.666 221.044 152.666 226.059 152.171C229.092 151.861 231.445 149.57 231.507 146.537C231.631 140.964 231.631 135.392 231.507 129.82C231.445 126.539 229.092 124.186 225.873 124.124C220.363 123.939 214.791 124.001 209.219 124.001Z" fill="#FBA8B1"/>
<path d="M208.351 145.174C212.871 145.174 217.39 145.174 221.91 145.174C222.777 145.174 224.139 145.484 224.139 144.246C224.139 143.255 222.9 143.379 222.096 143.379C213.056 143.379 204.017 143.379 194.916 143.379C194.05 143.379 192.687 143.255 192.687 144.431C192.749 145.67 194.173 145.174 194.978 145.174C199.498 145.236 203.955 145.174 208.351 145.174Z" fill="#FBD8D9"/>
<path d="M192.626 130.501C193.307 131.802 194.422 131.492 195.412 131.492C204.142 131.492 212.933 131.492 221.663 131.492C222.53 131.492 224.015 131.864 224.077 130.811C224.139 129.325 222.53 129.882 221.663 129.882C212.686 129.82 203.77 129.882 194.793 129.882C194.112 129.82 193.369 129.635 192.626 130.501Z" fill="#FEF4EE"/>
<path d="M192.874 137.621C203.213 137.621 213.491 137.621 223.83 137.621C223.83 137.374 223.83 137.188 223.83 136.94C213.491 136.94 203.213 136.94 192.874 136.94C192.874 137.188 192.874 137.374 192.874 137.621Z" fill="#F5F0E9"/>
<path d="M142.416 207.086C142.416 204.177 139.692 201.514 136.968 201.576C133.686 201.7 131.148 204.362 131.272 207.582C131.334 210.12 134.677 213.278 137.215 213.216C140.001 213.154 142.416 210.306 142.416 207.086Z" fill="#FA8489"/>
<path d="M122.604 208.882C122.666 211.111 123.966 212.968 124.461 215.011C125.823 214.454 126.69 213.525 126.876 212.039C124.833 211.854 124.214 209.687 122.604 208.882Z" fill="#5D64BD"/>
<path d="M150.341 201.329C149.041 198.419 148.112 195.385 147.679 192.228C146.688 195.818 148.05 198.666 150.341 201.329Z" fill="#714177"/>
<path d="M151.518 196.375C152.384 196.314 152.756 195.694 152.756 194.952C152.694 194.147 152.57 193.218 151.58 193.094C150.651 192.97 150.403 193.713 150.403 194.456C150.341 195.261 150.589 196.066 151.518 196.375Z" fill="#513068"/>
<path d="M140.249 196.375C140.373 197.18 140.435 198.109 141.426 198.233C142.231 198.295 142.354 197.614 142.354 196.995C142.354 196.19 142.354 195.261 141.24 195.199C140.497 195.137 140.311 195.756 140.249 196.375Z" fill="#330F4B"/>
<path d="M151.517 144.717C151.084 141.745 152.136 138.897 151.146 136.235C150.712 135.059 151.889 134.44 152.57 133.697C162.352 123.295 157.894 107.384 144.335 103.731C130.343 99.9547 119.818 111.408 121.676 124.224C123.223 134.935 134.306 141.002 143.469 138.897C144.831 138.588 145.635 139.083 146.44 139.95C147.245 140.878 147.988 141.869 148.917 142.674C149.722 143.479 150.65 144.098 151.517 144.717Z" fill="#F1EDEE"/>
<path d="M131.767 118.404C132.572 122.676 134.862 126.081 137.648 129.301C138.205 129.92 138.825 129.982 139.506 129.425C142.477 127.072 145.511 124.719 146.873 120.943C147.678 118.714 147.616 116.547 145.635 115.061C143.716 113.637 142.106 114.937 140.806 116.299C139.629 117.538 139.134 117.104 138.391 115.866C137.401 114.194 135.667 113.947 134.057 114.628C132.571 115.371 131.643 116.609 131.767 118.404Z" fill="#FBA8B1"/>
<path d="M244.075 212.658C247.233 212.596 250.081 209.934 249.957 207.148C249.833 204.424 247.047 201.39 244.818 201.514C241.351 201.7 238.256 204.672 238.38 207.705C238.503 210.244 241.351 212.72 244.075 212.658Z" fill="#FB8488"/>
<path d="M230.455 201.576C233.489 198.48 234.356 195.509 233.365 192.104C232.808 195.385 232.127 198.604 230.455 201.576Z" fill="#834B71"/>
<path d="M228.412 194.704C228.474 195.447 228.536 196.252 229.464 196.19C230.331 196.128 230.579 195.385 230.641 194.642C230.703 193.961 230.579 193.032 229.712 193.032C228.721 193.032 228.474 193.899 228.412 194.704Z" fill="#431F4E"/>
<path d="M239.68 195.075C238.689 195.385 238.442 196.128 238.565 196.995C238.627 197.552 238.751 198.357 239.494 198.295C240.67 198.171 240.856 197.242 240.794 196.252C240.732 195.571 240.485 195.075 239.68 195.075Z" fill="#432253"/>
<rect x="108" y="302" width="70" height="30" rx="8" fill="white"/>
<g clip-path="url(#clip0_1789_504)">
<path d="M170.323 310.16L170.383 310.163C170.537 310.178 170.681 310.25 170.786 310.365C170.89 310.48 170.948 310.63 170.948 310.785V314.538L170.945 314.598C170.93 314.753 170.858 314.897 170.743 315.001C170.628 315.106 170.478 315.164 170.323 315.164L170.263 315.161C170.108 315.146 169.964 315.074 169.86 314.959C169.755 314.844 169.697 314.694 169.697 314.538V312.295L166.618 315.375C167.533 316.491 168.031 317.89 168.029 319.334C168.029 322.788 165.229 325.588 161.774 325.588C158.32 325.588 155.52 322.788 155.52 319.334C155.52 315.879 158.32 313.079 161.774 313.079C163.276 313.079 164.654 313.608 165.733 314.49L168.812 311.411H166.57L166.51 311.408C166.35 311.392 166.202 311.316 166.097 311.195C165.992 311.073 165.938 310.916 165.945 310.755C165.953 310.595 166.022 310.444 166.138 310.333C166.255 310.222 166.409 310.16 166.57 310.16H170.323V310.16ZM161.774 314.33C159.011 314.33 156.77 316.57 156.77 319.334C156.77 322.097 159.011 324.338 161.774 324.338C164.538 324.338 166.778 322.097 166.778 319.334C166.778 316.57 164.538 314.33 161.774 314.33V314.33Z" fill="#918AE3" stroke="#918AE3" stroke-width="0.5"/>
</g>
<rect x="214" y="302" width="67" height="30" rx="8" fill="#FBA8B1"/>
<path d="M268.057 321.443H264.96V318.85C266.214 318.73 267.378 318.186 268.281 317.283C269.307 316.257 269.872 314.891 269.872 313.439C269.872 311.987 269.307 310.622 268.281 309.596C267.255 308.57 265.889 308 264.435 308C262.983 308 261.618 308.566 260.592 309.592C259.566 310.618 259 311.983 259 313.435C259 314.887 259.566 316.252 260.592 317.279C261.47 318.157 262.593 318.696 263.808 318.835V321.439H260.711C260.392 321.439 260.135 321.696 260.135 322.015C260.135 322.333 260.392 322.59 260.711 322.59H263.808V325.424C263.808 325.743 264.065 326 264.384 326C264.703 326 264.96 325.743 264.96 325.424V322.595H268.057C268.375 322.595 268.632 322.337 268.632 322.019C268.632 321.7 268.375 321.443 268.057 321.443ZM260.15 313.437C260.15 311.074 262.072 309.152 264.435 309.152C266.798 309.152 268.721 311.074 268.721 313.437C268.721 315.8 266.798 317.723 264.435 317.723C262.072 317.723 260.15 315.8 260.15 313.437V313.437Z" fill="#FFF6F7" stroke="#FFF6F7" stroke-width="0.5"/>
<path d="M200.129 -3.21365L130.791 410.628L473.489 367.697L200.129 -3.21365Z" fill="url(#paint0_linear_1789_504)" fill-opacity="0.2"/>
<path d="M200.871 -3.21365L270.209 410.628L-72.4886 367.697L200.871 -3.21365Z" fill="url(#paint1_linear_1789_504)" fill-opacity="0.2"/>
<defs>
<linearGradient id="paint0_linear_1789_504" x1="200.129" y1="-3.21365" x2="266.757" y2="528.646" gradientUnits="userSpaceOnUse">
<stop stop-color="white"/>
<stop offset="1" stop-color="#FBA8B1" stop-opacity="0"/>
</linearGradient>
<linearGradient id="paint1_linear_1789_504" x1="200.871" y1="-3.21365" x2="134.243" y2="528.646" gradientUnits="userSpaceOnUse">
<stop stop-color="white"/>
<stop offset="1" stop-color="#FBA8B1" stop-opacity="0"/>
</linearGradient>
<clipPath id="clip0_1789_504">
<rect width="18" height="18" fill="white" transform="translate(153 308)"/>
</clipPath>
</defs>
</svg>
