<svg width="345" height="321" viewBox="0 0 345 321" fill="none" xmlns="http://www.w3.org/2000/svg">
<path d="M173 287.5C175.5 288.5 137.778 315.061 103.136 317.788C68.4938 320.515 30.5693 317.788 30.5693 317.788C30.5693 317.788 170.5 286.5 173 287.5Z" fill="url(#paint0_linear_1789_505)"/>
<path d="M183 290C191.5 299 266.5 321 266.5 321H318.5C318.5 321 174.5 281 183 290Z" fill="url(#paint1_linear_1789_505)"/>
<path fill-rule="evenodd" clip-rule="evenodd" d="M274.741 13.2598C305.71 15.6946 327.074 38.4637 338.213 76.0178C342.96 91.9239 341.738 115.147 338.541 131.132C335.316 147.087 328.802 161.176 320.255 174.099C302.915 200.427 278.552 217.065 254.187 233.704C238.598 244.35 223.007 254.997 209.255 268.183C207.346 269.983 205.453 271.866 203.556 273.752C201.676 275.621 199.794 277.493 197.889 279.292C196.41 280.697 195.098 282.307 193.787 283.915C192.814 285.11 191.842 286.303 190.803 287.41C190.718 287.5 190.63 287.594 190.541 287.689C188.668 289.69 185.893 292.656 183.383 290.635C180.707 288.52 182.319 283.213 183.478 279.398C183.786 278.386 184.061 277.48 184.216 276.765C185.797 269.431 187.386 262.096 188.975 254.768C190.156 249.315 191.337 243.865 192.513 238.421C193.767 232.779 194.992 227.137 196.218 221.466C198.821 209.534 191.952 199.247 185.693 189.874C184.276 187.752 182.89 185.677 181.653 183.641C181.195 182.891 180.647 182.11 180.082 181.302C178.65 179.258 177.102 177.048 176.588 174.773C175.63 170.492 177.847 167.899 180.455 165.569C181.668 164.446 182.881 163.349 184.094 162.252C184.701 161.704 185.307 161.156 185.913 160.605C187.675 159.006 189.471 157.442 191.267 155.876C194.704 152.882 198.145 149.884 201.367 146.63C206.446 141.482 201.354 135.033 197.767 130.491C197.391 130.015 197.032 129.56 196.703 129.13C192.957 124.26 189.46 119.176 185.965 114.096C184.692 112.245 183.42 110.395 182.136 108.556C181.58 107.75 180.936 106.921 180.275 106.068C178.645 103.967 176.905 101.725 176.099 99.3447C174.614 94.9225 178.539 92.1491 181.354 90.6273C185.219 88.5141 189.1 86.4177 192.973 84.3257C194.221 83.6517 195.468 82.9781 196.713 82.3046C197.294 81.9895 197.875 81.6721 198.456 81.3545C200.911 80.0131 203.376 78.6662 205.898 77.4558C206.165 77.3236 206.444 77.1906 206.731 77.0542C208.472 76.2259 210.481 75.2705 211.541 73.6004C212.999 71.3395 211.753 67.906 210.815 65.3217C210.681 64.9528 210.553 64.6011 210.441 64.2727C209.016 60.12 207.4 56.0307 205.784 51.9415C205.598 51.4581 205.274 50.779 204.896 49.9859C203.453 46.9578 201.216 42.2664 202.824 40.4522C203.607 39.5502 204.606 38.9287 205.604 38.308C206.26 37.8997 206.916 37.4917 207.509 37.0043C210.093 34.8554 212.761 32.8252 215.486 30.8842C221.889 26.2943 228.46 21.8517 235.72 18.96C247.173 14.4022 259.136 12.2398 271.288 13.0195C271.868 13.0545 272.441 13.0971 273.015 13.1396C273.588 13.1822 274.161 13.2248 274.741 13.2598Z" fill="url(#paint2_linear_1789_505)"/>
<path fill-rule="evenodd" clip-rule="evenodd" d="M172.14 202.083C172.882 202.84 173.642 203.616 174.202 204.532C174.405 204.869 174.629 205.21 174.857 205.558C175.533 206.588 176.245 207.674 176.554 208.871C176.83 210.152 176.715 211.676 176.607 213.112C176.565 213.671 176.524 214.217 176.507 214.731C176.316 220.934 176.118 227.144 175.92 233.354C175.722 239.565 175.524 245.775 175.333 251.978C175.134 258.617 174.936 265.225 174.71 271.863C174.635 274.567 174.56 277.27 174.458 279.974C174.451 280.208 174.447 280.463 174.441 280.734C174.391 283.378 174.312 287.526 172.263 288.771C171.022 289.521 169.456 288.131 168.314 287.118C168.121 286.947 167.941 286.787 167.776 286.649C166.345 285.435 165.027 284.047 163.71 282.66C162.298 281.174 160.887 279.688 159.339 278.417C157.085 276.601 154.857 274.685 152.636 272.774C150.837 271.226 149.042 269.682 147.241 268.198C132.639 256.145 116.4 246.743 100.167 237.344C74.676 222.585 49.2 207.835 30.1017 182.842C20.7153 170.566 13.2545 157.032 8.97599 141.359C4.66993 125.685 1.89998 102.615 5.54897 86.3892C14.1346 48.1294 33.9262 23.8001 64.6325 19.0164C65.0376 18.9606 65.4393 18.9011 65.84 18.8417C66.5884 18.7308 67.3333 18.6205 68.0894 18.5358C80.1754 16.8232 92.264 18.1162 103.98 21.777C111.526 24.1327 118.545 28.1924 125.451 32.4304C126.718 33.2027 128.056 33.9192 129.407 34.6421C132.656 36.3809 135.974 38.1565 138.519 40.8334C142.129 44.591 145.071 48.9721 148.004 53.3408C149.056 54.907 150.106 56.4716 151.186 58.0052C151.398 58.31 151.629 58.6342 151.872 58.9752C154.492 62.6507 158.503 68.2789 155.676 72.63C155.313 73.1555 154.879 73.635 154.449 74.1108C154.174 74.4147 153.9 74.7171 153.647 75.029C150.985 78.2133 148.223 81.3019 145.464 84.3871C144.399 85.5783 143.334 86.7689 142.276 87.9643C141.833 88.4654 141.356 88.9787 140.867 89.5055C138.872 91.6549 136.667 94.0291 135.668 96.7151C134.631 99.5349 135.889 101.018 137.356 102.747C137.816 103.288 138.296 103.854 138.732 104.493C140.158 106.591 141.7 108.331 143.433 110.195C144.206 111.017 144.977 111.841 145.749 112.666C149.22 116.374 152.69 120.083 156.331 123.614C157.109 124.371 157.898 125.11 158.686 125.847C161.274 128.271 163.844 130.677 165.949 133.64C169.678 138.878 168.256 141.081 165.266 145.709C165.147 145.893 165.025 146.082 164.901 146.274C162.01 150.702 159.092 155.069 156.065 159.374C155.343 160.404 154.553 161.38 153.77 162.345C151.145 165.582 148.605 168.714 149.032 173.467L149.077 174.069C149.314 177.852 151.406 179.998 153.615 182.265C154.024 182.684 154.437 183.108 154.843 183.547C158.335 187.272 161.827 191.028 165.318 194.784L165.323 194.79C166.353 195.89 167.382 196.997 168.411 198.105C169.44 199.212 170.469 200.319 171.498 201.419C171.707 201.641 171.922 201.861 172.14 202.083Z" fill="url(#paint3_linear_1789_505)"/>
<path d="M87.2359 27.892C91.9843 25.9012 92.8477 21.9782 92.6627 17.7039C92.4777 13.7223 89.9493 11.0874 86.1258 10.1506C81.5624 9.03811 78.1706 6.81312 75.2105 3.24142C71.9421 -0.681586 67.0703 -1.0329 62.9385 2.12893C59.9167 4.41247 57.0183 5.75917 53.0098 5.81773C48.0763 5.87628 43.6979 11.146 42.9578 16.8841C42.7728 18.5236 42.7112 20.2216 42.8962 21.8611C43.2662 25.667 45.5479 27.1308 50.8514 27.2479C53.8732 27.5992 56.6483 28.5946 59.485 29.8242C62.6918 31.2295 66.2069 30.5268 69.1053 28.4775C71.3871 26.7795 73.4221 26.7209 76.3822 27.2479C79.8357 27.8334 83.5974 27.4236 87.2359 27.892Z" fill="#685751"/>
<path d="M87.2363 27.8921C86.2496 27.8921 85.4479 27.6579 84.7696 26.9553C83.8446 25.9599 82.4262 25.8428 81.3778 26.1941C78.7878 27.0724 76.4443 27.3066 73.9776 25.6671C72.8059 24.9059 71.2642 25.9599 70.1542 26.8967C66.1457 30.0585 61.8906 30.9368 57.3271 28.0092C55.3537 26.7211 53.1954 26.3697 50.9136 27.3651C51.0986 29.1217 50.5436 30.9368 51.5303 32.6348C51.7153 32.8105 51.962 32.9862 52.147 33.1618C53.072 34.3914 54.4904 34.6842 55.9705 34.8598C57.3272 39.3098 57.0188 40.071 53.442 42.0032C53.8737 45.0479 56.5871 46.8631 57.6972 49.5565C59.3622 49.9663 60.9656 50.4348 62.6306 50.8446C70.0925 52.894 74.1009 48.3269 77.6777 43.9355C77.3694 45.7506 76.136 47.917 78.6027 49.7907L78.6644 49.5565C78.7878 45.8091 77.8627 42.0032 79.9595 38.4315C80.5145 37.4361 81.0078 36.675 82.1795 36.2651C86.4963 34.6842 87.0514 33.7473 86.8047 29.0632C86.743 28.5947 87.0513 28.2434 87.2363 27.8921Z" fill="#F1AD99"/>
<path d="M52.208 32.6349C51.9614 32.5764 51.653 32.5764 51.4064 32.5178C51.4064 35.7382 52.3314 38.8415 53.2564 41.8862C56.2781 42.0033 58.1898 39.5441 57.3265 36.7921C57.0798 35.9724 56.6481 35.1527 56.3398 34.3915C54.5514 34.6843 53.0097 34.5672 52.208 32.6349Z" fill="#F08A7D"/>
<path d="M82.1175 51.2544C76.3823 54.6504 70.2154 56.1728 63.3702 54.709C67.6254 57.6366 78.479 55.88 83.0425 51.3715C82.7341 51.3129 82.4258 51.3129 82.1175 51.2544Z" fill="#F4DECA"/>
<path d="M78.5405 49.7319C77.2455 47.624 78.3555 45.3405 77.7388 42.8228C73.7921 47.5655 69.4752 51.5471 62.5683 50.7859C68.0569 53.6549 73.2987 51.7227 78.5405 49.7319Z" fill="#EFAE9A"/>
<path d="M68.6123 282.84C70.2774 256.398 71.9424 229.901 73.6075 203.459C78.6026 232.295 88.4079 260.043 95.8081 288.336C96.4248 289.315 97.4732 289.206 98.5216 289.206C104.133 289.206 109.622 288.118 115.234 287.955C116.837 287.9 117.885 287.139 117.762 285.506C117.639 284.418 117.947 283.33 117.577 282.296C116.282 266.844 114 251.501 111.534 236.212C108.512 217.006 105.49 197.855 105.058 178.431C104.873 170.378 104.133 162.326 103.763 154.273C103.702 152.587 103.147 151.227 101.605 150.03C99.1383 148.071 97.3498 145.623 96.7948 142.63C96.3632 142.195 95.8081 141.923 95.1915 141.923C89.1479 141.814 83.1044 141.27 77.1226 142.304C76.3209 142.467 75.5192 142.793 74.7175 142.739C66.6389 142.249 58.6837 144.48 50.6051 143.936C49.0017 143.827 47.275 143.609 45.98 144.806C44.9933 147.853 44.5616 151.063 41.1698 152.968C40.3065 153.457 40.8615 154.491 40.9231 155.253C41.7865 182.131 42.5882 209.008 43.5132 235.886C44.1299 253.351 44.8082 270.816 45.4249 288.281C46.1649 289.75 47.7067 289.641 49.125 289.696C54.3669 289.75 59.6087 289.805 64.8505 289.696C68.1806 289.641 68.4273 289.315 68.489 286.377C68.4273 285.18 68.1806 283.983 68.6123 282.84Z" fill="#717171"/>
<path d="M45.9798 144.697C46.7199 144.697 47.3982 144.589 48.1382 144.643C57.3269 145.405 66.3921 143.827 75.4574 143.174C82.6109 142.684 89.7028 142.847 96.7947 142.467C97.103 142.467 97.4114 142.467 97.7197 142.521C99.5698 143.555 101.42 143.5 103.332 142.63C105.367 142.902 105.922 142.14 105.737 140.399C105.243 136.046 104.38 131.694 104.442 127.287C104.195 125.981 102.9 125.981 101.852 125.763C89.4561 123.26 77.6775 119.343 66.6388 113.739C64.3571 112.596 61.952 111.508 59.9786 109.985C59.3619 108.679 58.2519 108.135 56.7101 107.917C53.8734 107.536 51.16 106.775 48.5082 105.741C46.4732 104.925 45.1165 99.9193 46.4732 98.3414C47.0282 97.6885 47.7682 97.9062 48.4466 98.1238C50.2966 98.6135 52.085 99.2664 53.8734 99.9737C55.6001 100.627 57.3885 100.844 59.1769 101.007C59.4852 102.912 59.2386 104.816 59.3002 106.72C59.3619 107.645 59.3002 108.57 59.7319 109.386C60.3486 110.529 61.582 111.399 62.8153 111.345C64.3571 111.236 63.802 109.767 63.802 108.842C63.8637 106.285 63.8637 103.782 63.802 101.225C63.7404 99.484 64.1721 98.8311 66.4538 99.212C70.8939 99.9737 75.2724 100.681 79.7125 101.388C82.1176 101.116 83.5976 99.5384 85.4477 98.4503C88.4695 96.546 91.4912 94.6417 95.1297 93.9344C96.178 93.7167 98.5214 92.8462 97.2264 95.5666C96.6714 96.7636 98.1514 96.7092 98.9531 96.8724C101.975 97.5797 101.975 97.6341 99.9398 99.484C99.4465 99.9193 98.6448 100.355 99.0148 101.007C99.6315 101.987 100.927 101.225 102.098 101.66C100.186 103.565 97.7197 103.728 95.253 104C85.8794 102.204 76.3824 100.953 66.9471 99.3752C64.1721 98.9399 63.7404 99.8649 63.802 101.878C63.8637 104.49 63.9254 107.101 63.802 109.767C63.6787 111.671 64.6037 112.76 66.3921 113.685C77.4308 119.125 89.0861 123.152 101.42 125.6C103.64 126.035 105.675 127.559 108.203 126.797C110.547 126.797 112.89 126.797 115.295 126.743C119.304 126.634 121.894 124.784 122.51 121.302C123.744 114.337 122.264 107.428 120.907 100.627C119.859 95.2946 118.255 90.0714 116.96 84.8482C114.987 79.3529 112.952 73.8577 110.978 68.4168C110.238 66.4037 109.128 64.6083 107.71 62.976C105.675 63.3569 105.243 65.0435 104.503 66.2949C100.988 72.0622 98.3981 78.1015 97.2264 84.6305C97.103 85.2834 96.6714 85.7731 96.6097 86.426C96.363 87.4598 97.0414 88.3303 97.0414 89.2008C97.2264 89.6905 96.6097 89.4729 96.9797 89.4185C97.1031 89.4185 97.0414 89.3096 96.9797 89.1464C96.7331 87.5686 95.3763 87.4598 94.0196 87.3509C86.6811 86.9157 79.3425 86.8069 72.004 87.7862C65.2821 88.7112 58.5602 88.6567 51.8384 88.0038C50.235 87.8406 48.5699 87.7318 46.9665 88.2759C45.6098 88.9832 46.1648 90.1802 45.9181 91.2139C47.0899 85.5011 44.7465 80.2234 43.3898 74.837C43.2664 74.5106 43.9448 74.7282 43.5131 74.7282C43.4514 74.7282 43.4514 74.837 43.5131 75.0002C44.1298 77.7207 45.1165 80.3867 45.6098 83.1615C45.8565 84.5761 46.7199 85.6643 48.4466 86.0451C58.3135 87.0245 68.1188 86.8613 77.9241 85.6099C82.3026 85.0114 86.7428 85.0658 91.1212 85.6099C92.7246 85.8275 94.3896 85.8819 95.993 85.4466C97.5964 84.9026 97.288 83.4335 97.5347 82.4542C99.1998 76.034 101.79 69.9403 105.737 64.3362C106.292 63.5201 107.093 62.704 106.477 61.6158C100.001 55.9573 91.7996 53.2369 83.166 51.387C79.4042 52.9649 75.9508 55.0868 71.5723 55.25C69.2289 55.3588 66.9471 55.3588 64.7271 54.8692C64.357 54.7059 64.9738 54.2707 64.7887 54.5971C71.3256 56.3926 77.1224 54.978 82.3026 51.2782C81.8092 49.5915 79.8975 50.2444 78.7258 49.646C78.6025 49.646 78.4175 49.646 78.2941 49.646C74.224 50.3533 70.3389 52.0399 65.9604 51.2238C64.8504 51.0062 63.8021 50.7341 62.7537 50.2989C61.0886 49.8092 59.6086 48.721 57.6969 49.646C53.0101 51.6591 48.3232 53.7266 43.5748 55.6309C34.4478 59.3306 29.5143 65.5876 28.7126 74.4018C27.5409 86.6436 26.2459 98.9399 25.1359 111.182C24.4575 118.962 26.1226 120.758 34.6945 122.281C35.3729 122.39 36.1129 122.553 36.7912 122.662C49.6183 123.859 62.322 122.608 72.929 121.193C69.6606 121.574 64.2954 122.172 58.9302 122.662C53.3801 123.152 47.8915 123.043 42.3414 123.097C41.6014 123.097 40.8614 122.934 40.553 123.696C40.6147 130.769 40.738 137.787 40.7997 144.861C42.0947 145.84 43.4514 145.731 44.8081 144.915C45.1165 144.697 45.5482 144.697 45.9798 144.697Z" fill="#6A87B1"/>
<path d="M91.0595 306.671C89.0861 308.249 87.1744 309.881 84.8927 311.078C83.0426 312.057 81.8709 313.526 81.0076 315.159C80.2059 316.682 78.9108 318.586 80.3292 320.001C81.4392 321.144 83.5976 320.382 85.3243 320.164C95.1296 318.967 104.935 317.716 114.74 316.628C120.475 316.029 121.215 315.104 120.29 309.99C119.304 304.603 118.749 299.108 117.454 293.722C116.96 293.341 116.344 293.069 115.727 293.287C111.41 294.701 106.662 293.559 102.345 294.81C100.556 295.3 99.3848 294.701 98.5214 293.341C98.2131 293.123 97.9664 293.123 97.6581 293.341C98.4597 296.551 96.1164 299.163 95.438 302.101C96.7947 302.754 98.1514 302.427 99.5081 302.209C99.8781 301.992 99.3231 301.774 99.5698 302.101C97.843 303.026 95.7463 302.046 94.0813 303.08C93.4646 303.951 92.8479 304.767 92.2312 305.637C92.9713 306.562 93.8346 305.8 94.513 305.855C93.4646 306.345 92.1079 306.018 91.0595 306.671Z" fill="#CBCBCB"/>
<path d="M44.6844 293.178C47.5828 293.994 47.7062 295.626 46.4111 297.694C45.4245 299.38 44.2527 300.958 42.711 302.318C43.3894 303.189 44.3761 302.917 45.2394 302.917C44.3144 303.189 43.1427 302.645 42.2793 303.515C38.8876 305.474 36.2975 308.358 32.3507 309.663C28.8972 310.752 27.3555 313.418 26.1222 316.356C25.2588 318.423 25.9989 318.858 28.2189 318.858C36.8525 318.804 45.4861 318.858 54.1197 318.858C57.3265 318.858 60.4716 318.75 63.6783 318.858C66.0834 318.967 66.9468 318.097 66.9468 315.975C66.8234 310.262 66.8234 304.549 66.9468 298.836C67.0084 296.823 66.5768 294.484 69.2285 293.178C68.1802 292.525 67.3168 292.634 66.4534 293.45C65.8367 295.3 64.3567 295.953 62.2599 295.844C58.8065 295.681 55.2914 295.517 51.838 296.061C49.4329 296.442 48.6312 295.028 48.0145 293.395C47.0278 292.47 45.9178 292.362 44.6844 293.178Z" fill="#CBCBCB"/>
<path d="M44.6845 293.178C45.7329 293.287 46.9046 292.851 47.7679 293.668C48.0763 293.885 48.3846 294.212 48.7546 294.266C54.4281 294.81 60.1633 294.865 65.8368 294.266C66.2068 294.212 66.5152 293.94 66.8235 293.668C67.4402 292.96 68.3652 293.232 69.2286 293.178C69.722 289.696 68.1802 286.322 68.6119 282.84C67.8102 283.82 67.9952 284.962 68.1185 285.996C68.4269 288.499 67.1935 288.988 64.6035 288.934C59.3 288.771 53.9348 288.88 48.5696 288.88C47.4596 288.88 46.2879 288.988 45.3629 288.281C44.1295 289.805 44.2528 291.437 44.6845 293.178Z" fill="#B3B1B1"/>
<path d="M117.515 282.241C117.145 286.921 117.145 286.866 111.533 287.247C106.291 287.628 101.111 288.662 95.8077 288.281C93.9577 289.369 94.451 290.947 94.7594 292.361C95.0677 293.722 96.6711 292.851 97.5961 293.286L97.6578 293.123C101.666 293.504 105.675 293.83 109.622 292.579C111.04 292.144 112.643 292.416 114.185 292.361C115.295 292.307 116.405 292.307 117.33 291.545C121.03 290.348 121.154 289.532 118.44 286.377C117.453 285.18 118.563 283.493 117.515 282.241Z" fill="#B4B2B3"/>
<path d="M108.142 126.797C93.403 123.587 78.9109 119.778 65.7754 112.814C64.6654 112.216 64.1721 111.563 64.2337 110.42C64.2954 107.428 64.3571 104.435 64.2337 101.443C64.1721 99.8105 64.7887 99.484 66.5771 99.8105C76.3208 101.552 86.0644 103.184 95.8081 104.87C96.5481 103.946 95.7464 103.401 95.0064 103.238C90.1962 102.096 85.4477 100.627 80.3909 101.007C75.5808 100.246 70.7089 99.6473 65.9604 98.7223C63.3704 98.2326 63.0004 99.0488 63.062 101.007C63.1854 104.272 63.1237 107.482 63.1237 110.964C61.212 110.638 60.2253 109.93 60.287 108.135C60.4103 105.795 60.3486 103.456 60.287 101.116C60.287 100.409 60.7803 99.4296 59.5469 99.0488C58.0669 102.803 58.1286 106.612 59.5469 110.366C72.2507 118.146 86.4344 122.988 101.42 126.144C102.53 126.362 103.64 126.525 104.442 127.287C105.737 127.287 106.97 127.232 108.265 127.232C108.203 127.123 108.142 126.96 108.142 126.797Z" fill="#FBDFD4"/>
<path d="M117.33 291.545C110.67 291.273 104.256 292.688 97.6578 293.178C98.2128 296.061 100.125 296.388 102.9 295.463C104.626 294.919 106.476 294.647 108.326 294.864C111.472 295.245 114.37 294.103 117.33 293.722C117.33 293.014 117.33 292.253 117.33 291.545Z" fill="#EFAE9A"/>
<path d="M40.4294 123.533C46.3496 123.26 52.2698 123.533 58.1283 123.043C63.8635 122.553 69.5369 121.955 75.2104 121.193C75.8888 121.084 76.6288 121.084 77.4922 119.833C63.6168 122.118 50.173 122.553 36.6676 122.444C37.6543 123.478 39.4427 122.444 40.4294 123.533Z" fill="#FBD5C8"/>
<path d="M97.1645 85.9908C98.5828 79.2986 100.865 72.8784 104.565 66.8935C105.428 65.4789 106.045 63.901 107.586 62.8673C107.216 62.3776 106.846 61.8879 106.415 61.4526C103.701 66.567 100.31 71.4094 98.5212 76.9046C97.6578 79.5162 96.7944 82.0734 96.4861 84.7938C96.4244 85.3379 96.6094 85.7732 97.1645 85.9908Z" fill="#F9D0C7"/>
<path d="M103.27 142.684C101.42 142.63 99.5699 142.63 97.6582 142.575C98.3982 145.459 100.248 147.798 103.27 150.192C103.27 147.363 103.27 145.024 103.27 142.684Z" fill="#82807E"/>
<path d="M44.6846 144.697C43.3279 144.697 42.0328 144.643 40.6761 144.643C40.1828 146.928 40.6145 149.213 40.6145 152.097C43.6979 149.975 44.3762 147.418 44.6846 144.697Z" fill="#848484"/>
<path d="M91.0595 306.671C94.5746 306.562 95.9313 306.345 97.7197 305.42C95.6847 304.658 93.8963 305.746 92.0463 305.583C91.4296 305.692 90.9362 305.964 91.0595 306.671Z" fill="#68696D"/>
<path d="M42.3412 303.515C44.2529 303.243 46.288 303.733 48.1997 303.189C48.1997 302.917 48.1997 302.59 48.1997 302.318C46.4113 302.318 44.5613 302.318 42.7729 302.318C42.0945 302.59 42.2179 303.026 42.3412 303.515Z" fill="#66676B"/>
<path d="M93.9577 303.026C95.9311 303.135 97.9045 303.135 100.31 302.319C98.3978 301.448 96.8561 302.101 95.3761 302.047C95.0677 302.591 93.896 302.101 93.9577 303.026Z" fill="#5D5F63"/>
<path d="M74.2856 199.487C74.039 195.732 73.7923 192.196 73.5457 188.605C72.9906 181.586 72.3123 174.513 71.8189 167.495C71.6956 165.645 71.3256 164.012 69.7839 162.543C67.6872 160.53 66.7005 157.973 65.2821 154.817C64.7271 157.592 65.7754 159.551 67.1321 160.802C71.0172 164.284 70.7089 168.637 71.0789 172.881C71.8189 181.369 72.4356 189.856 73.0523 198.344C73.1139 198.725 73.1139 199.106 74.2856 199.487Z" fill="#EDEDED"/>
<path d="M97.1645 85.9905C96.9178 85.6097 96.6711 85.1744 96.4245 84.7935C86.3108 84.0318 76.2589 84.6303 66.1452 85.6097C60.0401 86.2082 53.8732 85.3376 47.768 85.2832C46.9663 85.0112 45.9179 84.7935 45.7329 85.6641C45.6096 86.589 44.6229 87.9492 46.473 88.6021C54.7365 88.8198 63.0618 89.6359 71.3254 88.6021C77.7389 87.786 84.1524 87.5684 90.6276 87.9492C95.7461 88.2213 95.7461 88.1669 97.5962 92.0298C97.4729 90.0711 97.3495 88.058 97.1645 85.9905Z" fill="#FCF9F8"/>
<path d="M80.3905 101.062C84.584 101.823 88.7775 102.531 92.971 103.456C93.9576 103.673 95.6227 103.292 95.8077 104.925C97.9044 104.272 100.248 104.217 102.098 102.966C102.776 102.531 103.948 101.932 103.516 101.116C103.085 100.191 101.913 100.681 101.05 100.844C100.556 100.899 100.124 101.062 99.1995 101.279C100.186 99.5927 103.393 99.3207 102.345 97.3076C101.543 95.6753 99.1995 96.6003 97.5344 96.2194C97.4111 95.0768 99.9395 95.0224 99.1378 93.9887C98.3361 92.9549 96.6094 92.9005 95.191 93.2269C91.5526 94.0431 88.4691 95.8385 85.4474 97.634C83.659 98.6678 82.0556 99.9192 80.3905 101.062Z" fill="#EFAE9A"/>
<path d="M59.4854 110.366C59.4854 106.611 59.4854 102.803 59.4854 99.0487C58.8687 100.246 57.9437 100.627 56.4636 100.137C53.4418 99.1031 50.3584 98.1782 47.2749 97.1989C45.7949 96.7092 45.1782 97.09 45.2399 98.4502C45.3016 100.355 45.3016 102.259 45.2399 104.109C45.2399 105.306 45.8566 105.795 47.09 106.231C50.2967 107.373 53.5652 108.57 57.0186 108.733C58.622 108.788 58.7453 109.767 59.4854 110.366Z" fill="#EFAE9A"/>
<path d="M46.5347 88.6569C45.7947 87.1878 44.8696 85.7188 47.7681 85.338C46.4114 84.9027 46.2264 83.8689 45.9797 82.7808C45.178 79.2986 44.253 75.8165 42.5262 72.552C44.4996 79.7883 46.0414 87.0246 45.6714 94.533C46.9664 92.6287 46.3497 90.6156 46.5347 88.6569Z" fill="#F6D8C8"/>
<path d="M85.386 312.384C97.9047 314.615 102.345 306.725 107.463 299.38C106.292 298.999 106.107 299.761 105.737 300.196C103.887 302.482 101.975 304.712 100.248 307.052C97.9664 310.262 94.6363 311.568 90.5045 311.677C88.7778 311.731 87.0511 312.166 85.386 312.384Z" fill="#5D5C63"/>
<path d="M66.8853 293.667C60.5334 293.667 54.1815 293.667 47.768 293.667C47.2747 295.898 48.5697 297.15 50.8514 296.823C55.2299 296.225 59.6084 296.551 63.9869 296.497C66.3919 296.497 67.1936 295.572 66.8853 293.667Z" fill="#EFAE9A"/>
<path d="M56.0317 300.469C54.1817 301.067 53.6883 302.536 52.5166 303.461C51.4683 304.277 50.4199 305.202 49.5565 306.181C46.2264 309.881 42.218 312.003 36.5445 311.187C35.0644 310.969 33.461 311.133 31.9193 311.405C40.1829 314.397 51.5299 309.174 56.0317 300.469Z" fill="#5E6164"/>
<path d="M39.5661 306.29C40.4911 306.29 41.3545 306.29 42.2795 306.29C43.2662 306.29 44.2529 306.29 45.3013 306.29C45.3013 306.073 45.3013 305.855 45.3013 305.637C43.3279 305.583 41.4161 305.365 39.5661 306.29Z" fill="#414243"/>
<path d="M68.7355 34.157C66.8854 35.1524 66.3304 36.6162 67.3171 38.4313C68.4271 40.5977 71.8806 42.1201 73.9156 41.4175C77.4307 40.1879 79.2808 37.553 78.5408 34.5669C77.9857 32.1662 75.0873 30.6438 71.1405 30.7609C70.0922 31.8149 68.7355 32.5175 68.7355 34.157Z" fill="#F78678"/>
<path d="M60.1021 37.1433C59.9171 39.3097 59.7321 41.3005 62.8772 40.6564C63.2472 40.5979 63.6789 40.3637 63.8639 40.1295C64.2339 39.7196 61.8905 34.04 61.3355 33.9229C60.5954 33.7472 60.1638 34.1571 60.1638 34.8597C60.1021 35.6795 60.1021 36.5578 60.1021 37.1433Z" fill="#F17B65"/>
<path d="M68.7354 34.1571C69.5988 33.1032 70.7705 32.1663 71.2021 30.8196C70.8938 30.8196 70.4005 30.7025 70.3388 30.8196C68.7971 33.0446 66.947 33.5716 64.5419 31.6394C65.282 33.6887 66.7003 34.3328 68.7354 34.1571Z" fill="#805042"/>
<path d="M59.7934 45.3404C62.0135 43.9937 64.1719 44.1694 66.6387 45.5161C64.6036 42.647 62.1985 42.647 59.7934 45.3404Z" fill="#774B40"/>
<path d="M52.2084 32.6345C52.5784 35.3865 54.1818 35.3865 56.3402 34.3911C56.5253 33.8641 57.2036 33.5128 56.7102 32.6345C55.2302 34.6253 53.6885 33.747 52.2084 32.6345Z" fill="#784742"/>
<path d="M259.449 78.7455C262.224 80.2679 264.999 80.0922 267.959 79.214C272.893 77.7502 276.531 78.0429 278.443 82.5514C280.046 86.2988 283.561 87.1185 288.618 86.0646C293.12 85.1278 296.08 82.1416 296.45 78.2186C296.574 76.7548 296.574 75.291 296.574 73.8271C296.82 73.5929 297.005 73.3002 297.129 72.9489C298.177 67.9719 295.957 63.2877 295.71 58.4279C295.71 57.8423 295.525 57.3154 295.525 56.7298C295.648 53.9779 294.723 51.343 294.847 48.5911C295.032 44.6681 296.574 43.0871 300.705 43.1457C305.392 43.2042 309.894 42.7944 314.211 40.8622C315.814 40.1595 316.369 41.1549 317.171 42.0918C318.959 44.024 320.316 46.4832 323.461 46.8345C326.791 48.5911 326.791 48.5911 327.531 45.1365C328.271 41.6819 328.333 38.1687 327.654 34.6556C325.249 22.9451 314.149 20.5445 305.33 21.4813C296.882 22.3596 289.975 25.8142 285.288 32.9576C282.883 36.7049 279.43 39.7497 275.976 42.6773C274.064 44.3167 271.906 45.5463 269.439 46.3661C264.136 48.0641 259.511 50.9917 255.441 54.6805C249.89 59.7746 249.15 67.0351 253.591 73.2416C255.194 75.3495 257.044 77.3403 259.449 78.7455Z" fill="#494543"/>
<path d="M323.461 46.8343C320.871 45.0778 318.651 42.9699 316.862 40.4521C316.431 39.8666 316.246 38.8712 314.827 39.6909C310.696 42.1501 306.009 42.3843 301.26 42.2672C295.895 42.1501 293.983 43.9067 294.107 48.9422C294.168 51.46 294.538 53.9777 294.785 56.4369C296.08 59.5402 298.3 62.0579 300.212 64.7514C301.445 64.8099 302.617 64.8099 303.85 65.2198C308.167 66.625 311.867 65.454 314.951 62.3507C316.492 60.0086 319.329 58.6619 320.501 56.0271C320.933 54.9731 321.796 54.0948 321.611 52.8652C320.994 52.104 319.884 52.5725 319.021 51.8113C320.871 52.631 321.796 51.7527 322.474 50.4646C322.536 49.1179 322.659 47.8883 323.461 46.8343Z" fill="#F2AD96"/>
<path d="M322.474 50.3474C320.933 51.6356 319.453 52.5724 318.774 49.0007C317.973 52.4553 318.404 52.8652 321.549 52.8066C321.241 51.7527 324.139 51.8112 322.474 50.3474Z" fill="#7E534B"/>
<path d="M303.049 74.3541C303.295 73.8271 303.234 73.3587 302.555 73.1245C300.52 72.4218 298.423 71.8363 296.512 73.4758C296.512 73.5929 296.512 73.71 296.512 73.7685C298.67 74.4126 300.952 73.4758 303.049 74.3541Z" fill="#FCE0F7"/>
<path d="M296.574 73.4759C298.609 73.3588 300.582 73.2417 302.617 73.1246C301.754 70.3141 299.595 67.8549 300.212 64.6931C299.719 61.18 296.82 59.0721 294.847 56.3787C294.847 62.1168 296.944 67.6793 296.574 73.4759Z" fill="#D57E94"/>
<path d="M306.934 47.5369C304.221 46.1316 302.186 47.127 300.644 49.2934C299.595 50.7573 300.089 54.7974 301.322 55.8513C303.727 57.9006 306.749 58.1349 309.401 56.3783C311.682 54.8559 312.546 52.9237 311.189 50.4059C309.031 50.4059 308.476 48.2981 306.934 47.5369Z" fill="#F58876"/>
<path d="M315.444 49.7036C314.457 50.2891 314.272 51.1674 313.841 51.9286C311.867 55.6174 311.867 55.6174 316.061 57.0227C316.122 54.5635 316.739 52.1043 315.444 49.7036Z" fill="#F67663"/>
<path d="M306.934 47.5369C307.921 49.0593 308.476 51.1086 311.127 50.3475C311.374 49.6448 312.484 49.4692 312.237 48.2396C310.202 49.4692 308.784 49.4692 307.921 46.8343C307.674 45.8389 307.057 46.8929 306.934 47.5369Z" fill="#834F47"/>
<path d="M314.519 60.7699C313.039 59.5988 311.374 59.5403 308.907 59.5403C311.004 60.9455 312.731 60.9455 314.519 60.7699Z" fill="#815B56"/>
<path d="M257.661 296.219C260.313 296.219 262.964 296.271 265.616 296.166C267.096 296.114 269.07 295.956 268.761 294.12C268.515 292.284 266.665 291.811 264.815 292.074C262.841 292.389 260.929 293.071 258.401 293.753C260.498 291.969 262.471 290.762 263.519 288.978C264.013 288.191 264.691 288.296 265.308 288.611C267.528 289.713 268.391 288.663 269.008 287.089C269.501 285.935 270.056 284.833 270.611 283.731C272.338 282.944 272.153 281.318 272.646 280.059C279.368 263.531 285.843 246.899 290.777 229.846C291.455 227.538 291.64 225.229 291.825 222.868C292.504 214.316 292.257 205.816 292.442 197.264C292.565 192.122 291.394 187.032 291.764 181.891C291.024 179.267 291.024 179.267 288.495 181.313C287.755 180.526 287.879 179.215 286.584 178.795C284.98 178.27 285.288 177.221 285.72 176.172C286.707 173.81 287.509 171.397 288.619 169.036C289.112 167.882 289.667 166.78 289.359 165.468C286.028 161.428 285.473 156.601 284.487 151.931C284.055 151.407 283.438 151.092 282.637 151.197C282.267 151.302 282.02 151.512 281.835 151.826C280.972 155.184 281.897 158.595 280.91 161.953C280.232 164.261 279.862 166.622 277.518 168.249C276.532 168.931 276.47 169.875 276.47 170.872C276.963 180.474 277.21 190.076 277.827 199.625C278.197 204.924 277.765 210.276 278.443 213.739C277.888 202.143 277.272 188.659 276.717 175.227C276.47 169.666 276.47 164.051 276.408 158.49C276.408 158.123 276.408 157.808 276.408 157.44C276.223 151.669 275.73 151.249 268.946 151.249C266.788 151.249 264.63 151.302 262.471 151.197C258.956 150.462 255.379 150.829 251.864 150.672C250.322 150.62 249.952 151.302 249.829 152.403C246.931 167.619 249.829 182.52 253.591 197.316C255.071 203.193 256.613 209.069 258.154 214.946C258.524 216.362 258.401 217.674 258.031 219.091C252.419 237.297 246.931 255.556 241.38 273.815C241.257 274.339 241.134 274.864 241.01 275.336C247.424 277.96 254.208 279.586 260.806 281.633C262.224 282.105 263.766 282.42 264.63 282.839C257.723 280.846 250.384 278.589 243.046 276.281C242.182 276.018 241.319 275.599 240.517 276.438C240.209 277.435 240.085 278.484 239.592 279.376C238.852 280.846 239.654 281.37 241.134 281.738C242.861 283.259 245.204 283.626 247.424 284.151C250.076 284.833 252.542 285.778 255.194 286.407C257.291 286.722 258.216 287.457 256.736 289.188C256.613 289.398 256.489 289.608 256.366 289.87C255.934 290.657 255.441 291.444 254.948 292.231C253.406 295.694 253.899 296.429 257.661 296.219Z" fill="#686868"/>
<path d="M282.39 151.617C282.575 151.512 282.822 151.459 283.007 151.354C284.487 148.311 283.007 145.32 282.76 142.33C282.143 134.932 282.328 127.481 282.328 120.083C282.328 110.744 281.958 101.404 282.575 92.0652C282.575 91.8028 282.637 91.488 282.575 91.4355C282.883 92.7472 282.267 94.2164 282.267 95.6855C282.328 109.065 282.143 122.392 282.39 135.771C282.513 141.228 282.76 146.737 284.117 152.089C284.117 156.024 285.103 159.854 287.015 163.422C287.447 164.261 288.063 165.153 289.112 165.626C291.887 167.672 297.93 167.409 300.212 165.101C304.899 162.792 305.639 158.857 305.577 154.922C305.269 141.595 305.084 128.268 305.207 114.941C305.269 105.812 305.516 96.6299 305.639 87.5004C305.639 86.6085 305.639 85.769 306.317 85.0344C306.009 81.3092 306.071 77.5315 303.604 74.1735C301.261 72.8094 298.794 72.8618 296.265 73.8062C295.464 74.8031 295.71 76.0099 295.587 77.1117C295.217 80.6796 292.812 83.0406 288.68 83.9326C283.562 84.982 281.218 84.4048 278.875 80.6796C276.901 77.6364 273.818 76.7445 270.303 77.4265C266.665 78.1086 263.149 78.4234 259.449 78.1611C257.414 84.4573 255.194 90.701 253.591 97.0496C249.521 113.052 246.561 129.213 245.451 145.583C245.327 147.786 245.266 150.095 248.657 150.725C249.706 150.934 249.706 151.669 249.829 152.351C250.261 151.721 250.507 151.197 251.802 151.302C255.256 151.617 258.771 151.617 262.224 151.721C266.788 151.879 271.413 151.302 275.976 152.089C277.642 152.246 279.245 152.246 280.91 152.141C281.403 152.089 281.897 151.826 282.39 151.617Z" fill="#D57E94"/>
<path d="M300.027 284.046C300.336 261.694 300.089 239.343 299.534 216.992C299.287 206.183 298.794 195.375 298.362 184.514C298.547 184.042 298.424 183.622 298.116 183.307C297.129 182.363 297.006 180.316 295.464 180.474C293.984 180.631 294.662 182.572 294.292 183.674C293.984 184.619 293.984 185.616 292.565 185.93C291.579 186.193 291.579 186.927 291.517 187.662C292.134 199.939 292.134 212.269 291.394 224.547C291.024 231.053 288.31 237.349 286.152 243.593C281.773 256.133 277.025 268.568 271.968 280.95C270.673 284.098 271.413 284.885 275.36 284.885C282.452 284.938 289.544 284.885 296.574 284.885C297.807 284.885 299.102 285.043 300.027 284.046Z" fill="#686868"/>
<path d="M276.901 297.215C276.901 303.879 276.84 310.49 276.84 317.153C276.84 319.305 278.135 320.354 280.663 320.354C292.565 320.354 304.467 320.354 316.369 320.406C318.466 320.406 318.774 319.724 318.343 318.15C317.356 314.478 314.827 311.854 310.819 310.385C307.427 309.178 304.652 307.342 302 305.191C300.459 305.086 300.212 306.45 299.225 306.922C299.657 306.502 300.52 305.873 300.027 305.296C298.855 303.984 297.067 304.876 295.71 304.614C297.005 304.246 298.794 305.243 300.15 303.931C299.595 303.039 299.04 302.148 298.424 301.098C299.78 300.469 301.199 301.098 302.494 300.836C301.507 299.629 299.904 299.629 298.609 299.839C296.142 300.206 294.724 299.682 294.292 297.53C294.23 297.216 293.86 296.953 293.49 296.796C288.002 296.376 282.39 295.746 276.901 297.215Z" fill="#807F7F"/>
<path d="M257.661 296.219C253.838 295.956 254.763 294.015 255.626 292.074C254.393 290.972 252.542 290.657 251.124 289.765C250.877 289.66 250.631 289.555 250.322 289.45C248.102 289.45 246.067 288.926 244.526 287.456C242.861 287.299 241.442 286.197 239.654 286.722C237.249 292.179 234.905 297.635 232.377 303.039C231.329 305.243 233.364 305.243 234.72 305.768C238.482 307.867 242.861 308.863 246.992 310.28C253.468 312.536 260.004 314.792 266.603 316.839C257.969 314.163 249.521 311.172 240.949 308.339C238.667 307.604 236.447 306.66 234.042 306.24C233.117 306.712 231.637 304.718 231.082 306.607C230.588 308.286 231.822 309.231 233.487 309.755C238.729 311.434 244.032 313.061 249.336 314.74C255.194 316.576 261.053 318.308 266.85 320.301C268.946 321.036 269.563 320.459 269.81 318.78C270.365 314.95 268.823 311.749 265.616 309.126C263.026 306.975 260.806 304.613 259.819 301.57C257.908 301.518 256.859 302.987 255.379 303.249C255.749 302.934 256.489 302.777 257.168 302.462C257.599 302.252 258.093 301.99 258.093 301.518C258.154 300.731 257.291 300.836 256.798 300.731C255.749 300.468 254.763 299.891 253.776 299.734C255.441 299.681 256.798 301.518 258.771 300.468C258.463 298.999 258.031 297.583 257.661 296.219Z" fill="#807F7F"/>
<path d="M292.072 187.085C296.265 186.245 294.662 183.15 295.402 180.684C296.45 182.048 297.005 183.517 298.362 184.514C299.78 183.464 299.534 181.995 299.534 180.631C299.534 178.532 299.472 176.434 299.472 174.335C299.472 173.758 299.225 172.866 299.965 172.656C303.666 171.659 301.692 169.77 301.014 168.144C300.582 167.147 299.965 166.255 300.212 165.153C296.574 166.832 292.874 166.36 289.112 165.678C287.57 169.455 286.09 173.233 284.548 177.011C284.117 178.113 283.438 179.372 285.843 179.267C287.077 179.215 287.015 180.002 287.138 180.684C287.323 181.471 286.953 182.677 288.248 182.782C289.235 182.887 289.42 181.733 289.913 181.103C290.16 180.841 290.345 180.526 290.715 180.002C290.838 180.631 290.962 181.051 291.085 181.471C291.517 182.94 291.147 184.409 291.332 185.826C291.332 186.298 290.838 187.085 292.072 187.085Z" fill="#EFAE9A"/>
<path d="M293.984 297.215C294.292 300.836 294.292 300.836 298.794 300.416C300.027 300.311 301.384 300.101 302.556 300.836C304.344 301.098 305.393 301.99 306.194 303.354C307.489 305.453 307.798 305.505 310.141 305.085C306.379 304.089 306.318 298.999 301.261 299.576C302.679 299.052 304.098 298.632 305.454 298.002C306.688 297.425 308.291 296.796 307.243 295.274C306.379 293.962 304.653 293.7 303.173 294.382C301.323 295.274 299.657 296.481 297.684 297.53C301.076 293.752 299.842 289.398 300.089 285.2C299.719 284.361 298.917 284.361 298.054 284.361C290.161 284.361 282.267 284.361 274.435 284.361C272.462 284.361 271.228 284.885 271.29 286.774C270.858 288.768 271.722 289.66 274.188 289.293C274.867 289.188 275.607 289.345 276.285 289.398C277.395 290.237 278.752 290.08 280.047 290.08C283.809 290.132 287.57 290.08 291.394 290.08C294.477 290.08 294.416 290.08 293.922 292.598C293.676 294.172 292.751 295.694 293.984 297.215Z" fill="#686868"/>
<path d="M293.984 297.215C294.477 294.697 294.477 292.021 296.142 289.503C289.359 289.503 282.822 289.503 276.285 289.503C276.47 292.074 276.716 294.697 276.902 297.268C282.575 297.215 288.31 297.215 293.984 297.215Z" fill="#EFAE9A"/>
<path d="M271.29 286.827C271.906 286.092 271.475 284.886 273.448 284.938C281.958 285.043 290.469 284.886 298.979 284.886C299.349 284.886 299.719 285.148 300.089 285.253C300.089 284.833 300.027 284.466 300.027 284.046C291.517 284.046 283.007 283.994 274.496 284.099C271.598 284.151 271.536 283.259 272.338 281.265C278.197 266.837 283.808 252.408 288.68 237.717C291.085 230.371 292.565 222.973 292.319 215.313C292.01 205.921 292.134 196.477 292.072 187.033C290.839 185.249 292.319 183.097 291.024 181.366C291.147 188.869 291.024 196.372 291.455 203.875C292.319 219.668 289.544 234.936 283.438 249.837C279.307 259.858 275.606 270.037 271.721 280.111C271.29 281.265 270.981 282.42 270.611 283.626C271.906 284.571 270.673 285.83 271.29 286.827Z" fill="#AAAAAA"/>
<path d="M239.653 286.722C241.195 287.561 242.798 287.981 244.649 287.876C246.375 289.24 248.842 289.136 250.815 289.975C252.789 290.71 254.762 291.077 256.797 289.975C256.859 289.765 256.982 289.555 257.044 289.345C258.092 287.824 257.291 286.774 255.811 285.935C250.877 284.518 245.944 283.102 241.072 281.685C241.133 283.469 239.838 284.991 239.653 286.722Z" fill="#EFAE9A"/>
<path d="M234.165 306.24C239.9 308.759 246.006 310.438 251.987 312.536C257.353 314.373 262.779 316.104 268.145 317.94C268.268 317.678 268.391 317.416 268.515 317.153C257.229 313.376 246.006 309.65 234.72 305.873C234.535 305.925 234.35 306.083 234.165 306.24Z" fill="#E3EEFC"/>
<path d="M240.455 276.333C245.265 276.858 249.582 278.799 254.084 280.058C258.648 281.318 263.088 282.734 267.589 284.098C267.713 283.836 267.836 283.521 267.959 283.259C258.956 280.583 249.952 277.907 240.949 275.231C240.27 275.494 240.332 275.914 240.455 276.333Z" fill="#A9AAA9"/>
<path d="M300.212 303.931C297.93 304.509 295.402 303.564 293.244 305.086C295.34 305.086 297.437 305.086 299.719 305.086C299.349 306.66 297.437 307.184 297.314 308.758C299.534 308.024 300.397 306.24 302 305.191C301.939 304.246 301.014 304.141 300.212 303.931Z" fill="#4F5873"/>
<path d="M258.894 300.364C256.366 300.311 254.269 298.79 250.939 298.422C253.344 300.259 255.749 300.416 257.784 301.308C256.797 302.62 254.516 302.357 253.591 304.089C256.242 303.722 258.092 302.62 260.004 301.518C260.066 300.836 259.202 300.783 258.894 300.364Z" fill="#505672"/>
<path d="M282.39 151.616C281.958 151.616 281.465 151.564 281.033 151.564C279.862 152.666 280.232 154.03 280.17 155.289C280.108 158.07 280.293 160.851 279.43 163.579C279.122 164.523 279.06 165.625 277.58 166.465C278.012 162.425 277.025 158.647 277.025 154.817C277.025 153.715 277.21 152.561 276.347 151.564C271.66 151.406 266.911 151.249 262.225 151.669C265.74 151.721 269.193 151.826 272.647 151.826C274.312 151.826 274.99 152.246 275.052 153.715C275.36 161.375 275.792 169.036 276.162 176.749C276.778 190.443 277.395 204.137 278.012 217.831C278.012 218.303 277.827 218.88 279.122 219.353C279.122 217.726 279.183 216.257 279.122 214.788C278.567 201.986 277.95 189.131 277.333 176.329C277.272 175.174 277.087 174.073 276.963 172.918C276.778 171.03 276.84 169.508 278.937 167.934C282.082 165.573 281.773 161.743 282.205 158.385C282.513 156.181 282.328 153.872 282.39 151.616Z" fill="#A7A7A7"/>
<path d="M284.055 152.089C283.994 145.268 282.698 138.552 282.822 131.731C283.007 118.929 282.945 106.074 282.945 93.2718C282.945 92.3273 282.945 91.3829 282.452 90.4385C281.527 110.744 280.848 131.049 282.945 151.354C283.377 151.616 283.747 151.879 284.055 152.089Z" fill="#F9E4E9"/>
<path d="M256.674 293.281C259.141 292.126 260.621 290.867 261.916 289.45C262.348 288.978 263.335 288.349 262.286 287.824C261.423 287.352 260.19 286.722 259.326 287.824C258.278 289.346 257.168 290.867 256.674 293.281Z" fill="#EFF3F2"/>
<path d="M258.586 294.592C261.114 295.326 263.581 295.484 265.986 295.274C266.788 295.169 267.836 295.169 267.774 294.277C267.651 293.228 266.479 292.808 265.493 292.965C263.149 293.385 260.867 294.067 258.586 294.592Z" fill="#F7F7F7"/>
<path d="M256.798 289.975C254.824 289.975 252.851 289.975 250.816 289.975C251.926 291.444 253.653 291.916 255.564 292.073C255.996 291.391 256.366 290.657 256.798 289.975Z" fill="#EFAE9A"/>
<path d="M255.811 285.882C256.674 286.932 257.291 287.981 257.044 289.293C259.079 286.722 259.079 286.722 255.811 285.882Z" fill="#EFAE9A"/>
<path d="M276.285 151.616C275.792 156.758 276.963 161.848 276.778 166.937C276.717 168.144 277.457 168.039 278.258 167.462C279.615 166.517 279.923 165.101 280.293 163.737C281.404 159.697 281.218 155.656 281.033 151.564C279.43 151.564 277.888 151.616 276.285 151.616Z" fill="#4E4D4D"/>
<path d="M282.205 317.731C292.689 317.731 303.173 317.731 313.656 317.731C313.656 317.626 313.656 317.521 313.656 317.363C303.111 317.363 292.627 317.363 282.082 317.363C282.144 317.468 282.144 317.573 282.205 317.731Z" fill="#F3FDFE"/>
<path d="M250.816 289.975C249.089 288.559 246.931 288.086 244.649 287.876C245.759 290.657 248.473 289.818 250.816 289.975Z" fill="#EFAE9A"/>
<path d="M295.587 298.317C297.499 296.009 298.67 294.172 299.287 292.179C299.534 291.234 299.472 290.342 298.3 289.975C296.944 289.555 296.512 290.552 296.204 291.339C295.402 293.385 294.97 295.484 295.587 298.317Z" fill="#EFF1F1"/>
<path d="M297.684 298.947C300.335 298.894 302.555 298.265 304.652 297.373C305.454 297.058 306.996 296.848 306.194 295.641C305.577 294.644 304.159 294.749 303.172 295.274C301.322 296.428 299.534 297.74 297.684 298.947Z" fill="#F2F2F2"/>
<path d="M135.76 25.4V28.136H144.472V25.4H135.76ZM143.536 25.4V26C142.672 34.88 139.168 41 133.528 43.592C134.176 44.168 135.016 45.344 135.424 46.112C141.712 42.704 145.36 36.488 146.392 25.784L144.52 25.28L144.04 25.4H143.536ZM138.568 27.896L135.904 28.304C137.224 36.56 139.552 42.872 145.096 46.184C145.528 45.392 146.44 44.264 147.112 43.712C142 41 139.624 35.024 138.568 27.896ZM125.32 25.4V28.136H133.192V25.4H125.32ZM132.232 25.4V26.048C131.488 33.992 128.776 40.76 124.48 43.832C125.176 44.336 126.112 45.44 126.568 46.16C131.392 42.224 134.176 35.504 135.064 25.808L133.216 25.28L132.712 25.4H132.232ZM125.152 31.64C128.2 35.096 131.752 39.776 133.144 42.872L135.568 40.832C134.032 37.736 130.336 33.272 127.288 29.936L125.152 31.64ZM157.984 31.856V34.328H173.416V31.856H157.984ZM160.864 26.624V29.048H172.408V26.624H160.864ZM164.56 23.744V32.792H167.416V23.744H164.56ZM160.504 24.368C159.952 26.456 158.944 28.544 157.624 29.864C158.296 30.2 159.448 30.968 160 31.4C161.296 29.864 162.544 27.416 163.24 24.944L160.504 24.368ZM166.408 33.32V38.576C166.408 41.096 166.888 41.96 169.192 41.96C169.624 41.96 170.536 41.96 170.992 41.96C172.768 41.96 173.488 41.12 173.752 37.904C172.984 37.712 171.784 37.28 171.256 36.8C171.184 39.008 171.088 39.296 170.68 39.296C170.488 39.296 169.84 39.296 169.696 39.296C169.288 39.296 169.24 39.224 169.24 38.552V33.32H166.408ZM162.088 33.224C161.8 36.104 161.224 38.408 157.504 39.752C158.128 40.304 158.92 41.384 159.232 42.128C163.672 40.28 164.608 37.136 164.968 33.224H162.088ZM151.432 25.928C152.776 27.104 154.36 28.76 155.032 29.936L157.408 28.112C156.64 26.984 154.984 25.4 153.64 24.32L151.432 25.928ZM156.904 32.888H151.48V35.552H154.144V42.008H156.904V32.888ZM156.64 40.928C155.104 40.928 152.992 42.224 151.168 43.904L153.064 46.4C154.36 44.912 155.68 43.496 156.568 43.496C157.096 43.496 157.864 44.192 158.848 44.792C160.456 45.704 162.352 46.016 165.208 46.016C167.56 46.016 171.16 45.872 172.936 45.752C172.96 44.984 173.416 43.568 173.728 42.8C171.4 43.136 167.68 43.328 165.28 43.328C162.784 43.328 160.72 43.208 159.208 42.272C157.984 41.552 157.384 40.928 156.64 40.928ZM177.952 34.16V37.064H199.648V34.16H177.952ZM181.696 23.888C180.928 26.984 179.536 30.08 177.784 31.952C178.528 32.288 179.944 33.032 180.568 33.488C182.248 31.376 183.808 27.992 184.744 24.536L181.696 23.888ZM182.392 27.416L180.928 30.344H197.584V27.416H182.392ZM190.264 34.76L187.528 35.384C189.4 41.048 192.496 44.6 198.424 46.16C198.856 45.344 199.72 44.072 200.368 43.448C194.872 42.296 191.704 39.272 190.264 34.76ZM187.168 23.624V31.256C187.168 35.84 186.16 41.024 177.496 43.592C178.096 44.168 178.984 45.416 179.32 46.136C188.968 43.136 190.192 36.896 190.192 31.28V23.624H187.168ZM208.456 28.568V35.12C208.456 38.072 208.072 42.08 203.896 44.312C204.472 44.792 205.264 45.656 205.6 46.184C210.16 43.4 210.928 38.864 210.928 35.12V28.568H208.456ZM210.112 41.216C211.048 42.584 212.272 44.48 212.8 45.608L214.864 44.216C214.288 43.136 213.016 41.336 212.056 40.016L210.112 41.216ZM205.024 24.752V39.584H207.304V27.32H212.032V39.464H214.432V24.752H205.024ZM217.984 23.888C217.24 27.56 215.968 31.16 214.216 33.464C214.72 34.04 215.56 35.312 215.872 35.912C217.984 33.104 219.592 28.736 220.552 24.464L217.984 23.888ZM217.24 27.944V30.464H226.096V27.944H217.24ZM222.424 28.952V29.48C221.752 37.4 219.256 41.84 214.864 44.024C215.392 44.456 216.232 45.488 216.568 46.088C221.176 43.592 224.056 38.336 224.896 29.288L223.36 28.88L222.904 28.952H222.424ZM218.032 31.808L215.704 32.336C217.312 38.576 220.096 43.544 224.776 46.112C225.184 45.464 225.976 44.48 226.552 43.976C222.16 41.864 219.352 37.208 218.032 31.808ZM232.307 38.4219H235.436L235.752 27.0781H232.002L232.307 38.4219ZM233.877 44.3398C235.202 44.3398 236.01 43.5898 236.01 42.3828C236.01 41.1641 235.202 40.4141 233.877 40.4141C232.565 40.4141 231.745 41.1641 231.745 42.3828C231.745 43.5898 232.565 44.3398 233.877 44.3398Z" fill="#DCDCDC"/>
<defs>
<linearGradient id="paint0_linear_1789_505" x1="173.234" y1="284" x2="57.5414" y2="322.436" gradientUnits="userSpaceOnUse">
<stop stop-color="#DFDFE6"/>
<stop offset="1" stop-color="#F3F4FB"/>
</linearGradient>
<linearGradient id="paint1_linear_1789_505" x1="181.782" y1="281.636" x2="297.984" y2="300.604" gradientUnits="userSpaceOnUse">
<stop stop-color="#DFDFE6"/>
<stop offset="1" stop-color="#F3F4FB"/>
</linearGradient>
<linearGradient id="paint2_linear_1789_505" x1="256.702" y1="13.021" x2="261.537" y2="289.979" gradientUnits="userSpaceOnUse">
<stop stop-opacity="0.3"/>
<stop offset="0.447917" stop-color="#9C9C9C" stop-opacity="0.5"/>
<stop offset="1" stop-color="#DFDFE6"/>
</linearGradient>
<linearGradient id="paint3_linear_1789_505" x1="92.7155" y1="18.0206" x2="88.0112" y2="287.528" gradientUnits="userSpaceOnUse">
<stop stop-opacity="0.3"/>
<stop offset="0.447917" stop-color="#9C9C9C" stop-opacity="0.5"/>
<stop offset="1" stop-color="#DFDFE6"/>
</linearGradient>
</defs>
</svg>
