<svg width="26" height="26" viewBox="0 0 26 26" fill="none" xmlns="http://www.w3.org/2000/svg">
<path d="M23.3377 12.9997C27.7904 10.9449 25.1084 6.69681 20.148 8.03224C17.4136 8.76742 14.985 11.6658 13.0473 12.7518C14.1333 10.8141 17.0307 8.38508 17.7669 5.65209C19.1023 0.690692 14.8542 -1.99032 12.7999 2.46144C10.7451 -1.99032 6.49697 0.690725 7.83188 5.65209C8.56859 8.38505 11.466 10.8141 12.5514 12.7518C10.6142 11.6658 8.18625 8.76742 5.45125 8.03224C0.490888 6.69681 -2.19064 10.9449 2.26213 12.9997C-2.19064 15.054 0.490888 19.3021 5.45125 17.9672C8.18625 17.2315 10.6142 14.3331 12.5514 13.2477C11.466 15.1854 8.56859 17.6139 7.83188 20.3489C6.49697 25.3093 10.7451 27.9903 12.7999 23.538C14.8542 27.9903 19.1023 25.3093 17.7669 20.3489C17.0307 17.6139 14.1333 15.1854 13.0473 13.2477C14.985 14.3331 17.4135 17.2315 20.148 17.9672C25.1084 19.3021 27.7905 15.054 23.3377 12.9997Z" fill="#DBDBFA"/>
</svg>
