<svg width="20" height="20" viewBox="0 0 20 20" fill="none" xmlns="http://www.w3.org/2000/svg">
<path d="M11.1074 6.24609L12.8027 7.94141V17.25H3.70117V6.24609H11.1074ZM11.6738 4.87891H3.49414C2.85352 4.87891 2.33398 5.39648 2.33398 6.03711V17.457C2.33398 17.7637 2.45703 18.0586 2.67383 18.2773C2.89062 18.4961 3.18555 18.6172 3.49414 18.6172H13.0137C13.3203 18.6172 13.6152 18.4941 13.832 18.2773C14.0488 18.0605 14.1699 17.7656 14.1699 17.457V7.375L11.6738 4.87891Z" fill="#918AE3"/>
<path d="M15.1699 1.38281H6.99023C6.34961 1.38281 5.83008 1.90039 5.83008 2.54102V4.49414H7.19727V2.75H14.6035L16.2988 4.44531V13.7539H14.623V15.1211H16.5098C16.8164 15.1211 17.1113 14.9981 17.3281 14.7813C17.5449 14.5645 17.666 14.2695 17.666 13.9609V3.87891L15.1699 1.38281Z" fill="#918AE3"/>
</svg>
