<svg width="32" height="32" viewBox="0 0 32 32" fill="none" xmlns="http://www.w3.org/2000/svg">
<path d="M15.2626 6.39074C18.4813 3.20341 23.7006 3.20341 26.9199 6.39074C27.903 7.35976 28.6222 8.56381 29.0094 9.88873C29.3967 11.2136 29.4391 12.6155 29.1326 13.9614C28.2423 13.5339 27.2648 13.3193 26.2772 13.3345C25.2897 13.3498 24.3193 13.5945 23.4426 14.0494L23.3099 14.1201L23.1773 14.0494C20.7899 12.8054 17.7739 13.1827 15.7673 15.1794C13.4166 17.5187 13.4833 21.1461 15.5139 23.8354C16.1499 24.6781 17.1033 25.7067 18.0913 26.6767L17.7606 27.0041C16.3806 28.3707 14.3706 28.2934 12.7646 27.0041C11.1586 25.7154 6.1846 21.2161 3.4766 17.8041C0.768603 14.3914 0.429936 9.53541 3.60527 6.39074C6.8246 3.20341 12.0433 3.20341 15.2626 6.39074V6.39074Z" fill="#DBDBFA"/>
<path d="M23.3088 16.5974C24.1239 15.7876 25.2262 15.3331 26.3752 15.3331C27.5241 15.3331 28.6264 15.7876 29.4415 16.5974C31.1082 18.256 31.0168 20.832 29.5182 22.6207L29.2662 22.9154C28.3422 23.9754 26.9715 25.3394 25.1549 27.0087L24.6235 27.4934C23.8975 28.216 22.8042 28.12 21.9955 27.4934L21.8389 27.3694L21.6202 27.188C20.5469 26.286 18.3182 24.2307 17.1095 22.63C15.7328 20.8074 15.5069 18.2594 17.1775 16.5967C17.9926 15.7871 19.0947 15.3328 20.2435 15.3328C21.3923 15.3328 22.4945 15.7871 23.3095 16.5967L23.3088 16.5974Z" fill="#DBDBFA"/>
</svg>
