<svg width="13" height="20" viewBox="0 0 13 20" fill="none" xmlns="http://www.w3.org/2000/svg">
<path d="M10.0566 14.4429H6.95956V11.8498C8.21398 11.7305 9.37793 11.1855 10.2807 10.2828C11.3069 9.2566 11.8724 7.89112 11.8724 6.43928C11.8724 4.98743 11.3069 3.62196 10.2807 2.5958C9.25454 1.56963 7.88906 1 6.43516 1C4.98332 1 3.61785 1.56552 2.59168 2.59168C1.56552 3.61785 1 4.98332 1 6.43516C1 7.88701 1.56552 9.25248 2.59168 10.2786C3.46978 11.1567 4.5926 11.6955 5.80795 11.8354V14.4388H2.71096C2.39221 14.4388 2.13515 14.6959 2.13515 15.0146C2.13515 15.3334 2.39221 15.5904 2.71096 15.5904H5.80795V18.4242C5.80795 18.7429 6.065 19 6.38375 19C6.7025 19 6.95956 18.7429 6.95956 18.4242V15.5945H10.0566C10.3753 15.5945 10.6324 15.3375 10.6324 15.0187C10.6324 14.7 10.3753 14.4429 10.0566 14.4429ZM2.14955 6.43722C2.14955 4.07437 4.07232 2.15161 6.43516 2.15161C8.79801 2.15161 10.7208 4.07437 10.7208 6.43722C10.7208 8.80007 8.79801 10.7228 6.43516 10.7228C4.07232 10.7228 2.14955 8.80007 2.14955 6.43722Z" fill="#FFF6F7" stroke="#FFF6F7" stroke-width="0.5"/>
</svg>
