<svg width="188" height="141" viewBox="0 0 188 141" fill="none" xmlns="http://www.w3.org/2000/svg">
<g clip-path="url(#clip0_2101_532)">
<path d="M144.74 62.03C145.39 60.89 146.15 60.37 147.56 60.98C153.68 63.6 159.86 65.98 165.74 69.21C178.28 76.04 183.01 94.21 178.68 106.31C173 122.07 161.55 130.72 146.09 135.15C135.46 138.15 124.53 138.04 113.63 138.1C111.86 138.1 111.38 136.98 111.31 135.49C110.95 134.83 109.66 134.95 109.88 133.8C110.74 132.01 110.05 130.24 109.83 128.46C110.11 127.74 108.83 127.46 109.33 126.66C109.632 126.595 109.926 126.501 110.21 126.38C109.93 124.03 111.5 124.38 112.99 124.33C127.99 123.98 140.61 118.19 150.99 107.33C151.75 105.27 153.43 103.84 154.62 102.07C156.555 99.3673 158.022 96.3588 158.96 93.17C157.83 97.69 155.17 101.35 152.41 104.96C151.952 105.676 151.236 106.188 150.41 106.39C144.328 112.215 137.13 116.749 129.25 119.72C122.94 121.882 116.299 122.918 109.63 122.78C104.73 122.78 101.92 119.38 102.27 114.53C102.77 107.53 102.76 100.4 104.1 93.43C105.26 87.43 108.02 82.35 113.1 78.71C115.57 77.0287 117.941 75.2057 120.2 73.25C121.42 72.15 123.2 73.25 124.15 71.75C124.86 71.29 124.89 70.34 125.54 69.84C126.81 71.43 128.23 71.31 130 70.59C134.9 68.59 139.82 66.68 143.54 62.69C143.89 62.39 144.18 61.98 144.74 62.03Z" fill="#EA665E"/>
<path d="M65.88 75.94C67.19 77.64 69.28 78.26 70.88 79.52C74.1132 81.9438 76.7862 85.0357 78.7171 88.5853C80.6481 92.1349 81.7917 96.0588 82.07 100.09C82.68 106.49 82.25 112.85 82.07 119.24C81.94 123.38 82.07 123.29 77.83 123.08C70.26 122.71 62.83 121.83 55.6 119.3C43.19 114.94 33.43 107.72 28.5 95.04C28.26 94.44 27.89 93.88 27.4 92.94C26.9081 94.1485 26.9081 95.5015 27.4 96.71C29.94 104.8 35.4 110.64 42.26 115.18C48.7371 119.399 55.9816 122.301 63.58 123.72C68.3808 124.699 73.2706 125.175 78.17 125.14C80.12 125.14 82.39 124.89 83.02 127.63C83.51 128.39 84.84 127.63 85.12 128.8C82.96 130.6 83.47 132.64 84.56 134.74C84.94 135.55 84.1 135.97 83.96 136.62C82.78 140.62 82.77 140.72 78.15 140.46C61.72 139.54 45.69 136.69 30.62 129.77C22.5 126.04 15.23 121.05 10.79 113.01C3.31 99.47 7.79 81.28 24.79 74.16C31.3519 71.5827 38.1236 69.5753 45.03 68.16C46.0265 68.0427 47.0334 68.0427 48.03 68.16C48.5611 68.3906 49.0616 68.6862 49.52 69.04C51.8966 71.1312 54.5645 72.866 57.44 74.19C59.6444 75.1459 62.0406 75.5772 64.44 75.45C64.9658 75.4173 65.4833 75.5934 65.88 75.94Z" fill="#F4BDC4"/>
<path d="M48.9999 69.12C48.3699 69.12 48.1099 68.66 47.9999 68.12C48.4399 67.63 48.8999 67.1201 49.3199 66.6401C50.3699 65.3201 51.2599 64.3201 49.1099 62.8201C46.6899 61.1201 46.8199 58.3101 47.9199 55.8201C48.2492 55.1659 48.3925 54.4339 48.3343 53.7039C48.2761 52.9738 48.0186 52.2738 47.5899 51.68C46.5274 50.019 46.0542 48.0489 46.2465 46.0865C46.4387 44.1241 47.2852 42.2833 48.6499 40.8601C49.8599 39.6201 48.6499 38.6401 48.8599 37.6301C50.0699 37.3001 50.5999 39.23 51.6099 38.3C52.6199 37.37 51.9599 36.13 51.6699 35.03C50.1599 29.31 52.9099 25.88 58.7799 26.31C60.6499 26.45 60.6799 24.48 61.9099 23.95C63.9699 22.95 66.1399 23.4601 68.2599 23.5401C69.2599 23.5401 69.6499 24.17 69.5299 25.25C69.1863 28.2372 68.0999 31.0907 66.3699 33.55C68.4299 32.11 68.5399 30.09 69.0399 28.23C69.3399 27.08 69.2299 25.23 70.6599 25.23C72.0899 25.23 72.3299 27.03 72.8399 28.23C73.0238 28.8301 73.1248 29.4526 73.1399 30.08C73.4899 28.35 72.3799 27.1501 72.0899 25.7401C71.5799 23.2801 72.3499 22.38 74.7999 22.97C76.492 23.3802 78.2578 23.3802 79.9499 22.97C80.8999 22.76 81.8899 22.36 82.8499 22.97C82.9899 23.05 83.1999 23.1 83.2699 23.23C84.7399 26.16 87.3399 27.72 90.0799 29.33C90.6464 29.611 91.1491 30.0055 91.5567 30.489C91.9643 30.9725 92.268 31.5346 92.4491 32.1405C92.6301 32.7464 92.6845 33.3831 92.609 34.011C92.5334 34.6388 92.3295 35.2444 92.0099 35.7901C91.6199 36.6001 92.0099 36.8901 92.5099 37.4201C95.3899 40.4201 95.9899 43.88 94.0199 47.68C93.5299 48.63 92.4999 49.78 94.6499 50.21C95.2399 50.32 94.8299 51.07 94.5399 51.06C92.6999 51.06 92.8199 52.72 92.1399 53.68C91.7005 54.3955 91.0721 54.9758 90.324 55.3569C89.5759 55.7381 88.737 55.9053 87.8999 55.84C86.4399 55.68 86.2799 56.4001 86.0399 57.4201C84.0399 65.9301 77.1299 71.6101 68.2599 72.1701C65.7499 72.3301 66.5599 74.71 65.8399 76.08H64.4999C64.3612 75.9833 64.2573 75.8447 64.2033 75.6845C64.1493 75.5243 64.1481 75.351 64.1999 75.19C65.1999 73.1 64.7499 71.6301 62.5999 70.6001C62.4204 70.5338 62.2579 70.4285 62.1241 70.2918C61.9903 70.155 61.8887 69.9902 61.8264 69.8093C61.7642 69.6284 61.743 69.4359 61.7644 69.2458C61.7857 69.0557 61.8491 68.8726 61.9499 68.71C62.4099 68.02 63.1499 68.34 63.7599 68.59C65.1792 69.2839 66.7028 69.74 68.2699 69.94C72.2699 70.23 75.4999 68.44 78.4199 65.94C79.4199 65.08 80.2899 64.05 81.3399 63.22C82.3899 62.39 82.8399 60.92 83.4399 59.68C84.2699 57.93 84.3799 55.97 84.9799 54.16C85.0925 53.6734 85.0998 53.1683 85.0015 52.6785C84.9032 52.1888 84.7015 51.7256 84.4099 51.3201C83.9099 50.3201 83.4799 50 82.3199 50.65C78.6199 52.72 78.3199 52.65 75.4699 49.41C74.6699 48.5 73.8899 48.77 72.9899 49C69.7999 49.8 69.2599 49.52 68.3599 46.43C68.1299 45.64 67.8699 45.23 67.0099 45.43C66.772 45.5016 66.5274 45.5486 66.2799 45.5701C64.9899 45.6301 63.4699 46.1401 62.6799 44.6701C61.8899 43.2001 62.9499 42.1701 63.9099 41.2001C63.964 41.138 64.0023 41.0637 64.0214 40.9836C64.0406 40.9035 64.0401 40.8199 64.0199 40.74C61.6999 40.27 59.3399 42.4101 59.7299 44.6101C59.9199 45.6801 60.7299 45.7801 61.5599 45.9501C63.9399 46.4201 63.7599 46.3701 62.8899 48.4801C62.0199 50.5901 60.8899 52.26 58.5599 52.9C58.3731 52.9425 58.1985 53.0272 58.0497 53.1478C57.9009 53.2684 57.7817 53.4216 57.7015 53.5956C57.6213 53.7696 57.5821 53.9596 57.5871 54.1511C57.592 54.3426 57.6409 54.5304 57.7299 54.7001C57.9924 55.4567 58.0379 56.2717 57.8611 57.0529C57.6844 57.834 57.2926 58.5501 56.7299 59.12C54.4099 61.59 53.0199 64.62 51.1699 67.37C50.6699 68.09 50.2899 69.14 48.9999 69.12Z" fill="black"/>
<path d="M144.74 62.03L144.03 63.03C142.63 63.25 142.03 62.16 141.62 61.25C139.79 56.89 136.27 53.35 135.32 48.59C134.71 45.5 134.1 42.33 136.48 39.59C136.727 39.2451 136.837 38.8213 136.79 38.4C136.72 37.18 136.95 35.4 135.48 35.32C134.21 35.27 134.77 37.03 134.66 38.01C134.57 38.84 134.66 39.68 134.54 40.5C134.34 41.6 133.8 42.37 132.6 42.43C131.4 42.49 131.04 41.7201 130.6 40.8601C130.16 40.0001 130.73 38.19 129.19 38C128.19 37.87 127.27 38.89 126.34 39.42C121.19 42.5149 115.614 44.8396 109.79 46.32C108.05 46.73 107.79 47.38 108.26 49.07C109.724 54.0565 112.599 58.5126 116.54 61.9C120.24 65.13 124.32 66.18 129.04 64.56C130.501 63.9554 132.001 63.4509 133.53 63.05C134.25 62.9 135.17 62.81 135.45 63.7C135.73 64.59 134.94 64.86 134.38 65.2C132.679 66.2586 130.803 67.0068 128.84 67.41C127.11 67.76 125.93 68.48 125.65 70.31C125.45 70.98 125.99 71.81 125.3 72.31C124.61 72.81 124.58 71.91 124.18 71.77C124.039 71.0332 123.942 70.2885 123.89 69.54C123.921 69.2166 123.882 68.8903 123.775 68.5835C123.668 68.2767 123.496 67.9965 123.271 67.7621C123.046 67.5277 122.773 67.3445 122.471 67.2251C122.169 67.1057 121.845 67.0528 121.52 67.07C119.771 66.886 118.116 66.1903 116.76 65.07C112.062 61.3495 107.879 57.0217 104.32 52.2C103.698 51.4131 103.27 50.4902 103.072 49.5066C102.874 48.523 102.911 47.5066 103.18 46.54C103.27 46.23 103.46 45.83 103.34 45.6C101.98 42.73 102.81 39.6 102.34 36.6C101.18 28.67 103.26 21.91 110.5 17.46C111.56 15.38 113.56 15.65 115.39 15.52C123.6 13.81 129.58 17.08 134.23 23.7C135.571 25.4772 136.715 27.3952 137.64 29.42C138.23 30.84 138.95 32.3 141.31 31.18C139.83 32.84 140.62 33.95 141.44 35.18C142.703 36.9431 143.557 38.9656 143.939 41.1004C144.322 43.2351 144.223 45.4283 143.65 47.52C143.39 48.52 142.65 49.86 144.4 50.44C144.63 50.52 144.91 50.7 144.71 50.96C144.51 51.22 144.14 51.5 143.95 51.45C141.29 50.66 141.54 52.79 141.47 54.13C141.31 57.23 142.94 59.72 144.74 62.03Z" fill="#030303"/>
<path d="M63.4601 17.96C62.7423 15.8696 62.446 13.6575 62.5885 11.4519C62.7309 9.24622 63.3093 7.09071 64.2901 5.10999C65.1788 3.3069 66.621 1.83538 68.4059 0.910576C70.1907 -0.0142292 72.2246 -0.343817 74.2101 -0.0300059C76.8801 0.449994 79.0701 3.30999 79.5001 6.80999C79.8901 9.97999 78.8901 12.88 77.8501 15.81C76.8501 19.74 72.5501 22.15 69.0001 20.58C67.1401 19.72 65.0001 19.51 63.4601 17.96Z" fill="black"/>
<path d="M89.1802 125.82C89.0302 123.82 89.6302 122.17 91.5102 121.25C92.3039 120.771 93.2348 120.571 94.1551 120.682C95.0754 120.792 95.9324 121.207 96.5902 121.86C97.1602 122.41 97.5202 122.43 98.2602 122.01C101.87 119.94 104.01 120.94 104.88 124.96C104.07 125.64 103.3 125.03 102.53 124.88C101.76 124.73 100.9 124.29 100.53 125.16C100.16 126.03 101.12 126.42 101.63 126.92C102.39 127.68 103.63 127.92 104.16 128.92C104.4 130.44 103.56 131.62 102.96 132.92C102.728 133.329 102.355 133.638 101.91 133.79C101.621 133.944 101.35 134.128 101.1 134.34C98.2402 137.34 97.6802 137.34 94.5302 134.91C94.2628 134.726 93.9781 134.569 93.6802 134.44C93.1329 134.308 92.6359 134.02 92.2502 133.61C91.5502 132.34 90.6302 131.21 89.8702 129.97C90.8202 128.3 92.8102 127.97 94.0902 126.75C94.5402 126.3 95.3402 125.91 94.9402 125.17C94.5402 124.43 93.7902 124.82 93.1502 124.91C91.7902 125.04 90.7002 126.3 89.1802 125.82Z" fill="#EA655D"/>
<path d="M63.46 17.9599C65.8914 18.5212 68.243 19.3845 70.46 20.5299C70.8677 20.8008 71.3605 20.9127 71.8452 20.8445C72.3299 20.7763 72.7728 20.5328 73.09 20.1599C74.67 18.6699 77 18.0099 77.9 15.7799L78.37 16.1899C79.16 16.5999 79.55 15.2699 80.37 15.7399C86.63 16.9499 86.84 17.5099 82.95 22.8299C79.87 23.5299 76.82 24.4299 73.65 23.1699C72.48 22.6999 72.35 23.5999 72.56 24.3899C72.88 25.5899 73.4 26.7299 73.76 27.9199C74.19 29.3399 74.57 30.7799 72.76 32.2499C72.83 29.4899 72.44 27.2499 70.67 25.3299C69.03 28.5399 70.4 33.6799 64.75 34.3299C68.59 31.9099 68.08 27.6899 69.44 23.8899H62C60.73 22.8899 58.47 22.3999 59.16 20.0699C59.74 17.9599 61.72 18.0699 63.46 17.9599Z" fill="#E9655D"/>
<path d="M178.48 51.8299C178.689 48.6724 178.531 45.5013 178.01 42.38C177.71 40.92 177.33 39.47 176.91 37.64C175.77 39.44 175.4 41.3199 173.91 42.3999C173.38 42.7799 172.81 43.3999 172.14 42.8999C171.47 42.3999 171.96 41.7 172.2 41.1C172.229 41.0228 172.265 40.9491 172.31 40.88C173.52 39.09 175.31 37.45 175.77 35.48C176.23 33.51 174.01 31.92 173.72 29.83C175.771 32.1181 177.252 34.8596 178.04 37.8299C178.217 38.7559 178.626 39.6217 179.23 40.3459C179.833 41.0701 180.611 41.629 181.49 41.97C183.268 42.7295 184.771 44.0133 185.8 45.6499C186.15 46.1599 186.63 46.8299 186.01 47.4599C185.39 48.0899 184.7 47.6 184.23 47.2C182.72 45.94 181.28 44.6 179.52 43.03C179.936 45.9284 179.936 48.8715 179.52 51.7699C179.16 52.3099 178.83 52.2699 178.48 51.8299Z" fill="#E66D65"/>
<path d="M31.8601 41.35C32.5155 44.6246 33.6725 47.7784 35.2902 50.7C36.0102 48.9 35.8802 47.11 36.8202 45.7C37.2202 45.08 37.5902 44.21 38.4602 44.47C39.3302 44.73 39.1002 45.72 38.9502 46.39C38.7194 47.7648 38.3267 49.1075 37.7802 50.39C36.6802 52.55 36.9002 54.3 38.7802 55.9C39.0737 56.0511 39.3064 56.2984 39.4393 56.6006C39.5722 56.9028 39.5972 57.2415 39.5102 57.56C37.8324 56.5278 36.467 55.0587 35.5602 53.31C35.3202 52.791 34.9189 52.3635 34.4161 52.0914C33.9132 51.8192 33.3359 51.717 32.7702 51.8C31.4407 51.8989 30.1088 51.6435 28.9102 51.06C28.2702 50.75 27.7202 50.35 27.9102 49.55C28.1002 48.75 28.7401 48.8 29.3301 48.78C30.6671 48.7843 31.9885 49.067 33.2102 49.61C32.6002 47.03 31.5302 44.94 31.4002 42.61C31.2802 42.14 31.0501 41.56 31.8601 41.35Z" fill="#171514"/>
<path d="M31.8602 41.3501C31.7002 41.8001 31.5302 42.2401 31.3702 42.6801C31.2791 42.2056 31.0688 41.7622 30.7592 41.3914C30.4495 41.0205 30.0508 40.7345 29.6002 40.5601C28.9192 40.2575 28.3145 39.8065 27.8302 39.2401C27.1802 38.5701 26.5102 37.6301 27.0402 36.8001C27.8302 35.5701 28.5302 37.1501 29.3302 37.1701C29.4312 37.0485 29.5091 36.9096 29.5602 36.7601C29.7302 35.4801 29.5102 33.3001 30.8202 33.3801C32.6802 33.5001 31.7202 35.8001 32.1702 37.0901C32.6702 37.2501 32.9002 36.8501 33.1702 36.6001C33.9102 36.0201 34.6902 34.8201 35.6502 35.7701C36.4402 36.5601 35.3902 37.4601 34.8702 38.1001C34.0002 39.2601 32.8902 40.2801 31.8602 41.3501Z" fill="#EB645D"/>
<path d="M178.48 51.83H179.48C180.722 52.5197 181.757 53.5276 182.48 54.75C183 55.66 183.87 56.9 182.85 57.65C181.83 58.4 181.41 56.65 180.46 56.26C179.62 57 180.38 59.17 178.8 58.98C177.39 58.81 178.33 56.98 177.8 56.06C176.63 56.19 175.8 58.44 174.73 57.06C173.84 55.91 175.48 54.77 176.33 53.83C177.011 53.126 177.729 52.4584 178.48 51.83V51.83Z" fill="#070606"/>
<path d="M5.92009 64.72C4.32009 65.78 5.59008 67.63 4.69008 69.05C3.54008 67.86 4.33007 66.37 3.93007 65.15C3.62407 64.7279 3.43752 64.2312 3.39 63.7121C3.34249 63.1929 3.43578 62.6706 3.66008 62.2C4.12834 61.6555 4.42094 60.982 4.49947 60.2681C4.578 59.5542 4.43878 58.8333 4.10009 58.2C4.54009 57.26 3.82006 56.11 4.61006 55.2C6.26006 54.61 5.68006 53.32 5.61006 52.2C6.04006 51.49 5.72006 50.43 6.61006 49.94C7.19418 49.0826 7.53935 48.085 7.61006 47.05C7.94006 46.3 7.33007 45.33 8.15007 44.69C9.30007 45.4 9.31009 43.76 10.3201 43.76C10.8201 44.35 9.44009 45.23 10.3201 45.81C10.2601 46.76 9.51007 47.31 8.99007 47.99C8.47007 48.67 7.99009 49.31 8.42009 50.22C8.64009 51.12 8.03009 51.84 7.89009 52.67C7.41471 52.9679 7.05228 53.4158 6.86028 53.9429C6.66827 54.47 6.65764 55.0462 6.83007 55.58C7.40007 56.58 6.43009 57.33 6.45009 58.24C5.95071 58.7453 5.6238 59.3955 5.51604 60.0977C5.40828 60.7999 5.5252 61.5182 5.85009 62.15C6.22009 62.96 5.69009 63.83 5.92009 64.72Z" fill="#DF6760"/>
<path d="M26.0001 62.3501C25.5501 63.3501 26.2201 65.35 24.6301 65.83C22.8301 66.38 21.3101 65.17 20.0901 63.83C19.8627 63.6418 19.7062 63.3819 19.6463 63.0929C19.5863 62.8039 19.6264 62.5032 19.7601 62.24C19.8992 61.978 20.1311 61.7774 20.4104 61.6775C20.6898 61.5776 20.9963 61.5857 21.27 61.7001C21.98 61.9101 22.66 62.35 23.08 61.22C23.42 60.33 23.86 59.07 25.08 59.49C26 59.83 26.0001 61.1001 26.0001 62.3501Z" fill="#EDA391"/>
<path d="M159 26.3899C159.044 26.8054 159.044 27.2245 159 27.6399C158.6 28.8699 158.95 30.8899 157.09 30.8599C155.4 30.8599 154.28 29.3099 153.53 27.7999C153.28 27.2999 153.39 26.2299 153.82 26.2799C155.63 26.4799 156.82 24.9199 158.3 24.7899C159.12 24.7199 159 26.0899 159 26.3899Z" fill="#F4BDC3"/>
<path d="M89.1797 125.82C90.6997 125.23 92.1797 124.56 93.7497 124.07C94.5097 123.83 95.4797 123.78 95.8897 124.73C96.0096 125.088 95.9967 125.476 95.8535 125.825C95.7103 126.174 95.4462 126.46 95.1097 126.63C93.4997 127.75 91.8297 128.77 90.1897 129.83C89.9197 130.28 89.5197 130.35 89.1897 130.02C88.6997 129.56 89.0797 129.09 89.3897 128.74C90.4163 127.763 91.5701 126.929 92.8197 126.26C90.4197 127.1 88.0597 129.18 84.8897 128.59C84.4697 127.88 82.5797 129.9 83.0297 127.59C85.1711 127.383 87.2559 126.783 89.1797 125.82V125.82Z" fill="#231513"/>
<path d="M115.42 15.5601L110.53 17.5001C109.71 16.3301 108.34 15.2801 109.28 13.6001C109.501 13.1076 109.861 12.6903 110.316 12.3991C110.771 12.1079 111.3 11.9553 111.84 11.9601C113.54 11.9601 114.76 12.5901 114.71 14.4901C114.671 14.7252 114.722 14.9665 114.854 15.1652C114.986 15.3639 115.188 15.505 115.42 15.5601V15.5601Z" fill="#EBA18E"/>
<path d="M163.52 46.95L161.41 48.51C161.297 48.9829 161.048 49.412 160.692 49.743C160.336 50.074 159.89 50.2922 159.41 50.37L157.41 52.48C157.22 53.09 157.08 53.73 156.34 53.93L153.77 57.16C153.33 55.7 154.51 55.03 154.61 54.05C154.633 53.5023 154.805 52.9714 155.108 52.5148C155.411 52.0582 155.834 51.6934 156.33 51.46L158.56 49.09C158.663 48.6693 158.893 48.2904 159.219 48.0043C159.544 47.7182 159.949 47.5387 160.38 47.49L162.96 45.49C163.38 45.04 163.7 44.42 164.49 44.6C165.73 44.31 166.77 43.27 168.55 43.67L165.47 45.59C165.22 46.58 164.29 46.66 163.52 46.95Z" fill="#1F1817"/>
<path d="M104 129.03C102.96 128.51 101.958 127.919 101 127.26C100.21 126.64 99.0799 125.9 99.8499 124.64C100.49 123.64 101.56 123.93 102.53 124.25C103.31 124.5 104.09 124.73 104.88 124.96C106.2 125.96 107.88 126.04 109.32 126.66C109.77 127.08 110.81 127.03 110.48 128.09C108.85 128.97 107.4 128.09 105.95 127.59C104.69 127.17 103.57 126.41 102.16 125.94C103.043 126.441 103.894 126.996 104.71 127.6C105.54 128.42 105.39 128.72 104 129.03Z" fill="#241714"/>
<path d="M150.39 106.42C154.11 101.99 157.52 97.42 159.29 91.76C158.46 98.02 155.29 102.99 150.95 107.36C150.958 107.166 150.91 106.974 150.81 106.807C150.711 106.64 150.565 106.505 150.39 106.42Z" fill="#F8CFC2"/>
<path d="M3.66035 62.16C4.10746 63.0774 4.20348 64.1267 3.93034 65.11C1.90559 63.9437 0.403121 62.0477 -0.269642 59.81C-0.479642 59.24 -0.599644 58.62 0.0403556 58.26C0.680356 57.9 1.14034 58.44 1.46034 58.88C2.23034 59.94 2.93035 61.06 3.66035 62.16Z" fill="#131110"/>
<path d="M5.92 64.72C4.29 63.89 5.57 63.01 5.92 62.15C6.98597 61.2238 8.30712 60.6417 9.70998 60.48C10.2 60.48 10.77 60.35 11.05 60.86C11.33 61.37 11 61.99 10.55 62.36C9.1686 63.4306 7.59789 64.2312 5.92 64.72Z" fill="#0D0A09"/>
<path d="M156.34 51.46L154.62 54.05C154.62 51.73 154.5 49.41 154.52 47.05C154.52 46.24 154.73 45.13 155.69 45.13C156.98 45.13 156.35 46.35 156.5 47.06C156.8 48.56 155.82 49.98 156.34 51.46Z" fill="#EBA694"/>
<path d="M6.47989 58.2C5.47989 57.15 6.47986 56.39 6.85986 55.54C8.07986 54.88 9.28988 54.2 10.5399 53.59C10.7471 53.4483 10.9982 53.3856 11.2476 53.4131C11.4971 53.4406 11.7285 53.5566 11.8999 53.74C12.2999 54.3 11.9999 54.83 11.5399 55.25C10.056 56.546 8.3387 57.5472 6.47989 58.2V58.2Z" fill="#0C0A09"/>
<path d="M4.60976 55.19C4.70976 56.19 5.60978 57.39 4.09978 58.14C2.7259 56.373 1.75951 54.3241 1.26976 52.14C1.15976 51.55 1.02978 50.88 1.63978 50.59C2.49978 50.17 2.79978 50.98 3.06978 51.54C3.62978 52.72 4.09976 53.97 4.60976 55.19Z" fill="#0D0A09"/>
<path d="M92.6701 133.36C92.9353 133.36 93.1896 133.465 93.3772 133.653C93.5647 133.84 93.6701 134.095 93.6701 134.36C90.5467 135.525 87.2807 136.265 83.9601 136.56C82.6001 135.48 84.2201 135.56 84.5201 135.12C86.981 133.683 89.8355 133.066 92.6701 133.36V133.36Z" fill="#1B1817"/>
<path d="M7.91997 52.63C6.91997 51.55 8.00997 50.94 8.44997 50.18C8.98066 49.8158 9.53154 49.4819 10.1 49.18C11.1 48.73 12.44 47.68 13.1 49.02C13.76 50.36 12 50.77 11.1 51.31C10.0779 51.8363 9.01431 52.2778 7.91997 52.63Z" fill="#120F0E"/>
<path d="M6.61976 49.9C6.42976 50.73 6.78976 51.81 5.61976 52.16C4.50843 50.7076 3.81668 48.9782 3.61976 47.16C3.55976 46.57 3.61975 45.89 4.23975 45.7C4.85975 45.51 5.23975 46.07 5.48975 46.62C5.88975 47.72 6.23976 48.81 6.61976 49.9Z" fill="#151312"/>
<path d="M156.35 53.93C156.503 53.3251 156.887 52.8044 157.42 52.48C158.47 53.39 159.87 52.64 160.97 53.25C161.72 53.67 163.09 53.77 162.86 54.86C162.63 55.95 161.31 55.52 160.53 55.36C159.054 55.1709 157.632 54.6844 156.35 53.93V53.93Z" fill="#ECA593"/>
<path d="M101.9 133.72L102.48 132.77C105.148 132.243 107.917 132.735 110.24 134.15C110.7 134.51 111.57 134.55 111.31 135.49C108.096 135.434 104.914 134.836 101.9 133.72Z" fill="#231E1C"/>
<path d="M159.42 50.37L161.42 48.5C162.27 49.63 163.73 49.3 164.79 49.93C165.29 50.23 166 50.44 165.79 51.14C165.58 51.84 164.86 52 164.16 51.79C162.6 51.33 161 50.85 159.42 50.37Z" fill="#EBA796"/>
<path d="M163.52 46.9501L165.52 45.5701C166.43 45.9401 167.36 46.2501 168.24 46.6801C168.38 46.7271 168.509 46.803 168.619 46.903C168.728 47.0029 168.815 47.1246 168.874 47.2603C168.934 47.396 168.964 47.5426 168.963 47.6906C168.963 47.8387 168.931 47.985 168.87 48.1201C168.6 48.6401 167.99 48.5901 167.53 48.4301C166.15 47.9701 164.84 47.4501 163.52 46.9501Z" fill="#EBA695"/>
<path d="M160.39 47.4901C159.78 48.0201 159.17 48.5501 158.57 49.0901C158.521 47.7025 158.558 46.3132 158.68 44.9301C158.77 44.2301 158.98 43.0201 160.03 43.2501C160.88 43.4401 160.42 44.5001 160.45 45.1801C160.48 45.8601 159.63 46.7201 160.39 47.4901Z" fill="#E8A593"/>
<path d="M13.8901 29.0701C13.4936 29.0068 13.1356 28.7957 12.8883 28.4794C12.6409 28.163 12.5224 27.7647 12.5566 27.3646C12.5907 26.9644 12.7751 26.5921 13.0725 26.3223C13.37 26.0524 13.7586 25.9052 14.1601 25.9101C14.369 25.907 14.5759 25.951 14.7654 26.0389C14.9549 26.1267 15.1222 26.2562 15.2548 26.4176C15.3874 26.579 15.482 26.7683 15.5313 26.9713C15.5807 27.1743 15.5837 27.3858 15.5401 27.5901C15.5118 28.003 15.3236 28.3886 15.0155 28.665C14.7074 28.9413 14.3037 29.0867 13.8901 29.0701V29.0701Z" fill="#CF684B"/>
<path d="M164.5 44.58C164.114 45.0512 163.571 45.3673 162.97 45.47C162.778 44.2421 162.992 42.985 163.58 41.89C163.93 41.36 164.24 40.5 165 40.78C165.76 41.06 165.4 41.88 165.21 42.49C165.02 43.1 164.74 43.89 164.5 44.58Z" fill="#EBA896"/>
<path d="M80.3101 15.7199C79.6501 15.8899 79.3101 17.6099 78.3101 16.1699C78.8401 15.0599 79.3801 13.9699 79.8901 12.8599C80.1501 12.2899 80.2201 11.2899 81.0201 11.5699C81.8201 11.8499 81.4001 12.7899 81.1801 13.4299C80.9601 14.0699 80.6001 14.9799 80.3101 15.7199Z" fill="#1E1614"/>
<path d="M186.84 71.47C186.656 71.4762 186.472 71.4434 186.302 71.3739C186.131 71.3044 185.977 71.1997 185.85 71.0667C185.722 70.9336 185.624 70.7752 185.562 70.6017C185.5 70.4283 185.476 70.2437 185.49 70.06C185.473 69.8755 185.494 69.6896 185.551 69.5134C185.608 69.3371 185.7 69.1742 185.822 69.0342C185.943 68.8942 186.091 68.7801 186.257 68.6986C186.424 68.6171 186.605 68.57 186.79 68.56C186.994 68.5305 187.202 68.5495 187.397 68.6155C187.592 68.6814 187.769 68.7924 187.913 68.9395C188.057 69.0866 188.164 69.2657 188.227 69.4621C188.289 69.6585 188.303 69.8668 188.27 70.07C188.255 70.4416 188.098 70.7934 187.832 71.0536C187.567 71.3137 187.212 71.4627 186.84 71.47Z" fill="#35302F"/>
<path d="M8.99981 47.95C8.72981 46.78 9.5498 46.28 10.3298 45.76C11.0298 45.49 11.8698 45.23 12.1398 46.16C12.4098 47.09 11.6198 47.39 10.8798 47.56C10.1398 47.73 9.64981 47.82 8.99981 47.95Z" fill="#1B1413"/>
<path d="M8.14005 44.65C8.14005 45.47 8.62004 46.42 7.60004 47.01C7.20467 46.3762 6.86986 45.7066 6.60004 45.01C6.43004 44.45 6.05003 43.58 6.96003 43.35C7.87003 43.12 8.00005 44.03 8.14005 44.65Z" fill="#14100F"/>
<path d="M125.64 70.31C124.75 68.16 125.35 67.24 127.8 66.98C130.49 66.7 132.93 65.44 135.67 63.78C133.84 63.09 132.81 63.9 131.76 64.34C126.6 66.5 121.62 66.88 116.92 63.17C114.639 61.3479 112.668 59.1699 111.08 56.72C109.337 53.7888 107.941 50.6644 106.92 47.41C106.66 46.69 106.69 46.27 107.47 46.14C115.75 44.74 122.91 40.68 130.23 36.41C130.56 37.97 130.8 39.32 131.14 40.65C131.32 41.35 131.46 42.18 132.53 42.07C132.74 42.0742 132.949 42.0355 133.144 41.9564C133.339 41.8772 133.516 41.7591 133.664 41.6094C133.812 41.4597 133.927 41.2815 134.004 41.0856C134.081 40.8897 134.117 40.6803 134.11 40.47C134.11 38.97 134.11 37.47 134.04 35.98C133.99 34.98 134.04 34.08 135.28 33.91C136.52 33.74 136.84 34.57 136.96 35.39C137.23 37.34 139.31 39.68 135.77 41.02C135.32 41.19 135.53 43.24 135.53 44.42C135.53 47.99 136.22 51.42 138.58 54.23C139.401 55.2828 140.024 56.4754 140.42 57.75C141.088 59.822 142.342 61.656 144.03 63.03C140.45 67.13 135.57 69.03 130.73 71.03C129.96 71.34 129.1 71.45 128.37 71.82C126.63 72.72 125.92 71.95 125.64 70.31Z" fill="#F5F5FF"/>
<path d="M110.24 134.15L102.49 132.77L103.96 129.03C105.19 128.94 105.38 128.61 104.23 127.92C103.08 127.23 101.45 126.81 100.51 124.66C104.14 125.9 107 128.04 110.51 128.09C110.7 129.62 110.9 131.15 111.09 132.68C111.15 133.37 111.12 134 110.24 134.15Z" fill="#FAE9E3"/>
<path d="M82.12 63.22C80.2765 65.471 78.0278 67.3568 75.49 68.78C71.49 71.04 67.34 71.39 63.22 68.9C63.0485 68.7401 62.8289 68.6417 62.5955 68.62C62.362 68.5982 62.128 68.6545 61.93 68.78C62.05 70.14 63.24 70.64 64.2 70.88C66.32 71.41 66.02 72.45 65.2 73.88C64.8983 74.5518 64.6638 75.2519 64.5 75.97C58.16 76.34 53.34 73.28 49 69.11C50.4635 67.4081 51.7035 65.5262 52.69 63.51C53.4141 62.0191 54.392 60.6656 55.58 59.51C57.01 58.16 58.04 56.51 56.87 54.41C56.1 53.05 56.99 52.61 58.01 52.29C60.01 51.64 62.09 51.16 61.77 48.29C61.65 47.29 63.39 48.07 63.53 46.96C62.98 46.18 62.18 46.63 61.53 46.6C59.15 46.46 58.39 45.43 59.1 43.19C59.76 41.11 62.1 39.34 63.94 39.52C64.2303 39.5135 64.5167 39.5876 64.7674 39.7341C65.0181 39.8807 65.2232 40.0938 65.36 40.35C65.63 40.96 65.06 41.21 64.68 41.51C63.68 42.27 62.28 43.01 63.12 44.45C63.96 45.89 65.5 45.15 66.75 44.86C67.4909 44.6329 68.213 44.3487 68.91 44.01C68.955 44.3615 68.9784 44.7155 68.98 45.07C68.83 48.82 69.8 49.5 73.38 48.17C74.29 47.83 75.14 47.28 75.93 48.55C78.19 52.18 79.93 52.31 82.99 49.2C83.22 48.97 83.47 48.75 83.59 48.63C87.11 52.35 85.38 56.2 83.93 60.04C81.29 59.92 82 61.72 82.12 63.22Z" fill="#F5F5FF"/>
<path d="M92.6701 133.36C89.9967 134.134 87.2737 134.726 84.5201 135.13C82.2001 133.19 82.4101 129.59 84.8801 128.59C88.2601 127.87 91.2901 126.14 95.1001 124.79C93.4801 126.94 91.5901 127.63 90.0201 128.74C89.6101 129.03 88.3001 129.74 90.1901 129.83C91.2907 130.788 92.1418 132 92.6701 133.36Z" fill="#FBE9E4"/>
<path d="M82.1201 63.22C81.6401 62.22 80.2001 61.38 81.2901 60.01C82.1001 59.01 83.0501 59.48 83.9401 60.01C83.5764 61.2007 82.955 62.2966 82.1201 63.22V63.22Z" fill="#EB645D"/>
<path d="M56.43 27.72C54.7349 29.0902 53.4882 30.9359 52.85 33.02C52.5 29.61 53.35 28.37 56.43 27.72Z" fill="#B7ADAA"/>
<path d="M114.66 41.4799C114.66 43.0399 113.32 43.1199 112.57 43.1499C110.77 43.1999 111.18 41.3599 110.95 40.3999C110.58 38.8699 112.4 38.7799 113.11 38.7899C114.82 38.8299 113.67 40.8499 114.66 41.4799Z" fill="#F0E0DC"/>
<path d="M126.7 36.06C126.522 36.5657 126.19 37.0027 125.75 37.3095C125.311 37.6163 124.786 37.7774 124.25 37.77C123.04 37.47 122.67 35.86 122.58 34.77C122.49 33.68 124.02 33.19 124.82 33.25C126.33 33.37 125.92 35.2 126.7 36.06Z" fill="#EADBD6"/>
<path d="M129.4 30.15C129.4 32.21 132.04 33.86 129.02 35.31C127.34 36.11 127.55 34.48 127.13 33.84C125.43 31.25 128.38 31.62 129.4 30.15Z" fill="#EFDFDA"/>
<path d="M118.66 39.96C118.632 40.2132 118.553 40.4581 118.428 40.6801C118.303 40.9022 118.135 41.0969 117.934 41.2527C117.732 41.4085 117.502 41.5222 117.255 41.587C117.009 41.6518 116.752 41.6665 116.5 41.63C115.21 41.27 115.12 39.63 115.02 38.56C114.92 37.49 116.56 37.02 117.24 37.15C118.59 37.41 118 39.12 118.66 39.96Z" fill="#EEDEDA"/>
<path d="M121.06 35.05C121.893 35.7977 122.399 36.8427 122.47 37.9601C122.77 39.3401 121.26 39.7301 120.56 39.6501C119.16 39.4901 119.02 37.81 118.8 36.83C118.58 35.85 120.28 35.9 121.06 35.05Z" fill="#ECDDD9"/>
<path d="M108.74 44.37C107.46 43.85 107.69 42.54 107.42 41.55C107.07 40.27 108.42 40.1 108.93 40.21C110.42 40.56 110.14 42.15 110.4 43.21C110.66 44.27 109.37 43.91 108.74 44.37Z" fill="#EADBD6"/>
<path d="M132.4 28.65C132.57 30.02 134.8 31.26 132.65 32.87C131.71 33.58 131.65 32.64 131.29 32.14C130.22 30.56 130 29.27 132.4 28.65Z" fill="#EFDFDA"/>
<path d="M106.49 43.59C106.89 44.94 106.13 45.07 105.49 45.01C103.83 44.87 104.32 43.3 103.93 42.35C103.47 41.23 104.54 41.35 105.08 41.35C107.12 41.24 105.55 43.35 106.49 43.59Z" fill="#EFE0DC"/>
<path d="M134.64 26.4C135.64 27.3 135.74 28.48 136.11 29.51C136.37 30.23 135.7 30.86 135.26 30.72C134.02 30.33 133.92 28.94 133.47 27.94C133.12 27.18 134.18 27.02 134.64 26.4Z" fill="#DCCEC9"/>
<path d="M80.1001 21.72C79.7781 22.0403 79.3837 22.2784 78.9503 22.4141C78.5169 22.5499 78.0572 22.5794 77.61 22.5C76.4 22.44 74.5501 22.81 74.2601 21.68C73.9001 20.28 75.93 19.35 76.86 19.3C78.46 19.22 79.6101 17.36 81.3401 18.3C81.3401 20.07 79.7001 20.39 78.7401 21.3C78.3901 21.3 78.7401 21.7 78.6701 21.38C78.6701 21.28 78.7301 21.27 78.8801 21.24C79.3901 21.11 79.8601 21.09 80.1001 21.72Z" fill="#160B09"/>
<path d="M80.0999 21.72L78.3398 21.31C78.9998 19.94 80.8398 19.79 81.3398 18.31C81.8398 16.83 82.9298 17.15 83.7098 17.73C84.4898 18.31 84.2498 19.37 83.5498 20.1C83.1549 20.6357 82.6326 21.0645 82.0302 21.3474C81.4278 21.6302 80.7643 21.7583 80.0999 21.72Z" fill="#F5E1DB"/>
<path d="M65.3701 22.45C64.2246 22.6564 63.0457 22.5739 61.9401 22.21C61.2001 21.86 60.2501 21.58 60.4401 20.52C60.6301 19.46 61.5901 19.52 62.4401 19.44C62.891 19.3601 63.3553 19.4119 63.7775 19.5893C64.1996 19.7666 64.5617 20.062 64.8201 20.44C65.8301 20.86 66.2201 21.48 65.3701 22.45Z" fill="#F9E4DD"/>
<path d="M65.3698 22.45C65.7498 21.61 65.1698 21.05 64.7998 20.45C66.7998 19.58 67.9998 21.09 69.8998 21.98C68.1298 22.72 66.8098 23.15 65.3698 22.45Z" fill="#120604"/>
<path d="M36.5903 50.17C36.5454 48.6743 36.9532 47.2 37.7603 45.9399C37.8991 47.4454 37.483 48.9498 36.5903 50.17V50.17Z" fill="#6A6563"/>
<path d="M118.24 46.48C120.08 48.16 120.31 50.16 119.49 52.42C119.08 53.56 117.74 55.61 120.93 53.91C120.64 55.45 119.93 56.26 118.67 55.83C117.53 55.45 117.42 54.45 117.83 53.36C118.721 51.1745 118.865 48.7558 118.24 46.48Z" fill="#292524"/>
<path d="M130.5 47.15C130.45 48.38 129.9 49.24 128.73 49.25C127.41 49.25 126.85 48.25 126.87 47.06C126.843 46.8081 126.871 46.5533 126.954 46.3138C127.036 46.0743 127.171 45.8559 127.348 45.6744C127.524 45.4929 127.739 45.3526 127.976 45.2637C128.213 45.1748 128.467 45.1394 128.72 45.16C129.22 45.1884 129.688 45.4139 130.021 45.7869C130.355 46.16 130.527 46.6502 130.5 47.15V47.15Z" fill="#E9655D"/>
<path d="M112.43 51.21C113.66 51.32 114.43 51.8 114.56 52.98C114.611 53.2245 114.607 53.4775 114.546 53.72C114.486 53.9625 114.372 54.1883 114.213 54.3805C114.053 54.5728 113.852 54.7266 113.625 54.8304C113.398 54.9341 113.15 54.9853 112.9 54.98C112.653 55.019 112.4 55.004 112.16 54.936C111.919 54.868 111.696 54.7486 111.506 54.5861C111.316 54.4235 111.163 54.2217 111.058 53.9945C110.954 53.7673 110.9 53.5201 110.9 53.27C110.865 53.0342 110.876 52.7937 110.934 52.5624C110.992 52.331 111.095 52.1134 111.237 51.922C111.379 51.7306 111.558 51.5691 111.762 51.4469C111.967 51.3247 112.194 51.2442 112.43 51.21V51.21Z" fill="#EB645D"/>
<path d="M125.77 58.24C127.53 57.06 128.77 55.35 130.26 53.54C130.27 56.61 128.64 58.27 125.77 58.24Z" fill="#2D2927"/>
<path d="M72.1402 67.8C71.5632 67.7731 70.9982 67.6258 70.4815 67.3675C69.9648 67.1091 69.508 66.7455 69.1402 66.3C68.4602 65.49 67.6202 64.48 68.5902 63.49C68.7739 63.2891 69.0026 63.1347 69.2576 63.0394C69.5126 62.9442 69.7866 62.9108 70.057 62.942C70.3274 62.9733 70.5866 63.0682 70.8131 63.2191C71.0397 63.37 71.2272 63.5726 71.3602 63.81C71.5174 63.9955 71.7162 64.1411 71.9404 64.2349C72.1646 64.3288 72.4078 64.3682 72.6502 64.35C73.7702 64.45 74.6502 65.0201 74.5802 66.1701C74.4502 67.5201 73.1802 67.6 72.1402 67.8Z" fill="#EA655D"/>
<path d="M75.58 60.39C75.06 56.71 75.71 55.39 79.29 53.78L77.73 55.72C76.8 56.84 76.06 57.99 76.8 59.53C77.0087 59.8952 77.0701 60.3263 76.9716 60.7352C76.8731 61.1441 76.6221 61.5 76.27 61.73C76.0096 61.9421 75.6803 62.0511 75.3448 62.0364C75.0093 62.0216 74.6909 61.8841 74.45 61.65C74.04 61.33 73.68 60.86 73.94 60.39C74.44 59.45 75 60.99 75.58 60.39Z" fill="#262220"/>
<path d="M68.3303 53.94C68.1503 55.13 67.4803 55.85 66.3303 55.83C65.8644 55.7957 65.4288 55.5864 65.1108 55.2442C64.7929 54.9019 64.6162 54.4521 64.6162 53.985C64.6162 53.5179 64.7929 53.068 65.1108 52.7258C65.4288 52.3836 65.8644 52.1743 66.3303 52.14C66.833 52.1181 67.3243 52.2944 67.6983 52.631C68.0724 52.9677 68.2993 53.4377 68.3303 53.94V53.94Z" fill="#EA655D"/>
<path d="M82.6498 57.86C82.0898 57.81 81.7198 57.51 81.7598 56.94C81.761 56.8159 81.7891 56.6936 81.842 56.5814C81.895 56.4692 81.9716 56.3698 82.0666 56.29C82.1616 56.2102 82.2727 56.1519 82.3924 56.1191C82.512 56.0863 82.6374 56.0798 82.7598 56.1C82.9624 56.1125 83.153 56.2006 83.2937 56.3469C83.4345 56.4932 83.5151 56.687 83.5198 56.89C83.5298 57.46 83.1798 57.72 82.6498 57.86Z" fill="#4B4442"/>
<path d="M69.89 52.1C69.33 52.04 68.96 51.74 69 51.17C69.0029 51.0465 69.032 50.925 69.0855 50.8136C69.139 50.7022 69.2156 50.6035 69.3102 50.5241C69.4048 50.4446 69.5153 50.3862 69.6342 50.3527C69.7532 50.3192 69.8779 50.3115 70 50.33C70.2027 50.3425 70.3932 50.4306 70.534 50.5769C70.6747 50.7232 70.7554 50.917 70.76 51.12C70.77 51.72 70.42 51.98 69.89 52.1Z" fill="#4B4442"/>
<path d="M112 49.12C111.44 49.06 111.08 48.76 111.12 48.19C111.121 48.0659 111.149 47.9436 111.202 47.8314C111.255 47.7192 111.332 47.6198 111.427 47.54C111.522 47.4602 111.633 47.4019 111.753 47.3691C111.872 47.3363 111.998 47.3298 112.12 47.35C112.323 47.3625 112.513 47.4506 112.654 47.5969C112.795 47.7432 112.876 47.937 112.88 48.14C112.87 48.72 112.52 49 112 49.12Z" fill="#4B4442"/>
<path d="M125.29 43.16C124.73 43.1 124.36 42.81 124.4 42.24C124.401 42.1156 124.43 41.993 124.482 41.8804C124.535 41.7679 124.612 41.6679 124.706 41.5874C124.801 41.5068 124.912 41.4475 125.032 41.4135C125.151 41.3794 125.277 41.3714 125.4 41.39C125.602 41.4047 125.791 41.4935 125.931 41.6394C126.072 41.7852 126.153 41.9778 126.16 42.18C126.17 42.72 125.82 43.05 125.29 43.16Z" fill="#4B4442"/>
</g>
<defs>
<clipPath id="clip0_2101_532">
<rect width="188" height="141" fill="white"/>
</clipPath>
</defs>
</svg>
