<svg width="16" height="16" viewBox="0 0 16 16" fill="none" xmlns="http://www.w3.org/2000/svg">
<path d="M8.0013 15.3332C3.9513 15.3332 0.667969 12.0498 0.667969 7.99984C0.667969 3.94984 3.9513 0.666504 8.0013 0.666504C12.0513 0.666504 15.3346 3.94984 15.3346 7.99984C15.3346 12.0498 12.0513 15.3332 8.0013 15.3332ZM8.0013 13.9998C11.3146 13.9998 14.0013 11.3132 14.0013 7.99984C14.0013 4.6865 11.3146 1.99984 8.0013 1.99984C4.68764 1.99984 2.0013 4.6865 2.0013 7.99984C2.0013 11.3132 4.68764 13.9998 8.0013 13.9998ZM8.0013 5.20417C7.82445 5.20417 7.65484 5.13392 7.52978 5.00886C7.40472 4.8838 7.33447 4.71419 7.33447 4.53734C7.33447 4.36048 7.40472 4.19087 7.52978 4.06581C7.65484 3.94076 7.82445 3.8705 8.0013 3.8705C8.17816 3.8705 8.34777 3.94076 8.47283 4.06581C8.59788 4.19087 8.66814 4.36048 8.66814 4.53734C8.66814 4.71419 8.59788 4.8838 8.47283 5.00886C8.34777 5.13392 8.17816 5.20417 8.0013 5.20417ZM8.0103 12.0565C7.84211 12.0565 7.68016 11.9929 7.55689 11.8784C7.43363 11.764 7.35817 11.6072 7.34564 11.4395L7.34364 11.3895V6.72284C7.34295 6.54988 7.40952 6.38342 7.52928 6.25862C7.64903 6.13382 7.81261 6.06045 7.98545 6.05401C8.15829 6.04756 8.32688 6.10854 8.4556 6.22407C8.58432 6.3396 8.6631 6.50064 8.6753 6.67317L8.67697 6.72317V11.3898C8.67697 11.5666 8.60673 11.7362 8.48171 11.8612C8.35668 11.9863 8.18711 12.0565 8.0103 12.0565Z" fill="white" fill-opacity="0.9" stroke="#968FE4" stroke-width="0.4"/>
</svg>
