<svg width="28" height="30" viewBox="0 0 28 30" fill="none" xmlns="http://www.w3.org/2000/svg">
<path fill-rule="evenodd" clip-rule="evenodd" d="M9.10277 8.11522C6.91884 8.11522 5.13866 6.29305 5.13866 4.05761C5.13866 1.82217 6.91884 0 9.10277 0C11.2867 0 13.0669 1.82217 13.0669 4.05761C13.0669 6.29305 11.2867 8.11522 9.10277 8.11522ZM18.5359 8.11522C16.352 8.11522 14.5718 6.29305 14.5718 4.05761C14.5718 1.82217 16.352 0 18.5359 0C20.7198 0 22.5 1.82217 22.5 4.05761C22.5 6.29305 20.7198 8.11522 18.5359 8.11522ZM13.4339 30C13.2137 30 12.9935 29.9061 12.81 29.737L1.5783 18.2217C0.550571 17.1885 0 15.7984 0 14.3143C0 12.8303 0.568923 11.459 1.5783 10.407C3.68883 8.2655 7.10236 8.2655 9.21289 10.4258L13.5221 14.8367L18.2059 10.2094C20.4167 8.02526 23.9925 8.02526 26.2033 10.2094C27.2799 11.254 27.8566 12.6595 27.8566 14.1599C27.8566 15.6603 27.2607 17.0468 26.2033 18.1104L14.4378 29.734C14.2456 29.9049 14.0149 29.9999 13.7842 29.9999C13.7247 29.9999 13.6651 29.9935 13.6063 29.9812C13.5489 29.9937 13.4908 30 13.4339 30Z" fill="#DBDBFA"/>
</svg>
