<svg width="16" height="17" viewBox="0 0 16 17" fill="none" xmlns="http://www.w3.org/2000/svg">
<path d="M15.3226 1.15991L15.3827 1.16283C15.5374 1.17776 15.6811 1.2498 15.7856 1.3649C15.8902 1.48 15.9481 1.62991 15.9481 1.7854V5.53829L15.9452 5.59834C15.9303 5.75311 15.8582 5.89677 15.7431 6.00131C15.628 6.10585 15.4781 6.16377 15.3226 6.16377L15.2626 6.16085C15.1078 6.14593 14.9641 6.07389 14.8596 5.95879C14.7551 5.84369 14.6971 5.69378 14.6971 5.53829V3.29531L11.6177 6.37519C12.5325 7.49132 13.0314 8.8905 13.0292 10.3337C13.0292 13.788 10.2287 16.5885 6.77436 16.5885C3.32003 16.5885 0.519531 13.788 0.519531 10.3337C0.519531 6.87933 3.32003 4.07883 6.77436 4.07883C8.27635 4.07883 9.6545 4.60841 10.7328 5.49034L13.8119 2.41088H11.5697L11.5097 2.40796C11.3498 2.39246 11.202 2.31604 11.0969 2.19454C10.9919 2.07305 10.9376 1.91578 10.9453 1.75534C10.953 1.59489 11.0221 1.44357 11.1384 1.33272C11.2547 1.22187 11.4091 1.15999 11.5697 1.15991H15.3226ZM6.77436 5.3298C4.01098 5.3298 1.7705 7.57028 1.7705 10.3337C1.7705 13.097 4.01098 15.3375 6.77436 15.3375C9.53774 15.3375 11.7782 13.097 11.7782 10.3337C11.7782 7.57028 9.53774 5.3298 6.77436 5.3298Z" fill="#918AE3" stroke="#918AE3" stroke-width="0.5"/>
</svg>
