<svg width="390" height="631" viewBox="0 0 390 631" fill="none" xmlns="http://www.w3.org/2000/svg">
<path d="M141.185 152.745V154.23H138.635V155.505H141.185V157.035H138.02V158.415H141.38C140.48 159.345 139.19 160.125 137.51 160.755L138.26 161.97C140.345 161.025 141.89 159.84 142.895 158.415H146.03C147.035 159.87 148.655 161.04 150.905 161.94L151.52 160.68C149.795 160.125 148.475 159.375 147.56 158.415H150.98V157.035H147.53V155.505H150.35V154.23H147.53V152.73H146.15V154.23H142.58V152.745H141.185ZM142.58 157.035V155.505H146.15V157.035H142.58ZM140.27 161.625C139.775 162.855 139.19 163.905 138.5 164.79L139.67 165.63C140.375 164.67 140.99 163.545 141.515 162.225L140.27 161.625ZM148.61 161.085L147.365 161.49C148.055 162.705 148.685 164.1 149.27 165.69L150.56 165.105C150.005 163.68 149.36 162.345 148.61 161.085ZM146.195 161.415L144.95 161.82C145.505 162.99 146.015 164.34 146.48 165.87L147.785 165.285C147.335 163.905 146.81 162.615 146.195 161.415ZM142.94 166.47C143.825 166.47 144.275 165.96 144.275 164.97V159.72H142.85V164.595C142.85 164.985 142.715 165.195 142.445 165.195C142.025 165.195 141.575 165.165 141.11 165.105L141.44 166.47H142.94ZM153.815 155.4V156.525H165.185V155.4H160.19V154.695H165.635V153.54H160.19V152.685H158.81V153.54H153.38V154.695H158.81V155.4H153.815ZM156.11 160.02L156.485 160.875H152.765V162.045H166.235V160.875H162.605L163.085 160.02H164.3V157.14H154.7V160.02H156.11ZM161.57 160.02L161.09 160.875H157.985L157.61 160.02H161.57ZM162.935 158.985H156.05V158.16H162.935V158.985ZM164.525 162.72H154.475V166.56H155.855V166.005H163.16V166.56H164.525V162.72ZM155.855 164.85V163.875H163.16V164.85H155.855ZM169.31 158.64V166.545H170.735V156.585C171.365 155.535 171.86 154.41 172.25 153.24L170.915 152.61C170.18 154.92 169.025 156.945 167.465 158.685L167.93 160.2C168.41 159.69 168.875 159.18 169.31 158.64ZM179.405 158.67L178.145 159.09C178.835 160.77 179.465 162.69 180.035 164.865L181.28 164.295C180.755 162.3 180.125 160.425 179.405 158.67ZM174.11 155.79H179.435C179.225 156.48 178.955 157.11 178.655 157.65L180.02 158.04C180.38 157.14 180.665 156.24 180.905 155.34V154.41H174.605C174.755 153.96 174.89 153.48 175.025 152.985L173.69 152.7C173.225 154.62 172.43 156.405 171.305 158.07L172.535 158.835C173.135 157.905 173.66 156.9 174.11 155.79ZM175.835 166.44C176.795 166.44 177.275 165.945 177.275 164.97V156.885H175.895V164.61C175.895 165 175.715 165.195 175.355 165.195C174.8 165.195 174.215 165.15 173.6 165.09L173.915 166.44H175.835ZM173.45 158.82C172.85 160.965 172.145 162.735 171.35 164.13L172.685 164.61C173.525 163.05 174.2 161.25 174.725 159.18L173.45 158.82ZM187.715 154.785C187.595 158.295 186.785 160.68 185.255 161.94L186.41 162.855C188.06 161.355 188.96 158.67 189.11 154.785H191V160.695C191 161.745 191.48 162.27 192.455 162.27H194.33C194.855 162.27 195.245 162.135 195.5 161.865C195.785 161.58 195.98 160.71 196.07 159.255L194.735 158.82C194.69 159.855 194.615 160.47 194.495 160.68C194.405 160.86 194.27 160.95 194.075 160.95H192.89C192.53 160.95 192.365 160.77 192.365 160.41V154.785H195.755V153.405H183.5V165.99H196.115V164.61H184.94V154.785H187.715ZM211.385 162.51L209.96 162.06C209.93 163.185 209.87 163.95 209.78 164.355C209.69 164.76 209.48 164.97 209.15 164.97H206.9C206.675 164.94 206.57 164.7 206.57 164.22V159.6H210.56V153.225H205.025V154.575H209.195V158.22H205.175V164.79C205.175 165.795 205.535 166.305 206.285 166.305H209.39C210.14 166.305 210.62 166.065 210.845 165.6C211.085 165.12 211.265 164.085 211.385 162.51ZM197.69 153.21V154.56H199.595V155.985H198.005V166.485H199.265V165.765H203.165V166.485H204.425V155.985H202.805V154.56H204.62V153.21H197.69ZM199.265 164.43V163.245H203.165V164.43H199.265ZM199.895 157.275V158.1C199.88 159.285 199.67 160.185 199.265 160.815V157.275H199.895ZM199.265 161.055L199.895 161.625C200.495 160.875 200.81 159.705 200.825 158.1V157.275H201.545V159.84C201.545 160.56 201.89 160.935 202.595 160.935H203.165V161.955H199.265V161.055ZM200.81 155.985V154.56H201.59V155.985H200.81ZM203.165 159.855H202.865C202.61 159.855 202.49 159.75 202.49 159.555V157.275H203.165V159.855ZM223.325 152.595L222.425 153.465C223.055 153.945 223.565 154.425 223.97 154.875H221.66C221.63 154.185 221.6 153.45 221.6 152.67H220.16C220.16 153.435 220.16 154.17 220.19 154.875H214.01V159.87C213.965 162.315 213.47 164.22 212.54 165.585L213.62 166.545C214.76 164.865 215.375 162.645 215.435 159.87V159.78H217.7C217.67 161.34 217.625 162.33 217.535 162.72C217.445 163.05 217.28 163.215 217.01 163.23C216.59 163.23 216.095 163.2 215.495 163.17L215.93 164.46C216.395 164.505 216.815 164.535 217.175 164.535C217.955 164.52 218.465 164.205 218.705 163.575C218.945 162.855 219.08 161.145 219.11 158.43H215.435V156.24H220.265C220.37 158.07 220.58 159.585 220.91 160.8C221.075 161.43 221.255 162.015 221.465 162.555C220.475 163.785 219.26 164.715 217.82 165.36L218.63 166.56C219.95 165.975 221.12 165.12 222.125 163.995C222.32 164.355 222.53 164.685 222.77 164.985C223.49 165.87 224.18 166.32 224.84 166.32C225.56 166.32 226.115 165.27 226.49 163.2L225.2 162.51C225.005 163.98 224.81 164.715 224.615 164.715C224.375 164.715 224.015 164.37 223.565 163.71C223.4 163.455 223.235 163.155 223.07 162.795C224 161.445 224.75 159.795 225.35 157.875L224.045 157.32C223.625 158.745 223.1 160.005 222.47 161.115C222.395 160.875 222.32 160.62 222.26 160.365C222.005 159.39 221.825 158.01 221.72 156.24H226.19V154.875H224.39L225.08 154.185C224.6 153.645 224.015 153.12 223.325 152.595ZM229.775 155.625V162.465C229.04 162.63 228.305 162.78 227.555 162.9L227.915 164.34C229.865 163.92 231.695 163.395 233.42 162.78V161.355C232.685 161.625 231.95 161.865 231.2 162.09V155.625H233.24V154.26H227.735V155.625H229.775ZM235.79 152.745V155.655H233.525V157.035H235.79V157.08C235.76 161.01 234.68 163.86 232.55 165.63L233.72 166.665C236 164.625 237.17 161.43 237.23 157.08V157.035H239.6C239.57 161.025 239.525 163.365 239.435 164.07C239.3 164.745 238.805 165.09 237.935 165.09C237.515 165.09 237.005 165.06 236.405 165.015L236.75 166.35C237.425 166.395 237.905 166.425 238.175 166.425C239.705 166.425 240.575 165.855 240.77 164.73C240.92 163.575 240.995 160.545 240.995 155.655H237.23V152.745H235.79ZM244.82 154.29L245.165 161.97H246.35L246.695 154.29H244.82ZM245.75 162.855C245.45 162.855 245.195 162.945 244.985 163.155C244.76 163.35 244.655 163.605 244.655 163.92C244.655 164.22 244.76 164.475 244.985 164.685C245.195 164.895 245.45 165 245.75 165C246.05 165 246.32 164.895 246.545 164.7C246.755 164.49 246.86 164.235 246.86 163.92C246.86 163.605 246.755 163.35 246.545 163.155C246.335 162.945 246.065 162.855 245.75 162.855Z" fill="white"/>
<path d="M194.697 -0.999756L68.52 470.323L320.874 470.323L194.697 -0.999756Z" fill="url(#paint0_linear_2230_3489)" fill-opacity="0.2"/>
<path d="M0.1532 -0.656319L313.045 373.729L84.1492 479.979L0.1532 -0.656319Z" fill="url(#paint1_linear_2230_3489)" fill-opacity="0.2"/>
<path d="M389.745 -0.656319L76.8532 373.729L305.749 479.979L389.745 -0.656319Z" fill="url(#paint2_linear_2230_3489)" fill-opacity="0.2"/>
<path d="M98.4307 151.432L104.412 149.439L97.1375 127.604L97.5822 127.455L113.084 146.55L117.287 145.15L118.239 120.573L118.684 120.425L125.959 142.261L131.94 140.268L121.251 108.182L113.557 110.745L112.53 137.174L112.13 137.308L95.4346 116.782L87.741 119.346L98.4307 151.432Z" fill="#918AE3"/>
<path d="M98.4307 151.432L97.4819 151.748L97.798 152.697L98.7468 152.381L98.4307 151.432ZM104.412 149.439L104.728 150.388L105.677 150.072L105.361 149.123L104.412 149.439ZM97.1375 127.604L96.8215 126.655L95.8727 126.971L96.1888 127.92L97.1375 127.604ZM97.5822 127.455L98.3586 126.825L97.9225 126.288L97.2662 126.507L97.5822 127.455ZM113.084 146.55L112.308 147.18L112.744 147.718L113.4 147.499L113.084 146.55ZM117.287 145.15L117.603 146.099L118.259 145.88L118.286 145.189L117.287 145.15ZM118.239 120.573L117.923 119.625L117.267 119.843L117.24 120.535L118.239 120.573ZM118.684 120.425L119.633 120.109L119.317 119.16L118.368 119.477L118.684 120.425ZM125.959 142.261L125.01 142.577L125.326 143.526L126.275 143.21L125.959 142.261ZM131.94 140.268L132.256 141.217L133.205 140.901L132.889 139.952L131.94 140.268ZM121.251 108.182L122.199 107.866L121.883 106.917L120.935 107.233L121.251 108.182ZM113.557 110.745L113.241 109.796L112.585 110.015L112.558 110.706L113.557 110.745ZM112.53 137.174L112.846 138.123L113.502 137.905L113.529 137.213L112.53 137.174ZM112.13 137.308L111.354 137.939L111.79 138.475L112.446 138.257L112.13 137.308ZM95.4346 116.782L96.2104 116.151L95.7743 115.615L95.1185 115.834L95.4346 116.782ZM87.741 119.346L87.4249 118.397L86.4762 118.713L86.7922 119.662L87.741 119.346ZM98.7468 152.381L104.728 150.388L104.096 148.491L98.1146 150.483L98.7468 152.381ZM105.361 149.123L98.0863 127.288L96.1888 127.92L103.463 149.755L105.361 149.123ZM97.4536 128.552L97.8983 128.404L97.2662 126.507L96.8215 126.655L97.4536 128.552ZM96.8059 128.086L112.308 147.18L113.861 145.92L98.3586 126.825L96.8059 128.086ZM113.4 147.499L117.603 146.099L116.971 144.201L112.768 145.601L113.4 147.499ZM118.286 145.189L119.239 120.612L117.24 120.535L116.288 145.111L118.286 145.189ZM118.556 121.522L119 121.374L118.368 119.477L117.923 119.625L118.556 121.522ZM117.735 120.741L125.01 142.577L126.908 141.945L119.633 120.109L117.735 120.741ZM126.275 143.21L132.256 141.217L131.624 139.32L125.643 141.312L126.275 143.21ZM132.889 139.952L122.199 107.866L120.302 108.498L130.992 140.584L132.889 139.952ZM120.935 107.233L113.241 109.796L113.873 111.694L121.567 109.13L120.935 107.233ZM112.558 110.706L111.531 137.136L113.529 137.213L114.556 110.784L112.558 110.706ZM112.214 136.226L111.814 136.359L112.446 138.257L112.846 138.123L112.214 136.226ZM112.905 136.677L96.2104 116.151L94.6588 117.413L111.354 137.939L112.905 136.677ZM95.1185 115.834L87.4249 118.397L88.057 120.294L95.7507 117.731L95.1185 115.834ZM86.7922 119.662L97.4819 151.748L99.3794 151.116L88.6897 119.029L86.7922 119.662Z" fill="white" fill-opacity="0.9"/>
<path d="M144.439 138.365C147.757 137.746 150.167 135.842 151.019 133.252L151.434 133.174L152.061 136.538L158.697 135.301L155.466 117.975C154.457 112.56 150.062 110.089 143.335 111.344C136.952 112.534 133.309 116.265 133.608 120.81L133.624 121.022L139.845 119.862L139.873 119.761C140.124 118.165 141.509 117.025 143.928 116.574C146.693 116.058 148.423 117.023 148.831 119.212L149.222 121.309L143.162 122.82C136.917 124.366 133.89 127.696 134.741 132.258L134.75 132.304C135.609 136.912 139.6 139.267 144.439 138.365ZM141.239 130.665L141.23 130.619C140.887 128.775 142.09 127.43 144.936 126.709L149.991 125.433L150.339 127.299C150.837 129.972 148.892 132.456 145.782 133.036C143.455 133.47 141.6 132.6 141.239 130.665Z" fill="#918AE3"/>
<path d="M151.019 133.252L150.836 132.269L150.254 132.377L150.069 132.939L151.019 133.252ZM151.434 133.174L152.417 132.991L152.234 132.008L151.251 132.191L151.434 133.174ZM152.061 136.538L151.078 136.722L151.262 137.705L152.245 137.521L152.061 136.538ZM158.697 135.301L158.88 136.284L159.863 136.101L159.68 135.118L158.697 135.301ZM133.608 120.81L132.61 120.876L132.611 120.884L133.608 120.81ZM133.624 121.022L132.626 121.096L132.709 122.21L133.807 122.005L133.624 121.022ZM139.845 119.862L140.028 120.845L140.635 120.732L140.806 120.138L139.845 119.862ZM139.873 119.761L140.835 120.037L140.852 119.978L140.861 119.917L139.873 119.761ZM149.222 121.309L149.464 122.279L150.377 122.051L150.205 121.125L149.222 121.309ZM143.162 122.82L143.402 123.791L143.404 123.79L143.162 122.82ZM144.936 126.709L144.691 125.739L144.69 125.74L144.936 126.709ZM149.991 125.433L150.974 125.249L150.779 124.202L149.746 124.463L149.991 125.433ZM144.622 139.348C148.209 138.679 150.977 136.58 151.969 133.564L150.069 132.939C149.357 135.105 147.304 136.813 144.256 137.382L144.622 139.348ZM151.203 134.235L151.617 134.157L151.251 132.191L150.836 132.269L151.203 134.235ZM150.451 133.358L151.078 136.722L153.044 136.355L152.417 132.991L150.451 133.358ZM152.245 137.521L158.88 136.284L158.514 134.318L151.878 135.555L152.245 137.521ZM159.68 135.118L156.449 117.791L154.483 118.158L157.714 135.484L159.68 135.118ZM156.449 117.791C155.898 114.836 154.393 112.586 152.027 111.282C149.692 109.997 146.655 109.707 143.151 110.361L143.518 112.327C146.742 111.726 149.266 112.045 151.062 113.034C152.828 114.006 154.025 115.699 154.483 118.158L156.449 117.791ZM143.151 110.361C136.518 111.598 132.264 115.609 132.61 120.876L134.606 120.745C134.354 116.921 137.387 113.47 143.518 112.327L143.151 110.361ZM132.611 120.884L132.626 121.096L134.621 120.948L134.605 120.737L132.611 120.884ZM133.807 122.005L140.028 120.845L139.661 118.879L133.44 120.039L133.807 122.005ZM140.806 120.138L140.835 120.037L138.912 119.486L138.883 119.586L140.806 120.138ZM140.861 119.917C141.017 118.925 141.886 117.972 144.111 117.557L143.745 115.591C141.132 116.078 139.231 117.405 138.886 119.606L140.861 119.917ZM144.111 117.557C145.364 117.323 146.23 117.455 146.786 117.757C147.305 118.039 147.689 118.542 147.848 119.395L149.814 119.029C149.565 117.692 148.879 116.619 147.741 116C146.638 115.401 145.257 115.309 143.745 115.591L144.111 117.557ZM147.848 119.395L148.239 121.492L150.205 121.125L149.814 119.029L147.848 119.395ZM148.98 120.338L142.92 121.85L143.404 123.79L149.464 122.279L148.98 120.338ZM142.921 121.849C139.693 122.648 137.161 123.939 135.546 125.74C133.896 127.58 133.279 129.872 133.758 132.441L135.724 132.074C135.353 130.081 135.823 128.427 137.035 127.075C138.283 125.684 140.386 124.537 143.402 123.791L142.921 121.849ZM133.758 132.441L133.767 132.487L135.733 132.12L135.724 132.074L133.758 132.441ZM133.767 132.487C134.244 135.05 135.611 137.042 137.578 138.252C139.534 139.456 142.002 139.836 144.622 139.348L144.256 137.382C142.037 137.795 140.09 137.45 138.626 136.549C137.173 135.655 136.114 134.166 135.733 132.12L133.767 132.487ZM142.222 130.481L142.213 130.435L140.247 130.802L140.256 130.848L142.222 130.481ZM142.213 130.435C142.095 129.803 142.237 129.334 142.618 128.926C143.045 128.469 143.845 128.017 145.182 127.678L144.69 125.74C143.181 126.122 141.957 126.704 141.156 127.56C140.31 128.466 140.021 129.591 140.247 130.802L142.213 130.435ZM145.181 127.679L150.235 126.402L149.746 124.463L144.691 125.739L145.181 127.679ZM149.008 125.616L149.356 127.482L151.322 127.116L150.974 125.249L149.008 125.616ZM149.356 127.482C149.73 129.49 148.296 131.55 145.598 132.053L145.965 134.019C149.488 133.362 151.944 130.453 151.322 127.116L149.356 127.482ZM145.598 132.053C144.589 132.241 143.779 132.127 143.225 131.847C142.7 131.581 142.345 131.14 142.222 130.481L140.256 130.848C140.494 132.124 141.246 133.086 142.321 133.631C143.367 134.161 144.648 134.265 145.965 134.019L145.598 132.053Z" fill="white" fill-opacity="0.9"/>
<path d="M174.934 133.828C176.242 133.709 177.489 133.455 178.315 133.215L177.856 128.15C177.209 128.279 176.746 128.368 175.859 128.449C173.548 128.658 172.475 127.72 172.266 125.409L171.172 113.341L176.471 112.861L176.006 107.726L170.707 108.206L170.151 102.067L163.265 102.691L163.821 108.83L159.853 109.189L160.318 114.325L164.286 113.965L165.521 127.597C165.974 132.592 168.679 134.394 174.934 133.828Z" fill="#918AE3"/>
<path d="M178.315 133.215L178.594 134.176L179.385 133.946L179.311 133.125L178.315 133.215ZM177.856 128.15L178.852 128.06L178.751 126.952L177.66 127.169L177.856 128.15ZM171.172 113.341L171.082 112.345L170.086 112.436L170.176 113.431L171.172 113.341ZM176.471 112.861L176.561 113.857L177.557 113.767L177.467 112.771L176.471 112.861ZM176.006 107.726L177.001 107.636L176.911 106.64L175.915 106.73L176.006 107.726ZM170.707 108.206L169.711 108.296L169.801 109.292L170.797 109.202L170.707 108.206ZM170.151 102.067L171.147 101.977L171.056 100.981L170.06 101.071L170.151 102.067ZM163.265 102.691L163.175 101.695L162.179 101.785L162.269 102.781L163.265 102.691ZM163.821 108.83L163.911 109.826L164.907 109.736L164.817 108.74L163.821 108.83ZM159.853 109.189L159.763 108.193L158.767 108.284L158.857 109.28L159.853 109.189ZM160.318 114.325L159.322 114.415L159.413 115.411L160.408 115.321L160.318 114.325ZM164.286 113.965L165.282 113.875L165.192 112.879L164.196 112.969L164.286 113.965ZM175.025 134.823C176.394 134.699 177.705 134.434 178.594 134.176L178.036 132.255C177.274 132.476 176.089 132.719 174.844 132.832L175.025 134.823ZM179.311 133.125L178.852 128.06L176.86 128.24L177.319 133.306L179.311 133.125ZM177.66 127.169C177.029 127.295 176.606 127.377 175.769 127.453L175.949 129.445C176.887 129.36 177.388 129.263 178.052 129.131L177.66 127.169ZM175.769 127.453C174.737 127.546 174.213 127.36 173.923 127.113C173.628 126.862 173.356 126.361 173.261 125.319L171.27 125.499C171.385 126.768 171.754 127.892 172.626 128.635C173.503 129.382 174.67 129.56 175.949 129.445L175.769 127.453ZM173.261 125.319L172.168 113.251L170.176 113.431L171.27 125.499L173.261 125.319ZM171.262 114.337L176.561 113.857L176.381 111.865L171.082 112.345L171.262 114.337ZM177.467 112.771L177.001 107.636L175.01 107.816L175.475 112.951L177.467 112.771ZM175.915 106.73L170.617 107.21L170.797 109.202L176.096 108.722L175.915 106.73ZM171.703 108.116L171.147 101.977L169.155 102.157L169.711 108.296L171.703 108.116ZM170.06 101.071L163.175 101.695L163.355 103.687L170.241 103.063L170.06 101.071ZM162.269 102.781L162.825 108.92L164.817 108.74L164.261 102.601L162.269 102.781ZM163.731 107.834L159.763 108.193L159.943 110.185L163.911 109.826L163.731 107.834ZM158.857 109.28L159.322 114.415L161.314 114.234L160.849 109.099L158.857 109.28ZM160.408 115.321L164.377 114.961L164.196 112.969L160.228 113.329L160.408 115.321ZM163.29 114.055L164.525 127.687L166.517 127.507L165.282 113.875L163.29 114.055ZM164.525 127.687C164.766 130.343 165.632 132.393 167.499 133.631C169.306 134.829 171.834 135.113 175.025 134.823L174.844 132.832C171.779 133.109 169.827 132.775 168.604 131.964C167.442 131.194 166.729 129.846 166.517 127.507L164.525 127.687Z" fill="white" fill-opacity="0.9"/>
<path d="M194.898 133.655C201.624 133.709 205.684 130.131 206.431 124.512L206.456 124.372L200.128 124.322L200.08 124.415C199.451 126.988 197.776 128.311 194.964 128.288C191.307 128.259 189.291 125.361 189.333 120.134L189.333 120.087C189.374 114.931 191.412 112.088 195.092 112.117C198.022 112.14 199.719 113.795 200.145 116.306L200.168 116.353L206.543 116.403L206.543 116.333C205.98 110.563 201.955 106.804 195.111 106.75C187.026 106.686 182.44 111.548 182.373 120.032L182.372 120.079C182.304 128.657 186.835 133.591 194.898 133.655Z" fill="#918AE3"/>
<path d="M206.431 124.512L205.446 124.34L205.443 124.36L205.44 124.38L206.431 124.512ZM206.456 124.372L207.441 124.544L207.644 123.381L206.464 123.372L206.456 124.372ZM200.128 124.322L200.136 123.322L199.518 123.317L199.237 123.867L200.128 124.322ZM200.08 124.415L199.19 123.961L199.137 124.064L199.109 124.177L200.08 124.415ZM200.145 116.306L199.159 116.473L199.183 116.616L199.247 116.746L200.145 116.306ZM200.168 116.353L199.27 116.793L199.542 117.348L200.16 117.353L200.168 116.353ZM206.543 116.403L206.535 117.403L207.535 117.411L207.543 116.411L206.543 116.403ZM206.543 116.333L207.543 116.341L207.544 116.288L207.539 116.236L206.543 116.333ZM194.89 134.655C198.431 134.683 201.37 133.755 203.539 131.986C205.713 130.212 207.02 127.668 207.423 124.644L205.44 124.38C205.095 126.975 203.999 129.029 202.274 130.436C200.544 131.847 198.091 132.681 194.905 132.655L194.89 134.655ZM207.416 124.684L207.441 124.544L205.471 124.2L205.446 124.34L207.416 124.684ZM206.464 123.372L200.136 123.322L200.12 125.322L206.448 125.372L206.464 123.372ZM199.237 123.867L199.19 123.961L200.971 124.869L201.019 124.776L199.237 123.867ZM199.109 124.177C198.834 125.302 198.357 126.053 197.733 126.531C197.106 127.01 196.221 127.298 194.972 127.288L194.956 129.288C196.519 129.301 197.877 128.939 198.948 128.119C200.022 127.298 200.697 126.101 201.052 124.653L199.109 124.177ZM194.972 127.288C193.444 127.276 192.341 126.686 191.584 125.591C190.791 124.446 190.313 122.648 190.333 120.142L188.333 120.126C188.311 122.846 188.82 125.112 189.939 126.729C191.094 128.398 192.827 129.272 194.956 129.288L194.972 127.288ZM190.333 120.142L190.333 120.095L188.333 120.079L188.333 120.126L190.333 120.142ZM190.333 120.095C190.353 117.624 190.854 115.86 191.659 114.743C192.428 113.676 193.54 113.105 195.084 113.117L195.1 111.117C192.964 111.1 191.217 111.936 190.037 113.573C188.893 115.159 188.355 117.394 188.333 120.079L190.333 120.095ZM195.084 113.117C196.357 113.127 197.271 113.487 197.903 114.035C198.538 114.584 198.977 115.398 199.159 116.473L201.131 116.139C200.887 114.702 200.265 113.433 199.212 112.522C198.156 111.609 196.756 111.13 195.1 111.117L195.084 113.117ZM199.247 116.746L199.27 116.793L201.066 115.913L201.043 115.866L199.247 116.746ZM200.16 117.353L206.535 117.403L206.551 115.404L200.176 115.353L200.16 117.353ZM207.543 116.411L207.543 116.341L205.543 116.325L205.543 116.396L207.543 116.411ZM207.539 116.236C207.236 113.136 205.991 110.501 203.836 108.641C201.685 106.785 198.722 105.779 195.119 105.75L195.103 107.75C198.344 107.776 200.815 108.676 202.529 110.155C204.238 111.63 205.287 113.76 205.548 116.43L207.539 116.236ZM195.119 105.75C190.871 105.716 187.412 106.981 185.012 109.495C182.62 111.999 181.408 115.611 181.373 120.024L183.372 120.04C183.405 115.969 184.519 112.907 186.458 110.876C188.389 108.854 191.265 107.719 195.103 107.75L195.119 105.75ZM181.373 120.024L181.372 120.071L183.372 120.087L183.372 120.04L181.373 120.024ZM181.372 120.071C181.337 124.53 182.497 128.183 184.851 130.737C187.213 133.301 190.653 134.622 194.89 134.655L194.905 132.655C191.08 132.625 188.223 131.446 186.321 129.382C184.411 127.309 183.339 124.206 183.372 120.087L181.372 120.071Z" fill="white" fill-opacity="0.9"/>
<path d="M210.108 133.427L216.901 134.259L218.717 119.44C219.142 115.974 221.326 113.951 224.467 114.336C227.677 114.73 228.932 116.82 228.49 120.426L226.648 135.454L233.441 136.286L235.471 119.723C236.221 113.605 233.578 109.739 227.879 109.04C224.226 108.593 221.477 110.027 219.974 112.652L219.556 112.601L221.241 98.8523L214.448 98.0197L210.108 133.427Z" fill="#918AE3"/>
<path d="M210.108 133.427L209.116 133.305L208.994 134.298L209.986 134.419L210.108 133.427ZM216.901 134.259L216.779 135.252L217.772 135.373L217.894 134.381L216.901 134.259ZM226.648 135.454L225.656 135.332L225.534 136.325L226.527 136.446L226.648 135.454ZM233.441 136.286L233.32 137.279L234.312 137.401L234.434 136.408L233.441 136.286ZM219.974 112.652L219.853 113.645L220.512 113.726L220.842 113.149L219.974 112.652ZM219.556 112.601L218.563 112.479L218.441 113.472L219.434 113.594L219.556 112.601ZM221.241 98.8523L222.233 98.9739L222.355 97.9814L221.362 97.8597L221.241 98.8523ZM214.448 98.0197L214.569 97.0271L213.577 96.9055L213.455 97.898L214.448 98.0197ZM209.986 134.419L216.779 135.252L217.023 133.267L210.23 132.434L209.986 134.419ZM217.894 134.381L219.71 119.562L217.725 119.319L215.908 134.138L217.894 134.381ZM219.71 119.562C219.901 118.004 220.473 116.879 221.242 116.188C221.995 115.512 223.029 115.168 224.345 115.329L224.589 113.344C222.765 113.12 221.136 113.595 219.905 114.7C218.691 115.791 217.959 117.411 217.725 119.319L219.71 119.562ZM224.345 115.329C225.748 115.501 226.553 116.014 227.008 116.719C227.488 117.462 227.705 118.613 227.498 120.304L229.483 120.547C229.718 118.633 229.528 116.936 228.688 115.634C227.824 114.294 226.396 113.565 224.589 113.344L224.345 115.329ZM227.498 120.304L225.656 135.332L227.641 135.576L229.483 120.547L227.498 120.304ZM226.527 136.446L233.32 137.279L233.563 135.294L226.77 134.461L226.527 136.446ZM234.434 136.408L236.464 119.845L234.479 119.601L232.449 136.165L234.434 136.408ZM236.464 119.845C236.858 116.631 236.379 113.86 234.912 111.774C233.431 109.67 231.058 108.422 228 108.048L227.757 110.033C230.399 110.357 232.197 111.391 233.276 112.925C234.367 114.476 234.835 116.696 234.479 119.601L236.464 119.845ZM228 108.048C223.984 107.555 220.826 109.15 219.106 112.156L220.842 113.149C222.127 110.903 224.468 109.63 227.757 110.033L228 108.048ZM220.096 111.66L219.677 111.608L219.434 113.594L219.853 113.645L220.096 111.66ZM220.548 112.723L222.233 98.9739L220.248 98.7306L218.563 112.479L220.548 112.723ZM221.362 97.8597L214.569 97.0271L214.326 99.0123L221.119 99.8449L221.362 97.8597ZM213.455 97.898L209.116 133.305L211.101 133.548L215.44 98.1414L213.455 97.898Z" fill="white" fill-opacity="0.9"/>
<path d="M252.633 141.473C261.083 143.622 267.595 140.079 269.443 132.811L274.903 111.346L268.043 109.601L262.74 130.453C261.659 134.7 258.519 136.779 254.112 135.658C249.706 134.538 247.917 131.205 248.998 126.957L254.301 106.106L247.441 104.361L241.982 125.826C240.127 133.117 244.229 139.336 252.633 141.473Z" fill="#918AE3"/>
<path d="M274.903 111.346L275.872 111.592L276.119 110.623L275.149 110.376L274.903 111.346ZM268.043 109.601L268.29 108.632L267.321 108.385L267.074 109.354L268.043 109.601ZM254.301 106.106L255.27 106.352L255.517 105.383L254.547 105.136L254.301 106.106ZM247.441 104.361L247.688 103.392L246.719 103.145L246.472 104.114L247.441 104.361ZM252.387 142.442C256.795 143.564 260.798 143.224 263.977 141.56C267.169 139.889 269.425 136.938 270.413 133.057L268.474 132.564C267.613 135.951 265.689 138.406 263.05 139.788C260.399 141.175 256.921 141.532 252.88 140.504L252.387 142.442ZM270.413 133.057L275.872 111.592L273.934 111.099L268.474 132.564L270.413 133.057ZM275.149 110.376L268.29 108.632L267.797 110.57L274.656 112.315L275.149 110.376ZM267.074 109.354L261.771 130.206L263.709 130.699L269.012 109.847L267.074 109.354ZM261.771 130.206C261.277 132.146 260.345 133.477 259.147 134.218C257.956 134.956 256.36 135.198 254.359 134.689L253.866 136.628C256.271 137.239 258.449 137.003 260.2 135.919C261.944 134.839 263.122 133.006 263.709 130.699L261.771 130.206ZM254.359 134.689C252.357 134.18 251.065 133.203 250.365 131.983C249.661 130.757 249.474 129.142 249.967 127.204L248.028 126.711C247.441 129.02 247.607 131.195 248.63 132.978C249.656 134.766 251.461 136.016 253.866 136.628L254.359 134.689ZM249.967 127.204L255.27 106.352L253.332 105.859L248.028 126.711L249.967 127.204ZM254.547 105.136L247.688 103.392L247.195 105.33L254.055 107.075L254.547 105.136ZM246.472 104.114L241.013 125.579L242.951 126.072L248.41 104.607L246.472 104.114ZM241.013 125.579C240.022 129.475 240.613 133.15 242.631 136.142C244.641 139.121 248.001 141.327 252.387 142.442L252.88 140.504C248.861 139.482 245.968 137.51 244.289 135.023C242.619 132.548 242.087 129.468 242.951 126.072L241.013 125.579Z" fill="white" fill-opacity="0.9"/>
<path d="M281.834 150.351C288.005 152.718 293.595 151.299 295.426 146.529L295.434 146.507C296.803 142.94 295.321 140.062 290.902 137.186L287.225 134.796C284.94 133.292 284.329 132.204 284.824 130.913L284.833 130.891C285.454 129.272 287.424 128.848 289.634 129.696C292.019 130.611 292.98 132.36 292.835 133.786L292.814 133.904L298.744 136.179L298.778 136.092C300.002 132.118 297.71 127.623 291.386 125.197C285.368 122.888 280.183 124.362 278.445 128.892L278.437 128.914C277.051 132.524 278.462 135.651 282.68 138.399L286.378 140.798C288.619 142.285 289.271 143.464 288.776 144.755L288.759 144.799C288.146 146.396 286.08 146.809 283.629 145.868C281.113 144.903 280.058 143.268 280.126 141.587L280.116 141.482L273.836 139.073L273.824 139.169C272.697 143.481 275.291 147.84 281.834 150.351Z" fill="#918AE3"/>
<path d="M290.902 137.186L291.447 136.348L291.447 136.348L290.902 137.186ZM287.225 134.796L286.675 135.632L286.68 135.635L287.225 134.796ZM292.835 133.786L293.82 133.954L293.826 133.921L293.829 133.887L292.835 133.786ZM292.814 133.904L291.829 133.735L291.691 134.544L292.456 134.837L292.814 133.904ZM298.744 136.179L298.386 137.113L299.32 137.471L299.678 136.537L298.744 136.179ZM298.778 136.092L299.712 136.45L299.724 136.418L299.734 136.386L298.778 136.092ZM282.68 138.399L282.134 139.237L282.136 139.238L282.68 138.399ZM286.378 140.798L286.931 139.965L286.922 139.959L286.378 140.798ZM280.126 141.587L281.125 141.627L281.128 141.558L281.121 141.49L280.126 141.587ZM280.116 141.482L281.111 141.385L281.051 140.77L280.474 140.549L280.116 141.482ZM273.836 139.073L274.194 138.139L272.998 137.68L272.843 138.952L273.836 139.073ZM273.824 139.169L274.792 139.422L274.809 139.357L274.817 139.29L273.824 139.169ZM281.476 151.284C284.707 152.524 287.869 152.806 290.521 152.081C293.2 151.349 295.321 149.593 296.359 146.887L294.492 146.17C293.7 148.234 292.11 149.574 289.994 150.152C287.85 150.738 285.132 150.545 282.192 149.417L281.476 151.284ZM296.359 146.887L296.368 146.865L294.501 146.149L294.492 146.17L296.359 146.887ZM296.368 146.865C297.138 144.859 297.127 142.954 296.236 141.145C295.369 139.388 293.723 137.829 291.447 136.348L290.357 138.025C292.501 139.42 293.805 140.738 294.442 142.03C295.053 143.27 295.099 144.588 294.501 146.149L296.368 146.865ZM291.447 136.348L287.77 133.958L286.68 135.635L290.357 138.025L291.447 136.348ZM287.775 133.961C286.662 133.229 286.094 132.681 285.837 132.257C285.631 131.916 285.614 131.647 285.758 131.271L283.891 130.555C283.539 131.47 283.58 132.391 284.127 133.293C284.623 134.112 285.503 134.86 286.675 135.632L287.775 133.961ZM285.758 131.271L285.766 131.249L283.899 130.533L283.891 130.555L285.758 131.271ZM285.766 131.249C285.944 130.785 286.303 130.476 286.87 130.341C287.468 130.198 288.302 130.256 289.276 130.63L289.992 128.762C288.756 128.288 287.5 128.134 286.405 128.396C285.279 128.665 284.342 129.378 283.899 130.533L285.766 131.249ZM289.276 130.63C291.35 131.426 291.928 132.816 291.84 133.684L293.829 133.887C294.031 131.905 292.688 129.797 289.992 128.762L289.276 130.63ZM291.849 133.618L291.829 133.735L293.8 134.072L293.82 133.954L291.849 133.618ZM292.456 134.837L298.386 137.113L299.103 135.245L293.173 132.97L292.456 134.837ZM299.678 136.537L299.712 136.45L297.844 135.733L297.811 135.821L299.678 136.537ZM299.734 136.386C300.434 134.111 300.119 131.693 298.758 129.531C297.406 127.382 295.055 125.534 291.744 124.263L291.027 126.13C294.04 127.286 295.997 128.898 297.066 130.596C298.126 132.282 298.345 134.098 297.822 135.797L299.734 136.386ZM291.744 124.263C288.589 123.053 285.562 122.798 283.036 123.518C280.483 124.247 278.499 125.961 277.511 128.534L279.379 129.25C280.13 127.293 281.607 126.006 283.585 125.442C285.591 124.869 288.164 125.032 291.027 126.13L291.744 124.263ZM277.511 128.534L277.503 128.556L279.37 129.272L279.379 129.25L277.511 128.534ZM277.503 128.556C276.728 130.577 276.716 132.54 277.545 134.389C278.358 136.205 279.935 137.805 282.134 139.237L283.225 137.562C281.207 136.246 279.969 134.909 279.37 133.571C278.785 132.267 278.76 130.862 279.37 129.272L277.503 128.556ZM282.136 139.238L285.834 141.637L286.922 139.959L283.224 137.56L282.136 139.238ZM285.825 141.631C286.906 142.348 287.478 142.914 287.743 143.361C287.968 143.739 287.981 144.036 287.842 144.397L289.71 145.114C290.066 144.184 290.001 143.246 289.463 142.34C288.966 141.502 288.092 140.735 286.931 139.965L285.825 141.631ZM287.842 144.397L287.826 144.441L289.693 145.157L289.71 145.114L287.842 144.397ZM287.826 144.441C287.662 144.866 287.31 145.177 286.682 145.306C286.024 145.441 285.094 145.359 283.988 144.935L283.271 146.802C284.615 147.318 285.944 147.5 287.085 147.265C288.256 147.024 289.243 146.33 289.693 145.157L287.826 144.441ZM283.988 144.935C281.752 144.077 281.079 142.764 281.125 141.627L279.127 141.547C279.037 143.772 280.474 145.729 283.271 146.802L283.988 144.935ZM281.121 141.49L281.111 141.385L279.121 141.58L279.131 141.684L281.121 141.49ZM280.474 140.549L274.194 138.139L273.478 140.006L279.758 142.416L280.474 140.549ZM272.843 138.952L272.831 139.048L274.817 139.29L274.828 139.194L272.843 138.952ZM272.857 138.916C272.218 141.357 272.641 143.822 274.127 145.999C275.598 148.156 278.074 149.979 281.476 151.284L282.192 149.417C279.051 148.212 276.958 146.6 275.779 144.872C274.613 143.163 274.302 141.292 274.792 139.422L272.857 138.916Z" fill="white" fill-opacity="0.9"/>
<defs>
<linearGradient id="paint0_linear_2230_3489" x1="194.697" y1="-0.999756" x2="194.697" y2="627.431" gradientUnits="userSpaceOnUse">
<stop stop-color="white"/>
<stop offset="1" stop-color="#918AE3" stop-opacity="0"/>
</linearGradient>
<linearGradient id="paint1_linear_2230_3489" x1="0.1532" y1="-0.656319" x2="264.745" y2="569.358" gradientUnits="userSpaceOnUse">
<stop stop-color="white"/>
<stop offset="1" stop-color="#918AE3" stop-opacity="0"/>
</linearGradient>
<linearGradient id="paint2_linear_2230_3489" x1="389.745" y1="-0.656319" x2="125.153" y2="569.358" gradientUnits="userSpaceOnUse">
<stop stop-color="white"/>
<stop offset="1" stop-color="#918AE3" stop-opacity="0"/>
</linearGradient>
</defs>
</svg>
