<svg width="21" height="20" viewBox="0 0 21 20" fill="none" xmlns="http://www.w3.org/2000/svg">
<path d="M10.8955 12.5233L11.2455 8.22994L11.2805 6.68994H9.56547L9.60047 8.22994L9.9388 12.5233H10.8955ZM10.4171 15.4983C11.0005 15.4983 11.4788 15.0899 11.4788 14.4833C11.4788 13.8766 11.0005 13.4566 10.4171 13.4566C9.8338 13.4566 9.35547 13.8766 9.35547 14.4833C9.35547 15.0899 9.8338 15.4983 10.4171 15.4983Z" fill="#918AE3"/>
<path d="M9.14056 2.26747L1.80306 15.5446C1.68035 15.7666 1.61768 16.0168 1.62124 16.2704C1.62479 16.524 1.69444 16.7724 1.82332 16.9909C1.95219 17.2094 2.13583 17.3905 2.3561 17.5163C2.57636 17.6421 2.82564 17.7083 3.07931 17.7083H17.7543C18.008 17.7083 18.2573 17.6421 18.4775 17.5163C18.6978 17.3905 18.8814 17.2094 19.0103 16.9909C19.1392 16.7724 19.2088 16.524 19.2124 16.2704C19.2159 16.0168 19.1533 15.7666 19.0306 15.5446L11.6931 2.26747C11.567 2.03943 11.3821 1.84933 11.1576 1.71696C10.9332 1.58459 10.6774 1.51477 10.4168 1.51477C10.1562 1.51477 9.90042 1.58459 9.67597 1.71696C9.45152 1.84933 9.26664 2.03943 9.14056 2.26747ZM10.5176 2.79038C10.552 2.80937 10.5803 2.83768 10.5993 2.87205L17.9368 16.1491C17.9544 16.1809 17.9633 16.2166 17.9628 16.2529C17.9623 16.2891 17.9523 16.3246 17.9339 16.3559C17.9155 16.3871 17.8892 16.413 17.8577 16.4309C17.8262 16.4489 17.7906 16.4583 17.7543 16.4583H3.07931C3.04308 16.4583 3.00749 16.4488 2.97605 16.4308C2.94461 16.4128 2.9184 16.3869 2.90001 16.3557C2.88163 16.3245 2.8717 16.289 2.87121 16.2528C2.87072 16.2166 2.87969 16.1808 2.89722 16.1491L10.2347 2.87205C10.2614 2.82373 10.3062 2.78798 10.3593 2.77267C10.4123 2.75736 10.4693 2.76373 10.5176 2.79038Z" fill="#918AE3"/>
</svg>
