<svg width="19" height="20" viewBox="0 0 19 20" fill="none" xmlns="http://www.w3.org/2000/svg">
<path d="M11.5614 10C10.9914 10 10.5354 10.4655 10.5354 11.026C10.5354 11.596 11.0009 12.052 11.5614 12.052C12.1219 12.052 12.5874 11.5865 12.5874 11.026C12.5874 10.456 12.1314 10 11.5614 10ZM6.75439 10C6.18439 10 5.72839 10.4655 5.72839 11.026C5.72839 11.596 6.19389 12.052 6.75439 12.052C7.32439 12.052 7.78039 11.5865 7.78039 11.026C7.78039 10.456 7.32439 10 6.75439 10ZM16.0169 9.316H16.7009V12.7455H16.0169V9.316ZM11.1719 7.1025C11.2194 7.1785 11.2669 7.264 11.3239 7.34C11.8274 7.9765 12.5114 8.2615 13.1004 8.4135C13.6894 8.5655 14.2499 8.6035 14.5349 8.67C14.6204 8.689 14.6204 8.6985 14.6394 8.7175V14.123H15.8364C15.6179 14.541 15.1904 14.807 14.6394 14.807H10.4594C10.3169 14.408 9.94639 14.123 9.49039 14.123C8.92039 14.123 8.46439 14.5885 8.46439 15.149C8.46439 15.719 8.92989 16.175 9.49039 16.175H12.7964C11.8464 17.0395 10.5734 17.5525 9.14839 17.5525C6.52639 17.5525 4.33189 15.6525 3.79039 13.2205L3.70489 12.831L3.31539 12.698C2.67889 12.4985 2.28939 12.033 2.28939 11.368C2.28939 10.7885 2.74539 10.209 3.14439 10.1045L3.65739 9.9715V9.4395C3.65739 9.1355 3.71439 9.0595 3.80939 8.9645C3.89489 8.879 4.07539 8.7935 4.38889 8.727C5.01589 8.6035 6.05139 8.6415 7.11539 8.6225C8.17939 8.6035 9.31939 8.5085 10.2884 7.91C10.6304 7.7105 10.9344 7.435 11.1719 7.1025ZM9.15789 2.4475C12.1504 2.4475 14.6489 4.604 15.2094 7.4445C15.0859 7.397 14.9624 7.3685 14.8484 7.34C14.3639 7.226 13.8889 7.188 13.4519 7.0835C13.0149 6.979 12.6634 6.8175 12.3974 6.485C12.1314 6.1525 11.9034 5.573 11.9034 4.509H10.5259C10.5259 5.8675 10.1364 6.409 9.55689 6.7605C8.97739 7.112 8.06539 7.2355 7.06789 7.2545C6.07039 7.2735 5.05389 7.1975 4.13239 7.3875C3.74289 7.4635 3.34389 7.587 3.02089 7.834C3.41989 4.8035 6.02289 2.4475 9.15789 2.4475ZM9.15789 1.07C5.00639 1.07 1.60539 4.471 1.60539 8.6225V9.677C1.18739 10.1235 0.921387 10.703 0.921387 11.368C0.921387 12.4605 1.62439 13.2965 2.55539 13.7525C3.33439 16.6785 5.97539 18.9205 9.15789 18.9205C11.3999 18.9205 13.3854 17.866 14.6299 16.175H14.6489C15.9789 16.175 17.0714 15.2345 17.3279 13.99C17.4609 13.9235 17.5844 13.838 17.6889 13.7335C17.9454 13.477 18.0784 13.1065 18.0784 12.7455V9.316C18.0784 8.955 17.9549 8.5845 17.6889 8.328C17.4324 8.0715 17.0619 7.9385 16.7009 7.9385H16.6534C16.3114 4.11 13.0719 1.07 9.15789 1.07Z" fill="#918AE3"/>
</svg>
