<svg width="24" height="24" viewBox="0 0 24 24" fill="none" xmlns="http://www.w3.org/2000/svg">
<path d="M12 22.375C6.28504 22.375 1.625 17.715 1.625 12C1.625 6.28504 6.28504 1.625 12 1.625C17.715 1.625 22.375 6.28504 22.375 12C22.375 17.715 17.715 22.375 12 22.375ZM12 2.815C6.93896 2.815 2.815 6.93896 2.815 12C2.815 17.061 6.93896 21.185 12 21.185C17.061 21.185 21.185 17.061 21.185 12C21.185 6.93896 17.061 2.815 12 2.815Z" fill="black" stroke="white" stroke-width="0.25"/>
<path d="M12.8736 9.57036L12.8828 9.57442L12.8925 9.57695C12.9145 9.5827 12.9472 9.60363 12.9832 9.6703C13.0189 9.73644 13.0491 9.83231 13.0721 9.95554C13.1179 10.2011 13.1298 10.5254 13.1216 10.863C13.1052 11.5393 13.0097 12.2341 12.9708 12.3897L12.9683 12.3997L12.9675 12.41C12.9623 12.4746 12.9356 12.703 12.8982 13.0236C12.8497 13.4395 12.7831 14.0104 12.7218 14.5801C12.6677 15.0822 12.6181 15.5815 12.5894 15.9663C12.5751 16.1584 12.5659 16.324 12.5641 16.4478C12.5633 16.5094 12.5642 16.5634 12.5678 16.6062C12.5695 16.6276 12.5722 16.6489 12.5763 16.6683C12.5786 16.6788 12.5827 16.6958 12.591 16.714C12.6121 16.79 12.6348 16.8548 12.6609 16.9074C12.6879 16.9618 12.7236 17.0139 12.7749 17.0481C12.8319 17.0862 12.8952 17.0939 12.9554 17.0797C13.0097 17.067 13.0583 17.0373 13.0994 17.0066C13.173 16.9516 13.2565 16.8661 13.3456 16.7749C13.3546 16.7657 13.3637 16.7563 13.3728 16.747C13.4745 16.6431 13.5915 16.5255 13.7311 16.4082L13.7397 16.4025C13.7488 16.3966 13.7621 16.3879 13.7788 16.3776C13.8121 16.3567 13.8578 16.3292 13.908 16.3021C13.9585 16.2748 14.0113 16.2493 14.0589 16.2313C14.0786 16.2239 14.0953 16.2186 14.1093 16.215C14.1043 16.2333 14.096 16.2578 14.0825 16.2899C14.0112 16.4591 13.8304 16.7528 13.4644 17.2353C12.8665 17.8725 12.2961 18.1298 11.873 18.1285C11.6628 18.1278 11.4889 18.0639 11.3583 17.9518C11.2274 17.8396 11.1317 17.6718 11.091 17.4495L11.0908 17.4482C11.0754 17.369 11.0685 17.2286 11.0711 17.0327C11.0736 16.8397 11.0852 16.6015 11.1036 16.3315C11.1406 15.7917 11.2049 15.1299 11.2783 14.4586C11.4251 13.1161 11.608 11.7405 11.6798 11.2377C11.693 11.1455 11.6858 11.0204 11.5725 10.9657C11.5251 10.9428 11.4768 10.9434 11.4412 10.9487C11.4046 10.9541 11.3695 10.9661 11.3392 10.9789C11.2787 11.0046 11.2199 11.0414 11.1787 11.0694C11.1575 11.0838 11.1397 11.0967 11.1271 11.1062L11.1127 11.1171L11.1067 11.1207C11.0988 11.1255 11.087 11.1325 11.0717 11.1414C11.0412 11.1591 10.9971 11.1841 10.9431 11.2127C10.8348 11.27 10.6891 11.3408 10.5366 11.3966C10.382 11.4532 10.2302 11.4908 10.1067 11.4899C9.98637 11.489 9.91594 11.4531 9.87728 11.3872C9.86912 11.3712 9.86262 11.3337 9.8971 11.2624C9.93118 11.1919 9.9968 11.1086 10.0908 11.0257L10.0916 11.025L10.0959 11.0212L10.1132 11.0064C10.1285 10.9933 10.1511 10.974 10.1802 10.9496C10.2385 10.9007 10.3228 10.8311 10.4267 10.7486C10.6345 10.5835 10.9195 10.3677 11.2289 10.1633C11.5393 9.95836 11.8699 9.76806 12.1696 9.65121C12.4771 9.5313 12.7189 9.50211 12.8736 9.57036ZM12.9667 5.90551C13.2714 5.97906 13.5025 6.19516 13.6411 6.4806C13.78 6.76672 13.8218 7.11538 13.7503 7.43564C13.6725 7.75694 13.4837 8.05297 13.2366 8.24786C12.9905 8.44206 12.693 8.53177 12.3894 8.45849C12.0866 8.38541 11.8743 8.17459 11.7533 7.89442C11.6315 7.61245 11.6052 7.2651 11.6778 6.94034C11.7566 6.6146 11.9303 6.31531 12.1594 6.11891C12.3866 5.92416 12.6645 5.83256 12.9667 5.90551Z" fill="black" stroke="white" stroke-width="0.25"/>
</svg>
