<svg width="24" height="24" viewBox="0 0 24 24" fill="none" xmlns="http://www.w3.org/2000/svg">
<path d="M8.85449 19.5071C8.56152 19.5071 8.26855 19.3946 8.0459 19.1719L1.79277 12.9188C1.34512 12.4711 1.34512 11.7469 1.79277 11.2992C2.24043 10.8516 2.96465 10.8516 3.4123 11.2992L9.66543 17.5547C10.1131 18.0024 10.1131 18.7266 9.66543 19.1742C9.44043 19.3969 9.14746 19.5071 8.85449 19.5071Z" fill="#D9D9D9"/>
<path d="M8.85527 19.507C8.5623 19.507 8.26934 19.3945 8.04668 19.1719C7.59902 18.7242 7.59902 18 8.04668 17.5523L20.5553 5.04607C21.0029 4.59841 21.7271 4.59841 22.1748 5.04607C22.6225 5.49373 22.6225 6.21794 22.1748 6.6656L9.66621 19.1719C9.44121 19.3969 9.14824 19.507 8.85527 19.507Z" fill="#D9D9D9"/>
</svg>
