<svg width="23" height="22" viewBox="0 0 23 22" fill="none" xmlns="http://www.w3.org/2000/svg">
<path d="M20.7101 9.46016L20.7115 9.53068L20.7725 9.56601C21.5962 10.0426 22.1562 10.9221 22.1562 11.9375V13.375C22.1562 14.5721 21.383 15.5831 20.3108 15.9588L20.2674 15.974L20.2442 16.0138C19.5906 17.1338 18.7006 18.0978 17.6361 18.8385C16.5717 19.5791 15.3584 20.0786 14.0811 20.3021L14.0254 20.3118L13.996 20.36C13.8474 20.6029 13.6391 20.8037 13.3908 20.9431C13.1425 21.0825 12.8627 21.1559 12.578 21.1563C12.1346 21.1562 11.7094 20.9801 11.3959 20.6666C11.0824 20.353 10.9062 19.9278 10.9062 19.4844C10.9062 19.041 11.0824 18.6157 11.3959 18.3022C11.7094 17.9887 12.1346 17.8126 12.5779 17.8125C12.9268 17.8132 13.2667 17.9235 13.5496 18.1278C13.8324 18.3321 14.044 18.6201 14.1544 18.9511L14.1904 19.0592L14.3014 19.0333C16.0484 18.6249 17.5982 17.6198 18.6835 16.1912L18.7925 16.0478L18.62 15.9959C17.4872 15.6552 16.6562 14.6153 16.6562 13.375V11.9377C16.6573 11.2134 16.9439 10.5188 17.4538 10.0044C17.9638 9.49012 18.6559 9.19761 19.3802 9.19037L19.5126 9.18905L19.5037 9.05696C19.2187 4.83381 15.9108 1.47616 11.8594 1.47616H11.1406C7.08992 1.47616 3.78129 4.8338 3.49635 9.05696L3.48743 9.18905L3.61981 9.19037C4.34405 9.19761 5.03622 9.49012 5.54617 10.0044C6.05612 10.5188 6.3427 11.2134 6.34375 11.9377V13.375C6.34375 14.8915 5.11028 16.125 3.59375 16.125C2.07722 16.125 0.84375 14.8915 0.84375 13.375V11.9375C0.84375 10.9221 1.40379 10.0426 2.22754 9.56525L2.28853 9.52991L2.28985 9.45944C2.38501 4.38048 6.32116 0.288658 11.1406 0.288658H11.8594C16.6788 0.288658 20.615 4.38048 20.7101 9.46016ZM19.479 14.9308C20.3055 14.8921 20.9688 14.2126 20.9688 13.375V11.9375C20.9688 11.0757 20.2681 10.375 19.4062 10.375C18.5444 10.375 17.8438 11.0757 17.8438 11.9375V13.375V13.3751C17.8442 13.7875 18.0076 14.183 18.2983 14.4754C18.5891 14.7678 18.9837 14.9334 19.3961 14.9361L19.4763 14.9366L19.479 14.9308ZM5.15625 13.375V11.9375C5.15625 11.0757 4.45557 10.375 3.59375 10.375C2.73193 10.375 2.03125 11.0757 2.03125 11.9375V13.375C2.03125 14.2368 2.73193 14.9375 3.59375 14.9375C4.45557 14.9375 5.15625 14.2368 5.15625 13.375Z" fill="black" fill-opacity="0.7" stroke="white" stroke-width="0.25"/>
</svg>
