<svg width="20" height="20" viewBox="0 0 20 20" fill="none" xmlns="http://www.w3.org/2000/svg">
<path d="M18 3.95001H2C1.59 3.95001 1.25 3.61001 1.25 3.20001C1.25 2.79001 1.59 2.45001 2 2.45001H18C18.41 2.45001 18.75 2.79001 18.75 3.20001C18.75 3.61001 18.41 3.95001 18 3.95001ZM18 10.75H2C1.59 10.75 1.25 10.41 1.25 10C1.25 9.59001 1.59 9.25001 2 9.25001H18C18.41 9.25001 18.75 9.59001 18.75 10C18.75 10.41 18.41 10.75 18 10.75ZM18 17.55H2C1.59 17.55 1.25 17.21 1.25 16.8C1.25 16.39 1.59 16.05 2 16.05H18C18.41 16.05 18.75 16.39 18.75 16.8C18.75 17.21 18.41 17.55 18 17.55Z" fill="#918AE3" fill-opacity="0.3"/>
</svg>
