<svg width="24" height="24" viewBox="0 0 24 24" fill="none" xmlns="http://www.w3.org/2000/svg">
<mask id="path-1-inside-1_490_132" fill="white">
<path d="M2.24963 15C2.43608 15 2.61583 15.0695 2.75384 15.1948C2.89186 15.3202 2.97824 15.4924 2.99613 15.678L2.99963 15.75V21H8.24963C8.43608 21 8.61583 21.0695 8.75384 21.1948C8.89186 21.3202 8.97824 21.4924 8.99613 21.678L8.99963 21.75C8.99962 21.9364 8.93017 22.1162 8.80482 22.2542C8.67947 22.3922 8.50721 22.4786 8.32163 22.4965L8.24963 22.5H2.24963C2.06319 22.5 1.88344 22.4305 1.74542 22.3052C1.60741 22.1798 1.52103 22.0076 1.50313 21.822L1.49963 21.75V15.75C1.49963 15.5511 1.57865 15.3603 1.7193 15.2197C1.85996 15.079 2.05072 15 2.24963 15ZM21.7496 15C21.9361 15 22.1158 15.0695 22.2538 15.1948C22.3919 15.3202 22.4782 15.4924 22.4961 15.678L22.4996 15.75V21.75C22.4996 21.9364 22.4302 22.1162 22.3048 22.2542C22.1795 22.3922 22.0072 22.4786 21.8216 22.4965L21.7496 22.5H15.7496C15.557 22.4999 15.3718 22.4257 15.2324 22.2928C15.093 22.1599 15.0101 21.9784 15.0009 21.786C14.9916 21.5937 15.0567 21.4051 15.1827 21.2594C15.3087 21.1137 15.4859 21.0221 15.6776 21.0035L15.7496 21H20.9996V15.75C20.9996 15.5636 21.0691 15.3838 21.1944 15.2458C21.3198 15.1078 21.4921 15.0214 21.6776 15.0035L21.7496 15ZM11.9996 5.5C12.824 5.50001 13.6281 5.7547 14.3022 6.22922C14.9762 6.70375 15.4872 7.37493 15.7652 8.15095C16.0432 8.92698 16.0747 9.76995 15.8553 10.5645C15.6359 11.3591 15.1764 12.0665 14.5396 12.59C15.5033 13.0644 16.3148 13.7992 16.8821 14.7112C17.4495 15.6232 17.75 16.6759 17.7496 17.75C17.7496 17.9489 17.6706 18.1397 17.53 18.2803C17.3893 18.421 17.1985 18.5 16.9996 18.5C16.8007 18.5 16.61 18.421 16.4693 18.2803C16.3287 18.1397 16.2496 17.9489 16.2496 17.75C16.2496 16.6228 15.8019 15.5418 15.0048 14.7448C14.2078 13.9478 13.1268 13.5 11.9996 13.5C10.8725 13.5 9.79146 13.9478 8.99443 14.7448C8.1974 15.5418 7.74963 16.6228 7.74963 17.75C7.74963 17.9489 7.67062 18.1397 7.52996 18.2803C7.38931 18.421 7.19855 18.5 6.99963 18.5C6.80072 18.5 6.60996 18.421 6.4693 18.2803C6.32865 18.1397 6.24963 17.9489 6.24963 17.75C6.24937 16.6759 6.54993 15.6233 7.11728 14.7113C7.68462 13.7993 8.49605 13.0645 9.45963 12.59C8.82285 12.0665 8.36333 11.3591 8.14395 10.5645C7.92457 9.76995 7.95604 8.92698 8.23405 8.15095C8.51206 7.37493 9.02304 6.70375 9.69708 6.22922C10.3711 5.7547 11.1753 5.50001 11.9996 5.5ZM11.9996 7C11.6713 6.99997 11.3462 7.06461 11.0429 7.19023C10.7395 7.31585 10.4639 7.5 10.2317 7.73215C9.99954 7.9643 9.81537 8.23991 9.68972 8.54324C9.56406 8.84657 9.49939 9.17168 9.49939 9.5C9.49939 9.82833 9.56406 10.1534 9.68972 10.4568C9.81537 10.7601 9.99954 11.0357 10.2317 11.2679C10.4639 11.5 10.7395 11.6841 11.0429 11.8098C11.3462 11.9354 11.6713 12 11.9996 12C12.6626 11.9999 13.2985 11.7365 13.7672 11.2677C14.236 10.7988 14.4994 10.163 14.4994 9.5C14.4994 8.837 14.236 8.20115 13.7672 7.73232C13.2985 7.26348 12.6626 7.00006 11.9996 7ZM8.24963 1.5C8.44224 1.5001 8.62743 1.57429 8.76683 1.7072C8.90622 1.84012 8.98914 2.02157 8.9984 2.21396C9.00765 2.40634 8.94254 2.59492 8.81655 2.7406C8.69055 2.88629 8.51334 2.97791 8.32163 2.9965L8.24963 3H2.99963V8.25C2.99962 8.43644 2.93017 8.6162 2.80482 8.75421C2.67947 8.89222 2.50721 8.9786 2.32163 8.9965L2.24963 9C2.06319 8.99999 1.88344 8.93054 1.74542 8.80519C1.60741 8.67984 1.52103 8.50758 1.50313 8.322L1.49963 8.25V2.25C1.49964 2.06356 1.56909 1.8838 1.69444 1.74579C1.81979 1.60778 1.99205 1.5214 2.17763 1.5035L2.24963 1.5H8.24963ZM21.7496 1.5C21.9361 1.50001 22.1158 1.56946 22.2538 1.69481C22.3919 1.82016 22.4782 1.99242 22.4961 2.178L22.4996 2.25V8.25C22.4995 8.44261 22.4253 8.6278 22.2924 8.76719C22.1595 8.90659 21.9781 8.98951 21.7857 8.99876C21.5933 9.00802 21.4047 8.9429 21.259 8.81691C21.1133 8.69092 21.0217 8.51371 21.0031 8.322L20.9996 8.25V3H15.7496C15.5632 2.99999 15.3834 2.93054 15.2454 2.80519C15.1074 2.67984 15.021 2.50758 15.0031 2.322L14.9996 2.25C14.9996 2.06356 15.0691 1.8838 15.1944 1.74579C15.3198 1.60778 15.4921 1.5214 15.6776 1.5035L15.7496 1.5H21.7496Z"/>
</mask>
<path d="M2.24963 15C2.43608 15 2.61583 15.0695 2.75384 15.1948C2.89186 15.3202 2.97824 15.4924 2.99613 15.678L2.99963 15.75V21H8.24963C8.43608 21 8.61583 21.0695 8.75384 21.1948C8.89186 21.3202 8.97824 21.4924 8.99613 21.678L8.99963 21.75C8.99962 21.9364 8.93017 22.1162 8.80482 22.2542C8.67947 22.3922 8.50721 22.4786 8.32163 22.4965L8.24963 22.5H2.24963C2.06319 22.5 1.88344 22.4305 1.74542 22.3052C1.60741 22.1798 1.52103 22.0076 1.50313 21.822L1.49963 21.75V15.75C1.49963 15.5511 1.57865 15.3603 1.7193 15.2197C1.85996 15.079 2.05072 15 2.24963 15ZM21.7496 15C21.9361 15 22.1158 15.0695 22.2538 15.1948C22.3919 15.3202 22.4782 15.4924 22.4961 15.678L22.4996 15.75V21.75C22.4996 21.9364 22.4302 22.1162 22.3048 22.2542C22.1795 22.3922 22.0072 22.4786 21.8216 22.4965L21.7496 22.5H15.7496C15.557 22.4999 15.3718 22.4257 15.2324 22.2928C15.093 22.1599 15.0101 21.9784 15.0009 21.786C14.9916 21.5937 15.0567 21.4051 15.1827 21.2594C15.3087 21.1137 15.4859 21.0221 15.6776 21.0035L15.7496 21H20.9996V15.75C20.9996 15.5636 21.0691 15.3838 21.1944 15.2458C21.3198 15.1078 21.4921 15.0214 21.6776 15.0035L21.7496 15ZM11.9996 5.5C12.824 5.50001 13.6281 5.7547 14.3022 6.22922C14.9762 6.70375 15.4872 7.37493 15.7652 8.15095C16.0432 8.92698 16.0747 9.76995 15.8553 10.5645C15.6359 11.3591 15.1764 12.0665 14.5396 12.59C15.5033 13.0644 16.3148 13.7992 16.8821 14.7112C17.4495 15.6232 17.75 16.6759 17.7496 17.75C17.7496 17.9489 17.6706 18.1397 17.53 18.2803C17.3893 18.421 17.1985 18.5 16.9996 18.5C16.8007 18.5 16.61 18.421 16.4693 18.2803C16.3287 18.1397 16.2496 17.9489 16.2496 17.75C16.2496 16.6228 15.8019 15.5418 15.0048 14.7448C14.2078 13.9478 13.1268 13.5 11.9996 13.5C10.8725 13.5 9.79146 13.9478 8.99443 14.7448C8.1974 15.5418 7.74963 16.6228 7.74963 17.75C7.74963 17.9489 7.67062 18.1397 7.52996 18.2803C7.38931 18.421 7.19855 18.5 6.99963 18.5C6.80072 18.5 6.60996 18.421 6.4693 18.2803C6.32865 18.1397 6.24963 17.9489 6.24963 17.75C6.24937 16.6759 6.54993 15.6233 7.11728 14.7113C7.68462 13.7993 8.49605 13.0645 9.45963 12.59C8.82285 12.0665 8.36333 11.3591 8.14395 10.5645C7.92457 9.76995 7.95604 8.92698 8.23405 8.15095C8.51206 7.37493 9.02304 6.70375 9.69708 6.22922C10.3711 5.7547 11.1753 5.50001 11.9996 5.5ZM11.9996 7C11.6713 6.99997 11.3462 7.06461 11.0429 7.19023C10.7395 7.31585 10.4639 7.5 10.2317 7.73215C9.99954 7.9643 9.81537 8.23991 9.68972 8.54324C9.56406 8.84657 9.49939 9.17168 9.49939 9.5C9.49939 9.82833 9.56406 10.1534 9.68972 10.4568C9.81537 10.7601 9.99954 11.0357 10.2317 11.2679C10.4639 11.5 10.7395 11.6841 11.0429 11.8098C11.3462 11.9354 11.6713 12 11.9996 12C12.6626 11.9999 13.2985 11.7365 13.7672 11.2677C14.236 10.7988 14.4994 10.163 14.4994 9.5C14.4994 8.837 14.236 8.20115 13.7672 7.73232C13.2985 7.26348 12.6626 7.00006 11.9996 7ZM8.24963 1.5C8.44224 1.5001 8.62743 1.57429 8.76683 1.7072C8.90622 1.84012 8.98914 2.02157 8.9984 2.21396C9.00765 2.40634 8.94254 2.59492 8.81655 2.7406C8.69055 2.88629 8.51334 2.97791 8.32163 2.9965L8.24963 3H2.99963V8.25C2.99962 8.43644 2.93017 8.6162 2.80482 8.75421C2.67947 8.89222 2.50721 8.9786 2.32163 8.9965L2.24963 9C2.06319 8.99999 1.88344 8.93054 1.74542 8.80519C1.60741 8.67984 1.52103 8.50758 1.50313 8.322L1.49963 8.25V2.25C1.49964 2.06356 1.56909 1.8838 1.69444 1.74579C1.81979 1.60778 1.99205 1.5214 2.17763 1.5035L2.24963 1.5H8.24963ZM21.7496 1.5C21.9361 1.50001 22.1158 1.56946 22.2538 1.69481C22.3919 1.82016 22.4782 1.99242 22.4961 2.178L22.4996 2.25V8.25C22.4995 8.44261 22.4253 8.6278 22.2924 8.76719C22.1595 8.90659 21.9781 8.98951 21.7857 8.99876C21.5933 9.00802 21.4047 8.9429 21.259 8.81691C21.1133 8.69092 21.0217 8.51371 21.0031 8.322L20.9996 8.25V3H15.7496C15.5632 2.99999 15.3834 2.93054 15.2454 2.80519C15.1074 2.67984 15.021 2.50758 15.0031 2.322L14.9996 2.25C14.9996 2.06356 15.0691 1.8838 15.1944 1.74579C15.3198 1.60778 15.4921 1.5214 15.6776 1.5035L15.7496 1.5H21.7496Z" fill="black" fill-opacity="0.7" stroke="white" stroke-width="0.5" mask="url(#path-1-inside-1_490_132)"/>
</svg>
