<svg width="25" height="26" viewBox="0 0 25 26" fill="none" xmlns="http://www.w3.org/2000/svg">
<g clip-path="url(#clip0_2778_2618)">
<path d="M21.0511 2.2263V2.22626H21.0455H3.95453C3.35748 2.22626 2.84707 2.68677 2.82781 3.29207L2.82775 3.29207L2.82765 3.29868L2.82732 3.32048L2.82727 3.32048V3.32659V22.936C2.82727 23.546 3.32712 24.0184 3.9201 24.0359L3.9201 24.0359L3.92623 24.036L3.94887 24.0363L3.94887 24.0364H3.95453H21.0455C21.6425 24.0364 22.1529 23.5758 22.1722 22.9706L22.1722 22.9706L22.1723 22.9639L22.1727 22.9421L22.1727 22.9421V22.936V3.32659C22.1727 2.71664 21.6729 2.24425 21.0799 2.22676V2.22671L21.0738 2.22662L21.0511 2.2263ZM12.3285 9.4548L12.59 9.68068L12.8514 9.4548C14.0161 8.4487 15.7976 8.47523 16.9281 9.50773C16.9284 9.50804 16.9288 9.50835 16.9291 9.50866L16.9632 9.54031L16.9932 9.56907C16.9935 9.56937 16.9939 9.56966 16.9942 9.56996C18.1056 10.6499 18.103 12.3745 16.9982 13.4522C16.9978 13.4525 16.9975 13.4529 16.9972 13.4532L16.9624 13.4866L16.9606 13.4882L13.0567 17.1895C13.0565 17.1897 13.0562 17.1899 13.056 17.1902C12.7997 17.43 12.3859 17.4308 12.1299 17.1957L8.21918 13.4855L8.21765 13.4841L8.18942 13.457C8.18914 13.4567 8.18886 13.4565 8.18857 13.4562C7.06552 12.3651 7.07838 10.6171 8.21666 9.54038C9.34524 8.47712 11.1517 8.43827 12.3285 9.4548ZM14.18 10.7791L14.18 10.779L14.1747 10.7834L14.1557 10.7992L14.1557 10.7991L14.1496 10.8043L12.59 12.1516L11.0303 10.8043C10.6154 10.4459 9.97718 10.4568 9.57877 10.8321L9.57827 10.8326C9.1976 11.1925 9.1818 11.7761 9.54093 12.1537L9.54089 12.1538L9.54578 12.1587L9.56043 12.1736L9.56026 12.1738L9.57013 12.1831L12.315 14.7873L12.5903 15.0484L12.8656 14.7874L15.6034 12.1918C15.6036 12.1917 15.6037 12.1916 15.6038 12.1915C15.9838 11.8326 16.0001 11.2493 15.6417 10.8724L15.6418 10.8723L15.6355 10.866L15.6205 10.8509L15.6206 10.8508L15.6143 10.8448L15.6047 10.8355L15.6048 10.8354L15.596 10.8274L15.5804 10.8132L15.5804 10.8132L15.5751 10.8086C15.1832 10.4652 14.5864 10.4536 14.18 10.7791ZM21.0455 0.4C22.7468 0.4 24.1 1.72437 24.1 3.32659V22.936C24.1 24.5383 22.7468 25.8626 21.0455 25.8626H3.95453C2.25319 25.8626 0.9 24.5383 0.9 22.936V3.32659C0.9 1.72437 2.25319 0.4 3.95453 0.4H21.0455Z" fill="black" fill-opacity="0.7" stroke="white" stroke-width="0.8"/>
</g>
<defs>
<clipPath id="clip0_2778_2618">
<rect width="24" height="26" fill="white" transform="translate(0.5)"/>
</clipPath>
</defs>
</svg>
