<svg width="21" height="20" viewBox="0 0 21 20" fill="none" xmlns="http://www.w3.org/2000/svg">
<path d="M12.4783 9.95272L16.8705 5.56071C17.4215 5.00952 17.4215 4.11613 16.8705 3.56508C16.3193 3.01403 15.426 3.01403 14.8747 3.56508L10.4827 7.95695L6.09069 3.56508C5.5395 3.01403 4.64626 3.01403 4.09493 3.56508C3.54388 4.11613 3.54388 5.00966 4.09493 5.56071L8.48694 9.95272L4.09493 14.3449C3.54388 14.8961 3.54388 15.7894 4.09493 16.3406C4.22583 16.4718 4.38137 16.5759 4.5526 16.6468C4.72384 16.7178 4.9074 16.7542 5.09274 16.754C5.27808 16.7542 5.46164 16.7178 5.63288 16.6468C5.80411 16.5759 5.95965 16.4718 6.09055 16.3406L10.4826 11.9485L14.8747 16.3406C15.0056 16.4718 15.1612 16.5759 15.3324 16.6468C15.5036 16.7178 15.6872 16.7542 15.8725 16.754C16.0579 16.7542 16.2414 16.7178 16.4127 16.6469C16.5839 16.5759 16.7395 16.4719 16.8703 16.3406C17.4214 15.7894 17.4214 14.8961 16.8703 14.3449L12.4783 9.95272Z" fill="#918AE3" stroke="#F3F4FB"/>
</svg>
