<svg width="18" height="18" viewBox="0 0 18 18" fill="none" xmlns="http://www.w3.org/2000/svg">
<path d="M16.0732 6.0119C15.6865 5.09766 15.1331 4.27676 14.4282 3.57206C13.7233 2.86735 12.9024 2.31364 11.9884 1.9271C11.0416 1.52667 10.0363 1.32364 9.0001 1.32364C7.96387 1.32364 6.95858 1.52667 6.01182 1.9271C5.09758 2.31381 4.27668 2.86717 3.57197 3.57206C2.86727 4.27694 2.31373 5.09766 1.92719 6.01173C1.52676 6.95848 1.32373 7.96378 1.32373 9.00001C1.32373 10.0362 1.52676 11.0415 1.92719 11.9883C2.31391 12.9025 2.86727 13.7234 3.57215 14.4281C4.27703 15.1328 5.09793 15.6864 6.01199 16.0731C6.95875 16.4735 7.96404 16.6766 9.0001 16.6766C10.0362 16.6766 11.0416 16.4735 11.9884 16.0731C12.9026 15.6864 13.7235 15.133 14.4282 14.4281C15.1329 13.7232 15.6865 12.9024 16.0732 11.9883C16.4736 11.0415 16.6766 10.0362 16.6766 9.00001C16.6766 7.96378 16.4736 6.95848 16.0732 6.0119ZM9.0001 15.6176C5.35106 15.6176 2.38246 12.6491 2.38246 9.00001C2.38246 5.35096 5.35106 2.38237 9.0001 2.38237C12.6491 2.38237 15.6177 5.35096 15.6177 9.00001C15.6177 12.6491 12.6491 15.6176 9.0001 15.6176Z" fill="#918AE3" stroke="#918AE3" stroke-width="0.3"/>
<path d="M9.00008 4.89709H8.9999C7.61334 4.89727 6.48535 6.02526 6.48535 7.41182C6.48535 7.70415 6.7223 7.94128 7.0148 7.94128C7.3073 7.94128 7.54426 7.70432 7.54426 7.41182C7.54426 6.60903 8.19728 5.956 9.00008 5.956C9.37783 5.956 9.74029 6.11051 10.021 6.39106C10.3016 6.67161 10.4562 7.03425 10.4561 7.412C10.4561 7.75794 10.3232 8.08981 10.0718 8.37177C9.95633 8.50132 9.7874 8.611 9.60863 8.7272C9.39347 8.86712 9.14949 9.0255 8.94312 9.25472C8.555 9.68591 8.38572 10.3416 8.47853 11.0533C8.51334 11.32 8.74097 11.5144 9.00289 11.5144C9.02574 11.5144 9.04877 11.513 9.07197 11.5098C9.36183 11.472 9.56627 11.2062 9.52847 10.9164C9.4884 10.6084 9.52021 10.1962 9.7301 9.96294C9.84312 9.83726 10.0094 9.72933 10.1854 9.61489C10.404 9.47286 10.6519 9.31167 10.8618 9.0763C11.2828 8.60433 11.5146 8.01317 11.5146 7.41182C11.5146 6.75124 11.2501 6.12282 10.7693 5.64223C10.2889 5.16165 9.66066 4.89709 9.00008 4.89709V4.89709Z" fill="#918AE3" stroke="#918AE3" stroke-width="0.3"/>
<path d="M8.20581 12.9705C8.20581 13.0748 8.22635 13.1781 8.26626 13.2745C8.30617 13.3708 8.36467 13.4584 8.43842 13.5321C8.51217 13.6059 8.59972 13.6644 8.69607 13.7043C8.79242 13.7442 8.8957 13.7647 8.99999 13.7647C9.10428 13.7647 9.20755 13.7442 9.30391 13.7043C9.40026 13.6644 9.48781 13.6059 9.56156 13.5321C9.6353 13.4584 9.6938 13.3708 9.73371 13.2745C9.77363 13.1781 9.79417 13.0748 9.79417 12.9705C9.79417 12.7599 9.71049 12.5579 9.56156 12.409C9.41262 12.26 9.21062 12.1764 8.99999 12.1764C8.78936 12.1764 8.58736 12.26 8.43842 12.409C8.28948 12.5579 8.20581 12.7599 8.20581 12.9705V12.9705Z" fill="#918AE3" stroke="#918AE3" stroke-width="0.3"/>
</svg>
