<svg width="20" height="20" viewBox="0 0 20 20" fill="none" xmlns="http://www.w3.org/2000/svg">
<path d="M11.9783 9.95273L16.3705 5.56072C16.9215 5.00953 16.9215 4.11614 16.3705 3.5651C15.8193 3.01405 14.926 3.01405 14.3747 3.5651L9.98271 7.95697L5.59069 3.5651C5.0395 3.01405 4.14626 3.01405 3.59493 3.5651C3.04388 4.11614 3.04388 5.00967 3.59493 5.56072L7.98694 9.95273L3.59493 14.3449C3.04388 14.8961 3.04388 15.7895 3.59493 16.3407C3.72583 16.4719 3.88137 16.5759 4.0526 16.6469C4.22384 16.7178 4.4074 16.7542 4.59274 16.754C4.77808 16.7542 4.96164 16.7178 5.13288 16.6469C5.30411 16.5759 5.45965 16.4719 5.59055 16.3407L9.98256 11.9485L14.3747 16.3407C14.5056 16.4719 14.6612 16.5759 14.8324 16.6469C15.0036 16.7178 15.1872 16.7542 15.3725 16.754C15.5579 16.7542 15.7414 16.7178 15.9127 16.6469C16.0839 16.5759 16.2395 16.4719 16.3703 16.3407C16.9214 15.7895 16.9214 14.8961 16.3703 14.3449L11.9783 9.95273Z" fill="white" stroke="#918AE3"/>
</svg>
