<svg width="20" height="20" viewBox="0 0 20 20" fill="none" xmlns="http://www.w3.org/2000/svg">
<path d="M10.0007 19.1667C4.93815 19.1667 0.833984 15.0625 0.833984 10C0.833984 4.93751 4.93815 0.833344 10.0007 0.833344C15.0632 0.833344 19.1673 4.93751 19.1673 10C19.1673 15.0625 15.0632 19.1667 10.0007 19.1667ZM10.0007 17.5C14.1423 17.5 17.5007 14.1417 17.5007 10C17.5007 5.85834 14.1423 2.50001 10.0007 2.50001C5.85857 2.50001 2.50065 5.85834 2.50065 10C2.50065 14.1417 5.85857 17.5 10.0007 17.5ZM10.0007 6.50543C9.77958 6.50543 9.56757 6.41761 9.41125 6.26129C9.25493 6.10497 9.16711 5.89295 9.16711 5.67189C9.16711 5.45082 9.25493 5.2388 9.41125 5.08248C9.56757 4.92616 9.77958 4.83834 10.0007 4.83834C10.2217 4.83834 10.4337 4.92616 10.5901 5.08248C10.7464 5.2388 10.8342 5.45082 10.8342 5.67189C10.8342 5.89295 10.7464 6.10497 10.5901 6.26129C10.4337 6.41761 10.2217 6.50543 10.0007 6.50543ZM10.0119 15.0708C9.80167 15.0708 9.59922 14.9913 9.44514 14.8483C9.29106 14.7052 9.19673 14.5092 9.18107 14.2996L9.17857 14.2371V8.40376C9.17772 8.18756 9.26092 7.97949 9.41062 7.82349C9.56032 7.66749 9.76478 7.57578 9.98084 7.56772C10.1969 7.55966 10.4076 7.63589 10.5685 7.7803C10.7294 7.92472 10.8279 8.12601 10.8432 8.34168L10.8452 8.40418V14.2375C10.8452 14.4585 10.7574 14.6705 10.6012 14.8268C10.4449 14.983 10.2329 15.0708 10.0119 15.0708Z" fill="#918AE3" stroke="#6160FB" stroke-opacity="0.1" stroke-width="0.5"/>
</svg>
