<svg width="97" height="97" viewBox="0 0 97 97" fill="none" xmlns="http://www.w3.org/2000/svg">
<rect width="96.6667" height="96.6667" rx="8" fill="#F3F4FB"/>
<path d="M59.5631 45.7965H50.287V35.7929C50.287 35.2344 50.0813 34.6987 49.715 34.3037C49.3488 33.9088 48.8521 33.6869 48.3342 33.6869C47.8162 33.6869 47.3195 33.9088 46.9533 34.3037C46.587 34.6987 46.3813 35.2344 46.3813 35.7929V45.7965H37.1052C36.5873 45.7965 36.0906 46.0184 35.7243 46.4134C35.3581 46.8083 35.1523 47.344 35.1523 47.9026C35.1523 48.4611 35.3581 48.9968 35.7243 49.3918C36.0906 49.7867 36.5873 50.0086 37.1052 50.0086H46.3813V60.0122C46.3813 60.5708 46.587 61.1065 46.9533 61.5014C47.3195 61.8964 47.8162 62.1183 48.3342 62.1183C48.8521 62.1183 49.3488 61.8964 49.715 61.5014C50.0813 61.1065 50.287 60.5708 50.287 60.0122V50.0086H59.5631C60.081 50.0086 60.5778 49.7867 60.944 49.3918C61.3102 48.9968 61.516 48.4611 61.516 47.9026C61.516 47.344 61.3102 46.8083 60.944 46.4134C60.5778 46.0184 60.081 45.7965 59.5631 45.7965V45.7965Z" fill="#918AE3"/>
</svg>
