<svg width="24" height="24" viewBox="0 0 24 24" fill="none" xmlns="http://www.w3.org/2000/svg">
<path d="M8.85449 19.507C8.56152 19.507 8.26855 19.3945 8.0459 19.1719L1.79277 12.9187C1.34512 12.4711 1.34512 11.7469 1.79277 11.2992C2.24043 10.8516 2.96465 10.8516 3.4123 11.2992L9.66543 17.5547C10.1131 18.0023 10.1131 18.7266 9.66543 19.1742C9.44043 19.3969 9.14746 19.507 8.85449 19.507Z" fill="#918AE3"/>
<path d="M8.85527 19.507C8.5623 19.507 8.26934 19.3945 8.04668 19.1719C7.59902 18.7242 7.59902 18 8.04668 17.5524L20.5553 5.0461C21.0029 4.59844 21.7271 4.59844 22.1748 5.0461C22.6225 5.49376 22.6225 6.21797 22.1748 6.66563L9.66621 19.1719C9.44121 19.3969 9.14824 19.507 8.85527 19.507Z" fill="#918AE3"/>
</svg>
