<svg width="22" height="18" viewBox="0 0 22 18" fill="none" xmlns="http://www.w3.org/2000/svg">
<path d="M12.3329 8.47145L12.241 8.58626L12.3691 8.65844C14.8102 10.034 16.3367 12.5988 16.3367 15.4573V16.2052C16.3367 16.9485 15.732 17.5532 14.9887 17.5532H2.04531C1.302 17.5532 0.697266 16.9485 0.697266 16.2052V15.4573C0.697266 12.6321 2.19656 10.0827 4.59552 8.6962L4.72274 8.62267L4.62976 8.50888C3.91689 7.63648 3.52219 6.54759 3.52219 5.39649C3.52219 2.6706 5.73989 0.452896 8.46578 0.452896C11.1914 0.452896 13.4091 2.6706 13.4091 5.39649C13.4091 6.52953 13.0258 7.60523 12.3329 8.47145ZM14.989 16.2952L15.1199 16.2949L15.1135 16.1641L15.0787 15.4542C15.0775 12.7477 13.4428 10.354 10.915 9.35624L10.9149 9.35623L9.90277 8.9568L10.7542 8.27914C11.6413 7.57315 12.1509 6.5222 12.1509 5.39649C12.1509 3.3641 10.4977 1.71086 8.46555 1.71086C6.43315 1.71086 4.77992 3.3641 4.77992 5.39649C4.77992 6.53468 5.3003 7.59365 6.20612 8.30095L7.06285 8.96999L6.05576 9.3792C3.56501 10.3913 1.955 12.7774 1.955 15.4573V16.2052V16.3305L2.08034 16.3302L14.989 16.2952ZM20.6777 5.32868H15.7138C15.3666 5.32868 15.0848 5.04712 15.0848 4.69969C15.0848 4.35224 15.3664 4.07071 15.7138 4.07071H20.6777C21.0251 4.07071 21.3066 4.35224 21.3066 4.69969C21.3066 5.04714 21.0251 5.32868 20.6777 5.32868ZM15.7138 7.66626H20.6777C21.0251 7.66626 21.3066 7.94779 21.3066 8.29524C21.3066 8.64269 21.0251 8.92422 20.6777 8.92422H15.7138C15.3664 8.92422 15.0848 8.64269 15.0848 8.29524C15.0848 7.94779 15.3664 7.66626 15.7138 7.66626ZM17.8998 11.2616H20.6777C21.0251 11.2616 21.3066 11.5431 21.3066 11.8906C21.3066 12.238 21.0251 12.5195 20.6777 12.5195H17.8998C17.5524 12.5195 17.2709 12.238 17.2709 11.8906C17.2709 11.5431 17.5524 11.2616 17.8998 11.2616Z" fill="black" fill-opacity="0.7" stroke="white" stroke-width="0.25"/>
</svg>
