<svg width="16" height="16" viewBox="0 0 16 16" fill="none" xmlns="http://www.w3.org/2000/svg">
<path d="M14.5742 7.0625H8.94922V1.4375C8.94922 1.18886 8.85045 0.950403 8.67463 0.774587C8.49882 0.598772 8.26036 0.5 8.01172 0.5C7.76308 0.5 7.52462 0.598772 7.34881 0.774587C7.17299 0.950403 7.07422 1.18886 7.07422 1.4375V7.0625H1.44922C1.20058 7.0625 0.962121 7.16127 0.786306 7.33709C0.610491 7.5129 0.511719 7.75136 0.511719 8C0.511719 8.24864 0.610491 8.4871 0.786306 8.66291C0.962121 8.83873 1.20058 8.9375 1.44922 8.9375H7.07422V14.5625C7.07422 14.8111 7.17299 15.0496 7.34881 15.2254C7.52462 15.4012 7.76308 15.5 8.01172 15.5C8.26036 15.5 8.49882 15.4012 8.67463 15.2254C8.85045 15.0496 8.94922 14.8111 8.94922 14.5625V8.9375H14.5742C14.8229 8.9375 15.0613 8.83873 15.2371 8.66291C15.4129 8.4871 15.5117 8.24864 15.5117 8C15.5117 7.75136 15.4129 7.5129 15.2371 7.33709C15.0613 7.16127 14.8229 7.0625 14.5742 7.0625Z" fill="black" fill-opacity="0.3"/>
</svg>
