<svg width="24" height="24" viewBox="0 0 24 24" fill="none" xmlns="http://www.w3.org/2000/svg">
<g clip-path="url(#clip0_490_138)">
<path d="M19.8105 14.7265L19.7544 14.7702L19.7633 14.8408C19.7711 14.9022 19.7751 14.9646 19.7751 15.028C19.7751 15.0576 19.7743 15.0869 19.7726 15.116L19.7648 15.2483H19.7751V20.8813L19.7735 20.9184C19.7532 21.3795 19.5214 21.7936 19.1119 22.1599C18.7011 22.5274 18.1171 22.8412 17.411 23.0957C15.9992 23.6046 14.1273 23.8669 12.2612 23.8669C10.3951 23.8669 8.52319 23.6046 7.11142 23.0957C6.4053 22.8412 5.8213 22.5274 5.41048 22.1599C5.00098 21.7936 4.76916 21.3795 4.74889 20.9184L4.74726 20.8813V18.981V18.9292L4.71065 18.8926L0.294819 14.4767L14.5866 0.18491L23.1692 8.7675L22.2681 9.66858L22.1901 9.74665L22.2579 9.83377L23.7058 11.6934L19.8105 14.7265ZM21.907 11.5584L22.0056 11.4816L21.9288 11.383L21.4138 10.7216L21.3268 10.6099L21.2268 10.71L18.7065 13.2303L18.5987 13.338L18.7254 13.4226C18.8405 13.4995 18.9471 13.5792 19.0448 13.6616L19.1223 13.7269L19.2022 13.6646L21.907 11.5584ZM14.675 1.98647L14.5866 1.89808L14.4982 1.98647L2.0964 14.3883L2.00802 14.4767L2.0964 14.5651L4.53387 17.0026L4.74726 17.216V16.9142V15.2483H4.75758L4.74983 15.116C4.74812 15.0869 4.74726 15.0576 4.74726 15.028C4.74726 14.556 4.96598 14.1331 5.36726 13.7592C5.77024 13.3837 6.35242 13.0628 7.06136 12.8023C8.4787 12.2815 10.3728 12.013 12.2612 12.013C14.1039 12.013 15.9523 12.2687 17.3578 12.7652L17.4321 12.7914L17.4878 12.7357L21.3677 8.85589L21.456 8.7675L21.3677 8.67911L14.675 1.98647ZM6.14394 19.7551L5.95883 19.6535V19.8647V20.8518C5.95883 20.9563 6.01196 21.0573 6.08523 21.1471C6.16044 21.2393 6.2684 21.334 6.40464 21.4286C6.67757 21.6179 7.07889 21.8166 7.60338 21.9975C8.65349 22.3596 10.2119 22.6553 12.2612 22.6553C14.3105 22.6553 15.8689 22.3596 16.919 21.9975C17.4435 21.8166 17.8448 21.6179 18.1178 21.4286C18.254 21.334 18.362 21.2393 18.4372 21.1471C18.5104 21.0573 18.5636 20.9563 18.5636 20.8518V19.8647V19.6535L18.3784 19.7551C16.9418 20.5432 14.6003 20.9552 12.2612 20.9552C9.92214 20.9552 7.58061 20.5432 6.14394 19.7551ZM6.14394 16.843L5.95883 16.7415V16.9526V17.9401C5.95883 18.0446 6.01196 18.1456 6.08523 18.2354C6.16044 18.3276 6.2684 18.4223 6.40464 18.5169C6.67757 18.7062 7.07889 18.9049 7.60338 19.0858C8.65349 19.4479 10.2119 19.7436 12.2612 19.7436C14.3105 19.7436 15.8689 19.4479 16.919 19.0858C17.4435 18.9049 17.8448 18.7062 18.1178 18.5169C18.254 18.4223 18.362 18.3276 18.4372 18.2354C18.5104 18.1456 18.5636 18.0446 18.5636 17.9401V16.9526V16.7415L18.3784 16.843C16.9418 17.6311 14.6003 18.0431 12.2612 18.0431C9.92214 18.0431 7.58061 17.6311 6.14394 16.843ZM12.2612 16.8315C14.3105 16.8315 15.8689 16.5358 16.919 16.1737C17.4435 15.9929 17.8448 15.7942 18.1178 15.6048C18.254 15.5103 18.362 15.4155 18.4372 15.3233C18.5105 15.2335 18.5636 15.1325 18.5636 15.028C18.5636 14.9235 18.5105 14.8226 18.4372 14.7327C18.362 14.6405 18.254 14.5458 18.1178 14.4513C17.8448 14.2619 17.4435 14.0632 16.919 13.8823C15.8689 13.5202 14.3105 13.2245 12.2612 13.2245C10.212 13.2245 8.65353 13.5202 7.60342 13.8823C7.07892 14.0632 6.6776 14.2619 6.40467 14.4513C6.26843 14.5458 6.16047 14.6405 6.08525 14.7327C6.01199 14.8226 5.95885 14.9235 5.95885 15.028C5.95885 15.1325 6.01199 15.2335 6.08525 15.3233C6.16047 15.4155 6.26843 15.5103 6.40467 15.6048C6.6776 15.7942 7.07892 15.9929 7.60342 16.1737C8.65353 16.5358 10.212 16.8315 12.2612 16.8315Z" fill="black" fill-opacity="0.7" stroke="white" stroke-width="0.25"/>
</g>
<defs>
<clipPath id="clip0_490_138">
<rect width="24" height="24" fill="white" transform="translate(-0.000366211)"/>
</clipPath>
</defs>
</svg>
