<svg width="28" height="28" viewBox="0 0 28 28" fill="none" xmlns="http://www.w3.org/2000/svg">
<path d="M16.2634 21.5601C16.0417 21.5601 15.8142 21.4726 15.6451 21.3034L12.1917 17.8501C11.8476 17.5059 11.8476 16.9518 12.1917 16.6134C12.5359 16.2751 13.0901 16.2693 13.4284 16.6134L16.8817 20.0667C17.2259 20.4109 17.2259 20.9651 16.8817 21.3034C16.7067 21.4726 16.4851 21.5601 16.2634 21.5601ZM18.7717 19.0517C18.5501 19.0517 18.3226 18.9642 18.1534 18.7951L16.0184 16.6601C15.6742 16.3159 15.6742 15.7618 16.0184 15.4234C16.3626 15.0851 16.9167 15.0793 17.2551 15.4234L19.3901 17.5584C19.7342 17.9026 19.7342 18.4567 19.3901 18.7951C19.2151 18.9642 18.9934 19.0517 18.7717 19.0517Z" fill="white"/>
<path d="M13.9883 23.3158C13.4225 23.3158 12.8916 23.0941 12.4891 22.6974L3.43579 13.6441C3.23885 13.4479 3.08258 13.2147 2.97596 12.9579C2.86934 12.7012 2.81445 12.4259 2.81445 12.1479C2.81445 11.8698 2.86934 11.5946 2.97596 11.3378C3.08258 11.081 3.23885 10.8478 3.43579 10.6516L8.78495 5.30827C9.18745 4.91161 9.71829 4.68994 10.2841 4.68994C10.85 4.68994 11.3808 4.91161 11.7833 5.31411L14.6066 8.14327C14.945 8.48744 14.9683 9.05911 14.6241 9.39744L13.0258 10.9958C12.9325 11.0891 12.9208 11.1999 12.9208 11.2583C12.9208 11.3166 12.9325 11.4274 13.0258 11.5208L14.0758 12.5649C14.2216 12.7049 14.4491 12.7049 14.595 12.5649L16.1991 10.9666C16.5433 10.6283 17.0975 10.6283 17.4358 10.9666L21.7116 15.2424C22.0558 15.5866 22.0558 16.1408 21.7116 16.4791L15.4816 22.6974C15.2859 22.894 15.0531 23.0499 14.7968 23.156C14.5405 23.2622 14.2657 23.3165 13.9883 23.3158ZM10.2841 6.43411C10.2258 6.43411 10.115 6.44577 10.0216 6.53911L4.67245 11.8824C4.52662 12.0283 4.52662 12.2616 4.67245 12.4016L13.7258 21.4549C13.8716 21.6008 14.105 21.6008 14.245 21.4549L19.8508 15.8491L16.8116 12.8099L15.8258 13.7899C15.428 14.185 14.8902 14.4067 14.3295 14.4067C13.7689 14.4067 13.2311 14.185 12.8333 13.7899L11.7833 12.7458C11.3808 12.3491 11.1591 11.8124 11.1591 11.2466C11.1591 10.6808 11.3808 10.1499 11.7775 9.74744L12.7575 8.76744L10.5291 6.53911C10.4981 6.50519 10.4602 6.47828 10.418 6.46017C10.3757 6.44207 10.3301 6.43318 10.2841 6.43411Z" fill="white"/>
<path d="M21.0875 16.7299C20.8658 16.7299 20.6383 16.6424 20.4692 16.4732L16.8117 12.8157L15.8258 13.7957C15.4281 14.1908 14.8902 14.4125 14.3296 14.4125C13.769 14.4125 13.2311 14.1908 12.8333 13.7957L11.7833 12.7516C11.3808 12.3549 11.1592 11.8182 11.1592 11.2524C11.1592 10.6866 11.3808 10.1557 11.7775 9.75324L13.2883 8.24241C13.3117 8.20741 13.3408 8.17824 13.37 8.14908L16.2167 5.30241C17.045 4.47991 18.3867 4.47408 19.2092 5.30241L24.5525 10.6516C24.7498 10.848 24.9061 11.0817 25.0122 11.3391C25.1184 11.5964 25.1723 11.8723 25.1708 12.1507C25.1708 12.7166 24.9492 13.2474 24.5467 13.6499L21.7175 16.4732C21.5425 16.6482 21.3267 16.7299 21.0875 16.7299C21.0992 16.7299 21.0933 16.7299 21.0875 16.7299ZM16.8117 10.7041C17.0333 10.7041 17.2608 10.7916 17.43 10.9607L21.0992 14.6299L23.3217 12.4074C23.415 12.3141 23.4267 12.2032 23.4267 12.1449C23.4267 12.0866 23.415 11.9757 23.3217 11.8824L17.9783 6.53325C17.9446 6.49864 17.9042 6.47114 17.8596 6.45236C17.815 6.43359 17.7671 6.42392 17.7188 6.42392C17.6704 6.42392 17.6225 6.43359 17.5779 6.45236C17.5333 6.47114 17.493 6.49864 17.4592 6.53325L14.7058 9.28658C14.6825 9.32158 14.6533 9.35074 14.6242 9.37991L13.0258 10.9782C12.9325 11.0716 12.9208 11.1824 12.9208 11.2407C12.9208 11.2991 12.9325 11.4099 13.0258 11.5032L14.0758 12.5474C14.2217 12.6874 14.4492 12.6874 14.595 12.5474L16.1992 10.9491C16.3683 10.7916 16.59 10.7041 16.8117 10.7041Z" fill="white"/>
</svg>
