<svg width="40" height="40" viewBox="0 0 40 40" fill="none" xmlns="http://www.w3.org/2000/svg">
<rect width="40" height="40" rx="8" fill="#FAECEF"/>
<path d="M16.493 12.1916V9.3781C16.493 7.99297 17.6112 6.86789 18.9957 6.86048C20.3256 6.85344 21.4093 7.9264 21.4164 9.25692M16.493 12.1916L21.2914 9.25758M16.493 12.1916H11.4263C10.0085 12.1916 8.85921 13.3417 8.85921 14.7602V17.6119V17.7369L8.98421 17.7369L10.2772 17.7369C12.6505 17.7369 14.579 19.6426 14.6176 22.0083C14.6176 22.0085 14.6176 22.0086 14.6176 22.0088L14.6182 22.0807C14.6182 22.0808 14.6182 22.081 14.6182 22.0811C14.6179 24.4799 12.6744 26.4244 10.2772 26.4244H8.98421H8.85921V26.5494V29.571C8.85921 30.9753 9.98559 32.1165 11.3839 32.1392L11.3849 32.1392L11.4253 32.1396H11.4263H14.3281H14.4531L14.4531 32.0146L14.4531 30.9428C14.4531 28.5438 16.3771 26.5945 18.7651 26.5554C18.7653 26.5554 18.7655 26.5554 18.7657 26.5554L18.8383 26.5548C18.8384 26.5548 18.8386 26.5548 18.8388 26.5548L16.493 12.1916ZM21.4164 9.25692L21.2914 9.25758M21.4164 9.25692C21.4164 9.25687 21.4164 9.25683 21.4164 9.25678L21.2914 9.25758M21.4164 9.25692C21.4165 9.27874 21.4163 9.3006 21.4158 9.32243L21.2909 9.3197M21.2914 9.25758C21.2915 9.27828 21.2913 9.299 21.2909 9.3197M21.2909 9.3197L21.4158 9.3225L21.2909 9.3197ZM18.9164 5.12606L18.9203 5.12598L18.9865 5.12506C18.9866 5.12506 18.9868 5.12506 18.987 5.12506C21.2742 5.11319 23.1383 6.95875 23.1506 9.24762C23.1508 9.28522 23.1504 9.32281 23.1496 9.36044L23.1285 10.3284L23.1257 10.4561L23.2534 10.4561L26.3064 10.4562C28.6579 10.4562 30.5688 12.3444 30.6072 14.6884C30.6072 14.6886 30.6072 14.6888 30.6072 14.689L30.6077 14.7602V14.7608L30.6077 17.9723L30.6077 18.0973L30.7327 18.0973L31.7686 18.0974C34.0135 18.0974 35.8379 19.9 35.8744 22.1377C35.8744 22.1379 35.8744 22.1382 35.8745 22.1384L35.875 22.2063C35.875 22.2065 35.875 22.2067 35.875 22.2069C35.8747 24.476 34.0363 26.3153 31.7686 26.3153L30.7327 26.3152L30.6077 26.3152L30.6077 26.4402L30.6077 29.571C30.6077 31.9241 28.7206 33.8361 26.3782 33.8744C26.378 33.8744 26.3778 33.8744 26.3776 33.8744L26.3065 33.875H26.3059H21.4892V30.9428C21.4892 29.4779 20.3024 28.2903 18.8383 28.2903C17.3741 28.2903 16.1873 29.4779 16.1873 30.9428V33.875H11.4263C9.05083 33.875 7.125 31.9481 7.125 29.5709V24.6889H10.2772C11.717 24.6889 12.884 23.5211 12.884 22.0806C12.884 20.6402 11.717 19.4723 10.2772 19.4723H7.125V14.7602C7.125 12.3831 9.05083 10.4562 11.4263 10.4562L14.6337 10.4561L14.7587 10.4561V10.3311V9.3781C14.7587 7.06142 16.6104 5.17563 18.9164 5.12606ZM21.2281 12.1916L21.2254 12.3166H21.3504L21.3531 12.1916H21.2281ZM28.7485 19.8328V19.9578H28.8735V19.8328H28.7485ZM28.8735 24.5799V24.4549H28.7485V24.5799H28.8735Z" fill="white" stroke="#FAECEF" stroke-width="0.25"/>
</svg>
