<svg width="20" height="20" viewBox="0 0 20 20" fill="none" xmlns="http://www.w3.org/2000/svg">
<path d="M9.58333 1.04169C6.70667 1.04169 4.375 3.37335 4.375 6.25002C4.375 9.12669 6.70667 11.4584 9.58333 11.4584C12.46 11.4584 14.7917 9.12669 14.7917 6.25002C14.7917 3.37335 12.46 1.04169 9.58333 1.04169ZM9.58333 2.29169C10.6331 2.29169 11.64 2.70872 12.3823 3.45106C13.1246 4.19339 13.5417 5.2002 13.5417 6.25002C13.5417 7.29984 13.1246 8.30665 12.3823 9.04898C11.64 9.79132 10.6331 10.2084 9.58333 10.2084C8.53352 10.2084 7.5267 9.79132 6.78437 9.04898C6.04204 8.30665 5.625 7.29984 5.625 6.25002C5.625 5.2002 6.04204 4.19339 6.78437 3.45106C7.5267 2.70872 8.53352 2.29169 9.58333 2.29169Z" fill="white" stroke="white" stroke-width="0.3"/>
<path d="M9.61967 10.2084C10.9672 10.2084 12.2688 10.5342 13.4347 11.1488C13.5813 11.2261 13.6912 11.3585 13.7403 11.5168C13.7893 11.6752 13.7734 11.8465 13.6961 11.9932C13.6188 12.1398 13.4864 12.2497 13.3281 12.2988C13.1697 12.3478 12.9984 12.3319 12.8518 12.2546C11.8554 11.7297 10.7458 11.4564 9.61967 11.4584C5.80176 11.4584 2.70801 14.5371 2.70801 18.3334C2.70801 18.4991 2.64216 18.6581 2.52495 18.7753C2.40774 18.8925 2.24877 18.9584 2.08301 18.9584C1.91725 18.9584 1.75828 18.8925 1.64107 18.7753C1.52386 18.6581 1.45801 18.4991 1.45801 18.3334C1.45801 13.8455 5.11301 10.2084 9.61967 10.2084ZM17.4997 13.75C17.6602 13.7501 17.8145 13.8119 17.9307 13.9227C18.0468 14.0335 18.1159 14.1847 18.1236 14.345C18.1314 14.5053 18.0771 14.6625 17.9721 14.7839C17.8671 14.9053 17.7194 14.9816 17.5597 14.9971L17.4997 15H12.4997C12.3392 15 12.1848 14.9381 12.0687 14.8274C11.9525 14.7166 11.8834 14.5654 11.8757 14.4051C11.868 14.2448 11.9223 14.0876 12.0272 13.9662C12.1322 13.8448 12.2799 13.7684 12.4397 13.753L12.4997 13.75H17.4997ZM17.4997 17.5C17.6602 17.5001 17.8145 17.5619 17.9307 17.6727C18.0468 17.7835 18.1159 17.9347 18.1236 18.095C18.1314 18.2553 18.0771 18.4125 17.9721 18.5339C17.8671 18.6553 17.7194 18.7316 17.5597 18.7471L17.4997 18.75H12.4997C12.3392 18.75 12.1848 18.6881 12.0687 18.5774C11.9525 18.4666 11.8834 18.3154 11.8757 18.1551C11.868 17.9948 11.9223 17.8376 12.0272 17.7162C12.1322 17.5948 12.2799 17.5184 12.4397 17.503L12.4997 17.5H17.4997Z" fill="white" stroke="white" stroke-width="0.3"/>
</svg>
