<svg width="25" height="24" viewBox="0 0 25 24" fill="none" xmlns="http://www.w3.org/2000/svg">
<path d="M21.5824 4.60153L20.6833 4.58754C20.6617 4.58754 18.646 4.54559 16.564 3.73671C14.4288 2.90623 13.0527 1.95241 13.04 1.94351L12.4983 1.56708L11.9577 1.94348C11.945 1.95239 10.5677 2.90623 8.43367 3.73671C6.35305 4.5468 4.33605 4.58749 4.31828 4.58749L3.41406 4.60153V13.3729C3.41406 17.777 9.32263 22.4329 12.4995 22.4329C15.6776 22.4329 21.5863 17.777 21.5863 13.3729L21.5824 4.60153H21.5824ZM12.4995 21.1307C9.86059 21.1307 4.71632 16.9427 4.71632 13.3728V5.87198C5.46032 5.82112 7.14665 5.63545 8.90547 4.95122C10.7076 4.24919 12.0175 3.45565 12.5008 3.14531C13.0196 3.48237 14.2914 4.24922 16.0922 4.95122C17.8574 5.63672 19.5476 5.82117 20.2814 5.87198L20.2839 13.3728C20.284 16.9427 15.1384 21.1306 12.4995 21.1306L12.4995 21.1307Z" fill="black" fill-opacity="0.7" stroke="white" stroke-width="0.25"/>
<path d="M17.9198 12.8529L14.4364 16.3325L12.9765 14.6767C12.7374 14.407 12.3266 14.3816 12.057 14.6182C11.7862 14.8572 11.7607 15.2681 11.9998 15.5377L13.9176 17.7137C13.9765 17.7802 14.0484 17.8339 14.1289 17.8716C14.2094 17.9092 14.2968 17.9299 14.3856 17.9324C14.3932 17.9337 14.3996 17.9337 14.406 17.9337C14.5789 17.9337 14.7443 17.8663 14.8663 17.7442L18.8406 13.7763C19.095 13.522 19.095 13.1099 18.8419 12.8543C18.5874 12.5998 18.1742 12.6012 17.9198 12.8529Z" fill="black" fill-opacity="0.7" stroke="white" stroke-width="0.25"/>
<path d="M14.3582 14.0341C14.6533 13.7302 15.0145 13.4122 15.3184 13.1605C14.8823 12.6963 14.3519 12.3236 13.7605 12.0655C14.4727 11.5161 14.9394 10.6615 14.9394 9.6949C14.9394 8.03529 13.5888 6.68463 11.9292 6.68463C10.2696 6.68463 8.91891 8.03522 8.91891 9.6949C8.91891 10.6589 9.38309 11.5098 10.0915 12.0604C8.43188 12.7752 7.26562 14.4258 7.26562 16.345C7.26562 16.7049 7.55688 16.9961 7.91679 16.9961C8.27667 16.9961 8.56788 16.7049 8.56788 16.345C8.56788 14.492 10.0749 12.9838 11.9291 12.9838C12.8856 12.9837 13.7453 13.3894 14.3582 14.0341ZM11.9292 7.98694C12.8703 7.98694 13.6372 8.75381 13.6372 9.6949C13.6372 10.636 12.8702 11.4016 11.9292 11.4016C10.9881 11.4016 10.2212 10.636 10.2212 9.6949C10.2212 8.75381 10.9881 7.98694 11.9292 7.98694Z" fill="black" fill-opacity="0.7" stroke="white" stroke-width="0.25"/>
</svg>
