<svg width="40" height="40" viewBox="0 0 40 40" fill="none" xmlns="http://www.w3.org/2000/svg">
<rect width="40" height="40" rx="8" fill="#DBDBFA"/>
<path d="M15.4959 13.5742C13.4576 13.5742 11.7961 11.8735 11.7961 9.7871C11.7961 7.70069 13.4576 6 15.4959 6C17.5343 6 19.1958 7.70069 19.1958 9.7871C19.1958 11.8735 17.5343 13.5742 15.4959 13.5742ZM15.4959 7.68316C14.3483 7.68316 13.4233 8.62993 13.4233 9.80463C13.4233 10.9793 14.3483 11.9261 15.4959 11.9261C16.6436 11.9261 17.5685 10.9793 17.5685 9.80463C17.5685 8.62993 16.6436 7.68316 15.4959 7.68316V7.68316ZM24.3002 13.5742C22.2618 13.5742 20.6003 11.8735 20.6003 9.7871C20.6003 7.70069 22.2618 6 24.3002 6C26.3385 6 28 7.70069 28 9.7871C28 11.8735 26.3385 13.5742 24.3002 13.5742ZM24.3002 7.68316C23.1525 7.68316 22.2276 8.62993 22.2276 9.80463C22.2276 10.9793 23.1525 11.9261 24.3002 11.9261C25.4478 11.9261 26.3728 10.9793 26.3728 9.80463C26.3728 8.62993 25.4307 7.68316 24.3002 7.68316V7.68316ZM19.5383 34C19.3328 34 19.1272 33.9123 18.956 33.7545L8.47308 23.0069C7.51387 22.0426 7 20.7451 7 19.3601C7 17.975 7.531 16.6951 8.47308 15.7132C10.4429 13.7145 13.6289 13.7145 15.5987 15.7307L20.1036 20.3419C20.429 20.675 20.429 21.201 20.1036 21.5166C19.7781 21.8497 19.2643 21.8497 18.956 21.5166L14.4511 16.9054C13.8002 16.2392 12.9437 15.8885 12.0359 15.8885C11.1281 15.8885 10.2716 16.2567 9.62072 16.9054C8.28467 18.273 8.28467 20.4822 9.62072 21.8322L20.1036 32.5623C20.429 32.8954 20.429 33.4214 20.1036 33.737C19.9666 33.9123 19.7439 34 19.5383 34V34Z" fill="white"/>
<path d="M19.8657 34C19.6504 34 19.4351 33.9114 19.2557 33.7518C18.9148 33.415 18.9148 32.8832 19.2557 32.5641L30.2368 21.7155C31.6363 20.3328 31.6363 18.0993 30.2368 16.7343C29.5549 16.0607 28.6578 15.7062 27.7068 15.7062C26.7558 15.7062 25.8587 16.0784 25.1769 16.7343L20.4579 21.3964C20.1169 21.7332 19.5787 21.7332 19.2557 21.3964C18.9148 21.0596 18.9148 20.5278 19.2557 20.2087L23.9926 15.5289C26.0561 13.4904 29.3935 13.4904 31.4569 15.5289C32.4617 16.5039 33 17.8156 33 19.216C33 20.6164 32.4438 21.9105 31.4569 22.9032L20.4758 33.7518C20.2964 33.9114 20.0811 34 19.8657 34V34Z" fill="white"/>
</svg>
