<svg width="41" height="56" viewBox="0 0 41 56" fill="none" xmlns="http://www.w3.org/2000/svg">
<path d="M35.8957 24C38.426 24 40.1128 22.4 40.1128 20C40.1128 17.6 38.426 16 35.8957 16H29.1483L38.8477 6.8C40.5345 5.2 40.5345 2.8 38.8477 1.2C37.1608 -0.4 34.6305 -0.4 32.9437 1.2L19.0271 14.4L5.11055 1.2C3.42369 -0.4 0.893408 -0.4 -0.793449 1.2C-2.48031 2.8 -2.48031 5.2 -0.793449 6.8L8.90598 16H2.15855C-0.371735 16 -2.05859 17.6 -2.05859 20C-2.05859 22.4 -0.371735 24 2.15855 24H14.81V31.2H2.15855C-0.371735 31.2 -2.05859 32.8 -2.05859 35.2C-2.05859 37.6 -0.371735 39.2 2.15855 39.2H14.81V52C14.81 54.4 16.4968 56 19.0271 56C21.5574 56 23.2443 54.4 23.2443 52V39.2H35.8957C38.426 39.2 40.1128 37.6 40.1128 35.2C40.1128 32.8 38.426 31.2 35.8957 31.2H23.2443V24H35.8957Z" fill="#918AE3" fill-opacity="0.3"/>
</svg>
