<svg width="79" height="100" viewBox="0 0 79 100" fill="none" xmlns="http://www.w3.org/2000/svg">
<path fill-rule="evenodd" clip-rule="evenodd" d="M78.0854 0C78.236 0.426207 78.5738 0.764005 79 0.914648V3.08535C78.4174 3.29127 78 3.84689 78 4.5C78 5.15311 78.4174 5.70873 79 5.91465V8.08535C78.4174 8.29127 78 8.84689 78 9.5C78 10.1531 78.4174 10.7087 79 10.9146V13.0854C78.4174 13.2913 78 13.8469 78 14.5C78 15.1531 78.4174 15.7087 79 15.9146V18.0854C78.4174 18.2913 78 18.8469 78 19.5C78 20.1531 78.4174 20.7087 79 20.9146V23.0854C78.4174 23.2913 78 23.8469 78 24.5C78 25.1531 78.4174 25.7087 79 25.9146V28.0854C78.4174 28.2913 78 28.8469 78 29.5C78 30.1531 78.4174 30.7087 79 30.9146V33.0854C78.4174 33.2913 78 33.8469 78 34.5C78 35.1531 78.4174 35.7087 79 35.9146V38.0854C78.4174 38.2913 78 38.8469 78 39.5C78 40.1531 78.4174 40.7087 79 40.9146V43.0854C78.4174 43.2913 78 43.8469 78 44.5C78 45.1531 78.4174 45.7087 79 45.9146V48.0854C78.4174 48.2913 78 48.8469 78 49.5C78 50.1531 78.4174 50.7087 79 50.9146V53.0854C78.4174 53.2913 78 53.8469 78 54.5C78 55.1531 78.4174 55.7087 79 55.9146V58.0854C78.4174 58.2913 78 58.8469 78 59.5C78 60.1531 78.4174 60.7087 79 60.9146V63.0854C78.4174 63.2913 78 63.8469 78 64.5C78 65.1531 78.4174 65.7087 79 65.9146V68.0854C78.4174 68.2913 78 68.8469 78 69.5C78 70.1531 78.4174 70.7087 79 70.9146V73.0854C78.4174 73.2913 78 73.8469 78 74.5C78 75.1531 78.4174 75.7087 79 75.9146V78.0854C78.4174 78.2913 78 78.8469 78 79.5C78 80.1531 78.4174 80.7087 79 80.9146V83.0854C78.4174 83.2913 78 83.8469 78 84.5C78 85.1531 78.4174 85.7087 79 85.9146V88.0854C78.4174 88.2913 78 88.8469 78 89.5C78 90.1531 78.4174 90.7087 79 90.9146V93.0854C78.4174 93.2913 78 93.8469 78 94.5C78 95.1531 78.4174 95.7087 79 95.9146V98.0854C78.4174 98.2913 78 98.8469 78 99.5C78 99.6753 78.0301 99.8436 78.0854 100H-30V0H78.0854Z" fill="#E4E5FB"/>
</svg>
