<svg width="166" height="196" viewBox="0 0 166 196" fill="none" xmlns="http://www.w3.org/2000/svg">
<g clip-path="url(#clip0_8774_42652)">
<path d="M79.6698 183.917L79.4586 179.018C79.4367 179.006 79.4147 178.994 79.3927 178.983C77.1303 177.758 74.5374 179.975 75.26 182.504C75.9399 184.883 76.3967 187.449 77.6413 189.531C78.3766 190.741 79.3663 191.764 80.537 192.526C81.7077 193.287 83.0295 193.767 84.4042 193.929L87.2786 195.745C87.673 193.476 87.586 191.146 87.0237 188.915C86.4614 186.684 85.437 184.605 84.0213 182.822C83.2174 181.83 82.2957 180.946 81.2778 180.192C80.5894 182.065 79.6698 183.917 79.6698 183.917Z" fill="#F2F2F2"/>
<path d="M25.9983 105C46.2799 116.831 69.1419 116.119 85.855 133.726C87.021 131.725 89.2753 125.963 88.9643 118.92C88.5757 110.117 129.757 59.9355 128.98 34.7263C128.202 9.51719 105.253 2.36978 85.855 9.99997C57.8906 20.9999 54.7792 53.237 53.3893 54.8685C51.9995 56.5 30.4987 31 13.4987 47.5C-2.1101 62.6498 1.99844 91 25.9983 105Z" fill="#DBDBDB"/>
<path d="M87.3566 195.503C87.4926 195.503 87.624 195.452 87.7267 195.36C87.8294 195.268 87.8965 195.141 87.9157 195.002C87.9397 194.828 90.2927 177.316 88.1794 154.041C86.2278 132.547 79.9604 101.587 61.1856 76.1609C61.1406 76.0998 61.0844 76.0485 61.0202 76.0099C60.956 75.9712 60.8851 75.946 60.8114 75.9357C60.7378 75.9254 60.6629 75.9302 60.591 75.9498C60.5192 75.9693 60.4518 76.0033 60.3927 76.0498C60.3335 76.0963 60.2839 76.1543 60.2465 76.2206C60.2092 76.2869 60.1849 76.3602 60.175 76.4362C60.1651 76.5122 60.1698 76.5895 60.1888 76.6636C60.2079 76.7377 60.2409 76.8073 60.2861 76.8682C78.8987 102.075 85.1156 132.808 87.0534 154.15C89.1544 177.289 86.8199 194.665 86.796 194.838C86.7847 194.92 86.7907 195.005 86.8137 195.085C86.8367 195.165 86.876 195.239 86.9292 195.302C86.9823 195.366 87.048 195.416 87.1217 195.451C87.1954 195.486 87.2755 195.503 87.3566 195.503Z" fill="#3F3D56"/>
<path d="M63.5802 89C63.6688 89.0001 63.7552 88.9599 63.8269 88.8851C63.8986 88.8104 63.952 88.7049 63.9794 88.5839C64.0068 88.4628 64.0069 88.3324 63.9795 88.2113C63.9522 88.0902 63.8988 87.9847 63.8272 87.9099C63.7766 87.8571 58.6816 82.5825 51.0646 78.5754C44.0233 74.8716 33.3159 71.5139 22.2929 76.5544C22.2403 76.5783 22.1915 76.6169 22.1493 76.6679C22.1072 76.7189 22.0724 76.7813 22.047 76.8517C22.0217 76.922 22.0062 76.9988 22.0015 77.0778C21.9968 77.1567 22.003 77.2362 22.0197 77.3117C22.0365 77.3871 22.0634 77.4572 22.099 77.5177C22.1345 77.5782 22.178 77.6281 22.227 77.6644C22.276 77.7007 22.3295 77.7228 22.3845 77.7294C22.4394 77.736 22.4947 77.727 22.5472 77.7028C33.3445 72.7659 43.8577 76.0681 50.7762 79.7074C58.2844 83.6572 63.2843 88.8331 63.334 88.8849C63.4055 88.9597 63.4917 89.0001 63.5802 89Z" fill="#3F3D56"/>
<path d="M97.9149 45.5128C97.9236 45.3899 97.8943 45.2673 97.8313 45.1625C97.7683 45.0578 97.6748 44.9764 97.5642 44.9299C97.4536 44.8834 97.3315 44.8743 97.2156 44.9038C97.0996 44.9333 96.9957 44.9999 96.9187 45.0942C96.8644 45.1606 91.4337 51.8621 86.9443 62.1512C82.7947 71.6627 78.613 86.285 82.2599 101.931C82.295 102.081 82.3865 102.211 82.5144 102.292C82.6423 102.373 82.796 102.398 82.9418 102.362C83.0876 102.325 83.2135 102.231 83.2918 102.099C83.3701 101.967 83.3944 101.808 83.3593 101.658C79.7874 86.3326 83.8983 71.9758 87.9756 62.6303C92.4008 52.4881 97.7299 45.9117 97.7832 45.8464C97.8602 45.7524 97.9063 45.6356 97.9149 45.5128Z" fill="#3F3D56"/>
<path d="M97.1494 75.5998C97.6265 79.5717 100.294 82.8467 104.172 82.8467C106.035 82.8467 107.821 82.0832 109.138 80.7241C110.455 79.3651 111.195 77.5218 111.195 75.5998C111.195 71.5974 108.034 68.7229 104.172 68.3529C100.074 67.9602 96.5369 70.5003 97.1494 75.5998Z" fill="#2F2E41"/>
<path d="M107.424 192.312L110.099 192.311L111.371 181.667L107.424 181.667L107.424 192.312Z" fill="#FFB6B6"/>
<path d="M107.33 195.19L115.554 195.19V195.083C115.554 194.207 115.217 193.367 114.616 192.747C114.016 192.128 113.202 191.78 112.353 191.78H112.353L110.851 190.604L108.048 191.78L107.33 191.78L107.33 195.19Z" fill="#2F2E41"/>
<path d="M96.8912 192.312L99.5655 192.311L100.838 181.667L96.8906 181.667L96.8912 192.312Z" fill="#FFB6B6"/>
<path d="M96.797 195.19L105.021 195.19V195.083C105.021 194.207 104.683 193.367 104.083 192.747C103.483 192.128 102.669 191.78 101.82 191.78H101.82L100.318 190.604L97.5148 191.78L96.7969 191.78L96.797 195.19Z" fill="#2F2E41"/>
<path d="M116.628 125.642L118.519 132.332L116.291 160.663C116.291 160.663 117.438 162.434 116.628 162.434C115.818 162.434 114.779 162.827 115.433 163.885C116.088 164.943 113.851 168.741 113.851 168.741L110.686 188.914L106.653 188.852C106.653 188.852 104.603 187.674 105.754 186.482C106.904 185.29 107.715 185.29 106.634 184.175C105.554 183.06 105.554 183.396 105.554 182.531C105.554 181.667 104.471 171.099 107.038 167.045L106.265 150.518L104.443 166.729L100.692 188.356L96.8076 188.323C96.8076 188.323 95.0133 186.538 95.0167 185.217C95.02 183.896 96.1252 183.787 95.3025 183.005C94.4798 182.224 94.4798 170.221 96.9107 163.549C96.9107 163.549 98.2858 159.822 96.9076 158.544C95.5293 157.267 96.9059 155.805 96.9059 155.805C96.9059 155.805 99.0888 154.991 96.9039 152.645C94.719 150.299 96.8921 133.706 96.8921 133.706C96.8921 133.706 94.5037 127.008 96.9226 124.374C99.3416 121.74 116.628 125.642 116.628 125.642Z" fill="#2F2E41"/>
<path d="M82.9532 137.168L86.3266 128.755L88.9844 130.279L87.3793 138.836C87.54 139.379 87.551 139.956 87.4111 140.505C87.2711 141.053 86.9857 141.55 86.587 141.94C86.1882 142.33 85.692 142.598 85.1539 142.713C84.6159 142.828 84.0575 142.785 83.5414 142.591C83.0254 142.396 82.5721 142.057 82.2327 141.611C81.8932 141.165 81.681 140.631 81.6199 140.067C81.5588 139.504 81.6512 138.934 81.8867 138.422C82.1222 137.909 82.4916 137.475 82.9532 137.168Z" fill="#FFB6B6"/>
<path d="M139.559 70.6435L134.426 78.0486L132.172 75.9431L135.614 67.9832C135.577 67.4175 135.693 66.8523 135.95 66.351C136.206 65.8497 136.593 65.4322 137.067 65.1455C137.541 64.8588 138.084 64.7143 138.633 64.7281C139.182 64.7419 139.717 64.9136 140.177 65.2237C140.637 65.5339 141.003 65.9703 141.236 66.4839C141.469 66.9975 141.558 67.568 141.494 68.131C141.43 68.6941 141.215 69.2276 140.873 69.6714C140.531 70.1153 140.076 70.4519 139.559 70.6435Z" fill="#FFB6B6"/>
<path d="M117.137 126.328C120.466 131.657 103.731 138.42 97.3099 135.705C96.1855 135.229 92.3179 133.659 94.9616 131.482C97.6052 129.305 94.655 128.999 94.5853 127.581C94.5387 126.634 95.2495 124.556 94.5078 124.645C93.7662 124.734 92.8981 123.424 94.5134 122.86C96.1287 122.296 94.5307 121.782 94.5449 121.247C94.6993 115.406 99.042 106.115 99.042 106.115L91.2169 126.757C91.2169 126.757 91.2747 130.328 90.2768 129.237C89.2789 128.146 89.3515 131.678 89.3515 131.678C89.3515 131.678 87.8677 132.746 88.7209 133.341C89.5742 133.936 87.8023 135.764 87.8023 135.764L83.668 135.459C83.668 135.459 83.7327 132.29 84.4386 131.589C85.1445 130.888 84.7978 129.785 84.7978 129.785C84.7978 129.785 86.6357 128.106 85.4035 126.743C83.8188 124.99 89.5967 95.378 91.5906 95.6713C91.8725 94.2555 92.5283 92.9477 93.4855 91.8925C94.4426 90.8373 95.6639 90.0758 97.0143 89.6921L101.48 88.4234L102.273 85.1769H108.56L109.655 87.3101L114.436 89.5362C115.336 88.2252 116.009 86.8437 119.696 86.3959C119.696 86.3959 129.631 77.0677 129.146 76.3394C128.661 75.611 130.201 73.9058 130.201 73.9058C130.201 73.9058 131.516 73.4615 130.774 73.2244C130.032 72.9872 131.435 72.4388 131.435 72.4388C131.435 72.4388 132.734 72.0865 132.121 71.6226C131.508 71.1588 134.166 70.854 134.166 70.854L137.615 73.7575L136.918 74.977C136.918 74.977 137.343 76.6377 136.788 76.0314C136.233 75.4251 136.129 77.1845 136.129 77.1845C136.129 77.1845 135.846 79.1111 134.166 79.6915C132.487 80.272 131.213 85.7864 131.213 85.7864C127.252 91.1009 122.578 95.2468 117.038 97.976C119.197 100.533 117.137 126.328 117.137 126.328Z" fill="#918AE3"/>
<path d="M104.948 83.277C108.387 83.277 111.175 80.3999 111.175 76.8508C111.175 73.3016 108.387 70.4245 104.948 70.4245C101.509 70.4245 98.7207 73.3016 98.7207 76.8508C98.7207 80.3999 101.509 83.277 104.948 83.277Z" fill="#FFB6B6"/>
<path d="M98.4993 77.5508C98.6965 78.9473 99.8498 80.8956 99.5797 80.8956C99.3096 80.8956 97.3892 75.1389 99.3096 74.7636C100.703 74.4913 101.014 74.7301 102.316 74.1476L102.132 74.326C102.994 74.9726 104.193 74.574 105.176 74.1532C106.162 73.7351 107.359 73.3365 108.223 73.9803C108.766 74.3845 108.995 75.0869 109.333 75.6834C109.671 76.2826 110.295 76.8485 110.937 76.6645C111.453 76.5168 111.75 75.9203 111.748 75.3684C111.745 74.8165 111.049 74.2915 111.283 73.7964C111.978 72.329 111.353 71.3289 109.838 70.6384C109.287 70.552 108.736 70.4637 108.185 70.3736C108.474 69.9609 108.824 69.5978 109.222 69.2977C109.054 68.8524 108.763 68.4677 108.385 68.1912C107.945 67.9208 107.399 67.9403 106.889 67.9682C105.749 68.0295 104.61 68.0908 103.472 68.1521C102.629 68.1967 101.757 68.2497 101.003 68.6483C100.063 69.1472 99.4473 70.12 98.999 71.1095C97.9942 73.3337 98.1535 75.1231 98.4993 77.5508Z" fill="#2F2E41"/>
<path d="M72.595 195.914L133.841 196C133.926 196 134.008 195.965 134.068 195.903C134.128 195.841 134.162 195.756 134.162 195.668C134.162 195.58 134.128 195.496 134.068 195.433C134.008 195.371 133.926 195.336 133.841 195.336L72.595 195.251C72.5097 195.251 72.4279 195.286 72.3676 195.348C72.3073 195.41 72.2734 195.494 72.2734 195.582C72.2734 195.671 72.3073 195.755 72.3676 195.817C72.4279 195.879 72.5097 195.914 72.595 195.914Z" fill="#CACACA"/>
<path d="M50.4433 166.985C50.5562 166.184 49.7434 165.399 48.6279 165.232C47.5124 165.064 46.5166 165.578 46.4037 166.378C46.2907 167.179 47.1035 167.964 48.219 168.132C49.3345 168.299 50.3304 167.786 50.4433 166.985Z" fill="#E6E6E6"/>
<path d="M63.7245 165.648C63.8374 164.847 63.0246 164.062 61.9091 163.894C60.7936 163.727 59.7978 164.24 59.6849 165.041C59.572 165.842 60.3848 166.627 61.5003 166.794C62.6158 166.962 63.6116 166.448 63.7245 165.648Z" fill="#3F3D56"/>
<path d="M46.8065 155.889C46.9194 155.088 46.1067 154.304 44.9912 154.136C43.8757 153.969 42.8798 154.482 42.7669 155.283C42.654 156.084 43.4668 156.868 44.5823 157.036C45.6978 157.203 46.6936 156.69 46.8065 155.889Z" fill="#FF6584"/>
<path d="M41.0349 151.344C41.0403 150.609 40.6429 150.01 40.1473 150.006C39.6517 150.002 39.2456 150.595 39.2402 151.33C39.2348 152.066 39.6322 152.665 40.1278 152.668C40.6234 152.672 41.0295 152.08 41.0349 151.344Z" fill="#E6E6E6"/>
<path d="M39.0779 142.879C39.0832 142.144 38.6859 141.545 38.1903 141.541C37.6947 141.537 37.2886 142.13 37.2832 142.865C37.2778 143.6 37.6752 144.199 38.1708 144.203C38.6664 144.207 39.0725 143.614 39.0779 142.879Z" fill="#3F3D56"/>
<path d="M54.2966 157.777C54.302 157.042 53.9046 156.443 53.409 156.439C52.9135 156.435 52.5073 157.028 52.5019 157.763C52.4966 158.499 52.8939 159.098 53.3895 159.102C53.8851 159.105 54.2912 158.513 54.2966 157.777Z" fill="#E6E6E6"/>
<path d="M47.8786 161.084C47.884 160.349 47.4866 159.75 46.9911 159.746C46.4955 159.742 46.0894 160.335 46.084 161.07C46.0786 161.805 46.476 162.405 46.9715 162.408C47.4671 162.412 47.8733 161.819 47.8786 161.084Z" fill="#FF6584"/>
<path d="M56.8142 167.196C56.8196 166.461 56.4222 165.862 55.9266 165.858C55.431 165.854 55.0249 166.447 55.0195 167.182C55.0141 167.917 55.4115 168.516 55.9071 168.52C56.4027 168.524 56.8088 167.931 56.8142 167.196Z" fill="#3F3D56"/>
<path d="M152.543 124.061C152.656 123.26 151.843 122.475 150.728 122.308C149.612 122.14 148.616 122.654 148.503 123.454C148.39 124.255 149.203 125.04 150.319 125.208C151.434 125.375 152.43 124.862 152.543 124.061Z" fill="#E6E6E6"/>
<path d="M165.824 122.724C165.937 121.923 165.124 121.138 164.009 120.97C162.893 120.803 161.897 121.316 161.785 122.117C161.672 122.918 162.484 123.703 163.6 123.87C164.715 124.038 165.711 123.524 165.824 122.724Z" fill="#3F3D56"/>
<path d="M148.904 112.965C149.017 112.164 148.204 111.38 147.089 111.212C145.973 111.045 144.977 111.558 144.865 112.359C144.752 113.16 145.564 113.944 146.68 114.112C147.795 114.279 148.791 113.766 148.904 112.965Z" fill="#FF6584"/>
<path d="M143.135 108.42C143.14 107.685 142.743 107.086 142.247 107.082C141.751 107.078 141.345 107.671 141.34 108.406C141.334 109.141 141.732 109.741 142.227 109.744C142.723 109.748 143.129 109.155 143.135 108.42Z" fill="#E6E6E6"/>
<path d="M141.177 99.9549C141.183 99.2197 140.785 98.6206 140.29 98.6168C139.794 98.6129 139.388 99.2057 139.383 99.9409C139.377 100.676 139.775 101.275 140.27 101.279C140.766 101.283 141.172 100.69 141.177 99.9549Z" fill="#3F3D56"/>
<path d="M156.396 114.853C156.402 114.118 156.004 113.519 155.509 113.515C155.013 113.511 154.607 114.104 154.602 114.839C154.596 115.575 154.994 116.174 155.489 116.178C155.985 116.181 156.391 115.589 156.396 114.853Z" fill="#E6E6E6"/>
<path d="M149.978 118.16C149.984 117.425 149.586 116.826 149.091 116.822C148.595 116.818 148.189 117.411 148.184 118.146C148.178 118.881 148.576 119.48 149.071 119.484C149.567 119.488 149.973 118.895 149.978 118.16Z" fill="#FF6584"/>
<path d="M158.912 124.272C158.917 123.537 158.52 122.938 158.024 122.934C157.529 122.93 157.123 123.523 157.117 124.258C157.112 124.993 157.509 125.592 158.005 125.596C158.5 125.6 158.906 125.007 158.912 124.272Z" fill="#3F3D56"/>
<path d="M103.113 44.6235C103.226 43.8227 102.413 43.0378 101.298 42.8703C100.182 42.7028 99.1865 43.2162 99.0736 44.017C98.9607 44.8177 99.7734 45.6027 100.889 45.7702C102.004 45.9377 103 45.4243 103.113 44.6235Z" fill="white"/>
<path d="M116.394 43.2862C116.507 42.4854 115.695 41.7004 114.579 41.533C113.464 41.3655 112.468 41.8789 112.355 42.6796C112.242 43.4804 113.055 44.2654 114.17 44.4328C115.286 44.6003 116.282 44.0869 116.394 43.2862Z" fill="#3F3D56"/>
<path d="M99.4765 33.5279C99.5894 32.7271 98.7766 31.9421 97.6611 31.7747C96.5456 31.6072 95.5498 32.1205 95.4369 32.9213C95.324 33.7221 96.1367 34.5071 97.2522 34.6746C98.3677 34.842 99.3636 34.3286 99.4765 33.5279Z" fill="#FF6584"/>
<path d="M93.7048 28.9829C93.7102 28.2478 93.3128 27.6487 92.8172 27.6448C92.3216 27.641 91.9155 28.2338 91.9101 28.9689C91.9048 29.7041 92.3021 30.3032 92.7977 30.3071C93.2933 30.3109 93.6994 29.7181 93.7048 28.9829Z" fill="#E6E6E6"/>
<path d="M91.7478 20.5175C91.7532 19.7824 91.3558 19.1833 90.8602 19.1794C90.3646 19.1755 89.9585 19.7684 89.9531 20.5035C89.9477 21.2387 90.3451 21.8378 90.8407 21.8416C91.3363 21.8455 91.7424 21.2527 91.7478 20.5175Z" fill="#3F3D56"/>
<path d="M106.967 35.4161C106.972 34.6809 106.575 34.0818 106.079 34.0779C105.583 34.0741 105.177 34.6669 105.172 35.4021C105.166 36.1372 105.564 36.7363 106.059 36.7402C106.555 36.744 106.961 36.1512 106.967 35.4161Z" fill="#E6E6E6"/>
<path d="M100.549 38.7229C100.554 37.9877 100.157 37.3886 99.661 37.3848C99.1654 37.3809 98.7593 37.9737 98.7539 38.7089C98.7485 39.444 99.1459 40.0431 99.6415 40.047C100.137 40.0508 100.543 39.458 100.549 38.7229Z" fill="#FF6584"/>
<path d="M109.484 44.8347C109.489 44.0996 109.092 43.5005 108.597 43.4966C108.101 43.4928 107.695 44.0856 107.689 44.8207C107.684 45.5559 108.081 46.155 108.577 46.1588C109.073 46.1627 109.479 45.5699 109.484 44.8347Z" fill="#3F3D56"/>
</g>
<defs>
<clipPath id="clip0_8774_42652">
<rect width="165.668" height="195.266" fill="white" transform="translate(0.166016 0.734253)"/>
</clipPath>
</defs>
</svg>
