<svg width="58" height="58" viewBox="0 0 58 58" fill="none" xmlns="http://www.w3.org/2000/svg">
<path d="M28.8 57.6C44.7058 57.6 57.6 44.7058 57.6 28.8C57.6 12.8942 44.7058 0 28.8 0C12.8942 0 0 12.8942 0 28.8C0 44.7058 12.8942 57.6 28.8 57.6Z" fill="url(#paint0_radial_2998_168)"/>
<path opacity="0.5" d="M28.8 57.6C44.7058 57.6 57.6 44.7058 57.6 28.8C57.6 12.8942 44.7058 0 28.8 0C12.8942 0 0 12.8942 0 28.8C0 44.7058 12.8942 57.6 28.8 57.6Z" fill="url(#paint1_radial_2998_168)"/>
<path d="M10.1001 13.3553C10.0465 14.5073 11.2521 15.2842 13.3954 15.3914C15.2171 15.4717 19.2625 14.668 22.1961 11.2522C22.7319 10.6226 21.9684 10.2207 21.446 10.6226C19.6778 11.9755 15.0564 13.6098 11.5334 13.0606C10.1269 12.8462 10.1001 13.3553 10.1001 13.3553Z" fill="url(#paint2_linear_2998_168)"/>
<path d="M9.18915 20.5888C9.16236 20.2405 9.39008 19.9592 9.72496 19.8923C11.5199 19.5708 14.8152 19.6779 18.1372 20.1602C20.7627 20.5352 24.5 22.6785 24.6206 23.8573C24.7545 25.17 21.754 27.3803 20.468 28.2644C18.4453 29.6575 15.6725 31.2113 13.9579 31.3721C13.5024 31.4123 13.2613 31.1845 13.1676 30.9568C13.047 30.6353 13.2211 30.2603 13.6096 30.0057C17.7622 27.3267 20.3341 25.0093 20.1064 24.2993C20.1064 24.2993 19.9054 23.1473 16.3423 22.424C14.1722 21.9819 11.895 21.7542 10.5019 21.6471C9.65799 21.5533 9.22933 21.0844 9.18915 20.5888Z" fill="url(#paint3_radial_2998_168)"/>
<path d="M9.73866 19.9057C11.5336 19.5843 14.7887 19.3164 18.1509 20.1737C21.2319 20.964 24.5137 22.692 24.6343 23.8708C24.7147 24.6343 23.7368 25.6925 22.6518 26.6302C22.6116 26.6704 22.5714 26.6972 22.5312 26.7374L22.5178 26.7508C23.3349 25.3577 23.6162 23.9244 21.6471 22.7857C20.4014 22.0624 16.6775 19.8522 9.21625 20.5889C9.17606 20.2406 9.39038 19.9593 9.73866 19.9057Z" fill="url(#paint4_linear_2998_168)"/>
<path d="M13.1676 30.97C13.047 30.6485 13.2212 30.2734 13.6096 30.0189C17.7622 27.3398 20.3341 25.0225 20.1064 24.3125C20.4948 25.5047 20.6556 26.1075 17.2532 28.4249C14.7215 30.1395 13.5025 30.8896 13.9579 31.3852C13.5025 31.4388 13.248 31.2111 13.1676 30.97Z" fill="url(#paint5_linear_2998_168)"/>
<path d="M19.0347 50.9561C23.4552 49.6701 25.7056 48.8262 28.7999 48.8262C31.8943 48.8262 34.1447 49.6701 38.5651 50.9561C42.6641 52.1483 44.9815 49.6567 44.5127 46.04C42.9052 38.4314 36.02 32.5776 28.8133 32.5776C21.8076 32.5776 15.1233 37.9626 13.2613 45.2095C12.2835 49.2683 14.6277 52.242 19.0347 50.9561Z" fill="url(#paint6_radial_2998_168)"/>
<path d="M13.248 46.3615C15.11 40.4943 21.7942 38.4984 28.8 38.4984C36.0067 38.4984 42.8919 40.8694 44.4993 47.0312C44.5127 47.1116 44.5261 47.2054 44.5529 47.2991C44.5797 46.8973 44.5529 46.482 44.4993 46.04C42.8919 38.4314 36.0067 32.5776 28.8 32.5776C21.7942 32.5776 15.11 37.9626 13.248 45.2095C13.1006 45.839 13.0203 46.4552 13.0337 47.0178C13.1274 46.7767 13.1944 46.549 13.248 46.3615Z" fill="url(#paint7_linear_2998_168)"/>
<path d="M47.5 13.3553C47.5536 14.5073 46.348 15.2842 44.2047 15.3914C42.383 15.4717 38.3376 14.668 35.404 11.2522C34.8682 10.6226 35.6317 10.2207 36.1541 10.6226C37.9223 11.9755 42.5437 13.6098 46.0667 13.0606C47.4732 12.8462 47.5 13.3553 47.5 13.3553Z" fill="url(#paint8_linear_2998_168)"/>
<path d="M48.4109 20.5888C48.4377 20.2405 48.2099 19.9592 47.8751 19.8923C46.0801 19.5708 42.7848 19.6779 39.4628 20.1602C36.8373 20.5352 33.1 22.6785 32.9794 23.8573C32.8455 25.17 35.846 27.3803 37.132 28.2644C39.1547 29.6575 41.9275 31.2113 43.6421 31.3721C44.0976 31.4123 44.3387 31.1845 44.4325 30.9568C44.553 30.6353 44.3789 30.2603 43.9904 30.0057C39.8379 27.3267 37.266 25.0093 37.4937 24.2993C37.4937 24.2993 37.6946 23.1473 41.2578 22.424C43.4278 21.9819 45.705 21.7542 47.0981 21.6471C47.942 21.5533 48.3707 21.0844 48.4109 20.5888Z" fill="url(#paint9_radial_2998_168)"/>
<path d="M47.8617 19.9057C46.0667 19.5843 42.8116 19.3164 39.4494 20.1737C36.3685 20.964 33.0866 22.692 32.9661 23.8708C32.8857 24.6343 33.8635 25.6925 34.9486 26.6302C34.9888 26.6704 35.0289 26.6972 35.0691 26.7374L35.0825 26.7508C34.2654 25.3577 33.9841 23.9244 35.9532 22.7857C37.199 22.0624 40.9229 19.8522 48.3841 20.5889C48.4243 20.2406 48.21 19.9593 47.8617 19.9057Z" fill="url(#paint10_linear_2998_168)"/>
<path d="M44.4325 30.97C44.5531 30.6485 44.3789 30.2734 43.9905 30.0189C39.8379 27.3398 37.266 25.0225 37.4937 24.3125C37.1053 25.5047 36.9445 26.1075 40.3469 28.4249C42.8787 30.1395 44.0976 30.8896 43.6422 31.3852C44.0976 31.4388 44.3522 31.2111 44.4325 30.97Z" fill="url(#paint11_linear_2998_168)"/>
<path d="M28.8 37.0248C32.9258 37.0248 36.9578 38.1366 40.3468 39.9852C37.5338 36.3015 33.2339 33.8501 28.8 33.8501C24.326 33.8501 19.9993 36.2613 17.1863 39.9584C20.5887 38.1232 24.6475 37.0248 28.8 37.0248Z" fill="url(#paint12_radial_2998_168)"/>
<path d="M41.6329 49.8037C39.6771 46.2539 34.7343 43.7222 28.9341 43.7222C23.0937 43.7222 18.1374 46.2673 16.2085 49.8438C16.8917 50.0314 17.7356 50.0046 18.7 49.7367C19.41 49.5357 20.053 49.3348 20.6691 49.1607C23.8974 48.1962 26.0407 47.5532 28.8135 47.5532C31.5864 47.5532 33.7296 48.1962 36.9579 49.1607C37.5607 49.3482 38.2171 49.5357 38.927 49.7367C39.9718 50.0582 40.9095 50.0716 41.6329 49.8037Z" fill="url(#paint13_radial_2998_168)"/>
<defs>
<radialGradient id="paint0_radial_2998_168" cx="0" cy="0" r="1" gradientUnits="userSpaceOnUse" gradientTransform="translate(23.1335 17.1283) scale(34.7435)">
<stop stop-color="#FFDF30"/>
<stop offset="1" stop-color="#FFB82E"/>
</radialGradient>
<radialGradient id="paint1_radial_2998_168" cx="0" cy="0" r="1" gradientUnits="userSpaceOnUse" gradientTransform="translate(23.1335 17.1283) scale(27.3342)">
<stop stop-color="#FFE95F"/>
<stop offset="1" stop-color="#FFBB47" stop-opacity="0"/>
</radialGradient>
<linearGradient id="paint2_linear_2998_168" x1="14.6136" y1="16.5768" x2="16.7126" y2="10.8512" gradientUnits="userSpaceOnUse">
<stop offset="0.00132565" stop-color="#3C2200"/>
<stop offset="1" stop-color="#7A4400"/>
</linearGradient>
<radialGradient id="paint3_radial_2998_168" cx="0" cy="0" r="1" gradientUnits="userSpaceOnUse" gradientTransform="translate(17.2029 25.1063) rotate(-79.5901) scale(6.77403 4.38231)">
<stop offset="0.00132565" stop-color="#7A4400"/>
<stop offset="1" stop-color="#643800"/>
</radialGradient>
<linearGradient id="paint4_linear_2998_168" x1="24.4883" y1="22.4582" x2="9.53679" y2="23.9588" gradientUnits="userSpaceOnUse">
<stop offset="0.00132565" stop-color="#3C2200"/>
<stop offset="1" stop-color="#512D00"/>
</linearGradient>
<linearGradient id="paint5_linear_2998_168" x1="20.8439" y1="26.6275" x2="12.6189" y2="29.2739" gradientUnits="userSpaceOnUse">
<stop offset="0.00132565" stop-color="#3C2200"/>
<stop offset="1" stop-color="#512D00"/>
</linearGradient>
<radialGradient id="paint6_radial_2998_168" cx="0" cy="0" r="1" gradientUnits="userSpaceOnUse" gradientTransform="translate(27.4731 42.0991) scale(10.1875 8.19953)">
<stop offset="0.00132565" stop-color="#7A4400"/>
<stop offset="1" stop-color="#643800"/>
</radialGradient>
<linearGradient id="paint7_linear_2998_168" x1="13.0347" y1="39.9435" x2="44.5628" y2="39.9435" gradientUnits="userSpaceOnUse">
<stop offset="0.00132565" stop-color="#3C2200"/>
<stop offset="1" stop-color="#512D00"/>
</linearGradient>
<linearGradient id="paint8_linear_2998_168" x1="42.9858" y1="16.5781" x2="40.8868" y2="10.8525" gradientUnits="userSpaceOnUse">
<stop offset="0.00132565" stop-color="#3C2200"/>
<stop offset="1" stop-color="#7A4400"/>
</linearGradient>
<radialGradient id="paint9_radial_2998_168" cx="0" cy="0" r="1" gradientUnits="userSpaceOnUse" gradientTransform="translate(40.4004 25.1041) rotate(-100.41) scale(6.77403 4.38231)">
<stop offset="0.00132565" stop-color="#7A4400"/>
<stop offset="1" stop-color="#643800"/>
</radialGradient>
<linearGradient id="paint10_linear_2998_168" x1="33.1151" y1="22.4586" x2="48.0666" y2="23.9592" gradientUnits="userSpaceOnUse">
<stop offset="0.00132565" stop-color="#3C2200"/>
<stop offset="1" stop-color="#512D00"/>
</linearGradient>
<linearGradient id="paint11_linear_2998_168" x1="36.7556" y1="26.6289" x2="44.9806" y2="29.2752" gradientUnits="userSpaceOnUse">
<stop offset="0.00132565" stop-color="#3C2200"/>
<stop offset="1" stop-color="#512D00"/>
</linearGradient>
<radialGradient id="paint12_radial_2998_168" cx="0" cy="0" r="1" gradientUnits="userSpaceOnUse" gradientTransform="translate(28.7644 36.9109) scale(13.7004)">
<stop offset="0.00132565" stop-color="white"/>
<stop offset="1" stop-color="#A8BBBD"/>
</radialGradient>
<radialGradient id="paint13_radial_2998_168" cx="0" cy="0" r="1" gradientUnits="userSpaceOnUse" gradientTransform="translate(28.859 46.5829) scale(12.4092 2.76974)">
<stop offset="0.2479" stop-color="#FF0000"/>
<stop offset="1" stop-color="#C10000"/>
</radialGradient>
</defs>
</svg>
