<svg width="58" height="58" viewBox="0 0 58 58" fill="none" xmlns="http://www.w3.org/2000/svg">
<path d="M28.8 57.6C44.7058 57.6 57.6 44.7058 57.6 28.8C57.6 12.8942 44.7058 0 28.8 0C12.8942 0 0 12.8942 0 28.8C0 44.7058 12.8942 57.6 28.8 57.6Z" fill="url(#paint0_radial_2997_150)"/>
<path opacity="0.5" d="M28.8 57.6C44.7058 57.6 57.6 44.7058 57.6 28.8C57.6 12.8942 44.7058 0 28.8 0C12.8942 0 0 12.8942 0 28.8C0 44.7058 12.8942 57.6 28.8 57.6Z" fill="url(#paint1_radial_2997_150)"/>
<path d="M9.37805 21.0776C9.52205 22.2296 10.8541 22.7876 12.9781 22.4996C14.7961 22.2656 18.6301 20.7716 20.9161 16.8836C21.3301 16.1636 20.5201 15.9116 20.0701 16.3976C18.5761 18.0356 14.2921 20.4476 10.7281 20.5196C9.30605 20.5736 9.37805 21.0776 9.37805 21.0776Z" fill="url(#paint2_linear_2997_150)"/>
<path d="M17.2082 32.3632C17.2082 32.3632 12.4022 32.0932 10.9082 28.5292C10.8182 28.3132 10.7642 28.0612 10.7462 27.8272C10.7282 27.3412 11.1422 26.8192 12.0242 27.2512C17.4062 29.8972 20.3762 28.4212 22.5902 27.3592C23.4542 26.9452 24.2642 27.8092 24.0482 28.6012C23.9762 28.8352 23.9402 29.0692 23.8322 29.2852C22.0142 32.6513 17.2082 32.3632 17.2082 32.3632Z" fill="url(#paint3_radial_2997_150)"/>
<path d="M24.0662 28.4934C24.2102 27.7194 23.4182 26.9454 22.5902 27.3414C20.3762 28.3854 17.4062 29.8794 12.0242 27.2334C11.1422 26.8014 10.7282 27.3414 10.7462 27.8094C10.7462 27.8274 10.7462 27.8634 10.7462 27.8814C11.9342 28.2234 14.4362 29.6994 17.2622 29.6994C20.5742 29.7174 22.6802 28.1154 24.0662 28.4934Z" fill="url(#paint4_linear_2997_150)"/>
<path d="M48.2222 21.0957C48.0782 22.2477 46.7462 22.8057 44.6221 22.5177C42.8041 22.2837 38.9701 20.7897 36.6841 16.9017C36.2701 16.1817 37.0801 15.9297 37.5301 16.4157C39.0241 18.0537 43.3081 20.4657 46.8722 20.5377C48.2942 20.5917 48.2222 21.0957 48.2222 21.0957Z" fill="url(#paint5_linear_2997_150)"/>
<path d="M40.41 32.3632C40.41 32.3632 45.216 32.0932 46.71 28.5292C46.8 28.3132 46.854 28.0612 46.872 27.8272C46.89 27.3412 46.476 26.8192 45.594 27.2512C40.212 29.8972 37.242 28.4212 35.028 27.3592C34.164 26.9452 33.354 27.8092 33.57 28.6012C33.642 28.8352 33.678 29.0692 33.786 29.2852C35.604 32.6513 40.41 32.3632 40.41 32.3632Z" fill="url(#paint6_radial_2997_150)"/>
<path d="M33.5522 28.5115C33.4082 27.7375 34.2002 26.9635 35.0282 27.3595C37.2422 28.4035 40.2122 29.8975 45.5942 27.2515C46.4762 26.8195 46.8902 27.3595 46.8722 27.8275C46.8722 27.8455 46.8722 27.8815 46.8722 27.8995C45.6842 28.2415 43.1822 29.7175 40.3562 29.7175C37.0442 29.7355 34.9382 28.1335 33.5522 28.5115Z" fill="url(#paint7_linear_2997_150)"/>
<path d="M28.8002 48.1499C33.2438 48.1499 36.8462 47.2876 36.8462 46.2239C36.8462 45.1602 33.2438 44.2979 28.8002 44.2979C24.3565 44.2979 20.7542 45.1602 20.7542 46.2239C20.7542 47.2876 24.3565 48.1499 28.8002 48.1499Z" fill="url(#paint8_radial_2997_150)"/>
<path d="M28.8002 45.1259C33.7502 45.1259 35.9462 45.4859 36.8462 46.2779C36.8462 46.2599 36.8462 46.2419 36.8462 46.2239C36.8462 45.1619 35.6402 44.2979 28.8002 44.2979C21.9602 44.2979 20.7542 45.1619 20.7542 46.2239C20.7542 46.2419 20.7542 46.2599 20.7542 46.2779C21.6542 45.4859 23.8502 45.1259 28.8002 45.1259Z" fill="url(#paint9_linear_2997_150)"/>
<defs>
<radialGradient id="paint0_radial_2997_150" cx="0" cy="0" r="1" gradientUnits="userSpaceOnUse" gradientTransform="translate(23.1336 17.1343) scale(34.7435)">
<stop stop-color="#FFE030"/>
<stop offset="1" stop-color="#FFB92E"/>
</radialGradient>
<radialGradient id="paint1_radial_2997_150" cx="0" cy="0" r="1" gradientUnits="userSpaceOnUse" gradientTransform="translate(23.139 17.1343) scale(27.3342)">
<stop stop-color="#FFEA5F"/>
<stop offset="1" stop-color="#FFBC47" stop-opacity="0"/>
</radialGradient>
<linearGradient id="paint2_linear_2997_150" x1="15.6741" y1="23.7678" x2="15.3024" y2="19.8545" gradientUnits="userSpaceOnUse">
<stop offset="0.00132565" stop-color="#3C2200"/>
<stop offset="1" stop-color="#7A4400"/>
</linearGradient>
<radialGradient id="paint3_radial_2997_150" cx="0" cy="0" r="1" gradientUnits="userSpaceOnUse" gradientTransform="translate(17.3544 29.6439) rotate(-176.694) scale(5.17609 2.4973)">
<stop offset="0.00132565" stop-color="#7A4400"/>
<stop offset="1" stop-color="#643800"/>
</radialGradient>
<linearGradient id="paint4_linear_2997_150" x1="10.7494" y1="28.4031" x2="24.0838" y2="28.4031" gradientUnits="userSpaceOnUse">
<stop offset="0.00132565" stop-color="#3C2200"/>
<stop offset="1" stop-color="#512D00"/>
</linearGradient>
<linearGradient id="paint5_linear_2997_150" x1="41.9375" y1="23.7775" x2="42.3092" y2="19.8641" gradientUnits="userSpaceOnUse">
<stop offset="0.00132565" stop-color="#3C2200"/>
<stop offset="1" stop-color="#7A4400"/>
</linearGradient>
<radialGradient id="paint6_radial_2997_150" cx="0" cy="0" r="1" gradientUnits="userSpaceOnUse" gradientTransform="translate(40.2574 29.6536) rotate(-3.30615) scale(5.17611 2.4973)">
<stop offset="0.00132565" stop-color="#7A4400"/>
<stop offset="1" stop-color="#643800"/>
</radialGradient>
<linearGradient id="paint7_linear_2997_150" x1="46.8619" y1="28.4129" x2="33.5275" y2="28.4129" gradientUnits="userSpaceOnUse">
<stop offset="0.00132565" stop-color="#3C2200"/>
<stop offset="1" stop-color="#512D00"/>
</linearGradient>
<radialGradient id="paint8_radial_2997_150" cx="0" cy="0" r="1" gradientUnits="userSpaceOnUse" gradientTransform="translate(28.7964 46.2172) rotate(-3.30619) scale(5.84612 3.11427)">
<stop offset="0.00132565" stop-color="#7A4400"/>
<stop offset="1" stop-color="#643800"/>
</radialGradient>
<linearGradient id="paint9_linear_2997_150" x1="28.8002" y1="44.4081" x2="28.8002" y2="51.7303" gradientUnits="userSpaceOnUse">
<stop offset="0.00132565" stop-color="#3C2200"/>
<stop offset="1" stop-color="#512D00"/>
</linearGradient>
</defs>
</svg>
