<svg width="58" height="58" viewBox="0 0 58 58" fill="none" xmlns="http://www.w3.org/2000/svg">
<path d="M28.8 57.6C44.7058 57.6 57.6 44.7058 57.6 28.8C57.6 12.8942 44.7058 0 28.8 0C12.8942 0 0 12.8942 0 28.8C0 44.7058 12.8942 57.6 28.8 57.6Z" fill="url(#paint0_radial_2999_185)"/>
<path opacity="0.5" d="M28.8 57.6C44.7058 57.6 57.6 44.7058 57.6 28.8C57.6 12.8942 44.7058 0 28.8 0C12.8942 0 0 12.8942 0 28.8C0 44.7058 12.8942 57.6 28.8 57.6Z" fill="url(#paint1_radial_2999_185)"/>
<path d="M21.4059 13.047C21.2451 11.895 19.919 11.3592 17.7891 11.6539C15.9807 11.9084 12.1497 13.4489 9.91264 17.3469C9.49739 18.0703 10.3279 18.3114 10.7565 17.8291C12.2434 16.1681 16.4898 13.7168 20.0529 13.6096C21.4728 13.556 21.4059 13.047 21.4059 13.047Z" fill="url(#paint2_linear_2999_185)"/>
<path d="M28.6528 47.2183C22.6249 47.2183 20.9504 46.4547 21.0308 45.5037C21.1112 44.5526 22.9196 43.7891 28.9475 43.7891C34.9754 43.7891 36.6498 44.5526 36.5694 45.5037C36.4891 46.4413 34.6807 47.2183 28.6528 47.2183Z" fill="url(#paint3_radial_2999_185)"/>
<path d="M28.9611 44.5526C32.9529 44.5526 35.2971 44.8741 36.5562 45.3563C36.4624 44.4722 34.6541 43.7891 28.9343 43.7891C23.0403 43.7891 21.1918 44.5258 21.031 45.4367C22.3304 44.9009 24.7549 44.5526 28.9611 44.5526Z" fill="url(#paint4_linear_2999_185)"/>
<path d="M24.064 31.1788C26.3011 27.6655 25.2665 23.004 21.7533 20.7669C18.24 18.5298 13.5784 19.5644 11.3414 23.0776C9.10428 26.5909 10.1388 31.2525 13.6521 33.4895C17.1654 35.7266 21.8269 34.6921 24.064 31.1788Z" fill="white"/>
<path d="M17.7088 34.6667C21.8739 34.6667 25.2504 31.2902 25.2504 27.1251C25.2504 22.96 21.8739 19.5835 17.7088 19.5835C13.5437 19.5835 10.1672 22.96 10.1672 27.1251C10.1672 31.2902 13.5437 34.6667 17.7088 34.6667Z" fill="url(#paint5_radial_2999_185)"/>
<path d="M17.7088 34.6667C21.8739 34.6667 25.2504 31.2902 25.2504 27.1251C25.2504 22.96 21.8739 19.5835 17.7088 19.5835C13.5437 19.5835 10.1672 22.96 10.1672 27.1251C10.1672 31.2902 13.5437 34.6667 17.7088 34.6667Z" fill="url(#paint6_radial_2999_185)"/>
<path d="M17.7088 35.2828C22.2142 35.2828 25.8666 31.6305 25.8666 27.125C25.8666 22.6196 22.2142 18.9673 17.7088 18.9673C13.2034 18.9673 9.55103 22.6196 9.55103 27.125C9.55103 31.6305 13.2034 35.2828 17.7088 35.2828Z" fill="url(#paint7_radial_2999_185)"/>
<path d="M17.7088 35.2828C22.2142 35.2828 25.8666 31.6305 25.8666 27.125C25.8666 22.6196 22.2142 18.9673 17.7088 18.9673C13.2034 18.9673 9.55103 22.6196 9.55103 27.125C9.55103 31.6305 13.2034 35.2828 17.7088 35.2828Z" fill="url(#paint8_radial_2999_185)"/>
<path d="M22.5981 23.9636C24.1117 26.9776 22.9062 30.6479 19.919 32.1749C16.9318 33.702 13.2883 32.4964 11.788 29.4825C10.2877 26.4685 11.4799 22.7982 14.4671 21.2711C17.4543 19.7441 21.0978 20.963 22.5981 23.9636Z" fill="url(#paint9_linear_2999_185)"/>
<path d="M19.0884 30.5008C16.9585 31.5858 14.5608 31.559 12.5381 30.6347C14.3063 32.778 17.3604 33.4879 19.9189 32.1752C22.4908 30.8624 23.7232 27.9557 23.0668 25.2632C22.6114 27.4466 21.2183 29.4157 19.0884 30.5008Z" fill="url(#paint10_linear_2999_185)"/>
<path d="M36.1943 13.047C36.3551 11.895 37.6812 11.3592 39.8111 11.6539C41.6195 11.9084 45.4505 13.4489 47.6875 17.3469C48.1028 18.0703 47.2723 18.3114 46.8436 17.8291C45.3568 16.1681 41.1104 13.7168 37.5473 13.6096C36.1274 13.556 36.1943 13.047 36.1943 13.047Z" fill="url(#paint11_linear_2999_185)"/>
<path d="M43.9378 33.487C47.4511 31.2499 48.4856 26.5884 46.2486 23.0751C44.0115 19.5618 39.3499 18.5273 35.8367 20.7644C32.3234 23.0014 31.2888 27.663 33.5259 31.1763C35.763 34.6895 40.4246 35.7241 43.9378 33.487Z" fill="white"/>
<path d="M39.8912 34.6671C44.0563 34.6671 47.4328 31.2907 47.4328 27.1256C47.4328 22.9605 44.0563 19.584 39.8912 19.584C35.7261 19.584 32.3496 22.9605 32.3496 27.1256C32.3496 31.2907 35.7261 34.6671 39.8912 34.6671Z" fill="url(#paint12_radial_2999_185)"/>
<path d="M39.8912 34.6671C44.0563 34.6671 47.4328 31.2907 47.4328 27.1256C47.4328 22.9605 44.0563 19.584 39.8912 19.584C35.7261 19.584 32.3496 22.9605 32.3496 27.1256C32.3496 31.2907 35.7261 34.6671 39.8912 34.6671Z" fill="url(#paint13_radial_2999_185)"/>
<path d="M39.8914 35.2838C44.3968 35.2838 48.0492 31.6314 48.0492 27.126C48.0492 22.6206 44.3968 18.9683 39.8914 18.9683C35.386 18.9683 31.7336 22.6206 31.7336 27.126C31.7336 31.6314 35.386 35.2838 39.8914 35.2838Z" fill="url(#paint14_radial_2999_185)"/>
<path d="M39.8914 35.2838C44.3968 35.2838 48.0492 31.6314 48.0492 27.126C48.0492 22.6206 44.3968 18.9683 39.8914 18.9683C35.386 18.9683 31.7336 22.6206 31.7336 27.126C31.7336 31.6314 35.386 35.2838 39.8914 35.2838Z" fill="url(#paint15_radial_2999_185)"/>
<path d="M18.1506 24.0714C18.8204 25.3439 18.3114 26.9246 17.012 27.581C15.7127 28.2373 14.132 27.7551 13.4622 26.4825C12.7925 25.21 13.3015 23.6293 14.6009 22.973C15.9002 22.3032 17.4809 22.7988 18.1506 24.0714Z" fill="url(#paint16_radial_2999_185)"/>
<path opacity="0.5" d="M20.7625 28.3046C21.1644 28.6395 20.9367 29.3495 20.2535 29.9121C19.5703 30.4613 18.6862 30.6354 18.2844 30.3005C17.8825 29.9656 18.1103 29.2557 18.7934 28.6931C19.4766 28.1439 20.3607 27.9697 20.7625 28.3046Z" fill="url(#paint17_radial_2999_185)"/>
<path d="M44.7805 23.9641C46.2942 26.978 45.0886 30.6483 42.1014 32.1754C39.1142 33.7025 35.4707 32.4969 33.9704 29.4829C32.4567 26.469 33.6623 22.7987 36.6495 21.2716C39.6367 19.7579 43.2802 20.9635 44.7805 23.9641Z" fill="url(#paint18_linear_2999_185)"/>
<path d="M41.2713 30.5013C39.1414 31.5863 36.7436 31.5595 34.7209 30.6352C36.4891 32.7785 39.5433 33.4884 42.1018 32.1757C44.6737 30.8629 45.9061 27.9561 45.2497 25.2637C44.7942 27.4471 43.4011 29.4162 41.2713 30.5013Z" fill="url(#paint19_linear_2999_185)"/>
<path d="M40.3335 24.0713C41.0033 25.3439 40.4942 26.9245 39.1949 27.5809C37.8955 28.2507 36.3149 27.755 35.6451 26.4825C34.9753 25.2099 35.4844 23.6293 36.7837 22.9729C38.0831 22.3165 39.6637 22.7988 40.3335 24.0713Z" fill="url(#paint20_radial_2999_185)"/>
<path opacity="0.5" d="M42.9454 28.3046C43.3472 28.6395 43.1195 29.3495 42.4364 29.9121C41.7532 30.4613 40.8691 30.6354 40.4673 30.3005C40.0654 29.9656 40.2931 29.2557 40.9763 28.6931C41.6594 28.1439 42.5435 27.9697 42.9454 28.3046Z" fill="url(#paint21_radial_2999_185)"/>
<defs>
<radialGradient id="paint0_radial_2999_185" cx="0" cy="0" r="1" gradientUnits="userSpaceOnUse" gradientTransform="translate(23.1335 17.1283) scale(34.7435)">
<stop stop-color="#FFDF30"/>
<stop offset="1" stop-color="#FFB82E"/>
</radialGradient>
<radialGradient id="paint1_radial_2999_185" cx="0" cy="0" r="1" gradientUnits="userSpaceOnUse" gradientTransform="translate(23.1335 17.1283) scale(27.3342)">
<stop stop-color="#FFE95F"/>
<stop offset="1" stop-color="#FFBB47" stop-opacity="0"/>
</radialGradient>
<linearGradient id="paint2_linear_2999_185" x1="15.6482" y1="15.7976" x2="15.2309" y2="12.7917" gradientUnits="userSpaceOnUse">
<stop offset="0.00132565" stop-color="#3C2200"/>
<stop offset="1" stop-color="#7A4400"/>
</linearGradient>
<radialGradient id="paint3_radial_2999_185" cx="0" cy="0" r="1" gradientUnits="userSpaceOnUse" gradientTransform="translate(28.6439 44.9897) rotate(174.532) scale(7.33569 1.6719)">
<stop offset="0.00132565" stop-color="#7A4400"/>
<stop offset="1" stop-color="#643800"/>
</radialGradient>
<linearGradient id="paint4_linear_2999_185" x1="28.8033" y1="45.5397" x2="28.8033" y2="42.8969" gradientUnits="userSpaceOnUse">
<stop offset="0.00132565" stop-color="#3C2200"/>
<stop offset="1" stop-color="#512D00"/>
</linearGradient>
<radialGradient id="paint5_radial_2999_185" cx="0" cy="0" r="1" gradientUnits="userSpaceOnUse" gradientTransform="translate(17.7089 28.0487) rotate(90) scale(9.47265 9.58796)">
<stop stop-color="#CEDBDD" stop-opacity="0"/>
<stop offset="0.8869" stop-color="#CEDBDD" stop-opacity="0.8869"/>
<stop offset="1" stop-color="#CEDBDD"/>
</radialGradient>
<radialGradient id="paint6_radial_2999_185" cx="0" cy="0" r="1" gradientUnits="userSpaceOnUse" gradientTransform="translate(17.6223 27.6522) scale(8.13978)">
<stop stop-color="white" stop-opacity="0"/>
<stop offset="0.4363" stop-color="#FDFEFE" stop-opacity="0.3489"/>
<stop offset="0.5934" stop-color="#F6F8F8" stop-opacity="0.4745"/>
<stop offset="0.7054" stop-color="#EBEFF0" stop-opacity="0.5641"/>
<stop offset="0.7959" stop-color="#DAE2E3" stop-opacity="0.6365"/>
<stop offset="0.8726" stop-color="#C4D1D2" stop-opacity="0.6978"/>
<stop offset="0.9004" stop-color="#BAC9CB" stop-opacity="0.72"/>
<stop offset="1" stop-color="#98AEB2"/>
</radialGradient>
<radialGradient id="paint7_radial_2999_185" cx="0" cy="0" r="1" gradientUnits="userSpaceOnUse" gradientTransform="translate(17.7603 27.1312) scale(8.27382)">
<stop offset="0.8945" stop-color="#E78F43" stop-opacity="0"/>
<stop offset="0.9103" stop-color="#ED9540" stop-opacity="0.0748107"/>
<stop offset="0.9488" stop-color="#F79E3C" stop-opacity="0.2573"/>
<stop offset="1" stop-color="#FAA13B" stop-opacity="0.5"/>
</radialGradient>
<radialGradient id="paint8_radial_2999_185" cx="0" cy="0" r="1" gradientUnits="userSpaceOnUse" gradientTransform="translate(17.7603 27.1312) scale(8.27382)">
<stop offset="0.8827" stop-color="#FAA13B" stop-opacity="0"/>
<stop offset="0.9161" stop-color="#FAA13B" stop-opacity="0.5"/>
<stop offset="0.9866" stop-color="#E78F43" stop-opacity="0"/>
</radialGradient>
<linearGradient id="paint9_linear_2999_185" x1="8.41945" y1="16.0965" x2="20.2341" y2="30.4107" gradientUnits="userSpaceOnUse">
<stop offset="0.00132565" stop-color="#3C2200"/>
<stop offset="1" stop-color="#512D00"/>
</linearGradient>
<linearGradient id="paint10_linear_2999_185" x1="13.5986" y1="32.7468" x2="24.1676" y2="27.4514" gradientUnits="userSpaceOnUse">
<stop offset="0.00132565" stop-color="#3C2200"/>
<stop offset="1" stop-color="#512D00"/>
</linearGradient>
<linearGradient id="paint11_linear_2999_185" x1="41.9523" y1="15.8048" x2="42.3696" y2="12.7989" gradientUnits="userSpaceOnUse">
<stop offset="0.00132565" stop-color="#3C2200"/>
<stop offset="1" stop-color="#7A4400"/>
</linearGradient>
<radialGradient id="paint12_radial_2999_185" cx="0" cy="0" r="1" gradientUnits="userSpaceOnUse" gradientTransform="translate(39.8911 28.0477) rotate(90) scale(9.47265 9.58796)">
<stop stop-color="#CEDBDD" stop-opacity="0"/>
<stop offset="0.8869" stop-color="#CEDBDD" stop-opacity="0.8869"/>
<stop offset="1" stop-color="#CEDBDD"/>
</radialGradient>
<radialGradient id="paint13_radial_2999_185" cx="0" cy="0" r="1" gradientUnits="userSpaceOnUse" gradientTransform="translate(39.9789 27.6526) rotate(180) scale(8.13979)">
<stop stop-color="white" stop-opacity="0"/>
<stop offset="0.4363" stop-color="#FDFEFE" stop-opacity="0.3489"/>
<stop offset="0.5934" stop-color="#F6F8F8" stop-opacity="0.4745"/>
<stop offset="0.7054" stop-color="#EBEFF0" stop-opacity="0.5641"/>
<stop offset="0.7959" stop-color="#DAE2E3" stop-opacity="0.6365"/>
<stop offset="0.8726" stop-color="#C4D1D2" stop-opacity="0.6978"/>
<stop offset="0.9004" stop-color="#BAC9CB" stop-opacity="0.72"/>
<stop offset="1" stop-color="#98AEB2"/>
</radialGradient>
<radialGradient id="paint14_radial_2999_185" cx="0" cy="0" r="1" gradientUnits="userSpaceOnUse" gradientTransform="translate(39.8411 27.1322) rotate(180) scale(8.27381)">
<stop offset="0.8945" stop-color="#E78F43" stop-opacity="0"/>
<stop offset="0.9103" stop-color="#ED9540" stop-opacity="0.0748107"/>
<stop offset="0.9488" stop-color="#F79E3C" stop-opacity="0.2573"/>
<stop offset="1" stop-color="#FAA13B" stop-opacity="0.5"/>
</radialGradient>
<radialGradient id="paint15_radial_2999_185" cx="0" cy="0" r="1" gradientUnits="userSpaceOnUse" gradientTransform="translate(39.8411 27.1322) rotate(180) scale(8.27381)">
<stop offset="0.8827" stop-color="#FAA13B" stop-opacity="0"/>
<stop offset="0.9161" stop-color="#FAA13B" stop-opacity="0.5"/>
<stop offset="0.9866" stop-color="#E78F43" stop-opacity="0"/>
</radialGradient>
<radialGradient id="paint16_radial_2999_185" cx="0" cy="0" r="1" gradientUnits="userSpaceOnUse" gradientTransform="translate(15.8095 25.2743) rotate(-0.767056) scale(5.01288 4.91722)">
<stop offset="0.00132565" stop-color="white"/>
<stop offset="0.1915" stop-color="#F5F8F8"/>
<stop offset="0.5101" stop-color="#DCE3E4"/>
<stop offset="0.9157" stop-color="#B2C3C4"/>
<stop offset="1" stop-color="#A8BBBD"/>
</radialGradient>
<radialGradient id="paint17_radial_2999_185" cx="0" cy="0" r="1" gradientUnits="userSpaceOnUse" gradientTransform="translate(19.5248 29.2957) rotate(-23.1749) scale(2.50819 1.50687)">
<stop offset="0.00132565" stop-color="white"/>
<stop offset="1" stop-color="#A8BBBD"/>
</radialGradient>
<linearGradient id="paint18_linear_2999_185" x1="30.6018" y1="16.097" x2="42.4165" y2="30.4112" gradientUnits="userSpaceOnUse">
<stop offset="0.00132565" stop-color="#3C2200"/>
<stop offset="1" stop-color="#512D00"/>
</linearGradient>
<linearGradient id="paint19_linear_2999_185" x1="35.7823" y1="32.7471" x2="46.3513" y2="27.4517" gradientUnits="userSpaceOnUse">
<stop offset="0.00132565" stop-color="#3C2200"/>
<stop offset="1" stop-color="#512D00"/>
</linearGradient>
<radialGradient id="paint20_radial_2999_185" cx="0" cy="0" r="1" gradientUnits="userSpaceOnUse" gradientTransform="translate(37.9906 25.2742) rotate(-0.767056) scale(5.01287 4.91722)">
<stop offset="0.00132565" stop-color="white"/>
<stop offset="0.1915" stop-color="#F5F8F8"/>
<stop offset="0.5101" stop-color="#DCE3E4"/>
<stop offset="0.9157" stop-color="#B2C3C4"/>
<stop offset="1" stop-color="#A8BBBD"/>
</radialGradient>
<radialGradient id="paint21_radial_2999_185" cx="0" cy="0" r="1" gradientUnits="userSpaceOnUse" gradientTransform="translate(41.7047 29.2952) rotate(-23.1749) scale(2.5082 1.50687)">
<stop offset="0.00132565" stop-color="white"/>
<stop offset="1" stop-color="#A8BBBD"/>
</radialGradient>
</defs>
</svg>
