<svg width="58" height="58" viewBox="0 0 58 58" fill="none" xmlns="http://www.w3.org/2000/svg">
<path d="M28.8 57.6C44.7058 57.6 57.6 44.7058 57.6 28.8C57.6 12.8942 44.7058 0 28.8 0C12.8942 0 0 12.8942 0 28.8C0 44.7058 12.8942 57.6 28.8 57.6Z" fill="url(#paint0_radial_2996_102)"/>
<path opacity="0.5" d="M28.8 57.6C44.7058 57.6 57.6 44.7058 57.6 28.8C57.6 12.8942 44.7058 0 28.8 0C12.8942 0 0 12.8942 0 28.8C0 44.7058 12.8942 57.6 28.8 57.6Z" fill="url(#paint1_radial_2996_102)"/>
<path opacity="0.5" d="M28.8 57.6C44.7058 57.6 57.6 44.7058 57.6 28.8C57.6 12.8942 44.7058 0 28.8 0C12.8942 0 0 12.8942 0 28.8C0 44.7058 12.8942 57.6 28.8 57.6Z" fill="url(#paint2_radial_2996_102)"/>
<path opacity="0.5" d="M28.8 57.6C44.7058 57.6 57.6 44.7058 57.6 28.8C57.6 12.8942 44.7058 0 28.8 0C12.8942 0 0 12.8942 0 28.8C0 44.7058 12.8942 57.6 28.8 57.6Z" fill="url(#paint3_radial_2996_102)"/>
<path d="M28.8 47.952C20.502 47.952 17.856 39.06 20.376 40.446C23.76 42.318 25.92 42.498 28.8 42.498C31.68 42.498 33.822 42.318 37.224 40.446C39.744 39.06 37.098 47.952 28.8 47.952Z" fill="#643800"/>
<path d="M37.2241 40.4461C33.8401 42.3181 31.6801 42.4981 28.8001 42.4981C25.9201 42.4981 23.7781 42.3181 20.3761 40.4461C19.4941 39.9601 19.2421 40.7161 19.6381 41.9221C19.6381 41.9041 19.7641 40.6081 20.9521 41.5081C20.9521 41.5081 25.3261 44.1361 28.7821 44.1361C32.2381 44.1361 36.6121 41.5081 36.6121 41.5081C37.8001 40.6261 37.9261 41.9041 37.9261 41.9221C38.3581 40.7161 38.1061 39.9601 37.2241 40.4461Z" fill="url(#paint4_linear_2996_102)"/>
<path d="M22.518 18.288C22.68 17.136 21.528 16.254 19.404 15.984C17.586 15.732 13.5 16.2 10.278 19.35C9.68396 19.926 10.422 20.394 10.962 20.034C12.834 18.828 17.586 17.604 21.042 18.45C22.446 18.81 22.518 18.288 22.518 18.288Z" fill="url(#paint5_linear_2996_102)"/>
<path d="M35.082 18.2877C34.92 17.1357 36.072 16.2537 38.196 15.9837C40.014 15.7497 44.1 16.1997 47.322 19.3497C47.916 19.9257 47.178 20.3937 46.638 20.0337C44.766 18.8277 40.014 17.6037 36.558 18.4497C35.154 18.8097 35.082 18.2877 35.082 18.2877Z" fill="url(#paint6_linear_2996_102)"/>
<path d="M40.734 25.3079C40.734 25.3079 45.486 26.1359 46.548 29.8439C46.62 30.0779 46.638 30.3299 46.62 30.5639C46.584 31.0499 46.098 31.5179 45.288 30.9959C40.248 27.7379 37.134 28.8719 34.812 29.6639C33.912 29.9699 33.192 29.0159 33.516 28.2599C33.606 28.0439 33.678 27.8099 33.822 27.6119C35.982 24.4619 40.734 25.3079 40.734 25.3079Z" fill="url(#paint7_radial_2996_102)"/>
<path d="M40.5361 26.4422C40.5361 26.4422 44.4061 27.1082 46.6021 30.2762C46.5841 30.1322 46.5661 29.9882 46.5301 29.8442C45.4681 26.1362 40.7161 25.3082 40.7161 25.3082C40.7161 25.3082 35.9821 24.4622 33.7861 27.5942C33.6961 27.7202 33.6421 27.8462 33.5881 27.9722C36.6841 25.7402 40.5361 26.4422 40.5361 26.4422Z" fill="url(#paint8_linear_2996_102)"/>
<path d="M16.8659 25.3079C16.8659 25.3079 12.1139 26.1359 11.0519 29.8439C10.9799 30.0779 10.9619 30.3299 10.9799 30.5639C11.0159 31.0499 11.5019 31.5179 12.3119 30.9959C17.3519 27.7379 20.4659 28.8719 22.7879 29.6639C23.6879 29.9699 24.4079 29.0159 24.0839 28.2599C23.9939 28.0439 23.9219 27.8099 23.7779 27.6119C21.6179 24.4619 16.8659 25.3079 16.8659 25.3079Z" fill="url(#paint9_radial_2996_102)"/>
<path d="M17.0638 26.4422C17.0638 26.4422 13.1938 27.1082 10.9978 30.2762C11.0158 30.1322 11.0338 29.9882 11.0698 29.8442C12.1318 26.1362 16.8838 25.3082 16.8838 25.3082C16.8838 25.3082 21.6178 24.4622 23.8138 27.5942C23.9038 27.7202 23.9578 27.8462 24.0118 27.9722C20.9158 25.7402 17.0638 26.4422 17.0638 26.4422Z" fill="url(#paint10_linear_2996_102)"/>
<defs>
<radialGradient id="paint0_radial_2996_102" cx="0" cy="0" r="1" gradientUnits="userSpaceOnUse" gradientTransform="translate(23.1335 17.1283) scale(34.7435)">
<stop stop-color="#FFE030"/>
<stop offset="1" stop-color="#FFB92E"/>
</radialGradient>
<radialGradient id="paint1_radial_2996_102" cx="0" cy="0" r="1" gradientUnits="userSpaceOnUse" gradientTransform="translate(23.1335 17.1283) scale(27.3342)">
<stop stop-color="#FFEA5F"/>
<stop offset="1" stop-color="#FFBC47" stop-opacity="0"/>
</radialGradient>
<radialGradient id="paint2_radial_2996_102" cx="0" cy="0" r="1" gradientUnits="userSpaceOnUse" gradientTransform="translate(13.1095 35.9646) rotate(-2.7703) scale(12.114 9.58518)">
<stop stop-color="#FF4C00"/>
<stop offset="0.1542" stop-color="#FF4C00"/>
<stop offset="0.1795" stop-color="#FF4C00"/>
<stop offset="0.3996" stop-color="#FB4C0B" stop-opacity="0.7318"/>
<stop offset="0.7799" stop-color="#EF4B27" stop-opacity="0.2683"/>
<stop offset="1" stop-color="#E74A3A" stop-opacity="0"/>
</radialGradient>
<radialGradient id="paint3_radial_2996_102" cx="0" cy="0" r="1" gradientUnits="userSpaceOnUse" gradientTransform="translate(44.4823 35.9647) rotate(-177.23) scale(12.114 9.58518)">
<stop stop-color="#FF4C00"/>
<stop offset="0.1542" stop-color="#FF4C00"/>
<stop offset="0.1795" stop-color="#FF4C00"/>
<stop offset="0.3996" stop-color="#FB4C0B" stop-opacity="0.7318"/>
<stop offset="0.7799" stop-color="#EF4B27" stop-opacity="0.2683"/>
<stop offset="1" stop-color="#E74A3A" stop-opacity="0"/>
</radialGradient>
<linearGradient id="paint4_linear_2996_102" x1="28.7997" y1="37.1621" x2="28.7997" y2="43.9358" gradientUnits="userSpaceOnUse">
<stop offset="0.00132565" stop-color="#3C2200"/>
<stop offset="1" stop-color="#512D00"/>
</linearGradient>
<linearGradient id="paint5_linear_2996_102" x1="16.2395" y1="19.398" x2="16.6431" y2="16.3903" gradientUnits="userSpaceOnUse">
<stop offset="0.00132565" stop-color="#3C2200"/>
<stop offset="1" stop-color="#7A4400"/>
</linearGradient>
<linearGradient id="paint6_linear_2996_102" x1="41.3595" y1="19.3979" x2="40.9559" y2="16.3902" gradientUnits="userSpaceOnUse">
<stop offset="0.00132565" stop-color="#3C2200"/>
<stop offset="1" stop-color="#7A4400"/>
</linearGradient>
<radialGradient id="paint7_radial_2996_102" cx="0" cy="0" r="1" gradientUnits="userSpaceOnUse" gradientTransform="translate(40.2686 27.978) rotate(9.98082) scale(5.17587 2.49731)">
<stop offset="0.00132565" stop-color="#7A4400"/>
<stop offset="1" stop-color="#643800"/>
</radialGradient>
<linearGradient id="paint8_linear_2996_102" x1="41.0175" y1="23.813" x2="40.4568" y2="27.1096" gradientUnits="userSpaceOnUse">
<stop offset="0.00132565" stop-color="#3C2200"/>
<stop offset="1" stop-color="#512D00"/>
</linearGradient>
<radialGradient id="paint9_radial_2996_102" cx="0" cy="0" r="1" gradientUnits="userSpaceOnUse" gradientTransform="translate(17.4058 27.8958) rotate(170.019) scale(5.17587 2.49731)">
<stop offset="0.00132565" stop-color="#7A4400"/>
<stop offset="1" stop-color="#643800"/>
</radialGradient>
<linearGradient id="paint10_linear_2996_102" x1="16.5343" y1="23.7847" x2="17.095" y2="27.0814" gradientUnits="userSpaceOnUse">
<stop offset="0.00132565" stop-color="#3C2200"/>
<stop offset="1" stop-color="#512D00"/>
</linearGradient>
</defs>
</svg>
