<svg width="62" height="62" viewBox="0 0 62 62" fill="none" xmlns="http://www.w3.org/2000/svg">
<path d="M31.3753 60.6739C47.4761 60.6739 60.5284 47.6216 60.5284 31.5208C60.5284 15.42 47.4761 2.36768 31.3753 2.36768C15.2745 2.36768 2.22217 15.42 2.22217 31.5208C2.22217 47.6216 15.2745 60.6739 31.3753 60.6739Z" fill="url(#paint0_radial_528_1170)"/>
<path opacity="0.5" d="M31.3753 60.6739C47.4761 60.6739 60.5284 47.6216 60.5284 31.5208C60.5284 15.42 47.4761 2.36768 31.3753 2.36768C15.2745 2.36768 2.22217 15.42 2.22217 31.5208C2.22217 47.6216 15.2745 60.6739 31.3753 60.6739Z" fill="url(#paint1_radial_528_1170)"/>
<path opacity="0.5" d="M31.3753 60.6739C47.4761 60.6739 60.5284 47.6216 60.5284 31.5208C60.5284 15.42 47.4761 2.36768 31.3753 2.36768C15.2745 2.36768 2.22217 15.42 2.22217 31.5208C2.22217 47.6216 15.2745 60.6739 31.3753 60.6739Z" fill="url(#paint2_radial_528_1170)"/>
<path opacity="0.5" d="M31.3753 60.6739C47.4761 60.6739 60.5284 47.6216 60.5284 31.5208C60.5284 15.42 47.4761 2.36768 31.3753 2.36768C15.2745 2.36768 2.22217 15.42 2.22217 31.5208C2.22217 47.6216 15.2745 60.6739 31.3753 60.6739Z" fill="url(#paint3_radial_528_1170)"/>
<path d="M31.3753 50.9072C22.9755 50.9072 20.2971 41.9061 22.848 43.3091C26.2735 45.2041 28.46 45.3863 31.3753 45.3863C34.2906 45.3863 36.4588 45.2041 39.9026 43.3091C42.4534 41.9061 39.775 50.9072 31.3753 50.9072Z" fill="#643800"/>
<path d="M39.9026 43.3097C36.4771 45.2047 34.2906 45.3869 31.3753 45.3869C28.46 45.3869 26.2918 45.2047 22.848 43.3097C21.9552 42.8178 21.7001 43.583 22.101 44.8038C22.101 44.7856 22.2285 43.4737 23.4311 44.3847C23.4311 44.3847 27.8587 47.045 31.3571 47.045C34.8555 47.045 39.2831 44.3847 39.2831 44.3847C40.4857 43.4919 40.6132 44.7856 40.6132 44.8038C41.0505 43.6013 40.7954 42.8178 39.9026 43.3097Z" fill="url(#paint4_linear_528_1170)"/>
<path d="M25.0162 20.8981C25.1802 19.732 24.0141 18.8392 21.864 18.5659C20.0237 18.329 15.8876 18.7845 12.6261 21.9731C12.0248 22.5562 12.7719 23.0299 13.3185 22.6655C15.2135 21.4447 20.0237 20.2057 23.5221 21.0621C24.9433 21.4083 25.0162 20.8981 25.0162 20.8981Z" fill="url(#paint5_linear_528_1170)"/>
<path d="M37.7345 20.8981C37.5705 19.732 38.7366 18.8392 40.8867 18.5659C42.7269 18.329 46.863 18.7845 50.1245 21.9731C50.7258 22.5562 49.9788 23.0299 49.4322 22.6655C47.5372 21.4447 42.727 20.2057 39.2286 21.0621C37.8074 21.4083 37.7345 20.8981 37.7345 20.8981Z" fill="url(#paint6_linear_528_1170)"/>
<path d="M43.4557 27.9859C43.4557 27.9859 48.2659 28.8241 49.341 32.5775C49.4138 32.8144 49.4321 33.0695 49.4138 33.3064C49.3774 33.7983 48.8854 34.272 48.0655 33.7436C42.9637 30.4457 39.8115 31.5936 37.4611 32.3953C36.55 32.7051 35.8212 31.7394 36.1492 30.9741C36.2403 30.7555 36.3132 30.5186 36.4589 30.3182C38.6454 27.1295 43.4557 27.9859 43.4557 27.9859Z" fill="url(#paint7_radial_528_1170)"/>
<path d="M43.2555 29.1336C43.2555 29.1336 47.1729 29.8078 49.3958 33.0146C49.3776 32.8689 49.3594 32.7231 49.323 32.5773C48.2479 28.8239 43.4377 27.9857 43.4377 27.9857C43.4377 27.9857 38.6456 27.1294 36.4227 30.2998C36.3316 30.4273 36.277 30.5548 36.2223 30.6824C39.3562 28.4412 43.2555 29.1336 43.2555 29.1336Z" fill="url(#paint8_linear_528_1170)"/>
<path d="M19.2952 27.9859C19.2952 27.9859 14.4849 28.8241 13.4099 32.5775C13.337 32.8144 13.3188 33.0695 13.337 33.3063C13.3735 33.7983 13.8654 34.272 14.6853 33.7436C19.7871 30.4457 22.9393 31.5936 25.2898 32.3953C26.2008 32.7051 26.9296 31.7394 26.6017 30.9741C26.5106 30.7555 26.4377 30.5186 26.2919 30.3182C24.1054 27.1295 19.2952 27.9859 19.2952 27.9859Z" fill="url(#paint9_radial_528_1170)"/>
<path d="M19.4951 29.1336C19.4951 29.1336 15.5777 29.8078 13.3547 33.0146C13.373 32.8689 13.3912 32.7231 13.4276 32.5773C14.5026 28.8239 19.3129 27.9857 19.3129 27.9857C19.3129 27.9857 24.1049 27.1294 26.3279 30.2998C26.419 30.4273 26.4736 30.5548 26.5283 30.6824C23.3943 28.4412 19.4951 29.1336 19.4951 29.1336Z" fill="url(#paint10_linear_528_1170)"/>
<path opacity="0.5" d="M31.3753 60.6739C47.4761 60.6739 60.5284 47.6216 60.5284 31.5208C60.5284 15.42 47.4761 2.36768 31.3753 2.36768C15.2745 2.36768 2.22217 15.42 2.22217 31.5208C2.22217 47.6216 15.2745 60.6739 31.3753 60.6739Z" fill="url(#paint11_radial_528_1170)"/>
<path opacity="0.5" d="M31.3753 60.6739C47.4761 60.6739 60.5284 47.6216 60.5284 31.5208C60.5284 15.42 47.4761 2.36768 31.3753 2.36768C15.2745 2.36768 2.22217 15.42 2.22217 31.5208C2.22217 47.6216 15.2745 60.6739 31.3753 60.6739Z" fill="url(#paint12_radial_528_1170)"/>
<path opacity="0.5" d="M31.3753 60.6739C47.4761 60.6739 60.5284 47.6216 60.5284 31.5208C60.5284 15.42 47.4761 2.36768 31.3753 2.36768C15.2745 2.36768 2.22217 15.42 2.22217 31.5208C2.22217 47.6216 15.2745 60.6739 31.3753 60.6739Z" fill="url(#paint13_radial_528_1170)"/>
<path d="M50.9626 0.417969C49.1952 0.417969 47.6282 1.31078 46.6989 2.65911C45.7697 1.31078 44.2027 0.417969 42.4353 0.417969C39.5746 0.417969 37.2606 2.732 37.2606 5.59265C37.2606 11.897 46.6989 17.5636 46.6989 17.5636C46.6989 17.5636 56.1372 11.897 56.1372 5.59265C56.1372 2.732 53.8232 0.417969 50.9626 0.417969Z" fill="url(#paint14_radial_528_1170)"/>
<path opacity="0.5" d="M53.0942 0.873535C55.9184 5.39226 53.3128 11.314 50.1789 12.9903C46.7169 14.8488 44.3665 13.9742 39.4651 11.1864C42.2529 14.8852 46.6805 17.5455 46.6805 17.5455C46.6805 17.5455 56.1188 11.8788 56.1188 5.57447C56.137 3.49731 54.898 1.69347 53.0942 0.873535Z" fill="url(#paint15_radial_528_1170)"/>
<path opacity="0.5" d="M50.9626 0.417969C49.1952 0.417969 47.6282 1.31078 46.6989 2.65911C45.7697 1.31078 44.2027 0.417969 42.4353 0.417969C39.5746 0.417969 37.2606 2.732 37.2606 5.59265C37.2606 11.897 46.6989 17.5636 46.6989 17.5636C46.6989 17.5636 56.1372 11.897 56.1372 5.59265C56.1372 2.732 53.8232 0.417969 50.9626 0.417969Z" fill="url(#paint16_radial_528_1170)"/>
<path opacity="0.5" d="M50.9626 0.417969C49.1952 0.417969 47.6282 1.31078 46.6989 2.65911C45.7697 1.31078 44.2027 0.417969 42.4353 0.417969C39.5746 0.417969 37.2606 2.732 37.2606 5.59265C37.2606 11.897 46.6989 17.5636 46.6989 17.5636C46.6989 17.5636 56.1372 11.897 56.1372 5.59265C56.1372 2.732 53.8232 0.417969 50.9626 0.417969Z" fill="url(#paint17_radial_528_1170)"/>
<path opacity="0.24" d="M45.4053 2.5132C45.9154 3.73398 44.7675 5.39206 42.8361 6.21199C40.9047 7.03192 38.9005 6.72217 38.3903 5.50139C37.8801 4.2806 39.028 2.62252 40.9594 1.80259C42.8908 0.98266 44.8951 1.29241 45.4053 2.5132Z" fill="url(#paint18_radial_528_1170)"/>
<path opacity="0.24" d="M51.7278 1.53026C52.4566 2.3502 52.0193 3.95362 50.7075 5.11974C49.4138 6.28587 47.7739 6.5774 47.0269 5.75747C46.2981 4.93754 46.7354 3.33411 48.0472 2.16799C49.3409 1.00186 50.999 0.710332 51.7278 1.53026Z" fill="url(#paint19_radial_528_1170)"/>
<path opacity="0.32" d="M51.0535 1.78468C53.6409 2.67749 56.1189 6.50383 51.9463 11.2777C49.4319 14.1383 46.6988 15.5777 43.2186 15.0129C45.0954 16.5799 46.6988 17.5456 46.6988 17.5456C46.6988 17.5456 56.1371 11.8789 56.1371 5.57458C56.1371 2.71393 53.8231 0.399902 50.9624 0.399902C49.195 0.399902 47.628 1.29272 46.6988 2.64105C46.6988 2.65927 49.1586 1.14695 51.0535 1.78468Z" fill="url(#paint20_linear_528_1170)"/>
<path d="M14.102 37.2959C12.3346 37.2959 10.7676 38.1887 9.83834 39.537C8.90909 38.1705 7.34211 37.2959 5.5747 37.2959C2.71405 37.2959 0.400024 39.6099 0.400024 42.4524C0.400024 48.7567 9.83834 54.4233 9.83834 54.4233C9.83834 54.4233 19.2767 48.7567 19.2767 42.4524C19.2767 39.6099 16.9626 37.2959 14.102 37.2959Z" fill="url(#paint21_radial_528_1170)"/>
<path opacity="0.5" d="M16.2337 37.7524C19.0579 42.2712 16.4523 48.1929 13.3184 49.8692C9.85644 51.7277 7.50597 50.8531 2.60461 48.0654C5.39238 51.7642 9.82 54.4244 9.82 54.4244C9.82 54.4244 19.2583 48.7577 19.2583 42.4534C19.2765 40.358 18.0375 38.5542 16.2337 37.7524Z" fill="url(#paint22_radial_528_1170)"/>
<path opacity="0.5" d="M14.102 37.2959C12.3346 37.2959 10.7676 38.1887 9.83834 39.537C8.90909 38.1705 7.34211 37.2959 5.5747 37.2959C2.71405 37.2959 0.400024 39.6099 0.400024 42.4524C0.400024 48.7567 9.83834 54.4233 9.83834 54.4233C9.83834 54.4233 19.2767 48.7567 19.2767 42.4524C19.2767 39.6099 16.9626 37.2959 14.102 37.2959Z" fill="url(#paint23_radial_528_1170)"/>
<path opacity="0.5" d="M14.102 37.2959C12.3346 37.2959 10.7676 38.1887 9.83834 39.537C8.90909 38.1705 7.34211 37.2959 5.5747 37.2959C2.71405 37.2959 0.400024 39.6099 0.400024 42.4524C0.400024 48.7567 9.83834 54.4233 9.83834 54.4233C9.83834 54.4233 19.2767 48.7567 19.2767 42.4524C19.2767 39.6099 16.9626 37.2959 14.102 37.2959Z" fill="url(#paint24_radial_528_1170)"/>
<path opacity="0.24" d="M8.54478 39.3923C9.05496 40.6131 7.90706 42.2712 5.97567 43.0911C4.04428 43.911 2.04 43.6013 1.52982 42.3805C1.01964 41.1597 2.16754 39.5016 4.09894 38.6817C6.03033 37.8435 8.0346 38.1715 8.54478 39.3923Z" fill="url(#paint25_radial_528_1170)"/>
<path opacity="0.24" d="M14.8674 38.4092C15.5962 39.2291 15.1589 40.8325 13.847 41.9986C12.5534 43.1648 10.9135 43.4563 10.1664 42.6364C9.4194 41.8164 9.87492 40.213 11.1868 39.0469C12.4805 37.8808 14.1386 37.5892 14.8674 38.4092Z" fill="url(#paint26_radial_528_1170)"/>
<path opacity="0.32" d="M14.193 38.6636C16.7804 39.5564 19.2584 43.3827 15.0859 48.1565C12.5714 51.0172 9.83831 52.4566 6.35815 51.8918C8.23489 53.4588 9.83831 54.4245 9.83831 54.4245C9.83831 54.4245 19.2766 48.7578 19.2766 42.4535C19.2766 39.5928 16.9626 37.2788 14.1019 37.2788C12.3345 37.2788 10.7676 38.1716 9.83831 39.52C9.83831 39.5382 12.2981 38.0076 14.193 38.6636Z" fill="url(#paint27_linear_528_1170)"/>
<path d="M56.0826 44.7671C54.3152 44.7671 52.7482 45.6599 51.8189 47.0082C50.8897 45.6417 49.3227 44.7671 47.5553 44.7671C44.6946 44.7671 42.3806 47.0811 42.3806 49.9418C42.3806 56.2461 51.8189 61.9128 51.8189 61.9128C51.8189 61.9128 61.2572 56.2461 61.2572 49.9418C61.2572 47.0811 58.9432 44.7671 56.0826 44.7671Z" fill="url(#paint28_radial_528_1170)"/>
<path opacity="0.5" d="M58.2323 45.2227C61.0565 49.7414 58.451 55.6631 55.317 57.3394C51.8551 59.1979 49.5046 58.3233 44.6033 55.5356C47.391 59.2344 51.8187 61.8946 51.8187 61.8946C51.8187 61.8946 61.257 56.228 61.257 49.9236C61.257 47.8282 60.018 46.0244 58.2323 45.2227Z" fill="url(#paint29_radial_528_1170)"/>
<path opacity="0.5" d="M56.0826 44.7671C54.3152 44.7671 52.7482 45.6599 51.8189 47.0082C50.8897 45.6417 49.3227 44.7671 47.5553 44.7671C44.6946 44.7671 42.3806 47.0811 42.3806 49.9418C42.3806 56.2461 51.8189 61.9128 51.8189 61.9128C51.8189 61.9128 61.2572 56.2461 61.2572 49.9418C61.2572 47.0811 58.9432 44.7671 56.0826 44.7671Z" fill="url(#paint30_radial_528_1170)"/>
<path opacity="0.5" d="M56.0826 44.7671C54.3152 44.7671 52.7482 45.6599 51.8189 47.0082C50.8897 45.6417 49.3227 44.7671 47.5553 44.7671C44.6946 44.7671 42.3806 47.0811 42.3806 49.9418C42.3806 56.2461 51.8189 61.9128 51.8189 61.9128C51.8189 61.9128 61.2572 56.2461 61.2572 49.9418C61.2572 47.0811 58.9432 44.7671 56.0826 44.7671Z" fill="url(#paint31_radial_528_1170)"/>
<path opacity="0.24" d="M50.5254 46.8625C51.0356 48.0833 49.8877 49.7414 47.9563 50.5613C46.0249 51.3812 44.0206 51.0715 43.5104 49.8507C43.0002 48.6299 44.1481 46.9718 46.0795 46.1519C48.0109 45.3138 50.0152 45.6417 50.5254 46.8625Z" fill="url(#paint32_radial_528_1170)"/>
<path opacity="0.24" d="M56.8479 45.8794C57.5768 46.6993 57.1395 48.3027 55.8276 49.4689C54.5339 50.635 52.894 50.9265 52.147 50.1066C51.4182 49.2867 51.8555 47.6832 53.1674 46.5171C54.461 45.351 56.1191 45.0595 56.8479 45.8794Z" fill="url(#paint33_radial_528_1170)"/>
<path opacity="0.32" d="M56.1736 46.1338C58.761 47.0266 61.239 50.8529 57.0664 55.6268C54.552 58.4874 51.8189 59.9268 48.3387 59.362C50.2155 60.929 51.8189 61.8947 51.8189 61.8947C51.8189 61.8947 61.2572 56.228 61.2572 49.9237C61.2572 47.0631 58.9432 44.749 56.0825 44.749C54.3151 44.749 52.7482 45.6418 51.8189 46.9902C51.8189 47.0084 54.2787 45.4778 56.1736 46.1338Z" fill="url(#paint34_linear_528_1170)"/>
<defs>
<radialGradient id="paint0_radial_528_1170" cx="0" cy="0" r="1" gradientUnits="userSpaceOnUse" gradientTransform="translate(25.6393 19.7123) scale(35.1694)">
<stop stop-color="#FFE030"/>
<stop offset="1" stop-color="#FFB92E"/>
</radialGradient>
<radialGradient id="paint1_radial_528_1170" cx="0" cy="0" r="1" gradientUnits="userSpaceOnUse" gradientTransform="translate(25.6393 19.7123) scale(27.6694)">
<stop stop-color="#FFEA5F"/>
<stop offset="1" stop-color="#FFBC47" stop-opacity="0"/>
</radialGradient>
<radialGradient id="paint2_radial_528_1170" cx="0" cy="0" r="1" gradientUnits="userSpaceOnUse" gradientTransform="translate(15.4924 38.7796) rotate(-2.7703) scale(12.2625 9.7027)">
<stop stop-color="#FF4C00"/>
<stop offset="0.1542" stop-color="#FF4C00"/>
<stop offset="0.1795" stop-color="#FF4C00"/>
<stop offset="0.3996" stop-color="#FB4C0B" stop-opacity="0.7318"/>
<stop offset="0.7799" stop-color="#EF4B27" stop-opacity="0.2683"/>
<stop offset="1" stop-color="#E74A3A" stop-opacity="0"/>
</radialGradient>
<radialGradient id="paint3_radial_528_1170" cx="0" cy="0" r="1" gradientUnits="userSpaceOnUse" gradientTransform="translate(47.2484 38.7796) rotate(-177.23) scale(12.2625 9.7027)">
<stop stop-color="#FF4C00"/>
<stop offset="0.1542" stop-color="#FF4C00"/>
<stop offset="0.1795" stop-color="#FF4C00"/>
<stop offset="0.3996" stop-color="#FB4C0B" stop-opacity="0.7318"/>
<stop offset="0.7799" stop-color="#EF4B27" stop-opacity="0.2683"/>
<stop offset="1" stop-color="#E74A3A" stop-opacity="0"/>
</radialGradient>
<linearGradient id="paint4_linear_528_1170" x1="31.3749" y1="39.9917" x2="31.3749" y2="46.8485" gradientUnits="userSpaceOnUse">
<stop offset="0.00132565" stop-color="#3C2200"/>
<stop offset="1" stop-color="#512D00"/>
</linearGradient>
<linearGradient id="paint5_linear_528_1170" x1="18.66" y1="22.0096" x2="19.0686" y2="18.965" gradientUnits="userSpaceOnUse">
<stop offset="0.00132565" stop-color="#3C2200"/>
<stop offset="1" stop-color="#7A4400"/>
</linearGradient>
<linearGradient id="paint6_linear_528_1170" x1="44.0887" y1="22.01" x2="43.6802" y2="18.9654" gradientUnits="userSpaceOnUse">
<stop offset="0.00132565" stop-color="#3C2200"/>
<stop offset="1" stop-color="#7A4400"/>
</linearGradient>
<radialGradient id="paint7_radial_528_1170" cx="0" cy="0" r="1" gradientUnits="userSpaceOnUse" gradientTransform="translate(42.9818 30.6952) rotate(9.9808) scale(5.23933 2.52793)">
<stop offset="0.00132565" stop-color="#7A4400"/>
<stop offset="1" stop-color="#643800"/>
</radialGradient>
<linearGradient id="paint8_linear_528_1170" x1="43.7445" y1="26.4774" x2="43.1769" y2="29.8145" gradientUnits="userSpaceOnUse">
<stop offset="0.00132565" stop-color="#3C2200"/>
<stop offset="1" stop-color="#512D00"/>
</linearGradient>
<radialGradient id="paint9_radial_528_1170" cx="0" cy="0" r="1" gradientUnits="userSpaceOnUse" gradientTransform="translate(19.8416 30.6149) rotate(170.019) scale(5.23933 2.52792)">
<stop offset="0.00132565" stop-color="#7A4400"/>
<stop offset="1" stop-color="#643800"/>
</radialGradient>
<linearGradient id="paint10_linear_528_1170" x1="18.959" y1="26.4498" x2="19.5266" y2="29.7869" gradientUnits="userSpaceOnUse">
<stop offset="0.00132565" stop-color="#3C2200"/>
<stop offset="1" stop-color="#512D00"/>
</linearGradient>
<radialGradient id="paint11_radial_528_1170" cx="0" cy="0" r="1" gradientUnits="userSpaceOnUse" gradientTransform="translate(49.7992 10.9009) rotate(-177.23) scale(12.2625 9.7027)">
<stop stop-color="#FF4C00"/>
<stop offset="0.1542" stop-color="#FF4C00"/>
<stop offset="0.1795" stop-color="#FF4C00"/>
<stop offset="0.3996" stop-color="#FB4C0B" stop-opacity="0.7318"/>
<stop offset="0.7799" stop-color="#EF4B27" stop-opacity="0.2683"/>
<stop offset="1" stop-color="#E74A3A" stop-opacity="0"/>
</radialGradient>
<radialGradient id="paint12_radial_528_1170" cx="0" cy="0" r="1" gradientUnits="userSpaceOnUse" gradientTransform="translate(53.6254 56.5151) rotate(-177.23) scale(12.2625 9.7027)">
<stop stop-color="#FF4C00"/>
<stop offset="0.1542" stop-color="#FF4C00"/>
<stop offset="0.1795" stop-color="#FF4C00"/>
<stop offset="0.3996" stop-color="#FB4C0B" stop-opacity="0.7318"/>
<stop offset="0.7799" stop-color="#EF4B27" stop-opacity="0.2683"/>
<stop offset="1" stop-color="#E74A3A" stop-opacity="0"/>
</radialGradient>
<radialGradient id="paint13_radial_528_1170" cx="0" cy="0" r="1" gradientUnits="userSpaceOnUse" gradientTransform="translate(7.80207 49.8948) rotate(-177.23) scale(12.2625 9.7027)">
<stop stop-color="#FF4C00"/>
<stop offset="0.1542" stop-color="#FF4C00"/>
<stop offset="0.1795" stop-color="#FF4C00"/>
<stop offset="0.3996" stop-color="#FB4C0B" stop-opacity="0.7318"/>
<stop offset="0.7799" stop-color="#EF4B27" stop-opacity="0.2683"/>
<stop offset="1" stop-color="#E74A3A" stop-opacity="0"/>
</radialGradient>
<radialGradient id="paint14_radial_528_1170" cx="0" cy="0" r="1" gradientUnits="userSpaceOnUse" gradientTransform="translate(43.997 5.2026) rotate(-29.408) scale(14.768 11.7148)">
<stop offset="0.2479" stop-color="#FF0000"/>
<stop offset="0.8639" stop-color="#C20000"/>
</radialGradient>
<radialGradient id="paint15_radial_528_1170" cx="0" cy="0" r="1" gradientUnits="userSpaceOnUse" gradientTransform="translate(44.362 4.29673) rotate(-29.408) scale(12.7147 10.086)">
<stop offset="0.2479" stop-color="#FF0000"/>
<stop offset="1" stop-color="#C20000"/>
</radialGradient>
<radialGradient id="paint16_radial_528_1170" cx="0" cy="0" r="1" gradientUnits="userSpaceOnUse" gradientTransform="translate(43.997 5.2026) rotate(-29.408) scale(14.768 11.7148)">
<stop stop-color="white" stop-opacity="0.25"/>
<stop offset="1" stop-color="white" stop-opacity="0"/>
</radialGradient>
<radialGradient id="paint17_radial_528_1170" cx="0" cy="0" r="1" gradientUnits="userSpaceOnUse" gradientTransform="translate(49.3059 10.2136) rotate(-26.296) scale(10.7801 5.32688)">
<stop stop-color="#BD2719" stop-opacity="0.25"/>
<stop offset="1" stop-color="#BD2719" stop-opacity="0"/>
</radialGradient>
<radialGradient id="paint18_radial_528_1170" cx="0" cy="0" r="1" gradientUnits="userSpaceOnUse" gradientTransform="translate(41.8959 4.01133) rotate(-21.6908) scale(3.83231 2.38057)">
<stop stop-color="white"/>
<stop offset="1" stop-color="white" stop-opacity="0"/>
</radialGradient>
<radialGradient id="paint19_radial_528_1170" cx="0" cy="0" r="1" gradientUnits="userSpaceOnUse" gradientTransform="translate(49.373 3.66087) rotate(-40.7635) scale(3.17294 1.97111)">
<stop stop-color="white"/>
<stop offset="1" stop-color="white" stop-opacity="0"/>
</radialGradient>
<linearGradient id="paint20_linear_528_1170" x1="48.6452" y1="24.3" x2="50.4738" y2="-0.356366" gradientUnits="userSpaceOnUse">
<stop stop-color="#860805"/>
<stop offset="1" stop-color="#BD2719" stop-opacity="0"/>
</linearGradient>
<radialGradient id="paint21_radial_528_1170" cx="0" cy="0" r="1" gradientUnits="userSpaceOnUse" gradientTransform="translate(7.13807 42.0703) rotate(-29.408) scale(14.768 11.7148)">
<stop offset="0.2479" stop-color="#FF0000"/>
<stop offset="0.8639" stop-color="#C20000"/>
</radialGradient>
<radialGradient id="paint22_radial_528_1170" cx="0" cy="0" r="1" gradientUnits="userSpaceOnUse" gradientTransform="translate(7.50321 41.1655) rotate(-29.408) scale(12.7147 10.086)">
<stop offset="0.2479" stop-color="#FF0000"/>
<stop offset="1" stop-color="#C20000"/>
</radialGradient>
<radialGradient id="paint23_radial_528_1170" cx="0" cy="0" r="1" gradientUnits="userSpaceOnUse" gradientTransform="translate(7.13807 42.0703) rotate(-29.408) scale(14.768 11.7148)">
<stop stop-color="white" stop-opacity="0.25"/>
<stop offset="1" stop-color="white" stop-opacity="0"/>
</radialGradient>
<radialGradient id="paint24_radial_528_1170" cx="0" cy="0" r="1" gradientUnits="userSpaceOnUse" gradientTransform="translate(12.4476 47.0838) rotate(-26.296) scale(10.7801 5.32688)">
<stop stop-color="#BD2719" stop-opacity="0.25"/>
<stop offset="1" stop-color="#BD2719" stop-opacity="0"/>
</radialGradient>
<radialGradient id="paint25_radial_528_1170" cx="0" cy="0" r="1" gradientUnits="userSpaceOnUse" gradientTransform="translate(5.03452 40.8797) rotate(-21.6907) scale(3.83231 2.38057)">
<stop stop-color="white"/>
<stop offset="1" stop-color="white" stop-opacity="0"/>
</radialGradient>
<radialGradient id="paint26_radial_528_1170" cx="0" cy="0" r="1" gradientUnits="userSpaceOnUse" gradientTransform="translate(12.5132 40.5328) rotate(-40.7634) scale(3.17294 1.97111)">
<stop stop-color="white"/>
<stop offset="1" stop-color="white" stop-opacity="0"/>
</radialGradient>
<linearGradient id="paint27_linear_528_1170" x1="11.7855" y1="61.1702" x2="13.614" y2="36.5138" gradientUnits="userSpaceOnUse">
<stop stop-color="#860805"/>
<stop offset="1" stop-color="#BD2719" stop-opacity="0"/>
</linearGradient>
<radialGradient id="paint28_radial_528_1170" cx="0" cy="0" r="1" gradientUnits="userSpaceOnUse" gradientTransform="translate(49.1181 49.5436) rotate(-29.408) scale(14.768 11.7148)">
<stop offset="0.2479" stop-color="#FF0000"/>
<stop offset="0.8639" stop-color="#C20000"/>
</radialGradient>
<radialGradient id="paint29_radial_528_1170" cx="0" cy="0" r="1" gradientUnits="userSpaceOnUse" gradientTransform="translate(49.4831 48.6378) rotate(-29.408) scale(12.7147 10.086)">
<stop offset="0.2479" stop-color="#FF0000"/>
<stop offset="1" stop-color="#C20000"/>
</radialGradient>
<radialGradient id="paint30_radial_528_1170" cx="0" cy="0" r="1" gradientUnits="userSpaceOnUse" gradientTransform="translate(49.1181 49.5436) rotate(-29.408) scale(14.768 11.7148)">
<stop stop-color="white" stop-opacity="0.25"/>
<stop offset="1" stop-color="white" stop-opacity="0"/>
</radialGradient>
<radialGradient id="paint31_radial_528_1170" cx="0" cy="0" r="1" gradientUnits="userSpaceOnUse" gradientTransform="translate(54.4279 54.5544) rotate(-26.296) scale(10.7801 5.32688)">
<stop stop-color="#BD2719" stop-opacity="0.25"/>
<stop offset="1" stop-color="#BD2719" stop-opacity="0"/>
</radialGradient>
<radialGradient id="paint32_radial_528_1170" cx="0" cy="0" r="1" gradientUnits="userSpaceOnUse" gradientTransform="translate(47.0167 48.3512) rotate(-21.6907) scale(3.83232 2.38057)">
<stop stop-color="white"/>
<stop offset="1" stop-color="white" stop-opacity="0"/>
</radialGradient>
<radialGradient id="paint33_radial_528_1170" cx="0" cy="0" r="1" gradientUnits="userSpaceOnUse" gradientTransform="translate(54.4933 48.0035) rotate(-40.7635) scale(3.17294 1.97111)">
<stop stop-color="white"/>
<stop offset="1" stop-color="white" stop-opacity="0"/>
</radialGradient>
<linearGradient id="paint34_linear_528_1170" x1="53.7669" y1="68.6404" x2="55.5955" y2="43.984" gradientUnits="userSpaceOnUse">
<stop stop-color="#860805"/>
<stop offset="1" stop-color="#BD2719" stop-opacity="0"/>
</linearGradient>
</defs>
</svg>
