<svg width="30" height="30" viewBox="0 0 30 30" fill="none" xmlns="http://www.w3.org/2000/svg">
<path d="M28.909 16.6354C29.3433 16.0446 29.6781 15.079 29.6781 14.2732L29.678 14.2616C29.6547 13.2882 29.1845 12.413 28.3539 11.7974C27.537 11.1921 26.4361 10.872 25.1703 10.872L19.4912 10.8731C19.8906 9.49488 20.0653 7.92611 19.9859 6.38152C19.8925 4.56605 19.4547 2.9497 18.7531 1.83018C18.3387 1.16914 17.8421 0.677866 17.2769 0.369842C16.8269 0.124625 16.347 0.000244141 15.8506 0.000244141C14.676 0.000244141 13.8131 0.522968 13.3555 1.51195C12.9849 2.31278 12.9849 3.22469 12.9849 3.52433C12.9849 6.0801 12.6199 7.17733 12.2112 8.1549C12.0562 8.44147 11.4683 9.12886 10.6586 9.74166C9.41024 10.6864 8.43288 10.8848 7.83282 10.8848H3.61144C2.76684 10.8848 2.00782 11.1977 1.41649 11.7896C0.704629 12.5022 0.313225 13.5529 0.314456 14.7481L0.314486 14.7704L1.41226 26.5887C1.571 28.7565 2.72233 29.9509 4.65445 29.9519C4.7029 29.9523 5.55116 29.96 6.18421 29.96C6.44997 29.96 6.81227 29.9586 7.02916 29.9516C7.7039 29.9299 8.22398 29.5358 8.64188 29.2191L8.74806 29.1386C8.84973 29.0614 8.98123 28.9616 9.0641 28.9149C9.13132 28.9469 9.22212 28.9923 9.30079 29.0316C9.51519 29.1388 9.80882 29.2857 10.1288 29.4245C10.8939 29.7569 12.0023 29.9716 12.9525 29.9716H21.7848C23.3343 29.9716 24.5398 29.671 25.3678 29.078C26.2072 28.4768 26.6515 27.573 26.6525 26.4638C26.6525 26.0647 26.5957 25.7441 26.4572 25.4251C27.7256 24.9315 28.4642 23.9714 28.4642 22.7718C28.4642 22.4191 28.3687 21.8949 28.1689 21.4708C28.4251 21.297 28.6838 21.063 28.9114 20.7934C29.4107 20.2017 29.6853 19.5222 29.6847 18.8804C29.6847 17.9421 29.4185 17.1773 28.909 16.6354ZM26.3316 20.0017H25.6791L25.7046 21.9166L26.0093 22.0358L26.0284 22.0431C26.111 22.0746 26.3044 22.1483 26.3051 22.7295C26.305 22.8293 26.3047 23.1328 25.7816 23.3907C25.4181 23.57 24.9051 23.6728 24.3742 23.6728V24.1591L23.8913 24.1503L23.8652 25.5885L24.2495 25.677C24.3256 25.6945 24.4841 25.731 24.4835 26.3478C24.4835 26.7804 24.3181 27.0921 23.963 27.3288C23.509 27.6315 22.7458 27.7915 21.7562 27.7915H12.6126C12.2746 27.7915 11.4556 27.558 10.9897 27.3287C10.6265 27.1501 10.0888 26.8471 9.73827 26.6486V12.7187C12.0529 11.9228 13.8736 9.92272 14.3594 8.97222L14.3745 8.93975C14.8946 7.70525 15.1958 6.40047 15.1958 3.38406C15.1958 2.70794 15.3221 2.46182 15.3974 2.37523C15.4408 2.32533 15.5079 2.27211 15.7562 2.27211C16.0036 2.27211 16.6332 2.66778 16.9628 3.19354C17.4811 4.02029 17.8083 5.38443 17.8381 6.8426C17.8712 8.46535 17.5473 10.0664 16.926 11.3508L16.9033 11.3977L16.5026 13.0593L25.2117 13.0568C26.6967 13.1437 27.5004 13.7385 27.5064 14.2581L27.4966 14.5986C27.4848 14.8389 27.3811 15.3335 27.1719 15.5111C26.9612 15.6896 26.7987 15.7283 26.7583 15.7355L26.3023 15.7162L26.2896 17.2956L26.2872 17.7209L26.7082 17.781C26.8571 17.8023 27.1138 17.867 27.2078 17.9327C27.4152 18.0785 27.5309 18.4013 27.5171 18.7954C27.5115 18.9496 27.3494 19.2612 27.0505 19.5584C26.7257 19.8814 26.4372 20.0017 26.3316 20.0017ZM7.55879 13.0571V27.3163C7.44571 27.3988 7.33962 27.4772 7.25251 27.5428C7.08635 27.668 6.94713 27.7567 6.87841 27.7938C6.71627 27.7974 6.45688 27.7993 6.10521 27.7993C5.54134 27.7993 4.89516 27.7945 4.5602 27.7918L4.531 27.7915C4.1089 27.7915 3.69253 27.3037 3.57716 26.6776L2.48504 14.456C2.49504 13.7003 3.06739 13.1076 3.59561 13.0449L7.55879 13.0571Z" fill="#918AE3"/>
</svg>
