<svg width="33" height="32" viewBox="0 0 33 32" fill="none" xmlns="http://www.w3.org/2000/svg">
<circle cx="16.834" cy="16" r="15.5" fill="#918AE3" stroke="#918AE3"/>
<path d="M15.8703 9.6061C14.7851 8.67348 13.388 8.18447 11.9581 8.2367C10.5282 8.28893 9.17054 8.87855 8.15627 9.88785C7.09307 10.9572 6.49803 12.4049 6.50197 13.9128C6.50591 15.4207 7.1085 16.8654 8.17727 17.9291L16.4145 26.1681C16.5786 26.3321 16.8011 26.4243 17.0331 26.4243C17.2652 26.4243 17.4877 26.3321 17.6518 26.1681L25.847 17.9781C26.9097 16.9089 27.5044 15.4615 27.5004 13.954C27.4965 12.4465 26.8942 11.0023 25.826 9.9386C25.2989 9.40824 24.6724 8.98697 23.9823 8.69886C23.2923 8.41075 22.5523 8.26146 21.8045 8.25951C21.0567 8.25756 20.3159 8.40299 19.6244 8.6875C18.9328 8.972 18.3042 9.39 17.7743 9.9176L17.7253 9.9666L15.5308 13.3301L19.3143 16.5239C19.407 16.6019 19.4826 16.6983 19.5361 16.807C19.5897 16.9158 19.62 17.0345 19.6253 17.1555C19.6306 17.2766 19.6106 17.3975 19.5667 17.5105C19.5228 17.6235 19.4559 17.7261 19.3703 17.8119L16.7453 20.4369C16.5812 20.6012 16.3586 20.6935 16.1264 20.6937C15.8942 20.6939 15.6714 20.6018 15.5071 20.4377C15.3428 20.2737 15.2504 20.051 15.2503 19.8188C15.2501 19.5867 15.3422 19.3639 15.5063 19.1996L17.4593 17.2449L13.8123 14.1684C13.6491 14.0309 13.5417 13.8385 13.5105 13.6274C13.4792 13.4162 13.5262 13.201 13.6425 13.0221L15.8703 9.6061Z" fill="white"/>
</svg>
