<svg width="33" height="32" viewBox="0 0 33 32" fill="none" xmlns="http://www.w3.org/2000/svg">
<path d="M7.99025 9.65431C9.05956 8.59112 10.5073 7.99608 12.0152 8.00002C13.5231 8.00396 14.9678 8.60655 16.0315 9.67531L16.826 10.4681L17.6083 9.68406C18.1381 9.15673 18.7667 8.73895 19.4581 8.4546C20.1494 8.17025 20.89 8.02489 21.6376 8.02684C22.3852 8.02879 23.125 8.17801 23.8149 8.46596C24.5048 8.75392 25.1311 9.17497 25.6582 9.70506C26.7267 10.7685 27.3293 12.2126 27.3335 13.7201C27.3378 15.2276 26.7434 16.6751 25.681 17.7446L17.4857 25.9346C17.3217 26.0986 17.0991 26.1908 16.8671 26.1908C16.6351 26.1908 16.4126 26.0986 16.2485 25.9346L8.01125 17.6938C6.94249 16.6301 6.33989 15.1854 6.33596 13.6775C6.33202 12.1696 6.92706 10.7219 7.99025 9.65256V9.65431ZM16.868 24.0778L24.4402 16.5091C25.1758 15.7684 25.5872 14.7659 25.5839 13.7221C25.5806 12.6782 25.163 11.6783 24.4228 10.9423C24.0581 10.5744 23.6245 10.282 23.1468 10.0818C22.669 9.88159 22.1565 9.77754 21.6385 9.77559C21.1205 9.77364 20.6072 9.87383 20.1279 10.0704C19.6487 10.267 19.2129 10.5562 18.8455 10.9213L18.408 11.3623C18.3839 11.3944 18.3575 11.4248 18.3293 11.4533L16.322 13.4588L19.2043 16.3411C19.3683 16.5051 19.4604 16.7277 19.4604 16.9597C19.4604 17.1917 19.3683 17.4142 19.2043 17.5783L16.5793 20.2033C16.4152 20.3676 16.1926 20.46 15.9604 20.4602C15.7282 20.4603 15.5054 20.3683 15.3411 20.2042C15.1768 20.0401 15.0844 19.8175 15.0843 19.5853C15.0841 19.3531 15.1762 19.1304 15.3403 18.9661L17.3475 16.9588L14.4653 14.0783C14.3012 13.9142 14.2091 13.6917 14.2091 13.4597C14.2091 13.2277 14.3012 13.0052 14.4653 12.8411L15.594 11.7123L14.7943 10.9126C14.0587 10.1719 13.0591 9.75358 12.0152 9.74964C10.9714 9.7457 9.96864 10.1564 9.2275 10.8916C8.49238 11.6327 8.08164 12.6354 8.08558 13.6793C8.08952 14.7232 8.50781 15.7227 9.2485 16.4583L16.868 24.0778Z" fill="#918AE3" stroke="white" stroke-width="0.5"/>
<circle cx="16.834" cy="16" r="15.5" stroke="#918AE3"/>
</svg>
