<svg width="33" height="33" viewBox="0 0 33 33" fill="none" xmlns="http://www.w3.org/2000/svg">
<circle cx="16.9512" cy="16.5" r="16" fill="#918AE3"/>
<path fill-rule="evenodd" clip-rule="evenodd" d="M12.1324 8.50002C10.6245 8.49608 9.17675 9.09112 8.10744 10.1543V10.1526C7.04424 11.2219 6.44921 12.6696 6.45314 14.1775C6.45708 15.6854 7.05967 17.1301 8.12844 18.1938L16.3657 26.4346C16.5298 26.5986 16.7523 26.6908 16.9843 26.6908C17.2163 26.6908 17.4389 26.5986 17.6029 26.4346L25.7982 18.2446C26.8606 17.1751 27.455 15.7276 27.4507 14.2201C27.4465 12.7126 26.8439 11.2685 25.7754 10.2051C25.2483 9.67497 24.6219 9.25392 23.9321 8.96596C23.2422 8.67801 22.5023 8.5288 21.7548 8.52685C21.0072 8.5249 20.2666 8.67025 19.5752 8.9546C18.8839 9.23895 18.2553 9.65673 17.7254 10.1841L16.9432 10.9681L16.1487 10.1753C15.0849 9.10655 13.6403 8.50396 12.1324 8.50002Z" fill="white"/>
</svg>
