<svg width="33" height="32" viewBox="0 0 33 32" fill="none" xmlns="http://www.w3.org/2000/svg">
<circle cx="16.9512" cy="16" r="15.5" stroke="#918AE3"/>
<mask id="path-2-inside-1_7575_41472" fill="white">
<path fill-rule="evenodd" clip-rule="evenodd" d="M12.1324 8.00002C10.6245 7.99608 9.17675 8.59112 8.10744 9.65431V9.65256C7.04424 10.7219 6.44921 12.1696 6.45314 13.6775C6.45708 15.1854 7.05967 16.6301 8.12844 17.6938L16.3657 25.9346C16.5298 26.0986 16.7523 26.1908 16.9843 26.1908C17.2163 26.1908 17.4389 26.0986 17.6029 25.9346L25.7982 17.7446C26.8606 16.6751 27.455 15.2276 27.4507 13.7201C27.4465 12.2126 26.8439 10.7685 25.7754 9.70506C25.2483 9.17497 24.6219 8.75392 23.9321 8.46596C23.2422 8.17801 22.5023 8.0288 21.7548 8.02685C21.0072 8.0249 20.2666 8.17025 19.5752 8.4546C18.8839 8.73895 18.2553 9.15673 17.7254 9.68406L16.9432 10.4681L16.1487 9.67531C15.0849 8.60655 13.6403 8.00396 12.1324 8.00002Z"/>
</mask>
<path d="M8.10744 9.65431H6.90744V12.5397L8.95353 10.5053L8.10744 9.65431ZM8.10744 9.65256H9.30744V6.74372L7.25648 8.80647L8.10744 9.65256ZM6.45314 13.6775L7.65314 13.6744L6.45314 13.6775ZM8.12844 17.6938L8.97715 16.8455L8.97497 16.8433L8.12844 17.6938ZM16.3657 25.9346L15.517 26.7829L15.5173 26.7832L16.3657 25.9346ZM17.6029 25.9346L16.7547 25.0858L16.7545 25.0859L17.6029 25.9346ZM25.7982 17.7446L26.6465 18.5934L26.6495 18.5903L25.7982 17.7446ZM25.7754 9.70506L24.9245 10.5512L24.9289 10.5556L25.7754 9.70506ZM19.5752 8.4546L20.0317 9.5644L19.5752 8.4546ZM17.7254 9.68406L16.8789 8.8335L16.876 8.83648L17.7254 9.68406ZM16.9432 10.4681L16.0956 11.3175L16.9451 12.1651L17.7927 11.3156L16.9432 10.4681ZM16.1487 9.67531L15.2982 10.5218L15.3011 10.5248L16.1487 9.67531ZM8.95353 10.5053C9.79723 9.6664 10.9395 9.19691 12.1293 9.20002L12.1355 6.80002C10.3095 6.79525 8.55627 7.51584 7.26135 8.80336L8.95353 10.5053ZM6.90744 9.65256V9.65431H9.30744V9.65256H6.90744ZM7.65314 13.6744C7.65003 12.4846 8.11952 11.3424 8.9584 10.4987L7.25648 8.80647C5.96896 10.1014 5.24838 11.8546 5.25315 13.6807L7.65314 13.6744ZM8.97497 16.8433C8.1317 16.004 7.65625 14.8642 7.65314 13.6744L5.25315 13.6807C5.25792 15.5067 5.98765 17.2562 7.28191 18.5443L8.97497 16.8433ZM17.2144 25.0862L8.97715 16.8455L7.27973 18.5422L15.517 26.7829L17.2144 25.0862ZM16.9843 24.9908C17.0705 24.9908 17.1531 25.025 17.2141 25.0859L15.5173 26.7832C15.9064 27.1722 16.4341 27.3908 16.9843 27.3908V24.9908ZM16.7545 25.0859C16.8155 25.025 16.8981 24.9908 16.9843 24.9908V27.3908C17.5345 27.3908 18.0622 27.1722 18.4513 26.7832L16.7545 25.0859ZM24.9499 16.8958L16.7547 25.0858L18.4512 26.7834L26.6464 18.5934L24.9499 16.8958ZM26.2507 13.7235C26.2541 14.9129 25.7851 16.055 24.9469 16.8988L26.6495 18.5903C27.9361 17.2952 28.6559 15.5423 28.6507 13.7167L26.2507 13.7235ZM24.9289 10.5556C25.7719 11.3947 26.2474 12.5341 26.2507 13.7235L28.6507 13.7167C28.6456 11.8912 27.9159 10.1424 26.622 8.85454L24.9289 10.5556ZM23.4698 9.57337C24.0142 9.8006 24.5086 10.1329 24.9245 10.5512L26.6264 8.85894C25.9881 8.21706 25.2296 7.70723 24.3943 7.35856L23.4698 9.57337ZM21.7517 9.22684C22.3416 9.22838 22.9254 9.34613 23.4698 9.57337L24.3943 7.35856C23.559 7.00989 22.6631 6.82921 21.7579 6.82685L21.7517 9.22684ZM20.0317 9.5644C20.5773 9.34001 21.1617 9.2253 21.7517 9.22684L21.7579 6.82685C20.8527 6.82449 19.9559 7.00049 19.1188 7.3448L20.0317 9.5644ZM18.5719 10.5346C18.9901 10.1185 19.4861 9.78879 20.0317 9.5644L19.1188 7.3448C18.2816 7.68911 17.5205 8.19498 16.8789 8.83351L18.5719 10.5346ZM17.7927 11.3156L18.5749 10.5316L16.876 8.83648L16.0937 9.62048L17.7927 11.3156ZM15.3011 10.5248L16.0956 11.3175L17.7908 9.6186L16.9963 8.82585L15.3011 10.5248ZM12.1293 9.20002C13.319 9.20312 14.4589 9.67857 15.2982 10.5218L16.9992 8.82879C15.711 7.53453 13.9616 6.80479 12.1355 6.80002L12.1293 9.20002Z" fill="#918AE3" mask="url(#path-2-inside-1_7575_41472)"/>
</svg>
