<svg width="30" height="30" viewBox="0 0 30 30" fill="none" xmlns="http://www.w3.org/2000/svg">
<path d="M28.909 16.6351C29.3433 16.0444 29.6781 15.0788 29.6781 14.273L29.678 14.2613C29.6547 13.2879 29.1845 12.4128 28.3539 11.7972C27.537 11.1918 26.4361 10.8718 25.1703 10.8718L19.4912 10.8728C19.8906 9.49464 20.0653 7.92586 19.9859 6.38127C19.8925 4.56581 19.4547 2.94946 18.7531 1.82994C18.3387 1.1689 17.8421 0.677622 17.2769 0.369598C16.8269 0.124381 16.347 0 15.8506 0C14.676 0 13.8131 0.522724 13.3555 1.5117C12.9849 2.31254 12.9849 3.22444 12.9849 3.52408C12.9849 6.07985 12.6199 7.17709 12.2112 8.15465C12.0562 8.44123 11.4683 9.12861 10.6586 9.74142C9.41024 10.6862 8.43288 10.8845 7.83282 10.8845H3.61144C2.76684 10.8845 2.00782 11.1974 1.41649 11.7894C0.704629 12.502 0.313225 13.5526 0.314456 14.7479L0.314486 14.7702L1.41226 26.5884C1.571 28.7563 2.72233 29.9507 4.65445 29.9516C4.7029 29.9521 5.55116 29.9598 6.18421 29.9598C6.44997 29.9598 6.81227 29.9583 7.02916 29.9514C7.7039 29.9297 8.22398 29.5355 8.64188 29.2188L8.74806 29.1383C8.84973 29.0611 8.98123 28.9613 9.0641 28.9146C9.13132 28.9466 9.22212 28.992 9.30079 29.0314C9.51519 29.1386 9.80882 29.2854 10.1288 29.4243C10.8939 29.7566 12.0023 29.9714 12.9525 29.9714H21.7848C23.3344 29.9714 24.5398 29.6707 25.3678 29.0778C26.2072 28.4766 26.6515 27.5728 26.6525 26.4636C26.6525 26.0644 26.5957 25.7438 26.4572 25.4249C27.7256 24.9313 28.4641 23.9712 28.4641 22.7716C28.4641 22.4188 28.3687 21.8946 28.1689 21.4706C28.4251 21.2968 28.6838 21.0628 28.9114 20.7931C29.4107 20.2015 29.6853 19.522 29.6847 18.8801C29.6847 17.9418 29.4185 17.1771 28.909 16.6351Z" fill="#918AE3"/>
<path d="M7.55879 11.7894V29.0314M28.909 16.6351C29.3433 16.0444 29.6781 15.0788 29.6781 14.273L29.678 14.2613C29.6547 13.2879 29.1845 12.4128 28.3539 11.7972C27.537 11.1918 26.4361 10.8718 25.1703 10.8718L19.4912 10.8728C19.8906 9.49464 20.0653 7.92586 19.9859 6.38127C19.8925 4.56581 19.4547 2.94946 18.7531 1.82994C18.3387 1.1689 17.8421 0.677622 17.2769 0.369598C16.8269 0.124381 16.347 0 15.8506 0C14.676 0 13.8131 0.522724 13.3555 1.5117C12.9849 2.31254 12.9849 3.22444 12.9849 3.52408C12.9849 6.07985 12.6199 7.17709 12.2112 8.15465C12.0562 8.44123 11.4683 9.12861 10.6586 9.74142C9.41024 10.6862 8.43288 10.8845 7.83282 10.8845H3.61144C2.76684 10.8845 2.00782 11.1974 1.41649 11.7894C0.704629 12.502 0.313225 13.5526 0.314456 14.7479L0.314486 14.7702L1.41226 26.5884C1.571 28.7563 2.72233 29.9507 4.65445 29.9516C4.7029 29.9521 5.55116 29.9598 6.18421 29.9598C6.44997 29.9598 6.81227 29.9583 7.02916 29.9514C7.7039 29.9297 8.22398 29.5355 8.64188 29.2188L8.74806 29.1383C8.84973 29.0612 8.98123 28.9613 9.0641 28.9146C9.13132 28.9466 9.22212 28.992 9.30079 29.0314C9.51519 29.1386 9.80882 29.2854 10.1288 29.4243C10.8939 29.7566 12.0023 29.9714 12.9525 29.9714H21.7848C23.3343 29.9714 24.5398 29.6707 25.3678 29.0778C26.2072 28.4766 26.6515 27.5728 26.6525 26.4636C26.6525 26.0644 26.5957 25.7438 26.4572 25.4249C27.7256 24.9313 28.4641 23.9712 28.4641 22.7716C28.4641 22.4188 28.3687 21.8946 28.1689 21.4706C28.4251 21.2968 28.6838 21.0628 28.9114 20.7931C29.4107 20.2015 29.6853 19.522 29.6847 18.8801C29.6847 17.9418 29.4185 17.1771 28.909 16.6351Z" stroke="white" stroke-width="2"/>
</svg>
