<svg width="17" height="15" viewBox="0 0 17 15" fill="none" xmlns="http://www.w3.org/2000/svg">
<g clip-path="url(#clip0_1265_799)">
<path d="M2.1431 1.83965C3.68411 0.255247 6.20575 0.252447 7.80435 1.80365L7.89035 1.88965L8.61649 2.62925L9.34224 1.89165C10.9078 0.282047 13.4298 0.227647 15.0058 1.75485L15.091 1.83965C16.6328 3.42405 16.6355 6.01565 15.1241 7.66125L14.0906 8.72005L8.93442 13.9852C8.84577 14.0642 8.73237 14.1075 8.6151 14.1073C8.49783 14.107 8.38459 14.0633 8.29622 13.984L4.81067 10.4412L4.15108 9.76725C4.10454 9.72122 4.06738 9.66612 4.04178 9.60517C4.01618 9.54422 4.00264 9.47865 4.00195 9.41226C4.00127 9.34588 4.01345 9.28002 4.03779 9.21853C4.06213 9.15703 4.09814 9.10114 4.14371 9.0541C4.18929 9.00707 4.24353 8.96983 4.30325 8.94457C4.36298 8.91931 4.427 8.90653 4.49159 8.90697C4.55617 8.90741 4.62002 8.92107 4.67942 8.94714C4.73881 8.97322 4.79256 9.01119 4.83752 9.05885L8.61454 12.9064L14.3528 7.04205C15.5701 5.79085 15.5899 3.76605 14.4034 2.54685C13.2422 1.35325 11.3308 1.34685 10.1073 2.52205L10.0283 2.60045L8.95854 3.68845C8.87393 3.77459 8.76152 3.82584 8.6426 3.83247C8.52368 3.83911 8.40653 3.80067 8.31334 3.72445L8.27404 3.68845L7.2039 2.59845C5.98705 1.34725 4.01721 1.32725 2.83111 2.54645C1.86915 3.53565 1.68236 5.08485 2.35246 6.32245C2.41511 6.4384 2.43038 6.57518 2.39491 6.70271C2.35944 6.83023 2.27614 6.93805 2.16334 7.00245C2.05053 7.06684 1.91746 7.08254 1.7934 7.04608C1.66934 7.00962 1.56444 6.924 1.5018 6.80805C0.623892 5.18605 0.869441 3.14925 2.1431 1.83965Z" fill="#918AE3"/>
<path d="M8.12106 4.89346C8.25337 4.45186 8.83786 4.42026 9.02348 4.82026L9.04372 4.87026L9.96988 7.50827H11.2852C11.537 7.50827 11.7444 7.70507 11.7693 7.95747L11.7716 8.00827C11.7717 8.13205 11.727 8.25146 11.6464 8.34338C11.5657 8.4353 11.4548 8.4932 11.335 8.50587L11.2852 8.50827H9.62821C9.53684 8.50828 9.44731 8.48183 9.36989 8.43195C9.29246 8.38208 9.23026 8.3108 9.19043 8.22627L9.17097 8.17827L8.62345 6.61907L7.71519 9.66107C7.59066 10.0771 7.05365 10.1371 6.83884 9.78187L6.81354 9.73507L5.77648 7.56907L5.26281 8.28387C5.22275 8.33958 5.17187 8.38612 5.11339 8.42055C5.05491 8.45498 4.99011 8.47654 4.92309 8.48387L4.87211 8.48667H0.57715C0.452104 8.48716 0.331678 8.43813 0.240872 8.34976C0.150066 8.26139 0.0958566 8.14047 0.0894972 8.0121C0.0831378 7.88373 0.125117 7.75778 0.20672 7.66038C0.288323 7.56299 0.403281 7.50164 0.527729 7.48907L0.57715 7.48667L4.62656 7.48627L5.46945 6.31427C5.51635 6.24896 5.57802 6.19638 5.64912 6.16106C5.72022 6.12573 5.79862 6.10874 5.87754 6.11153C5.95646 6.11433 6.03353 6.13683 6.1021 6.1771C6.17067 6.21737 6.22866 6.2742 6.27108 6.34267L6.29715 6.39067L7.14471 8.16187L8.12145 4.89346H8.12106Z" fill="#918AE3"/>
</g>
<defs>
<clipPath id="clip0_1265_799">
<rect width="16.3333" height="14" fill="white" transform="translate(0 0.5)"/>
</clipPath>
</defs>
</svg>
