<svg width="23" height="22" viewBox="0 0 23 22" fill="none" xmlns="http://www.w3.org/2000/svg">
<circle cx="11.5" cy="11" r="11" fill="white"/>
<path d="M11.176 5.22989C13.0829 3.79776 15.823 3.93539 17.5698 5.64314C18.5298 6.58139 19.0338 7.84626 18.9985 9.14939C18.9945 9.29857 18.9313 9.44005 18.823 9.54269C18.7147 9.64533 18.57 9.70073 18.4208 9.6967C18.2716 9.69267 18.1302 9.62955 18.0275 9.52121C17.9249 9.41287 17.8695 9.2682 17.8735 9.11901C17.9009 8.12676 17.5173 7.16526 16.7834 6.44751C15.3205 5.01764 12.9434 5.01764 11.4809 6.44751C11.3758 6.55024 11.2347 6.60776 11.0877 6.60776C10.9407 6.60776 10.7996 6.55024 10.6945 6.44751C9.23201 5.01764 6.85488 5.01764 5.39201 6.44751C4.02551 7.78364 4.05363 9.94026 5.37026 11.5775C6.51213 12.9984 8.86338 15.2278 10.1324 16.2331C10.6146 16.6153 11.1539 16.7184 11.5949 16.5403L11.6639 16.5099C11.798 16.4473 11.9513 16.44 12.0907 16.4897C12.2301 16.5393 12.3443 16.6419 12.4086 16.7752C12.4728 16.9085 12.482 17.0617 12.4341 17.2017C12.3861 17.3417 12.285 17.4572 12.1525 17.5231C11.2893 17.9394 10.2633 17.7721 9.43376 17.1148C8.10401 16.0614 5.69463 13.7765 4.49351 12.2825C2.83376 10.2189 2.79738 7.41126 4.60601 5.64314C6.35238 3.93539 9.09251 3.79776 10.9998 5.22989L11.0875 5.29776L11.176 5.22989Z" fill="#FF6C90"/>
<path d="M15.6111 11.336C16.0696 10.8805 16.6897 10.6248 17.3359 10.6248C17.9822 10.6248 18.6023 10.8805 19.0608 11.336C19.9983 12.269 19.9469 13.718 19.1039 14.7241L18.9621 14.8898C18.4424 15.4861 17.6714 16.2534 16.6495 17.1924L16.3506 17.465C15.9423 17.8715 15.3273 17.8175 14.8724 17.465L14.7843 17.3952L14.6613 17.2932C14.0575 16.7859 12.8039 15.6297 12.124 14.7293C11.3496 13.7041 11.2225 12.2708 12.1623 11.3356C12.6207 10.8802 13.2407 10.6246 13.8869 10.6246C14.5331 10.6246 15.153 10.8802 15.6115 11.3356L15.6111 11.336Z" fill="#FF6C90"/>
</svg>
