<svg width="32" height="40" viewBox="0 0 32 40" fill="none" xmlns="http://www.w3.org/2000/svg">
<path d="M28.0888 15.7683H3.7986C1.70058 15.7683 0 17.4654 0 19.5594V35.6409C0 37.735 1.70058 39.432 3.7986 39.432H28.0888C30.1869 39.432 31.8879 37.735 31.8879 35.6409V19.5594C31.8879 17.4654 30.1868 15.7683 28.0888 15.7683ZM17.5435 27.4914V31.7124C17.5435 32.5956 16.8278 33.3124 15.9437 33.3124C15.0601 33.3124 14.3439 32.5956 14.3439 31.7124V27.4914C13.3886 26.938 12.744 25.9066 12.744 24.7228C12.744 22.9555 14.1764 21.5231 15.9437 21.5231C17.711 21.5231 19.1439 22.9555 19.1439 24.7228C19.1439 25.9066 18.4998 26.938 17.5435 27.4914ZM15.9437 0.567871C9.75842 0.567871 4.74387 5.51172 4.74387 12.0073V16.9752L27.1441 18.0417V12.0073C27.1441 5.51172 22.1295 0.567871 15.9437 0.567871ZM7.94552 16.6945V11.896C7.94552 7.47943 11.5266 3.89784 15.9436 3.89784C20.3612 3.89784 23.9418 7.47943 23.9418 11.896V16.8068L7.94552 16.6945Z" fill="#918AE3" fill-opacity="0.5"/>
</svg>
