<svg width="22" height="22" viewBox="0 0 22 22" fill="none" xmlns="http://www.w3.org/2000/svg">
<circle cx="11" cy="11" r="11" fill="white"/>
<path d="M8.91094 9.29375C8.44336 9.22949 8.0127 9.01621 7.67363 8.67715C7.26211 8.26562 7.03516 7.71875 7.03516 7.13633C7.03516 6.55391 7.26211 6.00703 7.67363 5.59551C8.08516 5.18398 8.63203 4.95703 9.21445 4.95703C9.79688 4.95703 10.3438 5.18398 10.7553 5.59551C11.0957 5.93594 11.309 6.36934 11.3732 6.83828C11.5715 6.79863 11.7766 6.77813 11.9857 6.77813C12.1033 6.77813 12.2182 6.78496 12.3316 6.79727C12.1635 5.225 10.8318 4 9.21445 4C7.48223 4 6.07812 5.4041 6.07812 7.13633C6.07812 8.18086 6.58945 9.10645 7.37422 9.67656C7.86504 9.48379 8.37773 9.36621 8.90547 9.32656C8.90684 9.31562 8.90957 9.30469 8.91094 9.29375Z" fill="#F6A151" stroke="#F6A151" stroke-width="0.5"/>
<path d="M8.90547 9.3252C8.3791 9.36484 7.86641 9.48242 7.37422 9.6752C7.33184 9.6916 7.28945 9.70937 7.24707 9.72715C6.61406 9.99512 6.04531 10.3779 5.55723 10.866C5.06914 11.3541 4.68633 11.9229 4.41836 12.5559C4.14082 13.2121 4 13.9094 4 14.6271H4.95703C4.95703 12.3727 6.67559 10.5146 8.87266 10.2904C8.85762 10.1674 8.85078 10.0416 8.85078 9.91582C8.84941 9.71348 8.86855 9.5166 8.90547 9.3252Z" fill="#F6A151" stroke="#F6A151" stroke-width="0.5"/>
<path d="M11.0396 12.05C10.6281 11.6384 10.4012 11.0916 10.4012 10.5091C10.4012 9.92671 10.6281 9.37983 11.0396 8.96831C11.4512 8.55679 11.998 8.32983 12.5805 8.32983C13.1629 8.32983 13.7098 8.55679 14.1213 8.96831C14.5328 9.37983 14.7598 9.92671 14.7598 10.5091C14.7598 11.0916 14.5328 11.6384 14.1213 12.05C13.7453 12.4259 13.2559 12.6474 12.7295 12.683C13.3352 12.6884 13.9258 12.7937 14.4891 12.9974C15.2355 12.4246 15.7168 11.5222 15.7168 10.5091C15.7168 8.7769 14.3127 7.3728 12.5805 7.3728C10.8482 7.3728 9.44414 8.7769 9.44414 10.5091C9.44414 11.5537 9.95547 12.4792 10.7402 13.0494C11.2994 12.8292 11.8859 12.7076 12.4902 12.6871C11.942 12.6638 11.4307 12.441 11.0396 12.05ZM12.4971 13.6441C12.5244 13.6455 12.5531 13.6455 12.5805 13.6455C12.6365 13.6455 12.6939 13.6441 12.7486 13.6414C12.7268 13.6414 12.7049 13.64 12.683 13.64C12.6201 13.64 12.5586 13.6414 12.4971 13.6441Z" fill="#F6A151" stroke="#F6A151" stroke-width="0.5"/>
<path d="M17.5816 15.9301C17.3137 15.297 16.9309 14.7283 16.4428 14.2402C15.9547 13.7521 15.3859 13.3693 14.7529 13.1013C14.6654 13.0644 14.5779 13.0302 14.4891 12.9974C13.9258 12.7937 13.3352 12.6885 12.7295 12.683H12.683C12.6187 12.683 12.5545 12.6844 12.4902 12.6871C11.8859 12.709 11.2994 12.8306 10.7402 13.0494C10.6978 13.0658 10.6555 13.0836 10.6131 13.1013C9.98008 13.3693 9.41133 13.7521 8.92324 14.2402C8.43515 14.7283 8.05234 15.297 7.78437 15.9301C7.50683 16.5863 7.36601 17.2822 7.36601 18H8.32304C8.32304 15.658 10.1783 13.7426 12.4971 13.6441C12.5586 13.6414 12.6215 13.64 12.683 13.64C12.7049 13.64 12.7268 13.64 12.7486 13.6414C15.1221 13.6769 17.0416 15.6183 17.0416 18H17.9986C18 17.2822 17.8592 16.5863 17.5816 15.9301Z" fill="#F6A151" stroke="#F6A151" stroke-width="0.5"/>
</svg>
