<svg width="24" height="24" viewBox="0 0 24 24" fill="none" xmlns="http://www.w3.org/2000/svg">
<path d="M16.1117 7.79619C17.0206 6.89245 18.0049 5.53598 18.0049 4.10424C18.0049 3.27577 17.7773 2.59782 17.2476 2.0704C16.2634 1.09082 14.5219 1.09082 12.5535 1.09082H11.1154C9.22222 1.09082 7.70827 1.09082 6.72406 1.99514C6.19432 2.52198 5.9668 3.20051 5.9668 4.10424C5.9668 5.61124 6.95101 6.89245 7.78412 7.79619C4.45285 9.52898 2.18164 12.9951 2.18164 16.536C2.18164 23.0908 8.84417 23.0908 12.0237 23.0908C15.2033 23.0908 21.8659 23.0908 21.8659 16.536C21.8659 12.9199 19.5188 9.52898 16.1117 7.79619Z" fill="#C8C4F1" stroke="white" stroke-width="1.5"/>
<path d="M12.0976 11.0828C11.2836 11.0828 10.6456 11.3138 10.1836 11.7868C9.72156 12.2488 9.49056 12.8758 9.49056 13.6788H10.6456C10.6456 13.1948 10.7446 12.8208 10.9426 12.5568C11.1626 12.2378 11.5256 12.0838 12.0206 12.0838C12.4166 12.0838 12.7356 12.1938 12.9556 12.4138C13.1646 12.6338 13.2746 12.9308 13.2746 13.3158C13.2746 13.6018 13.1646 13.8658 12.9666 14.1188L12.7796 14.3278C12.0976 14.9328 11.6796 15.3838 11.5366 15.6918C11.3826 15.9778 11.3166 16.3298 11.3166 16.7368V16.9238H12.4936V16.7368C12.4936 16.4728 12.5486 16.2308 12.6696 16.0108C12.7686 15.8128 12.9226 15.6148 13.1316 15.4388C13.6486 14.9878 13.9566 14.7018 14.0556 14.5808C14.3306 14.2288 14.4736 13.7778 14.4736 13.2388C14.4736 12.5788 14.2536 12.0508 13.8136 11.6658C13.3736 11.2698 12.8016 11.0828 12.0976 11.0828ZM11.8996 17.5178C11.6796 17.5178 11.4816 17.5838 11.3276 17.7378C11.1736 17.8808 11.0966 18.0678 11.0966 18.2988C11.0966 18.5188 11.1736 18.7058 11.3276 18.8598C11.4816 19.0138 11.6796 19.0908 11.8996 19.0908C12.1196 19.0908 12.3176 19.0138 12.4716 18.8708C12.6256 18.7168 12.7136 18.5298 12.7136 18.2988C12.7136 18.0678 12.6366 17.8808 12.4826 17.7378C12.3286 17.5838 12.1306 17.5178 11.8996 17.5178Z" fill="white"/>
</svg>
