<svg width="17" height="16" viewBox="0 0 17 16" fill="none" xmlns="http://www.w3.org/2000/svg">
<circle cx="8.5" cy="8" r="8" fill="#918AE3"/>
<path d="M8.404 2.808C6.878 2.808 5.674 3.298 4.806 4.306C3.966 5.258 3.56 6.49 3.56 8.016C3.56 9.528 3.966 10.76 4.806 11.712C5.674 12.692 6.878 13.196 8.404 13.196C9.44 13.196 10.322 12.972 11.064 12.524C11.428 13.014 11.792 13.532 12.17 14.078L13.15 13.21C12.786 12.678 12.408 12.174 12.044 11.684C12.856 10.732 13.262 9.514 13.262 8.016C13.262 6.476 12.842 5.23 12.002 4.292C11.12 3.298 9.916 2.808 8.404 2.808ZM8.404 4.152C9.468 4.152 10.294 4.488 10.868 5.188C11.428 5.874 11.722 6.812 11.722 8.016C11.722 9.038 11.512 9.864 11.092 10.508C10.588 9.92 10.084 9.346 9.58 8.814L8.698 9.682C9.188 10.2 9.692 10.774 10.196 11.404C9.706 11.698 9.104 11.852 8.404 11.852C7.34 11.852 6.514 11.488 5.926 10.788C5.366 10.102 5.086 9.178 5.086 8.016C5.086 6.84 5.366 5.916 5.926 5.23C6.514 4.502 7.34 4.152 8.404 4.152Z" fill="white"/>
</svg>
