<svg width="22" height="22" viewBox="0 0 22 22" fill="none" xmlns="http://www.w3.org/2000/svg">
<path d="M14.537 7.03483C15.3551 6.22147 16.2409 5.00064 16.2409 3.71208C16.2409 2.96645 16.0361 2.3563 15.5594 1.88162C14.6736 1 13.1062 1 11.3347 1H10.0404C8.33652 1 6.97397 1 6.08818 1.81388C5.61142 2.28804 5.40664 2.89872 5.40664 3.71208C5.40664 5.06838 6.29243 6.22147 7.04223 7.03483C4.04409 8.59434 2 11.7139 2 14.9006C2 20.8 7.99627 20.8 10.8579 20.8C13.7195 20.8 19.7158 20.8 19.7158 14.9006C19.7158 11.6461 17.6034 8.59434 14.537 7.03483ZM13.0974 12.7185C13.5064 12.7185 13.78 12.9889 13.78 13.3943C13.78 13.8002 13.5064 14.0706 13.0974 14.0706H11.7322V14.7469H13.0974C13.5064 14.7469 13.78 15.0174 13.78 15.4227C13.78 15.8286 13.5064 16.0991 13.0974 16.0991H11.7322V17.5189C11.7322 17.9248 11.4597 18.1953 11.0502 18.1953C10.6406 18.1953 10.3676 17.9243 10.3676 17.5189V16.0991H9.00295C8.59392 16.0991 8.32037 15.8286 8.32037 15.4227C8.32037 15.0174 8.59392 14.7469 9.00295 14.7469H10.3681V14.0706H9.00295C8.59392 14.0706 8.32037 13.7997 8.32037 13.3943C8.32037 12.9889 8.59392 12.7185 9.00295 12.7185H10.3681V12.3121L8.45741 10.4868C8.18437 10.2164 8.18437 9.81048 8.45741 9.54005C8.73044 9.26963 9.13998 9.26963 9.41249 9.54005L11.1184 11.1631L12.8243 9.54005C13.0974 9.26963 13.5069 9.26963 13.7794 9.54005C14.0525 9.811 14.0525 10.2164 13.7794 10.4868L11.7322 12.4475V12.7185H13.0974Z" fill="#918AE3"/>
<path d="M14.537 7.03483C15.3551 6.22147 16.2409 5.00064 16.2409 3.71208C16.2409 2.96645 16.0361 2.3563 15.5594 1.88162C14.6736 1 13.1062 1 11.3347 1H10.0404C8.33652 1 6.97397 1 6.08818 1.81388C5.61142 2.28804 5.40664 2.89872 5.40664 3.71208C5.40664 5.06838 6.29243 6.22147 7.04223 7.03483C4.04409 8.59434 2 11.7139 2 14.9006C2 20.8 7.99627 20.8 10.8579 20.8C13.7195 20.8 19.7158 20.8 19.7158 14.9006C19.7158 11.6461 17.6034 8.59434 14.537 7.03483Z" stroke="white" stroke-width="1.5"/>
<path d="M15.1535 6.90058C16.0771 6.03792 17.0771 4.74311 17.0771 3.37645C17.0771 2.58563 16.8459 1.9385 16.3076 1.43505C15.3076 0.5 13.5382 0.5 11.5382 0.5H10.0771C8.15353 0.5 6.61529 0.500001 5.61529 1.36321C5.07706 1.86611 4.84588 2.51379 4.84588 3.37645C4.84588 4.81495 5.84588 6.03792 6.69235 6.90058C3.30765 8.55461 1 11.8632 1 15.2431C1 21.5 7.76941 21.5 11 21.5C14.2306 21.5 21 21.5 21 15.2431C21 11.7914 18.6153 8.55461 15.1535 6.90058Z" stroke="#918AE3"/>
</svg>
