<svg width="28" height="24" viewBox="0 0 28 24" fill="none" xmlns="http://www.w3.org/2000/svg">
<g filter="url(#filter0_d_3151_1316)">
<path d="M19.8584 7.67427C20.7508 6.78697 21.7172 5.45516 21.7172 4.04945C21.7172 3.23604 21.4938 2.57042 20.9737 2.05259C20.0073 1.09082 18.2975 1.09082 16.3649 1.09082H14.9529C13.0942 1.09082 11.6078 1.09082 10.6415 1.97869C10.1214 2.49596 9.89798 3.16215 9.89798 4.04945C9.89798 5.52905 10.8643 6.78697 11.6823 7.67427C8.41156 9.37556 6.18164 12.7787 6.18164 16.2552C6.18164 22.6908 12.723 22.6908 15.8448 22.6908C18.9666 22.6908 25.508 22.6908 25.508 16.2552C25.508 12.7048 23.2036 9.37556 19.8584 7.67427Z" fill="#918AE3" stroke="white" stroke-width="1.5"/>
<path d="M16.0976 11.0828C15.2836 11.0828 14.6456 11.3138 14.1836 11.7868C13.7216 12.2488 13.4906 12.8758 13.4906 13.6788H14.6456C14.6456 13.1948 14.7446 12.8208 14.9426 12.5568C15.1626 12.2378 15.5256 12.0838 16.0206 12.0838C16.4166 12.0838 16.7356 12.1938 16.9556 12.4138C17.1646 12.6338 17.2746 12.9308 17.2746 13.3158C17.2746 13.6018 17.1646 13.8658 16.9666 14.1188L16.7796 14.3278C16.0976 14.9328 15.6796 15.3838 15.5366 15.6918C15.3826 15.9778 15.3166 16.3298 15.3166 16.7368V16.9238H16.4936V16.7368C16.4936 16.4728 16.5486 16.2308 16.6696 16.0108C16.7686 15.8128 16.9226 15.6148 17.1316 15.4388C17.6486 14.9878 17.9566 14.7018 18.0556 14.5808C18.3306 14.2288 18.4736 13.7778 18.4736 13.2388C18.4736 12.5788 18.2536 12.0508 17.8136 11.6658C17.3736 11.2698 16.8016 11.0828 16.0976 11.0828ZM15.8996 17.5178C15.6796 17.5178 15.4816 17.5838 15.3276 17.7378C15.1736 17.8808 15.0966 18.0678 15.0966 18.2988C15.0966 18.5188 15.1736 18.7058 15.3276 18.8598C15.4816 19.0138 15.6796 19.0908 15.8996 19.0908C16.1196 19.0908 16.3176 19.0138 16.4716 18.8708C16.6256 18.7168 16.7136 18.5298 16.7136 18.2988C16.7136 18.0678 16.6366 17.8808 16.4826 17.7378C16.3286 17.5838 16.1306 17.5178 15.8996 17.5178Z" fill="white"/>
</g>
<defs>
<filter id="filter0_d_3151_1316" x="0" y="0" width="32" height="32" filterUnits="userSpaceOnUse" color-interpolation-filters="sRGB">
<feFlood flood-opacity="0" result="BackgroundImageFix"/>
<feColorMatrix in="SourceAlpha" type="matrix" values="0 0 0 0 0 0 0 0 0 0 0 0 0 0 0 0 0 0 127 0" result="hardAlpha"/>
<feOffset dy="4"/>
<feGaussianBlur stdDeviation="2"/>
<feComposite in2="hardAlpha" operator="out"/>
<feColorMatrix type="matrix" values="0 0 0 0 0 0 0 0 0 0 0 0 0 0 0 0 0 0 0.25 0"/>
<feBlend mode="normal" in2="BackgroundImageFix" result="effect1_dropShadow_3151_1316"/>
<feBlend mode="normal" in="SourceGraphic" in2="effect1_dropShadow_3151_1316" result="shape"/>
</filter>
</defs>
</svg>
