<svg width="24" height="24" viewBox="0 0 24 24" fill="none" xmlns="http://www.w3.org/2000/svg">
<path d="M15.8584 7.67427C16.7508 6.78697 17.7172 5.45516 17.7172 4.04945C17.7172 3.23604 17.4938 2.57042 16.9737 2.05259C16.0073 1.09082 14.2975 1.09082 12.3649 1.09082H10.9529C9.09421 1.09082 7.60779 1.09082 6.64147 1.97869C6.12137 2.49596 5.89798 3.16215 5.89798 4.04945C5.89798 5.52905 6.86429 6.78697 7.68225 7.67427C4.41156 9.37556 2.18164 12.7787 2.18164 16.2552C2.18164 22.6908 8.72303 22.6908 11.8448 22.6908C14.9666 22.6908 21.508 22.6908 21.508 16.2552C21.508 12.7048 19.2036 9.37556 15.8584 7.67427Z" fill="#918AE3" stroke="white" stroke-width="1.5"/>
<path d="M12.0976 11.0828C11.2836 11.0828 10.6456 11.3138 10.1836 11.7868C9.72156 12.2488 9.49056 12.8758 9.49056 13.6788H10.6456C10.6456 13.1948 10.7446 12.8208 10.9426 12.5568C11.1626 12.2378 11.5256 12.0838 12.0206 12.0838C12.4166 12.0838 12.7356 12.1938 12.9556 12.4138C13.1646 12.6338 13.2746 12.9308 13.2746 13.3158C13.2746 13.6018 13.1646 13.8658 12.9666 14.1188L12.7796 14.3278C12.0976 14.9328 11.6796 15.3838 11.5366 15.6918C11.3826 15.9778 11.3166 16.3298 11.3166 16.7368V16.9238H12.4936V16.7368C12.4936 16.4728 12.5486 16.2308 12.6696 16.0108C12.7686 15.8128 12.9226 15.6148 13.1316 15.4388C13.6486 14.9878 13.9566 14.7018 14.0556 14.5808C14.3306 14.2288 14.4736 13.7778 14.4736 13.2388C14.4736 12.5788 14.2536 12.0508 13.8136 11.6658C13.3736 11.2698 12.8016 11.0828 12.0976 11.0828ZM11.8996 17.5178C11.6796 17.5178 11.4816 17.5838 11.3276 17.7378C11.1736 17.8808 11.0966 18.0678 11.0966 18.2988C11.0966 18.5188 11.1736 18.7058 11.3276 18.8598C11.4816 19.0138 11.6796 19.0908 11.8996 19.0908C12.1196 19.0908 12.3176 19.0138 12.4716 18.8708C12.6256 18.7168 12.7136 18.5298 12.7136 18.2988C12.7136 18.0678 12.6366 17.8808 12.4826 17.7378C12.3286 17.5838 12.1306 17.5178 11.8996 17.5178Z" fill="white"/>
<path d="M15.537 8.03483C16.3551 7.22147 17.2409 6.00064 17.2409 4.71208C17.2409 3.96645 17.0361 3.3563 16.5594 2.88162C15.6736 2 14.1062 2 12.3347 2H11.0404C9.33652 2 7.97397 2 7.08818 2.81388C6.61142 3.28804 6.40664 3.89872 6.40664 4.71208C6.40664 6.06838 7.29243 7.22147 8.04223 8.03483C5.04409 9.59434 3 12.7139 3 15.9006C3 21.8 8.99627 21.8 11.8579 21.8C14.7195 21.8 20.7158 21.8 20.7158 15.9006C20.7158 12.6461 18.6034 9.59434 15.537 8.03483Z" stroke="white" stroke-width="1.5"/>
<path d="M16.1535 7.90058C17.0771 7.03792 18.0771 5.74311 18.0771 4.37645C18.0771 3.58563 17.8459 2.9385 17.3076 2.43505C16.3076 1.5 14.5382 1.5 12.5382 1.5H11.0771C9.15353 1.5 7.61529 1.5 6.61529 2.36321C6.07706 2.86611 5.84588 3.51379 5.84588 4.37645C5.84588 5.81495 6.84588 7.03792 7.69235 7.90058C4.30765 9.55461 2 12.8632 2 16.2431C2 22.5 8.76941 22.5 12 22.5C15.2306 22.5 22 22.5 22 16.2431C22 12.7914 19.6153 9.55461 16.1535 7.90058Z" stroke="#918AE3"/>
</svg>
