<svg width="23" height="23" viewBox="0 0 23 23" fill="none" xmlns="http://www.w3.org/2000/svg">
<circle cx="11.5" cy="11.5" r="11" fill="white"/>
<path d="M18.1478 10.4091C17.8203 5.42116 15.9739 6.02272 15.9739 6.02272C15.9739 6.02272 13.4924 9.0957 7.71241 9.36473V13.6759C7.71241 13.6759 10.1688 13.8013 11.7663 14.2524C13.3638 14.7036 14.4365 14.9576 15.8937 16.2075C15.8937 16.2075 18.5138 15.9953 18.1478 10.4091ZM5.5 9.43826H7.0791V13.6442H5.5V9.43826ZM11.0427 16.388C10.4245 15.641 10.2356 14.6785 10.2356 14.6785H8.75345C8.75345 16.2075 10.1337 18.1375 10.4261 18.5252C10.7186 18.9129 11.0845 18.7391 11.925 18.5252C12.7639 18.3113 12.0821 17.4574 12.0821 17.4574C12.0821 17.4574 11.661 17.1349 11.0427 16.388Z" fill="#918AE3"/>
</svg>
