<svg width="37" height="37" viewBox="0 0 37 37" fill="none" xmlns="http://www.w3.org/2000/svg">
<path d="M30.9206 18.2962V29.6235C30.9206 31.9016 29.0679 33.7544 26.7897 33.7544H10.3788C8.10068 33.7544 6.24795 31.9016 6.24795 29.6235V18.2962C4.6167 18.0923 3.35107 16.6966 3.35107 15.0091V5.94577C3.35107 4.11765 4.83818 2.63405 6.66279 2.63405H30.5058C32.3339 2.63405 33.8175 4.12116 33.8175 5.94577V15.0091C33.8175 16.693 32.5519 18.0887 30.9206 18.2962ZM8.70889 29.6235C8.70889 30.5446 9.45772 31.2934 10.3788 31.2934H26.7897C27.7108 31.2934 28.4597 30.5446 28.4597 29.6235V18.3208H24.0511V15.2411C24.0511 15.1251 23.9562 15.0301 23.8401 15.0301H13.3319C13.2159 15.0301 13.121 15.1251 13.121 15.2411V18.3208H8.70889V29.6235ZM31.3565 5.94225C31.3565 5.47116 30.9733 5.09147 30.5058 5.09147H6.66279C6.1917 5.09147 5.81201 5.47468 5.81201 5.94225V15.0091C5.81201 15.4801 6.19522 15.8598 6.66279 15.8598H10.6601V15.2411C10.6601 13.768 11.8589 12.5692 13.3319 12.5692H23.8366C25.3097 12.5692 26.5085 13.768 26.5085 15.2411V15.8598H30.5023C30.9733 15.8598 31.353 15.4766 31.353 15.0091V5.94225H31.3565Z" fill="black" fill-opacity="0.3" stroke="#F3F4FB" stroke-width="0.3"/>
<path d="M18.5421 17.804L23.4851 22.7469L21.7448 24.4872L19.7304 22.4692V29.2579H17.2694V22.5571L15.3394 24.4872L13.5991 22.7469L16.8019 19.5442L18.5421 17.804Z" fill="black" fill-opacity="0.3" stroke="#F3F4FB" stroke-width="0.3"/>
</svg>
